<?xml version="1.0" encoding="utf-8"?>
<!-- Generator: Adobe Illustrator 23.0.6, SVG Export Plug-In . SVG Version: 6.00 Build 0)  -->
<svg version="1.1"
	 id="svg2" xmlns:cc="http://creativecommons.org/ns#" xmlns:dc="http://purl.org/dc/elements/1.1/" xmlns:rdf="http://www.w3.org/1999/02/22-rdf-syntax-ns#" xmlns:svg="http://www.w3.org/2000/svg"
	 xmlns="http://www.w3.org/2000/svg" xmlns:xlink="http://www.w3.org/1999/xlink" x="0px" y="0px" viewBox="0 0 605.85 97.8"
	 style="enable-background:new 0 0 605.85 97.8;" xml:space="preserve">
<style type="text/css">
	.st0{clip-path:url(#SVGID_2_);}
</style>
<g id="g10" transform="matrix(1.3333333,0,0,-1.3333333,0,466.66667)">
	<g id="g12">
		<g>
			<defs>
				<rect id="SVGID_1_" x="-113.33" y="79.07" width="666.67" height="466.67"/>
			</defs>
			<clipPath id="SVGID_2_">
				<use xlink:href="#SVGID_1_"  style="overflow:visible;"/>
			</clipPath>
			<g id="g14" class="st0">
				<g id="g20" transform="translate(65.7197,160.4727)">
					<path id="path22" d="M-30,137.4c0,9.35-12.54,8.66-12.54,8.66h-11.64v-17.41h11.64C-37.66,128.65-30,129.84-30,137.4
						 M-42.54,157.7c0,0,11.54,0,11.54,8.66c0,9.35-11.54,8.85-11.54,8.85h-11.64V157.7H-42.54z M-18.36,137.11
						c0-19.1-19.5-20-24.18-20h-23.18v69.65h23.18c0,0,23.18,0.5,23.18-19.6c0-9.15-5.67-13.83-11.64-15.32
						C-17.86,149.14-18.36,137.11-18.36,137.11"/>
				</g>
				<g id="g24" transform="translate(114.5723,180.771)">
					<path id="path26" d="M-30,137.4h28.95v-11.54H-30v-17.41H4.82V96.81h-46.47v69.65H4.82v-11.64H-30V137.4z"/>
				</g>
				<g id="g28" transform="translate(186.0107,180.771)">
					<path id="path30" d="M-30,137.4h28.95v-11.54H-30V96.81h-11.64v69.65H4.83v-11.64H-30V137.4z"/>
				</g>
				<g id="g32" transform="translate(254.3633,184.9492)">
					<path id="path34" d="M-30,137.4c0-7.96,6.37-14.33,14.33-14.33c7.96,0,14.33,6.37,14.33,14.33c0,7.96-6.37,14.33-14.33,14.33
						C-23.63,151.73-30,145.36-30,137.4 M-38.95,104.17H7.01V92.63h-45.97V104.17z M-41.54,137.4c0,14.23,11.64,25.87,25.87,25.87
						c14.23,0,25.87-11.64,25.87-25.87c0-14.23-11.64-25.87-25.87-25.87C-29.9,111.53-41.54,123.18-41.54,137.4"/>
				</g>
				<g id="g36" transform="translate(356.3467,189.5264)">
					<path id="path38" d="M-30,137.4c0,8.66-11.64,8.66-11.64,8.66h-9.35l10.85-17.31C-37.06,129.05-30,130.54-30,137.4
						 M-46.52,117.11h-6.67V88.05h-11.64v40.6h11.04l-11.04,17.41v11.64h23.18c0,0,23.28,0,23.28-20.3
						c0-12.34-8.56-17.21-15.32-19.1l18.91-30.25h-13.63L-46.52,117.11z"/>
				</g>
				<g id="g40" transform="translate(410.4727,150.8213)">
					<path id="path42" d="M-30,137.4h8.16v-10.65H-49.8v10.65h8.16v48.36h-7.76v10.65h27.16v-10.65H-30V137.4z"/>
				</g>
				<g id="g44" transform="translate(440.5195,159.4775)">
					<path id="path46" d="M-30,137.4h11.64c0.2-5.77,4.97-8.66,10.15-8.66c5.37,0,10.15,3.48,10.15,8.96
						c0,5.87-5.47,9.45-10.15,9.65c-0.6,0-5.37,0-10.45,2.29c-7.26,3.38-11.34,9.55-11.34,17.81c0,13.23,10.55,21.29,21.79,21.29
						c12.04,0,21.29-8.16,21.49-20H1.74c-0.2,5.77-4.68,8.36-9.95,8.36c-5.47,0-10.15-3.18-10.15-9.65c0-5.77,4.98-8.86,10.15-8.86
						c0.5,0,5.37,0,10.35-2.29c7.36-3.38,11.34-10.35,11.34-18.61c0-13.33-10.45-20.6-21.69-20.6C-20.25,117.4-29.8,124.37-30,137.4
						"/>
				</g>
			</g>
		</g>
	</g>
</g>
</svg>
