<svg xmlns="http://www.w3.org/2000/svg" viewBox="0 0 250 188.19"><defs><style>.cls-1{fill:#bcaca8;}.cls-2{fill:#242425;}.cls-3{fill:#fff;}</style></defs><g id="Слой_2" data-name="Слой 2"><g id="_1" data-name="1"><path class="cls-1" d="M111.13,10a60,60,0,1,1-60,60,60.07,60.07,0,0,1,60-60m0-10a70,70,0,1,0,70,70,70,70,0,0,0-70-70Z"/><path d="M113,66.67a11.2,11.2,0,0,1-8.21-3.15,10.91,10.91,0,0,1-3.19-8.1,10.7,10.7,0,0,1,3.19-8A11.26,11.26,0,0,1,113,44.3a11.14,11.14,0,0,1,8.17,3.12,10.78,10.78,0,0,1,3.15,8,10.91,10.91,0,0,1-3.19,8.1A11.1,11.1,0,0,1,113,66.67Zm0-6a5.62,5.62,0,0,0,2.06-.37,4.62,4.62,0,0,0,1.64-1.07,4.57,4.57,0,0,0,1.07-1.65,5.76,5.76,0,0,0,.38-2.12,5,5,0,0,0-1.45-3.68A4.91,4.91,0,0,0,113,50.27a5.18,5.18,0,1,0,0,10.36ZM108.87,94,138,45.6h8L116.9,94Zm42.25-3.06a12.14,12.14,0,0,1-16.27,0,11.61,11.61,0,0,1,0-16,12.14,12.14,0,0,1,16.27,0,11.61,11.61,0,0,1,0,16ZM143,88a5.16,5.16,0,0,0,2.6-.66,4.55,4.55,0,0,0,1.82-1.82,5.17,5.17,0,0,0,.66-2.61,5.06,5.06,0,0,0-1.41-3.7A4.9,4.9,0,0,0,143,77.8a5.05,5.05,0,0,0-2.06.41,5.09,5.09,0,0,0-3.09,4.73,4.88,4.88,0,0,0,1.47,3.64A5.08,5.08,0,0,0,143,88Z"/><path class="cls-2" d="M83.56,51.3a4.63,4.63,0,0,1,4.57,4.56V84.14a4.63,4.63,0,0,1-4.57,4.56h-4a4.63,4.63,0,0,1-4.57-4.56V55.86a4.63,4.63,0,0,1,4.57-4.56h4m0-7h-4A11.6,11.6,0,0,0,67.94,55.86V84.14A11.6,11.6,0,0,0,79.51,95.7h4A11.6,11.6,0,0,0,95.13,84.14V55.86A11.6,11.6,0,0,0,83.56,44.3Z"/><path class="cls-2" d="M201.62,106.66,189.3,99.24a24.08,24.08,0,0,0-12.43-3.45H158.33a43.57,43.57,0,0,0-11.25,1.45L91.21,112.32a19.52,19.52,0,0,0-13.15,12.27L28.91,97.86a19.15,19.15,0,0,0-13.15-2.18,18,18,0,0,0-4.89,1.61,19.1,19.1,0,0,0-8.31,7.78A19.57,19.57,0,0,0,0,114.75a19.29,19.29,0,0,0,9.56,16.82l88.08,53a24.1,24.1,0,0,0,12.73,3.64h68.17a24.18,24.18,0,0,0,8.89-1.7l14.19-5.64v7.34H250V90.92H201.62Zm-17.75,70.78a14.46,14.46,0,0,1-5.32,1H110.37a14.49,14.49,0,0,1-7.7-2.22l-88.2-53a9.7,9.7,0,0,1-4.81-8.45,9.88,9.88,0,0,1,1.3-4.86A9.5,9.5,0,0,1,15.11,106a9,9,0,0,1,2.42-.78,9.59,9.59,0,0,1,1.85-.18,9.44,9.44,0,0,1,4.75,1.27l53.28,28.94c.07.3.07.59.14.89a19.42,19.42,0,0,0,18.71,14.39,45.93,45.93,0,0,0,8-1.43l50.26-13.52L152,126.22l-50.1,13.46c-2.21.51-5.05,1.09-5.64,1.14a9.68,9.68,0,0,1-9.35-7.16,9.13,9.13,0,0,1-.29-1.8s0-1.18,0-1.59a9.82,9.82,0,0,1,7.12-8.58l55.85-15a33.52,33.52,0,0,1,8.74-1.16h18.54a14.42,14.42,0,0,1,7.46,2.08L201.62,118v52.39Zm27.43-76.79h29v77.81h-29Z"/><path class="cls-3" d="M183.87,177.44a14.46,14.46,0,0,1-5.32,1H110.37a14.49,14.49,0,0,1-7.7-2.22l-88.2-53a9.7,9.7,0,0,1-4.81-8.45,9.88,9.88,0,0,1,1.3-4.86A9.5,9.5,0,0,1,15.11,106a9,9,0,0,1,2.42-.78,9.59,9.59,0,0,1,1.85-.18,9.44,9.44,0,0,1,4.75,1.27l53.28,28.94c.07.3.07.59.14.89a19.42,19.42,0,0,0,18.71,14.39,45.93,45.93,0,0,0,8-1.43l50.26-13.52L152,126.22l-50.1,13.46c-2.21.51-5.05,1.09-5.64,1.14a9.68,9.68,0,0,1-9.35-7.16,9.13,9.13,0,0,1-.29-1.8s0-1.18,0-1.59a9.82,9.82,0,0,1,7.12-8.58l55.85-15a33.52,33.52,0,0,1,8.74-1.16h18.54a14.42,14.42,0,0,1,7.46,2.08L201.62,118v52.39Z"/></g></g></svg>