<svg height="458pt" viewBox="0 -49 458.672 458" width="458pt" xmlns="http://www.w3.org/2000/svg"><path d="m165.316406 361.171875c-9.984375 0-19.347656-3.882813-26.386718-10.941406l-128-128c-14.574219-14.550781-14.574219-38.230469 0-52.800781l30.164062-30.164063c14.550781-14.574219 38.25-14.574219 52.800781 0l71.421875 71.421875 199.445313-199.421875c14.550781-14.574219 38.25-14.574219 52.800781 0l30.164062 30.164063c7.0625 7.0625 10.945313 16.425781 10.945313 26.390624 0 9.960938-3.882813 19.347657-10.945313 26.386719l-256 256c-7.058593 7.0625-16.425781 10.964844-26.410156 10.964844zm15.082032-22.25h.214843zm-112.914063-178.601563c-1.367187 0-2.730469.511719-3.777344 1.558594l-30.164062 30.164063c-2.09375 2.089843-2.09375 5.460937 0 7.550781l128 128c2.003906 2.027344 5.546875 2.027344 7.550781 0l256-256c2.089844-2.089844 2.089844-5.460938 0-7.550781l-30.164062-30.164063c-2.09375-2.09375-5.464844-2.09375-7.554688 0l-210.75 210.75c-6.25 6.25-16.386719 6.25-22.636719 0l-82.75-82.730468c-1.023437-1.066407-2.367187-1.578126-3.753906-1.578126zm0 0"/></svg>