<svg width="37" height="39" viewBox="0 0 37 39" fill="none" xmlns="http://www.w3.org/2000/svg">
<path d="M32.8889 0.000112709H4.11111C3.02078 0.000112709 3.61907e-06 8.18183e-05 3.61907e-06 8.18183e-05C3.61907e-06 8.18183e-05 3.39288e-07 3.18576 3.39288e-07 4.3356V34.684C3.39288e-07 35.8339 0 39.0194 0 39.0194C0 39.0194 3.02078 39.0195 4.11111 39.0195H32.8889C33.9792 39.0195 37 39.0194 37 39.0194C37 39.0194 37 35.8339 37 34.684V4.3356C37 3.18576 37 0 37 0C37 0 33.9792 0.000112709 32.8889 0.000112709ZM14.3889 30.3485L4.11111 19.5098L7.00945 16.4533L14.3889 24.2138L29.9906 7.76064L32.8889 10.8388L14.3889 30.3485Z" fill="#BDACA8"/>
</svg>
