<svg width="63" height="63" viewBox="0 0 63 63" fill="none" xmlns="http://www.w3.org/2000/svg">
<path d="M22.4301 20.6601V17.5785C22.3855 16.3372 22.5897 15.0996 23.0304 13.9395C23.471 12.7795 24.1391 11.7209 24.9948 10.8268C25.8504 9.93278 26.8761 9.22169 28.0105 8.736C29.1449 8.25032 30.3648 8 31.5973 8C32.8298 8 34.0497 8.25032 35.1841 8.736C36.3185 9.22169 37.3442 9.93278 38.1998 10.8268C39.0555 11.7209 39.7236 12.7795 40.1642 13.9395C40.6049 15.0996 40.809 16.3372 40.7645 17.5785V20.6601" stroke="#BDACA8" stroke-width="1.5" stroke-linejoin="round"/>
<path d="M40.2951 23.9706C39.9359 24.2807 39.4981 24.4839 39.0308 24.5575V19.6323C39.6186 19.7182 40.1562 20.0141 40.5454 20.4662C40.9347 20.9183 41.1497 21.4963 41.1512 22.0949C41.1514 22.4513 41.0749 22.8035 40.9271 23.1273C40.7793 23.4511 40.5637 23.7388 40.2951 23.9706V23.9706Z" stroke="#BDACA8" stroke-width="1.5" stroke-linejoin="round"/>
<path d="M22.0459 22.0669C22.0459 20.8866 23.0164 19.9232 24.1637 19.6553V24.5255C23.577 24.4394 23.0404 24.1439 22.6517 23.6926C22.263 23.2414 22.048 22.6645 22.0459 22.0669Z" stroke="#BDACA8" stroke-width="1.5" stroke-linejoin="round"/>
<path d="M24.1636 25.5985V19.0334C28.4471 19.2853 32.938 18.0031 36.566 15.6625C38.0019 17.2167 38.7796 18.0313 39.0308 18.3421V25.6012C39.027 27.5544 38.2554 29.4264 36.8849 30.8075C35.5145 32.1887 33.6569 32.9663 31.7189 32.9702C27.1921 32.9688 24.1636 29.4317 24.1636 25.5985Z" stroke="#BDACA8" stroke-width="1.5" stroke-linejoin="round"/>
<path d="M35.3283 31.9935V34.306C34.8785 34.8657 34.3103 35.317 33.6652 35.6271C33.0202 35.9371 32.3145 36.098 31.5998 36.098C30.8852 36.098 30.1795 35.9371 29.5345 35.6271C28.8894 35.317 28.3212 34.8657 27.8714 34.306L27.8647 34.298V31.9761" stroke="#BDACA8" stroke-width="1.5" stroke-linejoin="round"/>
<path d="M35.3257 34.2698L45.1929 38.1686C45.4243 38.2691 49.1946 39.964 49.1946 44.4657V54.5H14V44.4671C14 39.964 17.769 38.2691 18.0003 38.17L27.8569 34.2698" stroke="#BDACA8" stroke-width="1.5" stroke-linejoin="round"/>
</svg>
