<svg width="63" height="63" viewBox="0 0 63 63" fill="none" xmlns="http://www.w3.org/2000/svg">
<path fill-rule="evenodd" clip-rule="evenodd" d="M50.5923 15.35C50.5943 15.1257 50.5075 14.9097 50.3509 14.7491L41.8509 6.24905C41.691 6.09138 41.4745 6.00446 41.25 6.00765V6H15.75C14.3416 6 13.2 7.14166 13.2 8.55V54.45C13.2 55.8583 14.3416 57 15.75 57H48.05C49.4583 57 50.6 55.8583 50.6 54.45V15.35H50.5923ZM42.1 8.9019L47.6981 14.5H42.95C42.4805 14.5 42.1 14.1194 42.1 13.65V8.9019ZM48.9 54.45C48.9 54.9194 48.5194 55.3 48.05 55.3H15.75C15.2805 55.3 14.9 54.9194 14.9 54.45V8.55C14.9 8.08059 15.2805 7.7 15.75 7.7H40.4V13.65C40.4 15.0583 41.5416 16.2 42.95 16.2H48.9V54.45ZM21.6998 28.9501C20.2914 28.9501 19.1498 30.0918 19.1498 31.5001C19.1498 32.9085 20.2914 34.0501 21.6998 34.0501C23.1081 34.0501 24.2498 32.9085 24.2498 31.5001C24.2498 30.0918 23.1081 28.9501 21.6998 28.9501ZM21.6998 32.3501C21.2304 32.3501 20.8498 31.9695 20.8498 31.5001C20.8498 31.0307 21.2304 30.6501 21.6998 30.6501C22.1692 30.6501 22.5498 31.0307 22.5498 31.5001C22.5498 31.9695 22.1692 32.3501 21.6998 32.3501ZM27.65 30.6503H44.65V32.3503H27.65V30.6503ZM21.6998 20.4499C20.2914 20.4499 19.1498 21.5916 19.1498 22.9999C19.1498 24.4083 20.2914 25.5499 21.6998 25.5499C23.1081 25.5499 24.2498 24.4083 24.2498 22.9999C24.2498 21.5916 23.1081 20.4499 21.6998 20.4499ZM21.6998 23.8499C21.2304 23.8499 20.8498 23.4693 20.8498 22.9999C20.8498 22.5305 21.2304 22.1499 21.6998 22.1499C22.1692 22.1499 22.5498 22.5305 22.5498 22.9999C22.5498 23.4693 22.1692 23.8499 21.6998 23.8499ZM27.65 22.15H44.65V23.85H27.65V22.15ZM21.6998 37.4499C20.2914 37.4499 19.1498 38.5916 19.1498 39.9999C19.1498 41.4083 20.2914 42.5499 21.6998 42.5499C23.1081 42.5499 24.2498 41.4083 24.2498 39.9999C24.2498 38.5916 23.1081 37.4499 21.6998 37.4499ZM21.6998 40.8499C21.2304 40.8499 20.8498 40.4693 20.8498 39.9999C20.8498 39.5305 21.2304 39.1499 21.6998 39.1499C22.1692 39.1499 22.5498 39.5305 22.5498 39.9999C22.5498 40.4693 22.1692 40.8499 21.6998 40.8499ZM27.65 39.1498H44.65V40.8498H27.65V39.1498ZM21.6998 45.95C20.2914 45.95 19.1498 47.0917 19.1498 48.5C19.1498 49.9084 20.2914 51.05 21.6998 51.05C23.1081 51.05 24.2498 49.9084 24.2498 48.5C24.2498 47.0917 23.1081 45.95 21.6998 45.95ZM21.6998 49.35C21.2304 49.35 20.8498 48.9694 20.8498 48.5C20.8498 48.0306 21.2304 47.65 21.6998 47.65C22.1692 47.65 22.5498 48.0306 22.5498 48.5C22.5498 48.9694 22.1692 49.35 21.6998 49.35ZM27.65 47.65H44.65V49.35H27.65V47.65Z" fill="#BDACA8"/>
</svg>
