<svg width="60" height="57" viewBox="0 0 60 57" fill="none" xmlns="http://www.w3.org/2000/svg">
<path fill-rule="evenodd" clip-rule="evenodd" d="M29.9944 2.26511C24.2648 2.26511 18.7631 4.50883 14.6676 8.51566C10.5721 12.5225 8.20849 17.9738 8.08311 23.702L7.42601 23.6876V34.8557H3.3177C2.51866 34.8557 1.75235 34.5382 1.18735 33.9732C0.622347 33.4082 0.304932 32.6419 0.304932 31.8429V24.4671C0.304932 23.6681 0.622347 22.9017 1.18735 22.3367C1.75235 21.7717 2.51866 21.4543 3.3177 21.4543H6.31714C6.94015 16.0441 9.40226 10.9848 13.3268 7.14523C17.7806 2.78789 23.7636 0.3479 29.9944 0.3479C36.2251 0.3479 42.2082 2.78789 46.6619 7.14523C50.5798 10.9783 53.0403 16.027 53.6684 21.4269H56.7203V21.4543C57.5194 21.4543 58.2857 21.7717 58.8507 22.3367C59.4157 22.9017 59.7331 23.6681 59.7331 24.4671V31.8347C59.7331 32.6337 59.4157 33.4 58.8507 33.965C58.2857 34.53 57.5194 34.8474 56.7203 34.8474H53.7969C53.2979 42.0832 47.7759 47.8013 41.8148 50.9092L41.8132 50.9101C39.8988 51.9034 37.8822 52.6852 35.7991 53.242C35.6733 53.9574 35.3306 54.6226 34.81 55.1432C34.1422 55.8109 33.2366 56.186 32.2923 56.186H27.9238C26.9795 56.186 26.0738 55.8109 25.4061 55.1432C24.7384 54.4754 24.3632 53.5698 24.3632 52.6255C24.3632 51.6812 24.7384 50.7755 25.4061 50.1078C26.0738 49.4401 26.9795 49.065 27.9238 49.065H32.2923C33.2366 49.065 34.1422 49.4401 34.81 50.1078C35.1557 50.4536 35.423 50.8631 35.6004 51.3088C37.4438 50.7943 39.2297 50.0906 40.9293 49.2087C46.8552 46.1189 51.9163 40.5147 51.9163 33.782H52.612V23.6866L51.9056 23.702C51.7802 17.9738 49.4167 12.5225 45.3212 8.51566C41.2257 4.50883 35.7239 2.26511 29.9944 2.26511ZM56.7203 23.3633C57.0109 23.3633 57.2895 23.4788 57.495 23.6842C57.7005 23.8897 57.8159 24.1683 57.8159 24.4589V31.8347C57.8159 32.1252 57.7005 32.4039 57.495 32.6093C57.2895 32.8148 57.0109 32.9302 56.7203 32.9302H54.5292V23.3442H56.7203V23.3633ZM5.5088 32.9494V23.3715H3.3177C3.02714 23.3715 2.74848 23.487 2.54303 23.6924C2.33757 23.8979 2.22215 24.1765 2.22215 24.4671V31.8538C2.22215 32.1444 2.33757 32.4231 2.54303 32.6285C2.74848 32.834 3.02714 32.9494 3.3177 32.9494H5.5088ZM32.2923 50.9822C32.7281 50.9822 33.1461 51.1553 33.4543 51.4635C33.7625 51.7717 33.9356 52.1897 33.9356 52.6255C33.9356 53.0613 33.7625 53.4793 33.4543 53.7875C33.1461 54.0957 32.7281 54.2688 32.2923 54.2688H27.9238C27.4879 54.2688 27.07 54.0957 26.7618 53.7875C26.4536 53.4793 26.2804 53.0613 26.2804 52.6255C26.2804 52.1897 26.4536 51.7717 26.7618 51.4635C27.07 51.1553 27.4879 50.9822 27.9238 50.9822H32.2923Z" fill="#4A4B56"/>
<path d="M38.5068 26.4446C38.5068 27.579 37.5871 28.4987 36.4526 28.4987C35.3182 28.4987 34.3985 27.579 34.3985 26.4446C34.3985 25.3101 35.3182 24.3904 36.4526 24.3904C37.5871 24.3904 38.5068 25.3101 38.5068 26.4446Z" fill="#4A4B56"/>
<path d="M29.9944 28.4987C31.1288 28.4987 32.0485 27.579 32.0485 26.4446C32.0485 25.3101 31.1288 24.3904 29.9944 24.3904C28.8599 24.3904 27.9402 25.3101 27.9402 26.4446C27.9402 27.579 28.8599 28.4987 29.9944 28.4987Z" fill="#4A4B56"/>
<path d="M25.5903 26.4446C25.5903 27.579 24.6706 28.4987 23.5361 28.4987C22.4016 28.4987 21.4819 27.579 21.4819 26.4446C21.4819 25.3101 22.4016 24.3904 23.5361 24.3904C24.6706 24.3904 25.5903 25.3101 25.5903 26.4446Z" fill="#4A4B56"/>
<path fill-rule="evenodd" clip-rule="evenodd" d="M20.8604 12.3806C23.584 10.621 26.7585 9.68684 30.001 9.69085C30.0366 9.69089 30.0717 9.69289 30.1064 9.69675C32.4117 9.71317 34.6895 10.2033 36.7982 11.1371C38.9427 12.0868 40.8649 13.4744 42.4414 15.2108C44.0179 16.9473 45.2139 18.9942 45.9526 21.2202C46.6913 23.4461 46.9564 25.802 46.7308 28.1365C46.5052 30.4709 45.794 32.7325 44.6428 34.7758C43.4915 36.8192 41.9257 38.5992 40.0459 40.0017C38.1661 41.4042 36.0138 42.3981 33.7271 42.9196C31.5369 43.4191 29.2698 43.4746 27.0596 43.0841L15.7941 47.8472C15.456 47.9901 15.0661 47.9275 14.7898 47.6858C14.5135 47.4442 14.3994 47.0661 14.496 46.712L17.0739 37.2604C15.1171 34.9142 13.8346 32.0758 13.3695 29.0494C12.877 25.8445 13.3221 22.5655 14.6512 19.6078C15.9804 16.6502 18.1368 14.1402 20.8604 12.3806ZM19.0136 37.4349L16.8648 45.3129L26.5782 41.2061C26.7538 41.1318 26.9477 41.1116 27.1349 41.1481C29.1745 41.5457 31.2748 41.5124 33.3008 41.0503C35.3269 40.5883 37.2339 39.7077 38.8995 38.465C40.565 37.2224 41.9524 35.6452 42.9724 33.8347C43.9924 32.0243 44.6226 30.0205 44.8225 27.9521C45.0223 25.8837 44.7875 23.7963 44.133 21.824C43.4785 19.8517 42.4188 18.0381 41.0219 16.4996C39.6251 14.961 37.922 13.7315 36.0219 12.8901C34.1218 12.0487 32.0668 11.6138 29.9887 11.6135C29.955 11.6135 29.9217 11.6118 29.8888 11.6083C27.0543 11.6257 24.2829 12.452 21.9008 13.991C19.4879 15.5499 17.5775 17.7735 16.4 20.3937C15.2225 23.0139 14.8281 25.9189 15.2645 28.7582C15.7008 31.5975 16.9493 34.25 18.8593 36.3957C19.1103 36.6778 19.1724 37.0809 19.0179 37.4255L19.0136 37.4349Z" fill="#4A4B56"/>
</svg>
