<svg xmlns="http://www.w3.org/2000/svg" viewBox="0 0 400 400"><defs><style>.cls-1{fill:none;stroke:#bdaca8;stroke-miterlimit:10;stroke-width:7px;}</style></defs><g id="_1" data-name="1"><path class="cls-1" d="M120.28,242.22a26.39,26.39,0,0,0,0-52.78A24.83,24.83,0,0,0,115,190V147.22a10.59,10.59,0,0,1,10.56-10.55h42.75a24.89,24.89,0,0,1-.53-5.28,26.39,26.39,0,0,1,52.78,0,24.89,24.89,0,0,1-.53,5.28h53.3V190a24.89,24.89,0,0,1,5.28-.53,26.39,26.39,0,0,1,0,52.78,24.89,24.89,0,0,1-5.28-.53V295H115V241.69A24.83,24.83,0,0,0,120.28,242.22Z"/></g></svg>