<svg width="41" height="57" viewBox="0 0 41 57" fill="none" xmlns="http://www.w3.org/2000/svg">
<path fill-rule="evenodd" clip-rule="evenodd" d="M11.1016 44.5715H29.4799V47.4473C29.4799 49.9193 28.5118 52.2899 26.7885 54.0379C25.0652 55.7858 22.7279 56.7677 20.2908 56.7677C17.8537 56.7677 15.5164 55.7858 13.7931 54.0379C12.0698 52.2899 11.1016 49.9193 11.1016 47.4473V44.5715ZM12.9918 46.4887V47.4473C12.9918 49.4108 13.7608 51.2938 15.1296 52.6822C16.4985 54.0705 18.355 54.8505 20.2908 54.8505C22.2266 54.8505 24.0831 54.0705 25.4519 52.6822C26.8207 51.2938 27.5897 49.4108 27.5897 47.4473V46.4887H12.9918Z" fill="#4A4B56"/>
<path fill-rule="evenodd" clip-rule="evenodd" d="M20.2908 1.99119C16.3456 1.99119 12.511 3.31313 9.38289 5.75152C6.25483 8.18992 4.00859 11.6082 2.99334 15.4749C1.97808 19.3417 2.2507 23.4403 3.7688 27.1337C5.2869 30.8271 7.96544 33.9083 11.3881 35.8985L11.3889 35.8989C11.8765 36.1831 12.2814 36.5928 12.5629 37.0866C12.8444 37.5804 12.9923 38.1408 12.9918 38.7112L12.0467 38.7103H12.9918V38.7112V40.014H27.587V38.7098C27.5873 38.1394 27.7359 37.5791 28.0179 37.0855C28.3 36.5919 28.7054 36.1825 29.1932 35.8986L29.1935 35.8985C32.6161 33.9083 35.2946 30.8271 36.8127 27.1337C38.3308 23.4403 38.6035 19.3417 37.5882 15.4749C36.5729 11.6082 34.3267 8.18992 31.1986 5.75152C28.0706 3.31313 24.2359 1.99119 20.2908 1.99119ZM8.23106 4.23139C11.6894 1.53551 15.929 0.0739746 20.2908 0.0739746C24.6525 0.0739746 28.8921 1.53551 32.3505 4.23139C35.8088 6.92727 38.2923 10.7065 39.4147 14.9815C40.5372 19.2566 40.2358 23.788 38.5574 27.8714C36.879 31.9547 33.9177 35.3613 30.1338 37.5616C29.9344 37.6777 29.7686 37.845 29.6534 38.0468C29.5381 38.2485 29.4773 38.4776 29.4772 38.7108V41.9312H11.1016V38.7095C11.1018 38.4766 11.0414 38.2478 10.9265 38.0462C10.8118 37.8448 10.6467 37.6778 10.448 37.5618C6.66393 35.3615 3.70254 31.9548 2.02413 27.8714C0.345725 23.788 0.0443268 19.2566 1.16679 14.9815C2.28925 10.7065 4.77268 6.92727 8.23106 4.23139Z" fill="#4A4B56"/>
<path d="M17.1403 27.9786C16.3047 27.1311 15.8353 25.9817 15.8353 24.7831H13.9451C13.9451 26.4901 14.6136 28.1273 15.8037 29.3343C16.7687 30.3131 18.0124 30.9441 19.3457 31.1477V40.9726H21.2359V31.1477C22.5691 30.9441 23.8129 30.3131 24.7779 29.3343C25.9679 28.1273 26.6365 26.4901 26.6365 24.7831H24.7463C24.7463 25.9817 24.2769 27.1311 23.4413 27.9786C22.6057 28.8261 21.4724 29.3023 20.2908 29.3023C19.1091 29.3023 17.9758 28.8261 17.1403 27.9786Z" fill="#4A4B56"/>
</svg>
