<svg width="56" height="53" viewBox="0 0 56 53" fill="none" xmlns="http://www.w3.org/2000/svg">
<path fill-rule="evenodd" clip-rule="evenodd" d="M32.9951 2.67814L37.8922 7.60812H55.0157V31.4692H16.6714V19.7523C14.8144 19.6853 13.0126 19.103 11.4676 18.0706L10.9198 17.7036H9.36683V20.4562H0.238159V0.26517H9.36683V2.0208L10.2953 2.05367C10.7531 2.0747 11.2089 1.98055 11.621 1.77978L13.6669 0.749957C14.2999 0.431536 14.9987 0.265538 15.7073 0.26517H27.186C28.2659 0.262061 29.3357 0.473796 30.333 0.888038C31.3303 1.30228 32.2352 1.9108 32.9951 2.67814ZM2.06499 18.6156H7.54274V2.1002H2.06499V18.6156ZM11.4676 15.8768L12.4727 16.5369L12.4837 16.5423C13.7315 17.372 15.1825 17.8446 16.6797 17.909V13.472C16.0068 13.2246 15.3787 12.8694 14.8199 12.4203L14.2722 11.9821L15.4225 10.5579L15.9511 10.9879C16.8266 11.6926 17.9208 12.0693 19.0445 12.0528C20.1683 12.0363 21.251 11.6276 22.1054 10.8975L22.7435 10.3497L28.1309 15.7645C28.3003 15.9355 28.5018 16.0712 28.7239 16.1639C28.9461 16.2565 29.1843 16.3042 29.425 16.3042C29.6657 16.3042 29.904 16.2565 30.1261 16.1639C30.3482 16.0712 30.5498 15.9355 30.7191 15.7645C31.0627 15.4186 31.2555 14.951 31.2555 14.4635C31.2555 13.976 31.0627 13.5084 30.7191 13.1625L24.2691 6.67689L25.5618 5.38141L27.7776 7.60812H35.3095L31.7051 3.98181C31.1143 3.38412 30.4105 2.90993 29.6346 2.5869C28.8588 2.26386 28.0264 2.0984 27.186 2.1002H15.7073C15.2815 2.10134 14.8616 2.20071 14.4803 2.39054L12.4371 3.42036C11.7532 3.76322 10.9942 3.92899 10.2296 3.90241L9.36683 3.86954V15.8768H11.4676ZM25.4662 15.6881C24.6306 16.7112 23.452 17.3963 22.1492 17.616V21.4504C23.2741 21.6462 24.3104 22.1868 25.1146 22.9974C25.9188 23.808 26.4513 24.8485 26.6382 25.975H45.0489C45.2379 24.8505 45.7713 23.8125 46.5753 23.004C47.3794 22.1955 48.4145 21.6565 49.538 21.4613V17.6269C48.4142 17.4325 47.3787 16.8938 46.5744 16.0852C45.7703 15.2765 45.2372 14.238 45.0489 13.1133H32.8226C33.0364 13.6457 33.1208 14.2211 33.0689 14.7925C33.017 15.3639 32.8303 15.9148 32.5241 16.3999C33.3371 15.5303 34.4554 15.0094 35.6442 14.9466C36.833 14.8838 38 15.2839 38.9002 16.063C39.8036 16.8443 40.3723 17.943 40.4885 19.1318C40.6047 20.3206 40.2597 21.5086 39.5246 22.4501C38.7911 23.3926 37.7199 24.0132 36.5374 24.1809C35.3549 24.3485 34.1535 24.05 33.1869 23.3484C32.2178 22.6522 31.553 21.6104 31.3297 20.4381C31.1065 19.2659 31.3419 18.0527 31.9872 17.049C31.3006 17.7287 30.3734 18.11 29.4072 18.11C28.441 18.11 27.5139 17.7287 26.8272 17.049L25.4662 15.6881ZM33.5663 18.017C33.2653 18.4674 33.1047 18.997 33.1047 19.5387C33.1047 20.2651 33.3933 20.9617 33.9069 21.4753C34.4205 21.989 35.1172 22.2775 35.8436 22.2775C36.3853 22.2775 36.9148 22.1169 37.3652 21.8159C37.8156 21.515 38.1667 21.0872 38.374 20.5868C38.5813 20.0863 38.6355 19.5356 38.5298 19.0043C38.4241 18.473 38.1633 17.985 37.7802 17.602C37.3972 17.2189 36.9092 16.9581 36.3779 16.8524C35.8466 16.7467 35.2959 16.801 34.7955 17.0083C34.295 17.2156 33.8672 17.5666 33.5663 18.017ZM18.4983 29.6341H53.1889V9.44315H29.6017L31.4285 11.2782H46.7991V12.1957C46.7969 12.6772 46.8897 13.1544 47.072 13.6C47.2543 14.0456 47.5227 14.4509 47.8618 14.7928C48.2008 15.1346 48.6039 15.4063 49.048 15.5923C49.4921 15.7783 49.9685 15.875 50.45 15.8768H51.3648V23.2088H50.45C49.4791 23.2124 48.5492 23.6012 47.8647 24.2898C47.1802 24.9785 46.7969 25.9106 46.7991 26.8816V27.7991H24.8881V26.8816C24.8881 25.912 24.5038 24.982 23.8196 24.2951C23.1353 23.6083 22.2067 23.2206 21.2371 23.217H20.3223V15.8768H21.2371C21.8084 15.8743 22.371 15.7371 22.8793 15.4763C23.3875 15.2155 23.8271 14.8385 24.1623 14.3759L22.6066 12.8092C21.3904 13.6033 19.9466 13.9749 18.4983 13.8664V29.6341Z" fill="#4A4B56"/>
<path fill-rule="evenodd" clip-rule="evenodd" d="M43.5617 35.5173L45.887 36.9168V33.9534H55.0157V52.3038H45.8898V50.918L43.2112 51.9834C42.6766 52.1947 42.107 52.3035 41.5322 52.3038H28.6595C27.8104 52.3035 26.9783 52.0654 26.2575 51.6164L9.64071 41.6222C9.08632 41.2983 8.62738 40.8336 8.31039 40.2752C7.99343 39.7167 7.8297 39.0844 7.8358 38.4424C7.83577 37.8016 8.00287 37.172 8.32059 36.6155C8.68154 35.9784 9.22801 35.4664 9.88722 35.1475C10.1789 35.0022 10.4896 34.8989 10.8102 34.8408C11.6611 34.6784 12.542 34.8251 13.2944 35.2543L22.5682 40.2994C22.7653 39.7422 23.0937 39.2407 23.5256 38.8374C23.9576 38.4341 24.4803 38.1407 25.0496 37.9822L35.5943 35.1393C36.2871 34.9566 37.0005 34.8646 37.717 34.8654H41.2145C42.0417 34.8651 42.8532 35.0905 43.5617 35.5173ZM41.5322 50.4688C41.8766 50.4687 42.2178 50.4026 42.5374 50.2743L45.8925 48.9432V39.0586L42.6278 37.0921C42.2026 36.8365 41.716 36.7011 41.22 36.7005H37.7224C37.1674 36.7013 36.615 36.775 36.0791 36.9196L25.5399 39.7543C25.1785 39.8562 24.8565 40.0656 24.6168 40.3547C24.3771 40.6438 24.231 40.9989 24.1979 41.373V41.6742C24.224 42.1363 24.4279 42.5703 24.7669 42.8853C25.1059 43.2004 25.5538 43.372 26.0165 43.3641C26.126 43.3559 26.6628 43.2464 27.0792 43.1478L36.5146 40.617L36.9857 42.3891L27.501 44.9417C27.0083 45.0752 26.5053 45.1668 25.9973 45.2156C25.1924 45.2137 24.4106 44.9469 23.7725 44.4563C23.1345 43.9657 22.6756 43.2787 22.4669 42.5014C22.4395 42.4439 22.4395 42.3891 22.4395 42.3343L12.3851 36.8566C12.1124 36.7006 11.8037 36.6184 11.4895 36.6183C11.4208 36.6183 11.3521 36.622 11.2839 36.6295C11.2353 36.6348 11.187 36.6421 11.1389 36.6512C10.9809 36.678 10.8278 36.7278 10.6842 36.7991C10.3545 36.9567 10.0804 37.2108 9.89819 37.5276C9.73904 37.8073 9.65506 38.1234 9.65442 38.4451C9.65161 38.7672 9.73399 39.0842 9.89321 39.3641C10.0524 39.6441 10.2828 39.8769 10.561 40.0391L27.2051 50.047C27.6406 50.3215 28.1447 50.4677 28.6595 50.4688H41.5322ZM53.1889 50.4688V35.7829H47.7111V50.4688H53.1889Z" fill="#4A4B56"/>
</svg>
