<svg width="64" height="63" viewBox="0 0 64 63" fill="none" xmlns="http://www.w3.org/2000/svg">
<path fill-rule="evenodd" clip-rule="evenodd" d="M32.1096 5.47776C26.38 5.47776 20.8783 7.72147 16.7828 11.7283C12.6873 15.7351 10.3237 21.1865 10.1983 26.9147L9.54125 26.9003V38.0683H5.43293C4.6339 38.0683 3.86759 37.7509 3.30258 37.1859C2.73758 36.6209 2.42017 35.8546 2.42017 35.0555V27.6797C2.42017 26.8807 2.73758 26.1144 3.30258 25.5494C3.86759 24.9844 4.6339 24.667 5.43293 24.667H8.43238C9.05538 19.2568 11.5175 14.1975 15.442 10.3579C19.8958 6.00053 25.8788 3.56055 32.1096 3.56055C38.3404 3.56055 44.3234 6.00053 48.7772 10.3579C52.6951 14.191 55.1555 19.2397 55.7837 24.6396H58.8356V24.667C59.6346 24.667 60.4009 24.9844 60.9659 25.5494C61.5309 26.1144 61.8483 26.8807 61.8483 27.6797V35.0473C61.8483 35.8464 61.5309 36.6127 60.9659 37.1777C60.4009 37.7427 59.6346 38.0601 58.8356 38.0601H55.9122C55.4132 45.2958 49.8912 51.0139 43.9301 54.1218L43.9284 54.1227C42.014 55.116 39.9974 55.8979 37.9143 56.4546C37.7885 57.17 37.4458 57.8352 36.9252 58.3558C36.2575 59.0236 35.3518 59.3987 34.4075 59.3987H30.039C29.0947 59.3987 28.1891 59.0236 27.5213 58.3558C26.8536 57.6881 26.4785 56.7825 26.4785 55.8381C26.4785 54.8938 26.8536 53.9882 27.5213 53.3205C28.1891 52.6527 29.0947 52.2776 30.039 52.2776H34.4075C35.3518 52.2776 36.2575 52.6527 36.9252 53.3205C37.271 53.6662 37.5383 54.0758 37.7157 54.5215C39.5591 54.0069 41.3449 53.3032 43.0446 52.4214C48.9705 49.3315 54.0316 43.7273 54.0316 36.9947H54.7273V26.8992L54.0209 26.9147C53.8955 21.1865 51.5319 15.7351 47.4364 11.7283C43.3409 7.72147 37.8392 5.47776 32.1096 5.47776ZM58.8356 26.576C59.1261 26.576 59.4048 26.6914 59.6102 26.8969C59.8157 27.1023 59.9311 27.381 59.9311 27.6715V35.0473C59.9311 35.3379 59.8157 35.6165 59.6102 35.822C59.4048 36.0275 59.1261 36.1429 58.8356 36.1429H56.6445V26.5568H58.8356V26.576ZM7.62403 36.162V26.5842H5.43293C5.14237 26.5842 4.86372 26.6996 4.65826 26.9051C4.45281 27.1105 4.33738 27.3892 4.33738 27.6797V35.0665C4.33738 35.3571 4.45281 35.6357 4.65826 35.8412C4.86372 36.0466 5.14237 36.162 5.43293 36.162H7.62403ZM34.4075 54.1948C34.8434 54.1948 35.2613 54.368 35.5695 54.6761C35.8777 54.9843 36.0508 55.4023 36.0508 55.8381C36.0508 56.274 35.8777 56.692 35.5695 57.0001C35.2613 57.3083 34.8434 57.4815 34.4075 57.4815H30.039C29.6032 57.4815 29.1852 57.3083 28.877 57.0001C28.5688 56.692 28.3957 56.274 28.3957 55.8381C28.3957 55.4023 28.5688 54.9843 28.877 54.6761C29.1852 54.368 29.6032 54.1948 30.039 54.1948H34.4075Z" fill="#4A4B56"/>
<path d="M40.622 29.6572C40.622 30.7917 39.7024 31.7114 38.5679 31.7114C37.4334 31.7114 36.5137 30.7917 36.5137 29.6572C36.5137 28.5227 37.4334 27.6031 38.5679 27.6031C39.7024 27.6031 40.622 28.5227 40.622 29.6572Z" fill="#4A4B56"/>
<path d="M32.1096 31.7114C33.2441 31.7114 34.1638 30.7917 34.1638 29.6572C34.1638 28.5227 33.2441 27.6031 32.1096 27.6031C30.9751 27.6031 30.0554 28.5227 30.0554 29.6572C30.0554 30.7917 30.9751 31.7114 32.1096 31.7114Z" fill="#4A4B56"/>
<path d="M27.7055 29.6572C27.7055 30.7917 26.7858 31.7114 25.6513 31.7114C24.5168 31.7114 23.5972 30.7917 23.5972 29.6572C23.5972 28.5227 24.5168 27.6031 25.6513 27.6031C26.7858 27.6031 27.7055 28.5227 27.7055 29.6572Z" fill="#4A4B56"/>
<path fill-rule="evenodd" clip-rule="evenodd" d="M22.9756 15.5932C25.6992 13.8336 28.8737 12.8995 32.1163 12.9035C32.1518 12.9035 32.187 12.9055 32.2216 12.9094C34.527 12.9258 36.8048 13.4159 38.9134 14.3497C41.0579 15.2994 42.9801 16.687 44.5566 18.4235C46.1332 20.1599 47.3292 22.2068 48.0679 24.4328C48.8065 26.6588 49.0716 29.0146 48.846 31.3491C48.6205 33.6836 47.9092 35.9451 46.758 37.9885C45.6068 40.0318 44.041 41.8119 42.1611 43.2144C40.2813 44.6168 38.129 45.6107 35.8424 46.1322C33.6521 46.6317 31.385 46.6873 29.1748 46.2967L17.9093 51.0598C17.5713 51.2027 17.1813 51.1401 16.905 50.8985C16.6287 50.6569 16.5146 50.2787 16.6112 49.9246L19.1891 40.4731C17.2324 38.1268 15.9499 35.2885 15.4848 32.2621C14.9922 29.0571 15.4373 25.7781 16.7665 22.8205C18.0956 19.8628 20.252 17.3529 22.9756 15.5932ZM21.1288 40.6475L18.9801 48.5256L28.6934 44.4187C28.8691 44.3445 29.0629 44.3243 29.2501 44.3608C31.2898 44.7584 33.39 44.7251 35.4161 44.263C37.4421 43.8009 39.3491 42.9203 41.0147 41.6777C42.6803 40.4351 44.0676 38.8579 45.0876 37.0474C46.1077 35.2369 46.7378 33.2331 46.9377 31.1647C47.1376 29.0963 46.9027 27.0089 46.2482 25.0367C45.5937 23.0644 44.534 21.2507 43.1372 19.7122C41.7403 18.1737 40.0372 16.9442 38.1371 16.1028C36.2371 15.2613 34.182 14.8265 32.104 14.8262C32.0703 14.8262 32.0369 14.8244 32.004 14.821C29.1696 14.8384 26.3981 15.6646 24.016 17.2036C21.6031 18.7625 19.6927 20.9861 18.5152 23.6064C17.3377 26.2266 16.9434 29.1315 17.3797 31.9708C17.8161 34.8102 19.0645 37.4626 20.9745 39.6084C21.2256 39.8904 21.2877 40.2936 21.1331 40.6381L21.1288 40.6475Z" fill="#4A4B56"/>
</svg>
