<svg width="64" height="63" viewBox="0 0 64 63" fill="none" xmlns="http://www.w3.org/2000/svg">
<path fill-rule="evenodd" clip-rule="evenodd" d="M51.0906 15.3486C51.0926 15.1243 51.0058 14.9083 50.8492 14.7477L42.35 6.24848C42.1901 6.09082 41.9736 6.00391 41.7491 6.0071V5.99945H16.2514C14.8432 5.99945 13.7017 7.141 13.7017 8.54922V54.445C13.7017 55.8532 14.8432 56.9947 16.2514 56.9947H48.5484C49.9567 56.9947 51.0982 55.8532 51.0982 54.445V15.3486H51.0906ZM42.599 8.90108L48.1966 14.4987H43.4489C42.9795 14.4987 42.599 14.1181 42.599 13.6487V8.90108ZM49.3984 54.445C49.3984 54.9143 49.0178 55.2949 48.5484 55.2949H16.2514C15.7821 55.2949 15.4015 54.9143 15.4015 54.445V8.54922C15.4015 8.07985 15.7821 7.69929 16.2514 7.69929H40.8992V13.6487C40.8992 15.057 42.0407 16.1985 43.4489 16.1985H49.3984V54.445ZM22.2007 28.9475C20.7925 28.9475 19.6509 30.089 19.6509 31.4972C19.6509 32.9054 20.7925 34.047 22.2007 34.047C23.6089 34.047 24.7505 32.9054 24.7505 31.4972C24.7505 30.089 23.6089 28.9475 22.2007 28.9475ZM22.2007 32.3471C21.7313 32.3471 21.3508 31.9666 21.3508 31.4972C21.3508 31.0279 21.7313 30.6473 22.2007 30.6473C22.6701 30.6473 23.0506 31.0279 23.0506 31.4972C23.0506 31.9666 22.6701 32.3471 22.2007 32.3471ZM28.1503 30.6474H45.1488V32.3473H28.1503V30.6474ZM22.2007 20.448C20.7925 20.448 19.6509 21.5896 19.6509 22.9978C19.6509 24.406 20.7925 25.5476 22.2007 25.5476C23.6089 25.5476 24.7505 24.406 24.7505 22.9978C24.7505 21.5896 23.6089 20.448 22.2007 20.448ZM22.2007 23.8477C21.7313 23.8477 21.3508 23.4672 21.3508 22.9978C21.3508 22.5284 21.7313 22.1479 22.2007 22.1479C22.6701 22.1479 23.0506 22.5284 23.0506 22.9978C23.0506 23.4672 22.6701 23.8477 22.2007 23.8477ZM28.1503 22.148H45.1488V23.8478H28.1503V22.148ZM22.2007 37.4465C20.7925 37.4465 19.6509 38.588 19.6509 39.9962C19.6509 41.4044 20.7925 42.546 22.2007 42.546C23.6089 42.546 24.7505 41.4044 24.7505 39.9962C24.7505 38.588 23.6089 37.4465 22.2007 37.4465ZM22.2007 40.8461C21.7313 40.8461 21.3508 40.4656 21.3508 39.9962C21.3508 39.5269 21.7313 39.1463 22.2007 39.1463C22.6701 39.1463 23.0506 39.5269 23.0506 39.9962C23.0506 40.4656 22.6701 40.8461 22.2007 40.8461ZM28.1503 39.1462H45.1488V40.8461H28.1503V39.1462ZM22.2007 45.9458C20.7925 45.9458 19.6509 47.0873 19.6509 48.4955C19.6509 49.9038 20.7925 51.0453 22.2007 51.0453C23.6089 51.0453 24.7505 49.9038 24.7505 48.4955C24.7505 47.0873 23.6089 45.9458 22.2007 45.9458ZM22.2007 49.3455C21.7313 49.3455 21.3508 48.9649 21.3508 48.4955C21.3508 48.0262 21.7313 47.6456 22.2007 47.6456C22.6701 47.6456 23.0506 48.0262 23.0506 48.4955C23.0506 48.9649 22.6701 49.3455 22.2007 49.3455ZM28.1503 47.6457H45.1488V49.3455H28.1503V47.6457Z" fill="#4A4B56"/>
</svg>
