<svg width="64" height="63" viewBox="0 0 64 63" fill="none" xmlns="http://www.w3.org/2000/svg">
<path fill-rule="evenodd" clip-rule="evenodd" d="M22.4729 48.7869C23.8109 49.5515 25.149 49.3603 26.487 48.5957V49.5515C26.8693 52.2276 29.7366 53.7568 32.2215 52.4187C35.0887 50.8895 37.956 49.3125 40.8232 47.7356C43.6905 46.1586 46.5577 44.5816 49.425 43.0524C50.9542 42.2878 52.2922 41.1409 53.248 39.6117C53.815 38.9029 54.277 38.194 54.7897 37.4072C54.9683 37.1331 55.1531 36.8496 55.3506 36.5533C56.1152 35.5976 57.071 34.6418 58.2179 34.0684C58.9825 33.6861 59.6993 33.256 60.4161 32.8259C61.1329 32.3958 61.8497 31.9657 62.6143 31.5834C63.57 31.01 63.7612 30.6277 63.1877 29.6719L53.4391 11.895C53.0568 10.9393 52.6745 10.7481 51.7188 11.3216C50.763 11.895 49.7595 12.4207 48.756 12.9463C47.7524 13.472 46.7489 13.9977 45.7931 14.5711C44.6462 15.1446 44.6462 15.3357 45.2197 16.4826L45.22 16.4832C48.2783 22.2175 51.3366 27.9518 54.3949 33.4949C54.7772 33.8772 54.586 34.2595 54.3949 34.6418C53.4391 35.7887 52.6746 36.9355 51.91 38.0824L51.9099 38.0825C50.763 39.6117 49.425 40.7586 47.7046 41.7143C46.0799 42.5745 44.4551 43.4825 42.8304 44.3904C41.2056 45.2984 39.5808 46.2064 37.956 47.0665C36.8091 47.64 35.6622 48.2612 34.5153 48.8825C33.3684 49.5037 32.2215 50.1249 31.0746 50.6984C29.9277 51.2718 28.5897 50.6984 28.2074 49.3603C28.0162 48.5957 28.3985 47.8311 29.3543 47.2577C30.31 46.7798 31.218 46.2542 32.1259 45.7285C33.0339 45.2028 33.9419 44.6772 34.8976 44.1993C35.471 43.817 35.6622 43.4347 35.471 42.8612C35.2799 42.2878 34.7064 42.2878 34.133 42.4789C34.0374 42.4789 33.9896 42.5267 33.9419 42.5745C33.8941 42.6223 33.8463 42.6701 33.7507 42.6701C31.0746 44.1993 28.2074 45.7285 25.3401 47.2577C24.1932 48.0223 23.0463 47.64 22.4729 46.6842C21.8994 45.5373 22.2817 44.3904 23.4286 43.817C24.7666 43.2436 26.1046 42.479 27.4427 41.7144L27.4428 41.7143C28.2074 41.2365 29.0198 40.8064 29.8321 40.3763C30.6445 39.9462 31.4569 39.5161 32.2215 39.0383C32.795 38.656 32.9861 38.2737 32.795 37.7002C32.6038 37.3179 32.0304 37.3179 31.4569 37.5091C31.3613 37.5091 31.2658 37.5568 31.1702 37.6046C31.0746 37.6524 30.979 37.7002 30.8835 37.7002C26.8693 39.994 23.0463 42.0966 19.0322 44.1993C17.8853 44.7727 16.7384 44.3904 16.1649 43.4347C15.5915 42.4789 15.9738 41.3321 17.1207 40.7586C17.9809 40.2807 18.8888 39.8028 19.7968 39.325C20.7048 38.8471 21.6127 38.3692 22.4729 37.8914C23.6198 37.2223 24.7667 36.6011 25.9136 35.9799C27.0605 35.3586 28.2074 34.7374 29.3543 34.0684C29.9277 33.6861 30.1189 33.1126 29.9277 32.7303C29.5454 32.1569 29.1631 32.1569 28.5897 32.348C28.4941 32.348 28.4463 32.3958 28.3985 32.4436C28.3507 32.4914 28.3029 32.5392 28.2074 32.5392L19.6056 37.1268C18.4587 37.7002 17.503 37.3179 16.9295 36.3622C16.3561 35.4064 16.7384 34.2595 17.8853 33.6861C19.0322 32.9215 20.1791 32.348 21.326 31.7746C22.0906 31.3923 22.2817 31.01 21.8994 30.4365C21.5171 29.8631 21.1348 29.8631 20.5614 30.0542C20.0293 30.3583 19.4972 30.6321 18.9771 30.8998C18.1893 31.3051 17.4292 31.6963 16.7384 32.1569C14.4446 33.4949 14.2534 36.5533 16.1649 38.2737L16.5472 38.656C14.4446 40.1852 13.68 41.9055 14.6357 43.817C15.018 44.7727 15.7826 45.3462 16.5472 45.7285C17.8853 46.3019 19.0322 46.1108 20.3702 45.3462C20.5614 46.8754 21.1348 48.0223 22.4729 48.7869ZM52.1012 12.8509C55.1595 18.3942 58.2179 23.9375 61.2762 29.6719C60.9147 29.8728 60.5616 30.0737 60.2116 30.2728C58.8962 31.021 57.625 31.7441 56.1152 32.348C53.0568 26.8047 49.9984 21.2613 46.94 15.5269C48.6604 14.7623 50.3807 13.8065 52.1011 12.8508L52.1012 12.8509ZM21.8994 14.1891L21.8995 14.189C22.0452 14.2133 22.1877 14.2376 22.328 14.2615C23.2923 14.4257 24.1478 14.5713 25.149 14.5713C27.5384 15.1448 29.9755 15.766 32.4127 16.3873C34.8498 17.0085 37.287 17.6297 39.6764 18.2032C41.0144 18.3943 41.5879 19.3501 41.3967 20.497C41.0144 21.6439 40.0587 22.2173 38.7206 21.835C37.4782 21.5483 36.2357 21.2138 34.9932 20.8793C33.7507 20.5448 32.5083 20.2103 31.2658 19.9235C29.9278 19.5412 29.7366 19.7324 29.3543 20.8793C28.3986 23.5554 26.4871 25.0846 23.6198 25.4669C22.2818 25.658 20.9437 25.2757 19.6057 24.8934C19.0322 24.7023 18.4588 24.8934 18.2676 25.4669C18.0765 26.0403 18.4588 26.4226 19.0322 26.6138C19.2392 26.7173 19.5022 26.7647 19.7909 26.8168C20.0354 26.8609 20.2984 26.9084 20.5614 26.9961C24.7667 27.9518 28.5897 26.2315 30.5012 22.2173C30.8835 21.6439 31.0747 21.6439 31.457 21.835C33.5596 22.4085 35.8534 22.9819 38.1472 23.5554C40.2498 24.1288 42.1613 22.9819 42.7348 20.8793C43.3082 18.7766 42.1613 16.8651 40.0587 16.2917L26.2959 12.851L26.2959 12.851C24.5756 12.4687 22.8552 12.0864 21.1349 12.2776C19.7331 12.405 18.3313 12.7023 16.9296 12.9997C16.2287 13.1483 15.5278 13.297 14.8269 13.4244C14.2535 13.6156 13.68 13.6156 13.1066 13.4244C12.0553 13.1377 11.0517 12.8988 10.0482 12.6599C9.04466 12.4209 8.04112 12.182 6.9898 11.8953C6.2252 11.7041 5.8429 11.8953 5.65175 12.6599C5.56794 12.9113 5.52088 13.126 5.47834 13.32C5.42386 13.5685 5.37679 13.7832 5.26945 13.9979C3.74026 20.3058 2.21106 26.4226 0.681862 32.5394C0.299562 33.6863 0.490712 33.8775 1.63761 34.2598C2.68893 34.5465 3.69247 34.7854 4.696 35.0244C5.69954 35.2633 6.70307 35.5022 7.7544 35.789L8.90129 36.3624C9.77651 36.9876 10.5699 37.6945 11.3351 38.3762C11.7397 38.7367 12.1364 39.0902 12.5331 39.4208C13.1066 39.9942 13.68 39.9942 14.0623 39.6119C14.4446 39.2297 14.2535 38.6562 13.68 38.0828C12.8988 37.562 12.2063 36.9525 11.4817 36.3147C11.1425 36.0162 10.7962 35.7114 10.4305 35.4067C10.0482 35.0244 9.85704 34.8332 10.0482 34.2598C11.5774 28.5253 13.1066 22.5996 14.4446 16.8651C14.6358 15.9094 15.0181 15.5271 15.9738 15.3359C18.0764 14.9537 19.9879 14.5714 21.8994 14.1891ZM2.59336 32.7306C4.12256 26.6138 5.65175 20.497 7.18095 14.189C9.09244 14.7625 10.8128 15.1448 12.7243 15.5271L12.7242 15.5273C11.1951 21.644 9.66587 27.7607 8.1367 34.0686C7.18095 33.8775 6.27299 33.6385 5.36503 33.3996C4.45707 33.1606 3.54911 32.9217 2.59336 32.7306Z" fill="#4A4B56"/>
</svg>
