<svg width="64" height="63" viewBox="0 0 64 63" fill="none" xmlns="http://www.w3.org/2000/svg">
<path fill-rule="evenodd" clip-rule="evenodd" d="M22.7592 47.7842H41.4V50.66C41.4 53.1319 40.418 55.5026 38.6701 57.2505C36.9222 58.9984 34.5515 59.9804 32.0796 59.9804C29.6077 59.9804 27.237 58.9984 25.4891 57.2505C23.7412 55.5026 22.7592 53.1319 22.7592 50.66V47.7842ZM24.6764 49.7014V50.66C24.6764 52.6234 25.4564 54.5065 26.8447 55.8948C28.2331 57.2832 30.1161 58.0632 32.0796 58.0632C34.043 58.0632 35.9261 57.2832 37.3144 55.8948C38.7028 54.5065 39.4828 52.6234 39.4828 50.66V49.7014H24.6764Z" fill="#4A4B56"/>
<path fill-rule="evenodd" clip-rule="evenodd" d="M32.0796 5.20384C28.0781 5.20384 24.1886 6.52578 21.0159 8.96417C17.8431 11.4026 15.5648 14.8208 14.5351 18.6876C13.5053 22.5543 13.7818 26.6529 15.3216 30.3463C16.8614 34.0397 19.5782 37.121 23.0497 39.1111L23.0505 39.1116C23.5451 39.3958 23.9559 39.8054 24.2413 40.2992C24.5268 40.793 24.6769 41.3534 24.6764 41.9238L23.7178 41.923H24.6764V41.9238V43.2267H39.48V41.9225C39.4803 41.352 39.6311 40.7917 39.9171 40.2981C40.2032 39.8045 40.6144 39.3951 41.1092 39.1113L41.1095 39.1111C44.581 37.121 47.2978 34.0397 48.8376 30.3463C50.3774 26.6529 50.6539 22.5543 49.6241 18.6876C48.5944 14.8208 46.316 11.4026 43.1433 8.96417C39.9705 6.52578 36.0811 5.20384 32.0796 5.20384ZM19.8476 7.44404C23.3554 4.74815 27.6555 3.28662 32.0796 3.28662C36.5036 3.28662 40.8038 4.74815 44.3116 7.44404C47.8194 10.1399 50.3383 13.9191 51.4768 18.1942C52.6153 22.4692 52.3096 27.0007 50.6072 31.0841C48.9048 35.1674 45.9012 38.574 42.0632 40.7743C41.861 40.8903 41.6929 41.0577 41.5759 41.2594C41.459 41.4612 41.3974 41.6902 41.3972 41.9234V45.1439H22.7592V41.9221C22.7594 41.6892 22.6981 41.4604 22.5816 41.2588C22.4652 41.0575 22.2977 40.8904 22.0962 40.7744C18.2581 38.5741 15.2544 35.1675 13.552 31.0841C11.8496 27.0007 11.5439 22.4692 12.6824 18.1942C13.8209 13.9191 16.3398 10.1399 19.8476 7.44404Z" fill="#4A4B56"/>
<path d="M28.8841 31.1913C28.0366 30.3438 27.5604 29.1943 27.5604 27.9958H25.6432C25.6432 29.7028 26.3213 31.3399 27.5284 32.547C28.5072 33.5257 29.7687 34.1567 31.121 34.3604V44.1853H33.0382V34.3604C34.3905 34.1567 35.652 33.5257 36.6308 32.547C37.8378 31.3399 38.516 29.7028 38.516 27.9958H36.5987C36.5987 29.1943 36.1226 30.3438 35.2751 31.1913C34.4276 32.0388 33.2781 32.5149 32.0796 32.5149C30.881 32.5149 29.7316 32.0388 28.8841 31.1913Z" fill="#4A4B56"/>
</svg>
