<svg width="64" height="63" viewBox="0 0 64 63" fill="none" xmlns="http://www.w3.org/2000/svg">
<path fill-rule="evenodd" clip-rule="evenodd" d="M51.0906 15.3485C51.0926 15.1243 51.0058 14.9083 50.8492 14.7476L42.35 6.24842C42.1901 6.09076 41.9736 6.00385 41.7491 6.00704V5.99939H16.2514C14.8432 5.99939 13.7017 7.14094 13.7017 8.54915V54.4449C13.7017 55.8531 14.8432 56.9947 16.2514 56.9947H48.5484C49.9567 56.9947 51.0982 55.8531 51.0982 54.4449V15.3485H51.0906ZM42.599 8.90102L48.1966 14.4986H43.4489C42.9795 14.4986 42.599 14.1181 42.599 13.6487V8.90102ZM49.3984 54.4449C49.3984 54.9143 49.0178 55.2948 48.5484 55.2948H16.2514C15.7821 55.2948 15.4015 54.9143 15.4015 54.4449V8.54915C15.4015 8.07979 15.7821 7.69923 16.2514 7.69923H40.8992V13.6487C40.8992 15.0569 42.0407 16.1984 43.4489 16.1984H49.3984V54.4449ZM45.1488 28.4976H19.5011V30.1974H45.1488V28.4976ZM19.5011 19.9981H45.1488V21.6979H19.5011V19.9981ZM45.1488 36.9963H19.5011V38.6961H45.1488V36.9963ZM19.5011 45.4957H32.4999V47.1956H19.5011V45.4957Z" fill="#4A4B56"/>
<path d="M41.9102 57.1366L41.5029 56.8731L41.0956 57.1366L37.2529 59.6218V52.75L45.7529 52.75V59.6218L41.9102 57.1366Z" fill="white" stroke="#4A4B56" stroke-width="1.5"/>
<circle cx="41.5029" cy="48" r="6.25" fill="white" stroke="#4A4B56" stroke-width="1.5"/>
</svg>
