<svg width="64" height="63" viewBox="0 0 64 63" fill="none" xmlns="http://www.w3.org/2000/svg">
<path fill-rule="evenodd" clip-rule="evenodd" d="M37.3682 7.89075L42.2653 12.8207H59.3888V36.6818H21.0445V24.9649C19.1874 24.8979 17.3856 24.3157 15.8406 23.2832L15.2928 22.9162H13.7399V25.6688H4.61121V5.47779H13.7399V7.23342L14.6684 7.26628C15.1262 7.28731 15.582 7.19316 15.994 6.99239L18.0399 5.96257C18.673 5.64415 19.3718 5.47815 20.0804 5.47779H31.559C32.6389 5.47468 33.7087 5.68641 34.706 6.10065C35.7033 6.5149 36.6083 7.12342 37.3682 7.89075ZM6.43803 23.8283H11.9158V7.31282H6.43803V23.8283ZM15.8406 21.0894L16.8458 21.7495L16.8567 21.7549C18.1046 22.5846 19.5556 23.0572 21.0527 23.1216V18.6846C20.3799 18.4372 19.7518 18.082 19.193 17.6329L18.6452 17.1947L19.7955 15.7705L20.3241 16.2005C21.1996 16.9052 22.2938 17.2819 23.4176 17.2654C24.5413 17.2489 25.624 16.8403 26.4784 16.1101L27.1166 15.5624L32.5039 20.9771C32.6733 21.1481 32.8748 21.2838 33.097 21.3765C33.3191 21.4691 33.5574 21.5168 33.798 21.5168C34.0387 21.5168 34.277 21.4691 34.4991 21.3765C34.7213 21.2838 34.9228 21.1481 35.0922 20.9771C35.4357 20.6312 35.6285 20.1636 35.6285 19.6761C35.6285 19.1887 35.4357 18.721 35.0922 18.3752L28.6421 11.8895L29.9349 10.594L32.1506 12.8207H39.6825L36.0782 9.19443C35.4874 8.59674 34.7835 8.12255 34.0077 7.79951C33.2318 7.47648 32.3994 7.31102 31.559 7.31282H20.0804C19.6545 7.31396 19.2346 7.41332 18.8534 7.60316L16.8102 8.63298C16.1263 8.97584 15.3672 9.1416 14.6026 9.11502L13.7399 9.08216V21.0894H15.8406ZM29.8393 20.9007C29.0036 21.9239 27.825 22.6089 26.5222 22.8286V26.663C27.6472 26.8588 28.6835 27.3994 29.4877 28.21C30.2919 29.0206 30.8243 30.0612 31.0113 31.1876H49.422C49.611 30.0632 50.1443 29.0251 50.9484 28.2166C51.7524 27.4081 52.7876 26.8691 53.911 26.674V22.8395C52.7873 22.6452 51.7517 22.1064 50.9475 21.2978C50.1433 20.4892 49.6102 19.4506 49.422 18.3259H37.1956C37.4094 18.8583 37.4938 19.4338 37.4419 20.0051C37.39 20.5765 37.2033 21.1274 36.8971 21.6125C37.7101 20.7429 38.8284 20.2221 40.0173 20.1592C41.2061 20.0964 42.373 20.4965 43.2732 21.2756C44.1767 22.057 44.7453 23.1556 44.8616 24.3444C44.9778 25.5332 44.6327 26.7212 43.8976 27.6627C43.1641 28.6053 42.093 29.2258 40.9104 29.3935C39.7279 29.5611 38.5265 29.2626 37.5599 28.5611C36.5908 27.8648 35.926 26.823 35.7028 25.6508C35.4795 24.4785 35.7149 23.2653 36.3603 22.2616C35.6736 22.9413 34.7464 23.3226 33.7803 23.3226C32.8141 23.3226 31.8869 22.9413 31.2002 22.2616L29.8393 20.9007ZM37.9393 23.2296C37.6384 23.68 37.4777 24.2096 37.4777 24.7513C37.4777 25.4777 37.7663 26.1743 38.2799 26.6879C38.7936 27.2016 39.4902 27.4901 40.2166 27.4901C40.7583 27.4901 41.2879 27.3295 41.7382 27.0286C42.1887 26.7276 42.5397 26.2998 42.747 25.7994C42.9543 25.2989 43.0085 24.7482 42.9029 24.2169C42.7972 23.6856 42.5363 23.1976 42.1533 22.8146C41.7703 22.4315 41.2822 22.1707 40.7509 22.065C40.2197 21.9593 39.669 22.0136 39.1685 22.2209C38.668 22.4282 38.2403 22.7792 37.9393 23.2296ZM22.8713 34.8468H57.5619V14.6558H33.9747L35.8015 16.4908H51.1721V17.4084C51.17 17.8898 51.2627 18.367 51.445 18.8126C51.6274 19.2582 51.8958 19.6635 52.2348 20.0054C52.5739 20.3473 52.977 20.6189 53.4211 20.8049C53.8652 20.9909 54.3416 21.0876 54.823 21.0894H55.7378V28.4214H54.823C53.8521 28.425 52.9222 28.8138 52.2377 29.5024C51.5532 30.1911 51.17 31.1232 51.1721 32.0942V33.0117H29.2611V32.0942C29.2611 31.1246 28.8769 30.1946 28.1926 29.5078C27.5083 28.8209 26.5797 28.4332 25.6102 28.4296H24.6954V21.0894H25.6102C26.1814 21.0869 26.7441 20.9497 27.2523 20.6889C27.7606 20.4281 28.2001 20.0511 28.5353 19.5885L26.9796 18.0219C25.7635 18.8159 24.3197 19.1875 22.8713 19.0791V34.8468Z" fill="#4A4B56"/>
<path fill-rule="evenodd" clip-rule="evenodd" d="M47.9348 40.7299L50.2601 42.1295V39.166H59.3888V57.5165H50.2628V56.1306L47.5842 57.196C47.0497 57.4074 46.4801 57.5161 45.9053 57.5165H33.0325C32.1834 57.5161 31.3513 57.278 30.6305 56.829L14.0138 46.8348C13.4594 46.5109 13.0004 46.0462 12.6834 45.4878C12.3665 44.9294 12.2027 44.2971 12.2088 43.655C12.2088 43.0143 12.3759 42.3846 12.6936 41.8282C13.0546 41.1911 13.6011 40.679 14.2603 40.3601C14.5519 40.2148 14.8627 40.1115 15.1833 40.0534C16.0342 39.891 16.9151 40.0377 17.6674 40.4669L26.9413 45.512C27.1383 44.9548 27.4667 44.4533 27.8987 44.05C28.3306 43.6467 28.8534 43.3533 29.4227 43.1949L39.9674 40.3519C40.6601 40.1692 41.3736 40.0772 42.09 40.078H45.5875C46.4147 40.0777 47.2262 40.3031 47.9348 40.7299ZM45.9053 55.6814C46.2497 55.6813 46.5909 55.6153 46.9104 55.4869L50.2655 54.1558V44.2713L47.0008 42.3047C46.5757 42.0491 46.0891 41.9137 45.593 41.9131H42.0955C41.5405 41.914 40.988 41.9876 40.4522 42.1322L29.913 44.9669C29.5515 45.0688 29.2295 45.2782 28.9899 45.5673C28.7502 45.8564 28.604 46.2115 28.5709 46.5856V46.8869C28.597 47.3489 28.801 47.7829 29.14 48.098C29.479 48.413 29.9268 48.5846 30.3895 48.5768C30.4991 48.5685 31.0359 48.459 31.4522 48.3604L40.8876 45.8297L41.3587 47.6017L31.874 50.1544C31.3814 50.2879 30.8784 50.3795 30.3704 50.4282C29.5655 50.4263 28.7837 50.1595 28.1456 49.6689C27.5075 49.1783 27.0487 48.4913 26.8399 47.714C26.8126 47.6565 26.8125 47.6017 26.8125 47.5469L16.7581 42.0692C16.4854 41.9132 16.1767 41.831 15.8625 41.8309C15.7938 41.8309 15.7252 41.8346 15.657 41.8421C15.6084 41.8475 15.56 41.8547 15.512 41.8638C15.354 41.8906 15.2008 41.9405 15.0573 42.0117C14.7275 42.1693 14.4534 42.4234 14.2712 42.7402C14.1121 43.0199 14.0281 43.336 14.0275 43.6577C14.0247 43.9798 14.107 44.2968 14.2663 44.5767C14.4255 44.8567 14.6558 45.0895 14.934 45.2518L31.5782 55.2596C32.0137 55.5341 32.5178 55.6803 33.0325 55.6814H45.9053ZM57.5619 55.6814V40.9955H52.0842V55.6814H57.5619Z" fill="#4A4B56"/>
</svg>
