<svg width="64" height="63" viewBox="0 0 64 63" fill="none" xmlns="http://www.w3.org/2000/svg">
<path fill-rule="evenodd" clip-rule="evenodd" d="M51.0906 13.3488C51.0926 13.1245 51.0058 12.9085 50.8492 12.7479L42.35 4.24866C42.1901 4.091 41.9736 4.0041 41.7491 4.00728V3.99963H16.2514C14.8432 3.99963 13.7017 5.14118 13.7017 6.5494V52.4452C13.7017 53.8534 14.8432 54.9949 16.2514 54.9949H48.5484C49.9567 54.9949 51.0982 53.8534 51.0982 52.4452V13.3488H51.0906ZM42.599 6.90127L48.1966 12.4989H43.4489C42.9795 12.4989 42.599 12.1183 42.599 11.6489V6.90127ZM49.3984 52.4452C49.3984 52.9145 49.0178 53.2951 48.5484 53.2951H16.2514C15.7821 53.2951 15.4015 52.9145 15.4015 52.4452V6.5494C15.4015 6.08003 15.7821 5.69948 16.2514 5.69948H40.8992V11.6489C40.8992 13.0571 42.0407 14.1987 43.4489 14.1987H49.3984V52.4452ZM45.1488 26.4978H19.5011V28.1976H45.1488V26.4978ZM19.5011 17.9983H45.1488V19.6982H19.5011V17.9983ZM31.5 34.9965H19.5011V36.6964H31.5V34.9965ZM19.5011 43.496H31.5V45.1958H19.5011V43.496Z" fill="#4A4B56"/>
<circle cx="39.5029" cy="40" r="6.25" fill="white" stroke="#4A4B56" stroke-width="1.5"/>
<path d="M36.5029 39.7778L38.7252 42L42.7252 38" stroke="#4A4B56" stroke-width="1.5" stroke-linecap="round" stroke-linejoin="round"/>
</svg>
