<svg width="68" height="68" viewBox="0 0 68 68" fill="none" xmlns="http://www.w3.org/2000/svg">
<mask id="path-1-inside-1" fill="white">
<path fill-rule="evenodd" clip-rule="evenodd" d="M6.91174 33.7983C6.91174 18.4317 19.1818 6 34.2866 6C49.3913 6 61.6614 18.4317 61.6614 33.7983C61.6614 37.237 61.0469 40.5288 59.9238 43.5672H39.7401C39.7744 43.4847 39.7946 43.3906 39.7946 43.2863V40.0783C40.562 40.3626 41.3884 40.4897 42.2148 40.4897C43.717 40.4897 45.3027 39.9815 46.7214 39.2192C49.3085 37.6099 50.8107 34.8994 50.6438 32.3584C50.6438 32.189 50.5603 32.0196 50.3934 31.9349C49.5467 31.4061 48.5602 31.1094 47.5182 31.0398C49.6125 29.4054 50.7928 27.0029 50.6438 24.7353C50.6438 24.5659 50.5603 24.3965 50.3934 24.3118C49.5191 23.7657 48.4957 23.4672 47.416 23.4107C49.574 21.7752 50.7952 19.3317 50.6438 17.0275C50.6438 16.8581 50.5603 16.6887 50.3934 16.604C48.2236 15.2488 45.1358 15.4182 42.5486 17.0275C41.3995 17.7423 40.4645 18.6744 39.7946 19.7123V16.8596C39.7946 16.5208 39.5442 16.2667 39.2104 16.2667C38.8766 16.2667 38.6262 16.5208 38.6262 16.8596V19.7597C37.9516 18.6688 36.9864 17.6878 35.7888 16.9428C33.2016 15.3335 30.1138 15.1641 27.944 16.5193C27.777 16.604 27.6936 16.7734 27.6936 16.9428C27.5422 19.247 28.7634 21.6905 30.9214 23.326C29.8417 23.3825 28.8183 23.681 27.944 24.2271C27.777 24.3118 27.6936 24.4812 27.6936 24.6506C27.5446 26.9182 28.7249 29.3207 30.8191 30.9551C29.7772 31.0247 28.7907 31.3214 27.944 31.8502C27.777 31.9349 27.6936 32.1043 27.6936 32.2737C27.5267 34.8147 29.0289 37.5252 31.616 39.1345C33.0347 40.0662 34.6204 40.4897 36.1226 40.4897C37.035 40.4897 37.8588 40.3097 38.6262 39.9825V43.371C38.6262 43.4404 38.6368 43.5063 38.6564 43.5672H19.0546C19.0825 43.4847 19.0977 43.3906 19.0977 43.2863V41.4894C19.5813 41.6633 20.1164 41.7602 20.6833 41.7602C21.7683 41.7602 22.9366 41.4214 23.9381 40.7438C25.7741 39.6427 26.9425 37.6099 26.7756 35.7464C26.7756 35.577 26.6921 35.4076 26.5252 35.3229C25.997 35.0126 25.3947 34.815 24.7584 34.7333C26.111 33.5815 26.916 31.8936 26.7756 30.3256C26.7756 30.1562 26.6921 29.9868 26.5252 29.9021C25.997 29.5917 25.3947 29.3941 24.7584 29.3125C26.111 28.1606 26.916 26.4727 26.7756 24.9047C26.7756 24.7353 26.6921 24.5659 26.5252 24.4812C24.9396 23.5495 22.6863 23.6342 20.8502 24.82C20.1598 25.2341 19.5638 25.7799 19.0977 26.399V24.5674C19.0977 24.2286 18.8473 23.9745 18.5135 23.9745C18.1797 23.9745 17.9293 24.2286 17.9293 24.5674V26.4129C17.4763 25.8397 16.9101 25.3245 16.2602 24.9047C14.4242 23.7189 12.1709 23.6342 10.5852 24.5659C10.4183 24.6506 10.3349 24.82 10.3349 24.9894C10.1934 26.5684 11.0108 28.2083 12.3807 29.3936C11.7339 29.4729 11.1214 29.6717 10.5852 29.9868C10.4183 30.0715 10.3349 30.2409 10.3349 30.4103C10.1934 31.9893 11.0108 33.6291 12.3807 34.8144C11.7339 34.8938 11.1214 35.0926 10.5852 35.4076C10.4183 35.4923 10.3349 35.6617 10.3349 35.8312C10.168 37.6946 11.3363 39.6427 13.1724 40.8285C14.1738 41.4214 15.3422 41.7602 16.4271 41.7602C16.9341 41.7602 17.441 41.6977 17.9293 41.5537V43.371C17.9293 43.4404 17.9398 43.5063 17.9594 43.5672H9.5049H9.50392H8.64936C7.52619 40.5288 6.91174 37.237 6.91174 33.7983ZM9.11883 44.753H9.50393C10.7658 45.5207 19.11 50.6876 22.1849 58.7392C16.3548 55.8166 11.6948 50.8479 9.11883 44.753ZM11.5227 44.753C14.7701 46.9306 21.3547 52.0573 23.6846 59.4345C25.0923 60.0356 26.5597 60.5205 28.0752 60.8777C24.8061 51.1033 14.9208 44.9788 14.8415 44.9788C14.6997 44.9429 14.5881 44.8611 14.5129 44.753H11.5227ZM16.6826 44.753C19.8025 46.9267 26.8483 52.6914 29.3557 61.1467C30.777 61.4093 32.2363 61.5604 33.7245 61.5909C30.713 51.4022 20.3473 44.9788 20.2661 44.9788C20.1243 44.9429 20.0127 44.8611 19.9375 44.753H16.6826ZM39.1057 61.1671C37.7648 61.409 36.3902 61.5518 34.9897 61.5876C32.5992 52.8918 25.3119 46.9643 22.1167 44.753H25.6011C25.6695 44.8189 25.7558 44.8683 25.8576 44.8941C25.8621 44.8987 25.898 44.9226 25.9623 44.9653L25.9623 44.9653C27.0419 45.6821 36.1245 51.7134 39.1057 61.1671ZM40.3039 60.9226C37.7516 52.6418 30.8274 46.9771 27.7243 44.753H31.0257C31.0941 44.8189 31.1804 44.8683 31.2822 44.8941C31.2866 44.8987 31.318 44.9198 31.3738 44.9574C32.3129 45.5895 40.1667 50.8758 43.0812 60.1305C42.1757 60.4423 41.249 60.7073 40.3039 60.9226ZM59.4543 44.753H33.1511C33.7709 45.2097 34.5398 45.8145 35.3882 46.5661C35.4774 46.5261 35.5842 46.5035 35.7014 46.5035H58.6419C58.9319 45.9313 59.203 45.3475 59.4543 44.753ZM58.194 47.3505C57.8757 47.9282 57.5377 48.4932 57.1809 49.0445H38.1697C38.0865 49.0445 38.0088 49.0575 37.9397 49.0811C37.3636 48.4489 36.7927 47.872 36.2434 47.3505H58.194ZM38.654 49.8915H56.6105C56.203 50.4732 55.7741 51.0383 55.3248 51.5855H40.0012C39.5582 50.9871 39.1066 50.4224 38.654 49.8915ZM40.6062 52.4325C40.978 52.9725 41.3407 53.5372 41.6896 54.1266H52.9584C53.5291 53.5858 54.0771 53.0206 54.6007 52.4325H40.6062ZM43.0309 56.685C42.76 56.0946 42.4723 55.5241 42.1715 54.9736H52.0226C51.3283 55.5737 50.6042 56.1392 49.8528 56.6676H43.1993C43.1401 56.6676 43.0837 56.6736 43.0309 56.685ZM43.3949 57.5146C43.6909 58.2217 43.9622 58.9555 44.2031 59.7161C45.731 59.1128 47.1926 58.3741 48.5734 57.5146H43.3949ZM63.6614 33.7983C63.6614 46.5873 55.7141 57.5082 44.5424 61.7306C44.4673 61.8188 44.3571 61.8837 44.2177 61.919H44.0508C44.044 61.919 44.0372 61.9189 44.0303 61.9186C40.9819 63.0054 37.7029 63.5966 34.2866 63.5966C18.0494 63.5966 4.91174 50.2415 4.91174 33.7983C4.91174 17.3552 18.0494 4 34.2866 4C50.5237 4 63.6614 17.3552 63.6614 33.7983ZM17.9293 28.7998V29.4321C16.6909 29.979 15.1439 29.7987 13.7565 28.9704C12.3378 28.1234 11.4198 26.6834 11.4198 25.3282C12.5882 24.7353 14.2573 24.9047 15.676 25.7517C16.8886 26.4757 17.6744 27.6327 17.9293 28.7998ZM17.9293 30.712C17.6308 30.8 17.3254 30.8576 17.0172 30.889C17.3565 31.1787 17.6625 31.4962 17.9293 31.8338V30.712ZM19.0977 31.8198V30.6477C19.3777 30.7484 19.675 30.8233 19.9858 30.8685C19.6539 31.1565 19.3559 31.4769 19.0977 31.8198ZM17.9293 34.2206V34.8529C16.6909 35.3998 15.1439 35.2195 13.7565 34.3912C12.3378 33.5442 11.4198 32.1043 11.4198 30.7491C12.5882 30.1562 14.2573 30.3256 15.676 31.1726C16.8886 31.8965 17.6744 33.0535 17.9293 34.2206ZM17.9293 36.1328V37.2546C17.6625 36.9171 17.3565 36.5996 17.0172 36.3099C17.3254 36.2784 17.6308 36.2209 17.9293 36.1328ZM19.0977 37.2407V36.0686C19.3777 36.1692 19.675 36.2441 19.9858 36.2893C19.6539 36.5773 19.3559 36.8978 19.0977 37.2407ZM17.9293 39.6415C17.6744 38.4744 16.8886 37.3174 15.676 36.5935C14.2573 35.7464 12.5882 35.577 11.4198 36.17C11.4198 37.5252 12.3378 38.9651 13.7565 39.8121C15.1439 40.6404 16.6909 40.8207 17.9293 40.2738V39.6415ZM19.1056 40.1332C19.1078 40.1694 19.1096 40.2056 19.1109 40.2418C20.3606 40.8273 21.9401 40.6561 23.3539 39.8121C24.7726 38.9651 25.6072 37.5252 25.6907 36.1699C24.4388 35.577 22.8532 35.7464 21.4344 36.5935C20.1328 37.5017 19.2277 38.8124 19.1056 40.1332ZM23.3539 34.3912C21.9401 35.2353 20.3606 35.4064 19.1109 34.8209C19.1096 34.7847 19.1078 34.7485 19.1056 34.7123C19.2277 33.3915 20.1328 32.0808 21.4344 31.1726C22.8532 30.3256 24.4388 30.1562 25.6907 30.7491C25.6072 32.1043 24.7726 33.5442 23.3539 34.3912ZM21.4344 25.8364C20.1429 26.6557 19.2417 28.0297 19.1086 29.3452C19.1109 29.3921 19.1124 29.4389 19.1131 29.4858C20.3625 30.0701 21.941 29.8986 23.3539 29.0551C24.7726 28.2081 25.6072 26.7681 25.6907 25.4129C24.4388 24.82 22.8532 24.9894 21.4344 25.8364ZM38.6201 23.2246C38.6163 23.3069 38.6141 23.3892 38.6137 23.4714C36.8618 24.3953 34.3651 24.1394 32.2836 22.8719C30.1972 21.5167 28.862 19.3992 28.862 17.3663C30.6145 16.4346 33.1182 16.6887 35.2046 17.9592C37.2089 19.2612 38.52 21.2666 38.6201 23.2246ZM39.7946 23.1023L39.7946 23.4648C41.6306 24.3965 44.0508 24.1424 46.1372 22.8719C48.2236 21.6014 49.5589 19.4839 49.5589 17.3663C47.7229 16.4346 45.3027 16.6887 43.2163 17.9592C41.1752 19.2341 39.8725 21.1834 39.7946 23.1023ZM39.7946 27.4201V24.7475C40.4747 24.9994 41.2012 25.1279 41.9329 25.1538C41.0625 25.7988 40.3405 26.5743 39.7946 27.4201ZM39.7946 30.7254L39.7946 31.0879C41.6306 32.0196 44.0508 31.7655 46.1372 30.495C48.2236 29.2245 49.5589 27.1069 49.5589 24.9894C47.7229 24.0577 45.3027 24.3118 43.2163 25.5823C41.1752 26.8571 39.8725 28.8065 39.7946 30.7254ZM36.5122 25.1502C37.3791 25.8126 38.0933 26.6058 38.6262 27.4675V24.6882C37.9696 24.9754 37.2716 25.1157 36.5122 25.1502ZM38.6262 35.0906V32.3594C37.9979 32.6273 37.3317 32.7965 36.61 32.8491C37.4329 33.4959 38.1135 34.2615 38.6262 35.0906ZM39.7946 32.4552V35.0432C40.318 34.2321 41.0034 33.4857 41.8263 32.8571C41.1307 32.8229 40.4417 32.6949 39.7946 32.4552ZM39.7946 38.3485L39.7946 38.711C41.6306 39.6427 44.0508 39.3886 46.1372 38.1181C48.2236 36.8476 49.5589 34.73 49.5589 32.6125C47.7229 31.6808 45.3027 31.9349 43.2163 33.2054C41.1752 34.4802 39.8725 36.4296 39.7946 38.3485ZM33.2475 32.3415C33.4444 32.4155 33.6426 32.4814 33.8415 32.5394C34.3071 32.7153 34.7651 32.9378 35.2046 33.2054C37.2238 34.517 38.5395 36.5426 38.6221 38.5144C38.6185 38.582 38.6161 38.6495 38.6148 38.717C36.8628 39.6416 34.3655 39.3858 32.2836 38.1181C30.1972 36.7628 28.862 34.6453 28.862 32.6125C30.0892 31.9601 31.6848 31.8891 33.2475 32.3415ZM38.6221 30.8913C38.6185 30.9589 38.6161 31.0265 38.6148 31.094C36.8628 32.0185 34.3655 31.7627 32.2836 30.495C30.1972 29.1398 28.862 27.0222 28.862 24.9894C30.6145 24.0577 33.1182 24.3118 35.2046 25.5823C37.2238 26.8939 38.5395 28.9195 38.6221 30.8913Z"/>
</mask>
<path fill-rule="evenodd" clip-rule="evenodd" d="M6.91174 33.7983C6.91174 18.4317 19.1818 6 34.2866 6C49.3913 6 61.6614 18.4317 61.6614 33.7983C61.6614 37.237 61.0469 40.5288 59.9238 43.5672H39.7401C39.7744 43.4847 39.7946 43.3906 39.7946 43.2863V40.0783C40.562 40.3626 41.3884 40.4897 42.2148 40.4897C43.717 40.4897 45.3027 39.9815 46.7214 39.2192C49.3085 37.6099 50.8107 34.8994 50.6438 32.3584C50.6438 32.189 50.5603 32.0196 50.3934 31.9349C49.5467 31.4061 48.5602 31.1094 47.5182 31.0398C49.6125 29.4054 50.7928 27.0029 50.6438 24.7353C50.6438 24.5659 50.5603 24.3965 50.3934 24.3118C49.5191 23.7657 48.4957 23.4672 47.416 23.4107C49.574 21.7752 50.7952 19.3317 50.6438 17.0275C50.6438 16.8581 50.5603 16.6887 50.3934 16.604C48.2236 15.2488 45.1358 15.4182 42.5486 17.0275C41.3995 17.7423 40.4645 18.6744 39.7946 19.7123V16.8596C39.7946 16.5208 39.5442 16.2667 39.2104 16.2667C38.8766 16.2667 38.6262 16.5208 38.6262 16.8596V19.7597C37.9516 18.6688 36.9864 17.6878 35.7888 16.9428C33.2016 15.3335 30.1138 15.1641 27.944 16.5193C27.777 16.604 27.6936 16.7734 27.6936 16.9428C27.5422 19.247 28.7634 21.6905 30.9214 23.326C29.8417 23.3825 28.8183 23.681 27.944 24.2271C27.777 24.3118 27.6936 24.4812 27.6936 24.6506C27.5446 26.9182 28.7249 29.3207 30.8191 30.9551C29.7772 31.0247 28.7907 31.3214 27.944 31.8502C27.777 31.9349 27.6936 32.1043 27.6936 32.2737C27.5267 34.8147 29.0289 37.5252 31.616 39.1345C33.0347 40.0662 34.6204 40.4897 36.1226 40.4897C37.035 40.4897 37.8588 40.3097 38.6262 39.9825V43.371C38.6262 43.4404 38.6368 43.5063 38.6564 43.5672H19.0546C19.0825 43.4847 19.0977 43.3906 19.0977 43.2863V41.4894C19.5813 41.6633 20.1164 41.7602 20.6833 41.7602C21.7683 41.7602 22.9366 41.4214 23.9381 40.7438C25.7741 39.6427 26.9425 37.6099 26.7756 35.7464C26.7756 35.577 26.6921 35.4076 26.5252 35.3229C25.997 35.0126 25.3947 34.815 24.7584 34.7333C26.111 33.5815 26.916 31.8936 26.7756 30.3256C26.7756 30.1562 26.6921 29.9868 26.5252 29.9021C25.997 29.5917 25.3947 29.3941 24.7584 29.3125C26.111 28.1606 26.916 26.4727 26.7756 24.9047C26.7756 24.7353 26.6921 24.5659 26.5252 24.4812C24.9396 23.5495 22.6863 23.6342 20.8502 24.82C20.1598 25.2341 19.5638 25.7799 19.0977 26.399V24.5674C19.0977 24.2286 18.8473 23.9745 18.5135 23.9745C18.1797 23.9745 17.9293 24.2286 17.9293 24.5674V26.4129C17.4763 25.8397 16.9101 25.3245 16.2602 24.9047C14.4242 23.7189 12.1709 23.6342 10.5852 24.5659C10.4183 24.6506 10.3349 24.82 10.3349 24.9894C10.1934 26.5684 11.0108 28.2083 12.3807 29.3936C11.7339 29.4729 11.1214 29.6717 10.5852 29.9868C10.4183 30.0715 10.3349 30.2409 10.3349 30.4103C10.1934 31.9893 11.0108 33.6291 12.3807 34.8144C11.7339 34.8938 11.1214 35.0926 10.5852 35.4076C10.4183 35.4923 10.3349 35.6617 10.3349 35.8312C10.168 37.6946 11.3363 39.6427 13.1724 40.8285C14.1738 41.4214 15.3422 41.7602 16.4271 41.7602C16.9341 41.7602 17.441 41.6977 17.9293 41.5537V43.371C17.9293 43.4404 17.9398 43.5063 17.9594 43.5672H9.5049H9.50392H8.64936C7.52619 40.5288 6.91174 37.237 6.91174 33.7983ZM9.11883 44.753H9.50393C10.7658 45.5207 19.11 50.6876 22.1849 58.7392C16.3548 55.8166 11.6948 50.8479 9.11883 44.753ZM11.5227 44.753C14.7701 46.9306 21.3547 52.0573 23.6846 59.4345C25.0923 60.0356 26.5597 60.5205 28.0752 60.8777C24.8061 51.1033 14.9208 44.9788 14.8415 44.9788C14.6997 44.9429 14.5881 44.8611 14.5129 44.753H11.5227ZM16.6826 44.753C19.8025 46.9267 26.8483 52.6914 29.3557 61.1467C30.777 61.4093 32.2363 61.5604 33.7245 61.5909C30.713 51.4022 20.3473 44.9788 20.2661 44.9788C20.1243 44.9429 20.0127 44.8611 19.9375 44.753H16.6826ZM39.1057 61.1671C37.7648 61.409 36.3902 61.5518 34.9897 61.5876C32.5992 52.8918 25.3119 46.9643 22.1167 44.753H25.6011C25.6695 44.8189 25.7558 44.8683 25.8576 44.8941C25.8621 44.8987 25.898 44.9226 25.9623 44.9653L25.9623 44.9653C27.0419 45.6821 36.1245 51.7134 39.1057 61.1671ZM40.3039 60.9226C37.7516 52.6418 30.8274 46.9771 27.7243 44.753H31.0257C31.0941 44.8189 31.1804 44.8683 31.2822 44.8941C31.2866 44.8987 31.318 44.9198 31.3738 44.9574C32.3129 45.5895 40.1667 50.8758 43.0812 60.1305C42.1757 60.4423 41.249 60.7073 40.3039 60.9226ZM59.4543 44.753H33.1511C33.7709 45.2097 34.5398 45.8145 35.3882 46.5661C35.4774 46.5261 35.5842 46.5035 35.7014 46.5035H58.6419C58.9319 45.9313 59.203 45.3475 59.4543 44.753ZM58.194 47.3505C57.8757 47.9282 57.5377 48.4932 57.1809 49.0445H38.1697C38.0865 49.0445 38.0088 49.0575 37.9397 49.0811C37.3636 48.4489 36.7927 47.872 36.2434 47.3505H58.194ZM38.654 49.8915H56.6105C56.203 50.4732 55.7741 51.0383 55.3248 51.5855H40.0012C39.5582 50.9871 39.1066 50.4224 38.654 49.8915ZM40.6062 52.4325C40.978 52.9725 41.3407 53.5372 41.6896 54.1266H52.9584C53.5291 53.5858 54.0771 53.0206 54.6007 52.4325H40.6062ZM43.0309 56.685C42.76 56.0946 42.4723 55.5241 42.1715 54.9736H52.0226C51.3283 55.5737 50.6042 56.1392 49.8528 56.6676H43.1993C43.1401 56.6676 43.0837 56.6736 43.0309 56.685ZM43.3949 57.5146C43.6909 58.2217 43.9622 58.9555 44.2031 59.7161C45.731 59.1128 47.1926 58.3741 48.5734 57.5146H43.3949ZM63.6614 33.7983C63.6614 46.5873 55.7141 57.5082 44.5424 61.7306C44.4673 61.8188 44.3571 61.8837 44.2177 61.919H44.0508C44.044 61.919 44.0372 61.9189 44.0303 61.9186C40.9819 63.0054 37.7029 63.5966 34.2866 63.5966C18.0494 63.5966 4.91174 50.2415 4.91174 33.7983C4.91174 17.3552 18.0494 4 34.2866 4C50.5237 4 63.6614 17.3552 63.6614 33.7983ZM17.9293 28.7998V29.4321C16.6909 29.979 15.1439 29.7987 13.7565 28.9704C12.3378 28.1234 11.4198 26.6834 11.4198 25.3282C12.5882 24.7353 14.2573 24.9047 15.676 25.7517C16.8886 26.4757 17.6744 27.6327 17.9293 28.7998ZM17.9293 30.712C17.6308 30.8 17.3254 30.8576 17.0172 30.889C17.3565 31.1787 17.6625 31.4962 17.9293 31.8338V30.712ZM19.0977 31.8198V30.6477C19.3777 30.7484 19.675 30.8233 19.9858 30.8685C19.6539 31.1565 19.3559 31.4769 19.0977 31.8198ZM17.9293 34.2206V34.8529C16.6909 35.3998 15.1439 35.2195 13.7565 34.3912C12.3378 33.5442 11.4198 32.1043 11.4198 30.7491C12.5882 30.1562 14.2573 30.3256 15.676 31.1726C16.8886 31.8965 17.6744 33.0535 17.9293 34.2206ZM17.9293 36.1328V37.2546C17.6625 36.9171 17.3565 36.5996 17.0172 36.3099C17.3254 36.2784 17.6308 36.2209 17.9293 36.1328ZM19.0977 37.2407V36.0686C19.3777 36.1692 19.675 36.2441 19.9858 36.2893C19.6539 36.5773 19.3559 36.8978 19.0977 37.2407ZM17.9293 39.6415C17.6744 38.4744 16.8886 37.3174 15.676 36.5935C14.2573 35.7464 12.5882 35.577 11.4198 36.17C11.4198 37.5252 12.3378 38.9651 13.7565 39.8121C15.1439 40.6404 16.6909 40.8207 17.9293 40.2738V39.6415ZM19.1056 40.1332C19.1078 40.1694 19.1096 40.2056 19.1109 40.2418C20.3606 40.8273 21.9401 40.6561 23.3539 39.8121C24.7726 38.9651 25.6072 37.5252 25.6907 36.1699C24.4388 35.577 22.8532 35.7464 21.4344 36.5935C20.1328 37.5017 19.2277 38.8124 19.1056 40.1332ZM23.3539 34.3912C21.9401 35.2353 20.3606 35.4064 19.1109 34.8209C19.1096 34.7847 19.1078 34.7485 19.1056 34.7123C19.2277 33.3915 20.1328 32.0808 21.4344 31.1726C22.8532 30.3256 24.4388 30.1562 25.6907 30.7491C25.6072 32.1043 24.7726 33.5442 23.3539 34.3912ZM21.4344 25.8364C20.1429 26.6557 19.2417 28.0297 19.1086 29.3452C19.1109 29.3921 19.1124 29.4389 19.1131 29.4858C20.3625 30.0701 21.941 29.8986 23.3539 29.0551C24.7726 28.2081 25.6072 26.7681 25.6907 25.4129C24.4388 24.82 22.8532 24.9894 21.4344 25.8364ZM38.6201 23.2246C38.6163 23.3069 38.6141 23.3892 38.6137 23.4714C36.8618 24.3953 34.3651 24.1394 32.2836 22.8719C30.1972 21.5167 28.862 19.3992 28.862 17.3663C30.6145 16.4346 33.1182 16.6887 35.2046 17.9592C37.2089 19.2612 38.52 21.2666 38.6201 23.2246ZM39.7946 23.1023L39.7946 23.4648C41.6306 24.3965 44.0508 24.1424 46.1372 22.8719C48.2236 21.6014 49.5589 19.4839 49.5589 17.3663C47.7229 16.4346 45.3027 16.6887 43.2163 17.9592C41.1752 19.2341 39.8725 21.1834 39.7946 23.1023ZM39.7946 27.4201V24.7475C40.4747 24.9994 41.2012 25.1279 41.9329 25.1538C41.0625 25.7988 40.3405 26.5743 39.7946 27.4201ZM39.7946 30.7254L39.7946 31.0879C41.6306 32.0196 44.0508 31.7655 46.1372 30.495C48.2236 29.2245 49.5589 27.1069 49.5589 24.9894C47.7229 24.0577 45.3027 24.3118 43.2163 25.5823C41.1752 26.8571 39.8725 28.8065 39.7946 30.7254ZM36.5122 25.1502C37.3791 25.8126 38.0933 26.6058 38.6262 27.4675V24.6882C37.9696 24.9754 37.2716 25.1157 36.5122 25.1502ZM38.6262 35.0906V32.3594C37.9979 32.6273 37.3317 32.7965 36.61 32.8491C37.4329 33.4959 38.1135 34.2615 38.6262 35.0906ZM39.7946 32.4552V35.0432C40.318 34.2321 41.0034 33.4857 41.8263 32.8571C41.1307 32.8229 40.4417 32.6949 39.7946 32.4552ZM39.7946 38.3485L39.7946 38.711C41.6306 39.6427 44.0508 39.3886 46.1372 38.1181C48.2236 36.8476 49.5589 34.73 49.5589 32.6125C47.7229 31.6808 45.3027 31.9349 43.2163 33.2054C41.1752 34.4802 39.8725 36.4296 39.7946 38.3485ZM33.2475 32.3415C33.4444 32.4155 33.6426 32.4814 33.8415 32.5394C34.3071 32.7153 34.7651 32.9378 35.2046 33.2054C37.2238 34.517 38.5395 36.5426 38.6221 38.5144C38.6185 38.582 38.6161 38.6495 38.6148 38.717C36.8628 39.6416 34.3655 39.3858 32.2836 38.1181C30.1972 36.7628 28.862 34.6453 28.862 32.6125C30.0892 31.9601 31.6848 31.8891 33.2475 32.3415ZM38.6221 30.8913C38.6185 30.9589 38.6161 31.0265 38.6148 31.094C36.8628 32.0185 34.3655 31.7627 32.2836 30.495C30.1972 29.1398 28.862 27.0222 28.862 24.9894C30.6145 24.0577 33.1182 24.3118 35.2046 25.5823C37.2238 26.8939 38.5395 28.9195 38.6221 30.8913Z" fill="black"/>
<path d="M59.9238 43.5672V44.5672H60.6202L60.8617 43.9139L59.9238 43.5672ZM39.7401 43.5672L38.8166 43.1835L38.2418 44.5672H39.7401V43.5672ZM39.7946 40.0783L40.142 39.1406L38.7946 38.6415V40.0783H39.7946ZM46.7214 39.2192L47.1947 40.1001L47.2227 40.0851L47.2496 40.0683L46.7214 39.2192ZM50.6438 32.3584H49.6438V32.3912L49.646 32.424L50.6438 32.3584ZM50.3934 31.9349L49.8637 32.7831L49.9013 32.8066L49.9409 32.8266L50.3934 31.9349ZM47.5182 31.0398L46.903 30.2515L44.838 31.8632L47.4516 32.0376L47.5182 31.0398ZM50.6438 24.7353H49.6438V24.7681L49.646 24.8009L50.6438 24.7353ZM50.3934 24.3118L49.8637 25.16L49.9013 25.1835L49.9409 25.2036L50.3934 24.3118ZM47.416 23.4107L46.812 22.6137L44.6314 24.2663L47.3638 24.4093L47.416 23.4107ZM50.6438 17.0275H49.6438V17.0603L49.646 17.0931L50.6438 17.0275ZM50.3934 16.604L49.8637 17.4522L49.9013 17.4757L49.9409 17.4958L50.3934 16.604ZM42.5486 17.0275L42.0204 16.1784L42.0204 16.1784L42.5486 17.0275ZM39.7946 19.7123H38.7946V23.106L40.6348 20.2546L39.7946 19.7123ZM38.6262 19.7597L37.7758 20.2857L39.6262 23.2777V19.7597H38.6262ZM35.7888 16.9428L35.2606 17.792L35.2606 17.792L35.7888 16.9428ZM27.944 16.5193L28.3965 17.4111L28.4361 17.391L28.4737 17.3675L27.944 16.5193ZM27.6936 16.9428L28.6914 17.0084L28.6936 16.9756V16.9428H27.6936ZM30.9214 23.326L30.9736 24.3246L33.706 24.1816L31.5254 22.529L30.9214 23.326ZM27.944 24.2271L28.3965 25.1189L28.436 25.0988L28.4737 25.0753L27.944 24.2271ZM27.6936 24.6506L28.6914 24.7162L28.6936 24.6834V24.6506H27.6936ZM30.8191 30.9551L30.8858 31.9529L33.4994 31.7785L31.4344 30.1668L30.8191 30.9551ZM27.944 31.8502L28.3965 32.7419L28.436 32.7219L28.4737 32.6984L27.944 31.8502ZM27.6936 32.2737L28.6914 32.3392L28.6936 32.3065V32.2737H27.6936ZM31.616 39.1345L32.1649 38.2986L32.1546 38.2919L32.1442 38.2854L31.616 39.1345ZM38.6262 39.9825H39.6262V38.469L38.234 39.0626L38.6262 39.9825ZM38.6564 43.5672V44.5672H40.0288L39.6082 43.2607L38.6564 43.5672ZM19.0546 43.5672L18.1073 43.2469L17.661 44.5672H19.0546V43.5672ZM19.0977 41.4894L19.436 40.5484L18.0977 40.0672V41.4894H19.0977ZM23.9381 40.7438L23.4238 39.8862L23.4003 39.9003L23.3777 39.9156L23.9381 40.7438ZM26.7756 35.7464H25.7756V35.7911L25.7796 35.8357L26.7756 35.7464ZM26.5252 35.3229L26.0186 36.1851L26.0452 36.2007L26.0727 36.2147L26.5252 35.3229ZM24.7584 34.7333L24.1101 33.972L22.3891 35.4375L24.6311 35.7252L24.7584 34.7333ZM26.7756 30.3256H25.7756V30.3703L25.7796 30.4148L26.7756 30.3256ZM26.5252 29.9021L26.0186 30.7643L26.0452 30.7799L26.0727 30.7938L26.5252 29.9021ZM24.7584 29.3125L24.11 28.5511L22.3891 30.0166L24.6311 30.3043L24.7584 29.3125ZM26.7756 24.9047H25.7756V24.9494L25.7796 24.9939L26.7756 24.9047ZM26.5252 24.4812L26.0186 25.3434L26.0452 25.359L26.0727 25.373L26.5252 24.4812ZM20.8502 24.82L21.3646 25.6776L21.3788 25.6691L21.3928 25.66L20.8502 24.82ZM19.0977 26.399H18.0977V29.3895L19.8966 27.0005L19.0977 26.399ZM17.9293 26.4129L17.1447 27.0329L18.9293 29.2911V26.4129H17.9293ZM16.2602 24.9047L16.8027 24.0647L16.8027 24.0647L16.2602 24.9047ZM10.5852 24.5659L11.0378 25.4577L11.0653 25.4437L11.0918 25.4281L10.5852 24.5659ZM10.3349 24.9894L11.3309 25.0786L11.3349 25.0341V24.9894H10.3349ZM12.3807 29.3936L12.5025 30.3861L14.7391 30.1118L13.035 28.6373L12.3807 29.3936ZM10.5852 29.9868L11.0378 30.8785L11.0653 30.8646L11.0918 30.849L10.5852 29.9868ZM10.3349 30.4103L11.3309 30.4995L11.3349 30.455V30.4103H10.3349ZM12.3807 34.8144L12.5025 35.807L14.7391 35.5326L13.035 34.0582L12.3807 34.8144ZM10.5852 35.4076L11.0378 36.2994L11.0653 36.2854L11.0918 36.2698L10.5852 35.4076ZM10.3349 35.8312L11.3309 35.9204L11.3349 35.8758V35.8312H10.3349ZM13.1724 40.8285L12.6298 41.6685L12.6462 41.6791L12.6629 41.689L13.1724 40.8285ZM17.9293 41.5537H18.9293V40.2161L17.6464 40.5945L17.9293 41.5537ZM17.9594 43.5672V44.5672H19.3319L18.9113 43.2607L17.9594 43.5672ZM8.64936 43.5672L7.71139 43.9139L7.95288 44.5672H8.64936V43.5672ZM9.50393 44.753L10.0237 43.8987L9.78422 43.753H9.50393V44.753ZM9.11883 44.753V43.753H7.61054L8.19772 45.1423L9.11883 44.753ZM22.1849 58.7392L21.7367 59.6331L24.0371 60.7863L23.1191 58.3824L22.1849 58.7392ZM23.6846 59.4345L22.731 59.7356L22.8693 60.1737L23.2919 60.3542L23.6846 59.4345ZM11.5227 44.753V43.753H8.23605L10.9658 45.5835L11.5227 44.753ZM28.0752 60.8777L27.8459 61.851L29.5929 62.2627L29.0236 60.5605L28.0752 60.8777ZM14.8415 44.9788L14.5955 45.9481L14.7166 45.9788H14.8415V44.9788ZM14.5129 44.753L15.334 44.1822L15.0356 43.753H14.5129V44.753ZM29.3557 61.1467L28.397 61.431L28.5713 62.0187L29.174 62.13L29.3557 61.1467ZM16.6826 44.753V43.753H13.498L16.1109 45.5735L16.6826 44.753ZM33.7245 61.5909L33.704 62.5907L35.0711 62.6187L34.6835 61.3074L33.7245 61.5909ZM20.2661 44.9788L20.0201 45.9481L20.1412 45.9788H20.2661V44.9788ZM19.9375 44.753L20.7586 44.1822L20.4602 43.753H19.9375V44.753ZM34.9897 61.5876L34.0255 61.8527L34.2329 62.6074L35.0153 62.5873L34.9897 61.5876ZM39.1057 61.1671L39.2833 62.1512L40.401 61.9495L40.0595 60.8663L39.1057 61.1671ZM22.1167 44.753V43.753H18.9144L21.5476 45.5753L22.1167 44.753ZM25.6011 44.753L26.2949 44.0328L26.0044 43.753H25.6011V44.753ZM25.8576 44.8941L26.5699 44.1923L26.374 43.9935L26.1035 43.9249L25.8576 44.8941ZM25.9623 44.9653L26.587 44.1844L26.5524 44.1567L26.5154 44.1322L25.9623 44.9653ZM25.9623 44.9653L25.3376 45.7462L25.3722 45.7738L25.4091 45.7983L25.9623 44.9653ZM27.7243 44.753V43.753H24.6126L27.1418 45.5658L27.7243 44.753ZM40.3039 60.9226L39.3482 61.2172L39.6215 62.1037L40.526 61.8976L40.3039 60.9226ZM31.0257 44.753L31.7195 44.0328L31.429 43.753H31.0257V44.753ZM31.2822 44.8941L31.9943 44.1921L31.7985 43.9935L31.5281 43.9249L31.2822 44.8941ZM31.3738 44.9574L31.9322 44.1278L31.9322 44.1278L31.3738 44.9574ZM43.0812 60.1305L43.4067 61.0761L44.3275 60.759L44.035 59.8302L43.0812 60.1305ZM33.1511 44.753V43.753H30.1082L32.5578 45.558L33.1511 44.753ZM59.4543 44.753L60.3754 45.1423L60.9626 43.753H59.4543V44.753ZM35.3882 46.5661L34.7251 47.3146L35.2084 47.7428L35.7975 47.4785L35.3882 46.5661ZM58.6419 46.5035V47.5035H59.2561L59.5338 46.9556L58.6419 46.5035ZM57.1809 49.0445V50.0445H57.7249L58.0205 49.5878L57.1809 49.0445ZM58.194 47.3505L59.0699 47.833L59.8867 46.3505H58.194V47.3505ZM37.9397 49.0811L37.2005 49.7547L37.6423 50.2395L38.263 50.0274L37.9397 49.0811ZM36.2434 47.3505V46.3505H33.7374L35.5549 48.0757L36.2434 47.3505ZM56.6105 49.8915L57.4296 50.4652L58.5319 48.8915H56.6105V49.8915ZM38.654 49.8915V48.8915H36.4876L37.893 50.5402L38.654 49.8915ZM55.3248 51.5855V52.5855H55.7977L56.0978 52.22L55.3248 51.5855ZM40.0012 51.5855L39.1975 52.1805L39.4973 52.5855H40.0012V51.5855ZM41.6896 54.1266L40.829 54.6359L41.1194 55.1266H41.6896V54.1266ZM40.6062 52.4325V51.4325H38.7035L39.7825 52.9997L40.6062 52.4325ZM52.9584 54.1266V55.1266H53.3569L53.6462 54.8525L52.9584 54.1266ZM54.6007 52.4325L55.3476 53.0975L56.8298 51.4325H54.6007V52.4325ZM42.1715 54.9736V53.9736H40.4857L41.2939 55.453L42.1715 54.9736ZM43.0309 56.685L42.1221 57.1021L42.4568 57.8314L43.2413 57.6626L43.0309 56.685ZM52.0226 54.9736L52.6765 55.7301L54.7086 53.9736H52.0226V54.9736ZM49.8528 56.6676V57.6676H50.1691L50.4279 57.4856L49.8528 56.6676ZM43.3949 57.5146V56.5146H41.8922L42.4725 57.9008L43.3949 57.5146ZM44.2031 59.7161L43.2498 60.0181L43.5735 61.0398L44.5704 60.6462L44.2031 59.7161ZM48.5734 57.5146L49.1019 58.3635L52.0723 56.5146H48.5734V57.5146ZM44.5424 61.7306L44.1889 60.7952L43.948 60.8862L43.781 61.0823L44.5424 61.7306ZM44.2177 61.919V62.919H44.3426L44.4637 62.8883L44.2177 61.919ZM44.0303 61.9186L44.0671 60.9193L43.8753 60.9123L43.6945 60.9767L44.0303 61.9186ZM17.9293 29.4321L18.3333 30.3468L18.9293 30.0836V29.4321H17.9293ZM17.9293 28.7998H18.9293V28.6918L18.9063 28.5864L17.9293 28.7998ZM13.7565 28.9704L14.2692 28.1117L14.2692 28.1117L13.7565 28.9704ZM11.4198 25.3282L10.9673 24.4365L10.4198 24.7143V25.3282H11.4198ZM15.676 25.7517L15.1634 26.6104L15.1634 26.6104L15.676 25.7517ZM17.0172 30.889L16.9156 29.8942L14.5902 30.1316L16.3679 31.6495L17.0172 30.889ZM17.9293 30.712H18.9293V29.3744L17.6464 29.7528L17.9293 30.712ZM17.9293 31.8338L17.1447 32.4538L18.9293 34.712V31.8338H17.9293ZM19.0977 30.6477L19.436 29.7067L18.0977 29.2255V30.6477H19.0977ZM19.0977 31.8198H18.0977V34.8104L19.8966 32.4213L19.0977 31.8198ZM19.9858 30.8685L20.6412 31.6237L22.2897 30.193L20.1297 29.8789L19.9858 30.8685ZM17.9293 34.8529L18.3333 35.7677L18.9293 35.5045V34.8529H17.9293ZM17.9293 34.2206H18.9293V34.1127L18.9063 34.0072L17.9293 34.2206ZM13.7565 34.3912L13.2439 35.2498L13.2439 35.2498L13.7565 34.3912ZM11.4198 30.7491L10.9673 29.8573L10.4198 30.1352V30.7491H11.4198ZM15.676 31.1726L15.1634 32.0312L15.1634 32.0312L15.676 31.1726ZM17.9293 37.2546L17.1447 37.8747L18.9293 40.1328V37.2546H17.9293ZM17.9293 36.1328H18.9293V34.7953L17.6464 35.1737L17.9293 36.1328ZM17.0172 36.3099L16.9156 35.3151L14.5901 35.5525L16.3679 37.0704L17.0172 36.3099ZM19.0977 36.0686L19.436 35.1275L18.0977 34.6464V36.0686H19.0977ZM19.0977 37.2407H18.0977V40.2313L19.8966 37.8422L19.0977 37.2407ZM19.9858 36.2893L20.6412 37.0446L22.2898 35.6139L20.1297 35.2997L19.9858 36.2893ZM15.676 36.5935L16.1886 35.7348L16.1886 35.7348L15.676 36.5935ZM17.9293 39.6415H18.9293V39.5336L18.9063 39.4281L17.9293 39.6415ZM11.4198 36.17L10.9673 35.2782L10.4198 35.556V36.17H11.4198ZM13.7565 39.8121L14.2692 38.9535L14.2692 38.9535L13.7565 39.8121ZM17.9293 40.2738L18.3333 41.1885L18.9293 40.9253V40.2738H17.9293ZM19.1109 40.2418L18.1115 40.2775L18.1333 40.8881L18.6866 41.1474L19.1109 40.2418ZM19.1056 40.1332L18.1098 40.0411L18.1027 40.118L18.1075 40.195L19.1056 40.1332ZM23.3539 39.8121L22.8413 38.9535L22.8413 38.9535L23.3539 39.8121ZM25.6907 36.1699L26.6888 36.2314L26.7304 35.5559L26.1187 35.2662L25.6907 36.1699ZM21.4344 36.5935L20.9218 35.7348L20.8913 35.753L20.8622 35.7734L21.4344 36.5935ZM19.1109 34.8209L18.1115 34.8566L18.1333 35.4673L18.6866 35.7265L19.1109 34.8209ZM23.3539 34.3912L23.8665 35.2498L23.8665 35.2498L23.3539 34.3912ZM19.1056 34.7123L18.1098 34.6203L18.1027 34.6971L18.1075 34.7741L19.1056 34.7123ZM21.4344 31.1726L20.9218 30.314L20.8913 30.3322L20.8622 30.3525L21.4344 31.1726ZM25.6907 30.7491L26.6888 30.8106L26.7304 30.135L26.1187 29.8453L25.6907 30.7491ZM19.1086 29.3452L18.1136 29.2445L18.1061 29.3191L18.1098 29.3941L19.1086 29.3452ZM21.4344 25.8364L20.9218 24.9778L20.9102 24.9847L20.8988 24.992L21.4344 25.8364ZM19.1131 29.4858L18.1132 29.5006L18.1224 30.1265L18.6894 30.3917L19.1131 29.4858ZM23.3539 29.0551L23.8665 29.9137L23.8665 29.9137L23.3539 29.0551ZM25.6907 25.4129L26.6888 25.4744L26.7304 24.7989L26.1187 24.5092L25.6907 25.4129ZM38.6137 23.4714L39.0802 24.356L39.6106 24.0763L39.6137 23.4766L38.6137 23.4714ZM38.6201 23.2246L39.619 23.2706L39.6212 23.2221L39.6188 23.1735L38.6201 23.2246ZM32.2836 22.8719L31.7389 23.7105L31.7511 23.7184L31.7635 23.726L32.2836 22.8719ZM28.862 17.3663L28.3925 16.4834L27.862 16.7654V17.3663H28.862ZM35.2046 17.9592L35.7493 17.1206L35.7371 17.1127L35.7247 17.1051L35.2046 17.9592ZM39.7946 23.4648L38.7946 23.4648L38.7946 24.0787L39.3421 24.3566L39.7946 23.4648ZM39.7946 23.1023L38.7954 23.0618L38.7946 23.082L38.7946 23.1023L39.7946 23.1023ZM46.1372 22.8719L45.6171 22.0178L45.6171 22.0178L46.1372 22.8719ZM49.5589 17.3663H50.5589V16.7524L50.0114 16.4746L49.5589 17.3663ZM43.2163 17.9592L42.6961 17.1051L42.6865 17.1111L43.2163 17.9592ZM39.7946 24.7475L40.142 23.8097L38.7946 23.3107V24.7475H39.7946ZM39.7946 27.4201H38.7946V30.8138L40.6348 27.9623L39.7946 27.4201ZM41.9329 25.1538L42.5282 25.9573L44.8246 24.2559L41.9684 24.1545L41.9329 25.1538ZM39.7946 31.0879L38.7946 31.0879L38.7946 31.7018L39.3421 31.9796L39.7946 31.0879ZM39.7946 30.7254L38.7954 30.6848L38.7946 30.7051L38.7946 30.7254L39.7946 30.7254ZM46.1372 30.495L45.6171 29.6409L45.6171 29.6409L46.1372 30.495ZM49.5589 24.9894H50.5589V24.3755L50.0114 24.0977L49.5589 24.9894ZM43.2163 25.5823L42.6961 24.7282L42.6865 24.7342L43.2163 25.5823ZM38.6262 27.4675L37.7758 27.9935L39.6262 30.9855V27.4675H38.6262ZM36.5122 25.1502L36.4668 24.1512L33.7212 24.276L35.905 25.9448L36.5122 25.1502ZM38.6262 24.6882H39.6262V23.1594L38.2256 23.772L38.6262 24.6882ZM38.6262 32.3594H39.6262V30.8459L38.234 31.4395L38.6262 32.3594ZM38.6262 35.0906L37.7758 35.6166L39.6262 38.6086V35.0906H38.6262ZM36.61 32.8491L36.5374 31.8517L33.9614 32.0392L35.9921 33.6353L36.61 32.8491ZM39.7946 35.0432H38.7946V38.4369L40.6348 35.5854L39.7946 35.0432ZM39.7946 32.4552L40.142 31.5175L38.7946 31.0184V32.4552H39.7946ZM41.8263 32.8571L42.4334 33.6518L44.6053 31.9927L41.8755 31.8583L41.8263 32.8571ZM39.7946 38.711L38.7946 38.711L38.7946 39.3249L39.3421 39.6027L39.7946 38.711ZM39.7946 38.3485L38.7954 38.3079L38.7946 38.3282L38.7946 38.3485L39.7946 38.3485ZM46.1372 38.1181L45.6171 37.264L45.6171 37.264L46.1372 38.1181ZM49.5589 32.6125H50.5589V31.9986L50.0114 31.7208L49.5589 32.6125ZM43.2163 33.2054L42.6961 32.3513L42.6865 32.3573L43.2163 33.2054ZM33.8415 32.5394L34.1948 31.6039L34.1585 31.5902L34.1213 31.5794L33.8415 32.5394ZM33.2475 32.3415L33.5994 31.4054L33.563 31.3917L33.5255 31.3809L33.2475 32.3415ZM35.2046 33.2054L35.7493 32.3668L35.7371 32.3589L35.7247 32.3513L35.2046 33.2054ZM38.6221 38.5144L39.6207 38.5672L39.6232 38.5199L39.6212 38.4725L38.6221 38.5144ZM38.6148 38.717L39.0815 39.6015L39.6031 39.3262L39.6146 38.7365L38.6148 38.717ZM32.2836 38.1181L31.7389 38.9567L31.7511 38.9646L31.7635 38.9722L32.2836 38.1181ZM28.862 32.6125L28.3925 31.7295L27.862 32.0116V32.6125H28.862ZM38.6148 31.094L39.0815 31.9784L39.6031 31.7031L39.6146 31.1134L38.6148 31.094ZM38.6221 30.8913L39.6207 30.9441L39.6232 30.8968L39.6212 30.8495L38.6221 30.8913ZM32.2836 30.495L31.7389 31.3336L31.7511 31.3415L31.7635 31.3491L32.2836 30.495ZM28.862 24.9894L28.3925 24.1064L27.862 24.3885V24.9894H28.862ZM35.2046 25.5823L35.7493 24.7437L35.7371 24.7358L35.7247 24.7282L35.2046 25.5823ZM34.2866 5C18.6157 5 5.91174 17.8933 5.91174 33.7983H7.91174C7.91174 18.9701 19.7478 7 34.2866 7V5ZM62.6614 33.7983C62.6614 17.8933 49.9574 5 34.2866 5V7C48.8253 7 60.6614 18.9701 60.6614 33.7983H62.6614ZM60.8617 43.9139C62.0254 40.766 62.6614 37.3569 62.6614 33.7983H60.6614C60.6614 37.1172 60.0685 40.2916 58.9858 43.2204L60.8617 43.9139ZM39.7401 44.5672H59.9238V42.5672H39.7401V44.5672ZM38.7946 43.2863C38.7946 43.2589 38.8004 43.2226 38.8166 43.1835L40.6636 43.9508C40.7483 43.7467 40.7946 43.5223 40.7946 43.2863H38.7946ZM38.7946 40.0783V43.2863H40.7946V40.0783H38.7946ZM42.2148 39.4897C41.4887 39.4897 40.7822 39.3778 40.142 39.1406L39.4473 41.0161C40.3417 41.3474 41.2881 41.4897 42.2148 41.4897V39.4897ZM46.2481 38.3383C44.926 39.0487 43.5041 39.4897 42.2148 39.4897V41.4897C43.93 41.4897 45.6793 40.9143 47.1947 40.1001L46.2481 38.3383ZM49.646 32.424C49.7846 34.535 48.5233 36.9206 46.1932 38.3701L47.2496 40.0683C50.0937 38.2991 51.8368 35.2639 51.6417 32.2929L49.646 32.424ZM49.9409 32.8266C49.7208 32.715 49.6438 32.5047 49.6438 32.3584H51.6438C51.6438 31.8733 51.3999 31.3242 50.846 31.0432L49.9409 32.8266ZM47.4516 32.0376C48.3478 32.0974 49.1716 32.3508 49.8637 32.7831L50.9232 31.0867C49.9218 30.4613 48.7727 30.1214 47.5848 30.0421L47.4516 32.0376ZM49.646 24.8009C49.7696 26.6829 48.783 28.7842 46.903 30.2515L48.1335 31.8282C50.442 30.0265 51.8159 27.3229 51.6417 24.6698L49.646 24.8009ZM49.9409 25.2036C49.7208 25.0919 49.6438 24.8816 49.6438 24.7353H51.6438C51.6438 24.2503 51.3999 23.7011 50.846 23.4201L49.9409 25.2036ZM47.3638 24.4093C48.2938 24.458 49.1491 24.7136 49.8637 25.16L50.9232 23.4637C49.8891 22.8178 48.6976 22.4764 47.4683 22.412L47.3638 24.4093ZM49.646 17.0931C49.7716 19.0057 48.7503 21.1448 46.812 22.6137L48.02 24.2077C50.3978 22.4057 51.8187 19.6577 51.6417 16.962L49.646 17.0931ZM49.9409 17.4958C49.7208 17.3841 49.6438 17.1738 49.6438 17.0275H51.6438C51.6438 16.5425 51.3999 15.9934 50.846 15.7123L49.9409 17.4958ZM43.0768 17.8767C45.4167 16.4211 48.0876 16.3429 49.8637 17.4522L50.9232 15.7559C48.3596 14.1547 44.8548 14.4153 42.0204 16.1784L43.0768 17.8767ZM40.6348 20.2546C41.2234 19.3425 42.0513 18.5146 43.0768 17.8767L42.0204 16.1784C40.7478 16.9701 39.7055 18.0062 38.9544 19.1701L40.6348 20.2546ZM38.7946 16.8596V19.7123H40.7946V16.8596H38.7946ZM39.2104 17.2667C39.1158 17.2667 39.0034 17.2273 38.9154 17.1379C38.8281 17.0493 38.7946 16.9423 38.7946 16.8596H40.7946C40.7946 15.9826 40.1105 15.2667 39.2104 15.2667V17.2667ZM39.6262 16.8596C39.6262 16.9423 39.5928 17.0493 39.5055 17.138C39.4175 17.2273 39.305 17.2667 39.2104 17.2667V15.2667C38.3104 15.2667 37.6262 15.9825 37.6262 16.8596H39.6262ZM39.6262 19.7597V16.8596H37.6262V19.7597H39.6262ZM35.2606 17.792C36.3296 18.4569 37.1835 19.3281 37.7758 20.2857L39.4767 19.2337C38.7196 18.0095 37.6433 16.9187 36.317 16.0937L35.2606 17.792ZM28.4737 17.3675C30.2498 16.2582 32.9207 16.3364 35.2606 17.792L36.317 16.0937C33.4826 14.3306 29.9778 14.07 27.4142 15.6712L28.4737 17.3675ZM28.6936 16.9428C28.6936 17.0891 28.6165 17.2994 28.3965 17.4111L27.4914 15.6276C26.9375 15.9087 26.6936 16.4578 26.6936 16.9428H28.6936ZM31.5254 22.529C29.5871 21.0601 28.5658 18.921 28.6914 17.0084L26.6957 16.8773C26.5187 19.573 27.9396 22.321 30.3174 24.123L31.5254 22.529ZM28.4737 25.0753C29.1883 24.6289 30.0436 24.3733 30.9736 24.3246L30.8691 22.3273C29.6398 22.3917 28.4483 22.7331 27.4142 23.379L28.4737 25.0753ZM28.6936 24.6506C28.6936 24.7969 28.6165 25.0072 28.3965 25.1189L27.4914 23.3354C26.9375 23.6164 26.6936 24.1656 26.6936 24.6506H28.6936ZM31.4344 30.1668C29.5544 28.6995 28.5678 26.5982 28.6914 24.7162L26.6957 24.5851C26.5215 27.2382 27.8954 29.9418 30.2039 31.7435L31.4344 30.1668ZM28.4737 32.6984C29.1658 32.2661 29.9896 32.0127 30.8858 31.9529L30.7525 29.9574C29.5647 30.0367 28.4155 30.3766 27.4142 31.002L28.4737 32.6984ZM28.6936 32.2737C28.6936 32.42 28.6165 32.6303 28.3965 32.7419L27.4914 30.9584C26.9375 31.2395 26.6936 31.7886 26.6936 32.2737H28.6936ZM32.1442 38.2854C29.8141 36.8359 28.5528 34.4503 28.6914 32.3392L26.6957 32.2082C26.5006 35.1791 28.2437 38.2144 31.0878 39.9836L32.1442 38.2854ZM36.1226 39.4897C34.8063 39.4897 33.4132 39.1183 32.1649 38.2986L31.0671 39.9703C32.6563 41.014 34.4344 41.4897 36.1226 41.4897V39.4897ZM38.234 39.0626C37.5879 39.3381 36.8973 39.4897 36.1226 39.4897V41.4897C37.1728 41.4897 38.1297 41.2813 39.0185 40.9023L38.234 39.0626ZM39.6262 43.371V39.9825H37.6262V43.371H39.6262ZM39.6082 43.2607C39.6213 43.3013 39.6262 43.339 39.6262 43.371H37.6262C37.6262 43.5419 37.6522 43.7113 37.7045 43.8736L39.6082 43.2607ZM19.0546 44.5672H38.6564V42.5672H19.0546V44.5672ZM18.0977 43.2863C18.0977 43.2939 18.0966 43.2786 18.1073 43.2469L20.0019 43.8874C20.0684 43.6908 20.0977 43.4873 20.0977 43.2863H18.0977ZM18.0977 41.4894V43.2863H20.0977V41.4894H18.0977ZM20.6833 40.7602C20.2305 40.7602 19.81 40.6828 19.436 40.5484L18.7594 42.4305C19.3526 42.6438 20.0023 42.7602 20.6833 42.7602V40.7602ZM23.3777 39.9156C22.5418 40.4811 21.5687 40.7602 20.6833 40.7602V42.7602C21.9679 42.7602 23.3314 42.3617 24.4985 41.572L23.3777 39.9156ZM25.7796 35.8357C25.9059 37.2459 24.9972 38.9426 23.4238 39.8862L24.4524 41.6014C26.551 40.3428 27.9791 37.9738 27.7716 35.6572L25.7796 35.8357ZM26.0727 36.2147C25.8526 36.103 25.7756 35.8927 25.7756 35.7464H27.7756C27.7756 35.2614 27.5316 34.7123 26.9777 34.4312L26.0727 36.2147ZM24.6311 35.7252C25.1454 35.7912 25.6167 35.949 26.0186 36.1851L27.0318 34.4608C26.3773 34.0762 25.6439 33.8388 24.8857 33.7415L24.6311 35.7252ZM25.7796 30.4148C25.8852 31.5945 25.27 32.9842 24.1101 33.972L25.4067 35.4947C26.952 34.1788 27.9468 32.1926 27.7716 30.2364L25.7796 30.4148ZM26.0727 30.7938C25.8526 30.6822 25.7756 30.4718 25.7756 30.3256H27.7756C27.7756 29.8405 27.5316 29.2914 26.9777 29.0103L26.0727 30.7938ZM24.6311 30.3043C25.1454 30.3703 25.6167 30.5281 26.0186 30.7643L27.0318 29.0399C26.3773 28.6553 25.6439 28.4179 24.8857 28.3206L24.6311 30.3043ZM25.7796 24.9939C25.8852 26.1737 25.27 27.5633 24.11 28.5511L25.4067 30.0738C26.952 28.7579 27.9468 26.7717 27.7716 24.8155L25.7796 24.9939ZM26.0727 25.373C25.8526 25.2613 25.7756 25.051 25.7756 24.9047H27.7756C27.7756 24.4197 27.5316 23.8705 26.9777 23.5895L26.0727 25.373ZM21.3928 25.66C22.9549 24.6511 24.8012 24.628 26.0186 25.3434L27.0318 23.619C25.0779 22.471 22.4176 22.6173 20.3077 23.98L21.3928 25.66ZM19.8966 27.0005C20.2873 26.4815 20.7876 26.0236 21.3646 25.6776L20.3359 23.9624C19.532 24.4445 18.8403 25.0784 18.2988 25.7975L19.8966 27.0005ZM18.0977 24.5674V26.399H20.0977V24.5674H18.0977ZM18.5135 24.9745C18.4189 24.9745 18.3064 24.9351 18.2184 24.8458C18.1311 24.7571 18.0977 24.6501 18.0977 24.5674H20.0977C20.0977 23.6903 19.4135 22.9745 18.5135 22.9745V24.9745ZM18.9293 24.5674C18.9293 24.6501 18.8959 24.7571 18.8085 24.8458C18.7206 24.9351 18.6081 24.9745 18.5135 24.9745V22.9745C17.6135 22.9745 16.9293 23.6903 16.9293 24.5674H18.9293ZM18.9293 26.4129V24.5674H16.9293V26.4129H18.9293ZM15.7177 25.7447C16.2777 26.1065 16.7615 26.548 17.1447 27.0329L18.7139 25.7929C18.1911 25.1314 17.5425 24.5425 16.8027 24.0647L15.7177 25.7447ZM11.0918 25.4281C12.3093 24.7127 14.1555 24.7358 15.7177 25.7447L16.8027 24.0647C14.6928 22.702 12.0325 22.5557 10.0786 23.7037L11.0918 25.4281ZM11.3349 24.9894C11.3349 25.1357 11.2578 25.346 11.0378 25.4577L10.1327 23.6742C9.57882 23.9552 9.33487 24.5044 9.33487 24.9894H11.3349ZM13.035 28.6373C11.8386 27.6021 11.2255 26.2553 11.3309 25.0786L9.33886 24.9002C9.16138 26.8816 10.183 28.8144 11.7264 30.1498L13.035 28.6373ZM11.0918 30.849C11.4998 30.6093 11.9792 30.4503 12.5025 30.3861L12.259 28.401C11.4885 28.4955 10.743 28.7342 10.0786 29.1246L11.0918 30.849ZM11.3349 30.4103C11.3349 30.5565 11.2578 30.7669 11.0378 30.8785L10.1327 29.095C9.57883 29.3761 9.33487 29.9252 9.33487 30.4103H11.3349ZM13.035 34.0582C11.8386 33.023 11.2255 31.6761 11.3309 30.4995L9.33886 30.3211C9.16138 32.3025 10.183 34.2353 11.7264 35.5707L13.035 34.0582ZM11.0918 36.2698C11.4998 36.0301 11.9792 35.8712 12.5025 35.807L12.259 33.8219C11.4885 33.9164 10.743 34.1551 10.0786 34.5455L11.0918 36.2698ZM11.3349 35.8312C11.3349 35.9774 11.2578 36.1877 11.0378 36.2994L10.1327 34.5159C9.57883 34.797 9.33487 35.3461 9.33487 35.8312H11.3349ZM13.7149 39.9885C12.0953 38.9424 11.2062 37.3128 11.3309 35.9204L9.33886 35.7419C9.12976 38.0763 10.5774 40.343 12.6298 41.6685L13.7149 39.9885ZM16.4271 40.7602C15.5383 40.7602 14.5442 40.4786 13.6818 39.968L12.6629 41.689C13.8035 42.3643 15.1461 42.7602 16.4271 42.7602V40.7602ZM17.6464 40.5945C17.2628 40.7077 16.8527 40.7602 16.4271 40.7602V42.7602C17.0155 42.7602 17.6193 42.6877 18.2122 42.5128L17.6464 40.5945ZM18.9293 43.371V41.5537H16.9293V43.371H18.9293ZM18.9113 43.2607C18.9244 43.3014 18.9293 43.339 18.9293 43.371H16.9293C16.9293 43.5418 16.9553 43.7113 17.0075 43.8736L18.9113 43.2607ZM9.5049 44.5672H17.9594V42.5672H9.5049V44.5672ZM9.50392 44.5672H9.5049V42.5672H9.50392V44.5672ZM8.64936 44.5672H9.50392V42.5672H8.64936V44.5672ZM5.91174 33.7983C5.91174 37.3569 6.54773 40.766 7.71139 43.9139L9.58732 43.2204C8.50465 40.2916 7.91174 37.1172 7.91174 33.7983H5.91174ZM9.50393 43.753H9.11883V45.753H9.50393V43.753ZM23.1191 58.3824C21.5039 54.1531 18.5256 50.7237 15.838 48.2754C13.1419 45.8194 10.6792 44.2975 10.0237 43.8987L8.98417 45.6073C9.59056 45.9762 11.9309 47.4216 14.4911 49.7539C17.0598 52.0939 19.791 55.2737 21.2507 59.0959L23.1191 58.3824ZM8.19772 45.1423C10.8657 51.4549 15.6926 56.6033 21.7367 59.6331L22.633 57.8452C17.017 55.0299 12.5239 50.2409 10.0399 44.3637L8.19772 45.1423ZM24.6381 59.1333C22.1992 51.4107 15.3589 46.1215 12.0797 43.9224L10.9658 45.5835C14.1813 47.7398 20.5102 52.7039 22.731 59.7356L24.6381 59.1333ZM28.3046 59.9043C26.8456 59.5605 25.4328 59.0936 24.0772 58.5148L23.2919 60.3542C24.7518 60.9775 26.2738 61.4806 27.8459 61.851L28.3046 59.9043ZM14.8415 45.9788C14.6846 45.9788 14.5658 45.9401 14.5493 45.9351C14.5089 45.9227 14.4781 45.9103 14.4637 45.9044C14.4334 45.8919 14.4114 45.8809 14.4053 45.8778C14.3899 45.8701 14.3819 45.8655 14.3869 45.8683C14.3939 45.8722 14.4132 45.8834 14.447 45.904C14.5129 45.9442 14.6151 46.0085 14.7501 46.0971C15.0195 46.2739 15.4104 46.5412 15.8907 46.8943C16.8519 47.6007 18.1634 48.6447 19.5724 49.9869C22.402 52.6824 25.5645 56.5236 27.1269 61.1949L29.0236 60.5605C27.3168 55.4574 23.902 51.3491 20.9519 48.5388C19.471 47.1281 18.0921 46.0301 17.0752 45.2828C16.5666 44.9089 16.1466 44.6214 15.8474 44.425C15.6982 44.3271 15.5767 44.2503 15.4875 44.196C15.4438 44.1694 15.4026 44.145 15.3674 44.1251C15.3512 44.116 15.3267 44.1025 15.2993 44.0888C15.2872 44.0827 15.2604 44.0696 15.2265 44.0556C15.2103 44.0489 15.178 44.036 15.1364 44.0232C15.1187 44.0178 14.9989 43.9788 14.8415 43.9788V45.9788ZM13.6918 45.3238C13.9011 45.6249 14.2148 45.8515 14.5955 45.9481L15.0874 44.0096C15.1847 44.0342 15.275 44.0973 15.334 44.1822L13.6918 45.3238ZM11.5227 45.753H14.5129V43.753H11.5227V45.753ZM30.3145 60.8624C27.7077 52.0718 20.4251 46.1417 17.2543 43.9325L16.1109 45.5735C19.1798 47.7117 25.989 53.3109 28.397 61.431L30.3145 60.8624ZM33.745 60.5911C32.3111 60.5618 30.9057 60.4162 29.5374 60.1633L29.174 62.13C30.6482 62.4024 32.1614 62.5591 33.704 62.5907L33.745 60.5911ZM20.2661 45.9788C20.1067 45.9788 19.9858 45.9388 19.9707 45.9341C19.9305 45.9216 19.8999 45.9092 19.8857 45.9033C19.8559 45.8909 19.8344 45.8801 19.8285 45.8771C19.8137 45.8697 19.8063 45.8654 19.8118 45.8685C19.8199 45.8731 19.8408 45.8852 19.8764 45.9069C19.9458 45.9493 20.053 46.017 20.1944 46.1101C20.4763 46.2956 20.8848 46.576 21.3854 46.9459C22.387 47.6861 23.7495 48.7793 25.2013 50.183C28.1174 53.0026 31.3284 57.0123 32.7655 61.8744L34.6835 61.3074C33.1091 55.9808 29.6314 51.6845 26.5915 48.7452C25.0653 47.2695 23.6329 46.12 22.5741 45.3375C22.0444 44.946 21.6062 44.6449 21.2939 44.4394C21.1382 44.3369 21.0115 44.2567 20.9187 44.2C20.8731 44.1722 20.8308 44.147 20.7947 44.1267C20.7781 44.1173 20.7534 44.1036 20.7262 44.0899C20.7141 44.0839 20.6875 44.0707 20.6539 44.0567C20.6379 44.05 20.6057 44.0371 20.5643 44.0242C20.5479 44.0191 20.4261 43.9788 20.2661 43.9788V45.9788ZM19.1164 45.3238C19.3257 45.6249 19.6394 45.8515 20.0201 45.9481L20.512 44.0096C20.6093 44.0342 20.6996 44.0973 20.7586 44.1822L19.1164 45.3238ZM16.6826 45.753H19.9375V43.753H16.6826V45.753ZM35.0153 62.5873C36.467 62.5501 37.8924 62.4021 39.2833 62.1512L38.9282 60.183C37.6372 60.4159 36.3134 60.5534 34.9641 60.588L35.0153 62.5873ZM21.5476 45.5753C24.6943 47.7529 31.7317 53.5087 34.0255 61.8527L35.9539 61.3226C33.4667 52.2748 25.9296 46.1756 22.6857 43.9307L21.5476 45.5753ZM25.6011 43.753H22.1167V45.753H25.6011V43.753ZM26.1035 43.9249C26.1701 43.9417 26.2381 43.9781 26.2949 44.0328L24.9073 45.4732C25.1009 45.6596 25.3415 45.7949 25.6116 45.8634L26.1035 43.9249ZM26.5154 44.1322C26.4817 44.1098 26.4607 44.0958 26.4471 44.0866C26.4399 44.0817 26.4404 44.0821 26.4449 44.0852C26.4467 44.0865 26.4553 44.0926 26.467 44.1015C26.4729 44.106 26.4837 44.1143 26.497 44.1254C26.5039 44.1311 26.5133 44.1391 26.5244 44.1489C26.5348 44.1583 26.551 44.1731 26.5699 44.1923L25.1453 45.596C25.201 45.6526 25.2538 45.6915 25.2545 45.692C25.2692 45.7033 25.2819 45.7123 25.2887 45.7172C25.3031 45.7274 25.3176 45.7372 25.3279 45.7442C25.3495 45.7588 25.3785 45.778 25.4092 45.7983L26.5154 44.1322ZM26.587 44.1844L26.587 44.1844L25.3376 45.7461L25.3376 45.7462L26.587 44.1844ZM40.0595 60.8663C38.5024 55.9288 35.368 51.9236 32.5281 49.0829C29.6811 46.235 27.0773 44.5053 26.5155 44.1322L25.4091 45.7983C25.9268 46.1421 28.4041 47.7865 31.1137 50.4969C33.8303 53.2144 36.7279 56.9517 38.152 61.4678L40.0595 60.8663ZM27.1418 45.5658C30.206 47.762 36.8971 53.2643 39.3482 61.2172L41.2595 60.6281C38.6062 52.0193 31.4489 46.1923 28.3069 43.9402L27.1418 45.5658ZM31.0257 43.753H27.7243V45.753H31.0257V43.753ZM31.5281 43.9249C31.5947 43.9417 31.6627 43.9781 31.7195 44.0328L30.3319 45.4732C30.5254 45.6596 30.7661 45.7949 31.0362 45.8634L31.5281 43.9249ZM31.9322 44.1278C31.9027 44.1079 31.8852 44.0961 31.8742 44.0886C31.8682 44.0845 31.8701 44.0857 31.8756 44.0897C31.8781 44.0915 31.8871 44.098 31.8991 44.1073C31.9052 44.1121 31.9157 44.1204 31.9286 44.1312C31.9352 44.1368 31.944 44.1444 31.9541 44.1536C31.9639 44.1624 31.978 44.1756 31.9943 44.1921L30.57 45.5962C30.6206 45.6475 30.6672 45.6829 30.6711 45.6859C30.6859 45.6974 30.6985 45.7066 30.7055 45.7116C30.7199 45.722 30.7339 45.7317 30.7433 45.7382C30.7631 45.7517 30.7892 45.7693 30.8155 45.787L31.9322 44.1278ZM44.035 59.8302C41.01 50.2246 32.893 44.7745 31.9322 44.1278L30.8155 45.787C31.7329 46.4045 39.3233 51.5269 42.1273 60.4309L44.035 59.8302ZM40.526 61.8976C41.5063 61.6743 42.4676 61.3994 43.4067 61.0761L42.7556 59.185C41.8838 59.4852 40.9916 59.7403 40.0817 59.9476L40.526 61.8976ZM33.1511 45.753H59.4543V43.753H33.1511V45.753ZM36.0514 45.8177C35.1779 45.0438 34.3853 44.4203 33.7443 43.9479L32.5578 45.558C33.1565 45.9991 33.9017 46.5851 34.7251 47.3146L36.0514 45.8177ZM35.7014 45.5035C35.4576 45.5035 35.2094 45.5504 34.9789 45.6538L35.7975 47.4785C35.7454 47.5019 35.7108 47.5035 35.7014 47.5035V45.5035ZM58.6419 45.5035H35.7014V47.5035H58.6419V45.5035ZM58.5332 44.3637C58.2909 44.9368 58.0296 45.4996 57.7499 46.0513L59.5338 46.9556C59.8343 46.3629 60.1151 45.7581 60.3754 45.1423L58.5332 44.3637ZM58.0205 49.5878C58.3901 49.0167 58.7402 48.4315 59.0699 47.833L57.3182 46.8679C57.0113 47.4249 56.6854 47.9696 56.3414 48.5012L58.0205 49.5878ZM38.1697 50.0445H57.1809V48.0445H38.1697V50.0445ZM38.263 50.0274C38.2219 50.0414 38.1898 50.0445 38.1697 50.0445V48.0445C37.9832 48.0445 37.7957 48.0735 37.6163 48.1348L38.263 50.0274ZM35.5549 48.0757C36.0881 48.5818 36.6419 49.1416 37.2005 49.7547L38.6788 48.4075C38.0853 47.7562 37.4974 47.1621 36.9318 46.6252L35.5549 48.0757ZM58.194 46.3505H36.2434V48.3505H58.194V46.3505ZM56.6105 48.8915H38.654V50.8915H56.6105V48.8915ZM56.0978 52.22C56.5631 51.6531 57.0075 51.0678 57.4296 50.4652L55.7914 49.3178C55.3986 49.8786 54.9851 50.4234 54.5519 50.951L56.0978 52.22ZM40.0012 52.5855H55.3248V50.5855H40.0012V52.5855ZM37.893 50.5402C38.3315 51.0547 38.7689 51.6015 39.1975 52.1805L40.805 50.9905C40.3476 50.3727 39.8816 49.7901 39.4151 49.2428L37.893 50.5402ZM42.5501 53.6172C42.1891 53.0073 41.814 52.4233 41.4298 51.8654L39.7825 52.9997C40.142 53.5216 40.4923 54.0671 40.829 54.6359L42.5501 53.6172ZM52.9584 53.1266H41.6896V55.1266H52.9584V53.1266ZM53.8538 51.7676C53.349 52.3345 52.8208 52.8794 52.2707 53.4006L53.6462 54.8525C54.2375 54.2923 54.8052 53.7067 55.3476 53.0975L53.8538 51.7676ZM40.6062 53.4325H54.6007V51.4325H40.6062V53.4325ZM41.2939 55.453C41.584 55.9839 41.8612 56.5337 42.1221 57.1021L43.9398 56.2678C43.6587 55.6556 43.3606 55.0643 43.0491 54.4941L41.2939 55.453ZM52.0226 53.9736H42.1715V55.9736H52.0226V53.9736ZM50.4279 57.4856C51.2067 56.938 51.9571 56.3519 52.6765 55.7301L51.3686 54.217C50.6994 54.7955 50.0016 55.3405 49.2776 55.8496L50.4279 57.4856ZM49.8528 55.6676H43.1993V57.6676H49.8528V55.6676ZM43.1993 55.6676C43.0721 55.6676 42.9451 55.6806 42.8206 55.7074L43.2413 57.6626C43.2223 57.6667 43.2081 57.6676 43.1993 57.6676V55.6676ZM42.4725 57.9008C42.7574 58.5812 43.0182 59.287 43.2498 60.0181L45.1564 59.4141C44.9062 58.6241 44.6245 57.8621 44.3173 57.1284L42.4725 57.9008ZM44.5704 60.6462C46.155 60.0205 47.6705 59.2546 49.1019 58.3635L48.045 56.6656C46.7147 57.4937 45.307 58.205 43.8359 58.786L44.5704 60.6462ZM43.3949 58.5146H48.5734V56.5146H43.3949V58.5146ZM44.8959 62.666C56.451 58.2988 64.6614 47.0092 64.6614 33.7983H62.6614C62.6614 46.1653 54.9772 56.7177 44.1889 60.7952L44.8959 62.666ZM44.4637 62.8883C44.7619 62.8126 45.0687 62.655 45.3038 62.3789L43.781 61.0823C43.8659 60.9826 43.9522 60.9547 43.9718 60.9497L44.4637 62.8883ZM44.0508 62.919H44.2177V60.919H44.0508V62.919ZM43.9935 62.918C44.0118 62.9186 44.0309 62.919 44.0508 62.919V60.919C44.057 60.919 44.0625 60.9192 44.0671 60.9193L43.9935 62.918ZM34.2866 64.5966C37.819 64.5966 41.2116 63.9852 44.3661 62.8606L43.6945 60.9767C40.7523 62.0257 37.5867 62.5966 34.2866 62.5966V64.5966ZM3.91174 33.7983C3.91174 50.7796 17.483 64.5966 34.2866 64.5966V62.5966C18.6157 62.5966 5.91174 49.7033 5.91174 33.7983H3.91174ZM34.2866 3C17.483 3 3.91174 16.8171 3.91174 33.7983H5.91174C5.91174 17.8933 18.6157 5 34.2866 5V3ZM64.6614 33.7983C64.6614 16.8171 51.0901 3 34.2866 3V5C49.9574 5 62.6614 17.8933 62.6614 33.7983H64.6614ZM18.9293 29.4321V28.7998H16.9293V29.4321H18.9293ZM13.2439 29.829C14.8413 30.7827 16.7323 31.0539 18.3333 30.3468L17.5253 28.5173C16.6496 28.9041 15.4466 28.8147 14.2692 28.1117L13.2439 29.829ZM10.4198 25.3282C10.4198 27.1134 11.5964 28.8454 13.2439 29.829L14.2692 28.1117C13.0792 27.4013 12.4198 26.2535 12.4198 25.3282H10.4198ZM16.1886 24.8931C14.5657 23.9242 12.5252 23.6459 10.9673 24.4365L11.8723 26.22C12.6511 25.8248 13.9488 25.8852 15.1634 26.6104L16.1886 24.8931ZM18.9063 28.5864C18.5918 27.1464 17.636 25.7572 16.1886 24.8931L15.1634 26.6104C16.1412 27.1941 16.757 28.1189 16.9523 29.0131L18.9063 28.5864ZM17.1188 31.8839C17.4831 31.8467 17.8496 31.7781 18.2122 31.6711L17.6464 29.7528C17.412 29.8219 17.1677 29.8685 16.9156 29.8942L17.1188 31.8839ZM18.7139 31.2137C18.4057 30.8238 18.0541 30.4595 17.6666 30.1285L16.3679 31.6495C16.6588 31.898 16.9194 32.1686 17.1447 32.4538L18.7139 31.2137ZM16.9293 30.712V31.8338H18.9293V30.712H16.9293ZM18.0977 30.6477V31.8198H20.0977V30.6477H18.0977ZM20.1297 29.8789C19.8847 29.8432 19.6526 29.7845 19.436 29.7067L18.7594 31.5887C19.1029 31.7122 19.4654 31.8033 19.8419 31.8581L20.1297 29.8789ZM19.8966 32.4213C20.1126 32.1344 20.3626 31.8656 20.6412 31.6237L19.3304 30.1132C18.9453 30.4474 18.5992 30.8194 18.2988 31.2183L19.8966 32.4213ZM18.9293 34.8529V34.2206H16.9293V34.8529H18.9293ZM13.2439 35.2498C14.8413 36.2035 16.7323 36.4747 18.3333 35.7677L17.5253 33.9382C16.6496 34.3249 15.4466 34.2355 14.2692 33.5326L13.2439 35.2498ZM10.4198 30.7491C10.4198 32.5342 11.5964 34.2662 13.2439 35.2498L14.2692 33.5326C13.0792 32.8222 12.4198 31.6744 12.4198 30.7491H10.4198ZM16.1886 30.314C14.5657 29.3451 12.5252 29.0667 10.9673 29.8573L11.8723 31.6408C12.6511 31.2456 13.9488 31.3061 15.1634 32.0312L16.1886 30.314ZM18.9063 34.0072C18.5918 32.5673 17.636 31.1781 16.1886 30.314L15.1634 32.0312C16.1412 32.615 16.757 33.5398 16.9523 34.434L18.9063 34.0072ZM18.9293 37.2546V36.1328H16.9293V37.2546H18.9293ZM16.3679 37.0704C16.6588 37.3188 16.9194 37.5895 17.1447 37.8747L18.7139 36.6346C18.4057 36.2447 18.0541 35.8803 17.6665 35.5494L16.3679 37.0704ZM17.6464 35.1737C17.412 35.2428 17.1677 35.2893 16.9156 35.3151L17.1188 37.3047C17.4831 37.2675 17.8496 37.1989 18.2122 37.092L17.6464 35.1737ZM18.0977 36.0686V37.2407H20.0977V36.0686H18.0977ZM20.1297 35.2997C19.8847 35.2641 19.6526 35.2054 19.436 35.1275L18.7594 37.0096C19.1029 37.1331 19.4654 37.2241 19.8419 37.2789L20.1297 35.2997ZM19.8966 37.8422C20.1126 37.5553 20.3626 37.2864 20.6412 37.0446L19.3304 35.5341C18.9453 35.8683 18.5992 36.2403 18.2988 36.6392L19.8966 37.8422ZM15.1634 37.4521C16.1412 38.0358 16.757 38.9606 16.9523 39.8549L18.9063 39.4281C18.5918 37.9882 17.636 36.5989 16.1886 35.7348L15.1634 37.4521ZM11.8723 37.0617C12.6511 36.6665 13.9488 36.727 15.1634 37.4521L16.1886 35.7348C14.5657 34.7659 12.5252 34.4876 10.9673 35.2782L11.8723 37.0617ZM14.2692 38.9535C13.0792 38.2431 12.4198 37.0952 12.4198 36.17H10.4198C10.4198 37.9551 11.5964 39.6871 13.2439 40.6707L14.2692 38.9535ZM17.5253 39.359C16.6496 39.7458 15.4466 39.6564 14.2692 38.9535L13.2439 40.6707C14.8413 41.6244 16.7323 41.8956 18.3333 41.1885L17.5253 39.359ZM16.9293 39.6415V40.2738H18.9293V39.6415H16.9293ZM20.1102 40.2061C20.1086 40.1611 20.1064 40.1162 20.1037 40.0714L18.1075 40.195C18.1092 40.2226 18.1105 40.2501 18.1115 40.2775L20.1102 40.2061ZM22.8413 38.9535C21.6409 39.6701 20.4156 39.7488 19.5351 39.3363L18.6866 41.1474C20.3057 41.9058 22.2394 41.6421 23.8665 40.6707L22.8413 38.9535ZM24.6925 36.1085C24.6304 37.118 23.9907 38.2672 22.8413 38.9535L23.8665 40.6707C25.5546 39.6629 26.584 37.9324 26.6888 36.2314L24.6925 36.1085ZM21.947 37.4521C23.1518 36.7328 24.3812 36.6563 25.2626 37.0737L26.1187 35.2662C24.4964 34.4978 22.5545 34.7601 20.9218 35.7348L21.947 37.4521ZM20.1013 40.2252C20.1886 39.2812 20.8679 38.2081 22.0067 37.4135L20.8622 35.7734C19.3977 36.7953 18.2667 38.3435 18.1098 40.0411L20.1013 40.2252ZM18.6866 35.7265C20.3057 36.485 22.2394 36.2212 23.8665 35.2498L22.8413 33.5326C21.6409 34.2493 20.4156 34.3279 19.5351 33.9154L18.6866 35.7265ZM18.1075 34.7741C18.1092 34.8017 18.1105 34.8292 18.1115 34.8566L20.1102 34.7853C20.1086 34.7402 20.1064 34.6953 20.1037 34.6505L18.1075 34.7741ZM20.8622 30.3525C19.3977 31.3744 18.2667 32.9227 18.1098 34.6203L20.1013 34.8044C20.1886 33.8604 20.8679 32.7873 22.0067 31.9927L20.8622 30.3525ZM26.1187 29.8453C24.4964 29.077 22.5545 29.3392 20.9218 30.314L21.947 32.0312C23.1518 31.3119 24.3812 31.2354 25.2626 31.6528L26.1187 29.8453ZM23.8665 35.2498C25.5546 34.242 26.584 32.5115 26.6888 30.8106L24.6925 30.6876C24.6304 31.6971 23.9907 32.8464 22.8413 33.5326L23.8665 35.2498ZM20.1035 29.4459C20.2013 28.4796 20.8978 27.361 21.9701 26.6809L20.8988 24.992C19.3879 25.9504 18.2822 27.5797 18.1136 29.2445L20.1035 29.4459ZM20.1129 29.471C20.1121 29.4126 20.1102 29.3544 20.1074 29.2962L18.1098 29.3941C18.1115 29.4298 18.1126 29.4653 18.1132 29.5006L20.1129 29.471ZM22.8413 28.1964C21.6416 28.9127 20.417 28.9917 19.5367 28.58L18.6894 30.3917C20.3079 31.1485 22.2403 30.8845 23.8665 29.9137L22.8413 28.1964ZM24.6925 25.3515C24.6304 26.3609 23.9907 27.5102 22.8413 28.1964L23.8665 29.9137C25.5546 28.9059 26.584 27.1754 26.6888 25.4744L24.6925 25.3515ZM21.947 26.6951C23.1518 25.9758 24.3812 25.8992 25.2626 26.3167L26.1187 24.5092C24.4964 23.7408 22.5545 24.0031 20.9218 24.9778L21.947 26.6951ZM39.6137 23.4766C39.6141 23.4082 39.6158 23.3395 39.619 23.2706L37.6211 23.1785C37.6167 23.2743 37.6142 23.3702 37.6137 23.4662L39.6137 23.4766ZM31.7635 23.726C34.0545 25.1211 36.933 25.4883 39.0802 24.356L38.1473 22.5869C36.7906 23.3023 34.6756 23.1577 32.8037 22.0178L31.7635 23.726ZM27.862 17.3663C27.862 19.8244 29.4498 22.2236 31.7389 23.7105L32.8284 22.0333C30.9447 20.8097 29.862 18.9739 29.862 17.3663H27.862ZM35.7247 17.1051C33.4285 15.7069 30.5414 15.341 28.3925 16.4834L29.3314 18.2493C30.6876 17.5283 32.8078 17.6706 34.6845 18.8133L35.7247 17.1051ZM39.6188 23.1735C39.4985 20.8196 37.9517 18.5512 35.7493 17.1206L34.6598 18.7979C36.4661 19.9711 37.5416 21.7135 37.6214 23.2756L39.6188 23.1735ZM40.7946 23.4648L40.7946 23.1023L38.7946 23.1023L38.7946 23.4648L40.7946 23.4648ZM45.6171 22.0178C43.7475 23.1563 41.6999 23.3103 40.2471 22.5731L39.3421 24.3566C41.5613 25.4827 44.3542 25.1285 46.6573 23.726L45.6171 22.0178ZM48.5589 17.3663C48.5589 19.0675 47.468 20.8907 45.6171 22.0178L46.6573 23.726C48.9792 22.3121 50.5589 19.9002 50.5589 17.3663H48.5589ZM43.7364 18.8133C45.606 17.6748 47.6536 17.5209 49.1064 18.2581L50.0114 16.4746C47.7922 15.3484 44.9993 15.7026 42.6962 17.1051L43.7364 18.8133ZM40.7938 23.1429C40.8548 21.6409 41.9026 19.9587 43.746 18.8074L42.6865 17.1111C40.4477 18.5094 38.8903 20.726 38.7954 23.0618L40.7938 23.1429ZM38.7946 24.7475V27.4201H40.7946V24.7475H38.7946ZM41.9684 24.1545C41.3285 24.1318 40.7091 24.0198 40.142 23.8097L39.4473 25.6852C40.2402 25.9789 41.0738 26.124 41.8974 26.1532L41.9684 24.1545ZM40.6348 27.9623C41.1143 27.2194 41.7528 26.5319 42.5282 25.9573L41.3376 24.3504C40.3722 25.0657 39.5666 25.9292 38.9544 26.8778L40.6348 27.9623ZM40.7946 31.0879L40.7946 30.7254L38.7946 30.7254L38.7946 31.0879L40.7946 31.0879ZM45.6171 29.6409C43.7475 30.7794 41.6999 30.9334 40.2471 30.1961L39.3421 31.9796C41.5613 33.1058 44.3542 32.7516 46.6573 31.3491L45.6171 29.6409ZM48.5589 24.9894C48.5589 26.6906 47.468 28.5138 45.6171 29.6409L46.6573 31.3491C48.9792 29.9351 50.5589 27.5233 50.5589 24.9894H48.5589ZM43.7364 26.4364C45.606 25.2979 47.6536 25.1439 49.1064 25.8812L50.0114 24.0977C47.7922 22.9715 44.9993 23.3257 42.6962 24.7282L43.7364 26.4364ZM40.7938 30.766C40.8548 29.264 41.9026 27.5818 43.746 26.4305L42.6865 24.7342C40.4477 26.1325 38.8903 28.3491 38.7954 30.6848L40.7938 30.766ZM39.4767 26.9415C38.8784 25.9741 38.0811 25.0905 37.1194 24.3556L35.905 25.9448C36.6771 26.5347 37.3082 27.2374 37.7758 27.9935L39.4767 26.9415ZM37.6262 24.6882V27.4675H39.6262V24.6882H37.6262ZM36.5576 26.1492C37.4142 26.1102 38.2368 25.95 39.0269 25.6044L38.2256 23.772C37.7023 24.0008 37.1291 24.1211 36.4668 24.1512L36.5576 26.1492ZM37.6262 32.3594V35.0906H39.6262V32.3594H37.6262ZM36.6826 33.8464C37.5184 33.7856 38.2923 33.5889 39.0185 33.2793L38.234 31.4395C37.7034 31.6658 37.145 31.8075 36.5374 31.8517L36.6826 33.8464ZM39.4767 34.5646C38.901 33.6337 38.1411 32.7806 37.228 32.0629L35.9921 33.6353C36.7247 34.2111 37.3259 34.8892 37.7758 35.6166L39.4767 34.5646ZM40.7946 35.0432V32.4552H38.7946V35.0432H40.7946ZM41.2193 32.0624C40.3063 32.7599 39.5415 33.5912 38.9544 34.5009L40.6348 35.5854C41.0946 34.873 41.7005 34.2116 42.4334 33.6518L41.2193 32.0624ZM39.4473 33.393C40.2018 33.6725 40.993 33.8173 41.7772 33.8559L41.8755 31.8583C41.2684 31.8284 40.6815 31.7174 40.142 31.5175L39.4473 33.393ZM40.7946 38.711L40.7946 38.3485L38.7946 38.3485L38.7946 38.711L40.7946 38.711ZM45.6171 37.264C43.7475 38.4025 41.6999 38.5564 40.2471 37.8192L39.3421 39.6027C41.5613 40.7289 44.3542 40.3747 46.6573 38.9722L45.6171 37.264ZM48.5589 32.6125C48.5589 34.3137 47.468 36.1369 45.6171 37.264L46.6573 38.9722C48.9792 37.5582 50.5589 35.1464 50.5589 32.6125H48.5589ZM43.7364 34.0595C45.606 32.921 47.6536 32.767 49.1064 33.5043L50.0114 31.7208C47.7922 30.5946 44.9993 30.9488 42.6962 32.3513L43.7364 34.0595ZM40.7938 38.3891C40.8548 36.887 41.9026 35.2049 43.746 34.0536L42.6865 32.3573C40.4477 33.7556 38.8903 35.9722 38.7954 38.3079L40.7938 38.3891ZM34.1213 31.5794C33.9466 31.5284 33.7725 31.4705 33.5994 31.4054L32.8955 33.2775C33.1163 33.3605 33.3386 33.4344 33.5616 33.4995L34.1213 31.5794ZM35.7247 32.3513C35.2321 32.0514 34.7182 31.8016 34.1948 31.6039L33.4881 33.4749C33.8959 33.6289 34.2981 33.8242 34.6845 34.0595L35.7247 32.3513ZM39.6212 38.4725C39.5218 36.0995 37.9675 33.8076 35.7493 32.3668L34.6598 34.044C36.4801 35.2264 37.5572 36.9857 37.623 38.5563L39.6212 38.4725ZM39.6146 38.7365C39.6157 38.6802 39.6177 38.6237 39.6207 38.5672L37.6235 38.4617C37.6193 38.5403 37.6165 38.6189 37.615 38.6976L39.6146 38.7365ZM31.7635 38.9722C34.0549 40.3675 36.9341 40.7346 39.0815 39.6015L38.1481 37.8326C36.7914 38.5485 34.676 38.4041 32.8037 37.264L31.7635 38.9722ZM27.862 32.6125C27.862 35.0706 29.4498 37.4698 31.7389 38.9567L32.8284 37.2795C30.9447 36.0559 29.862 34.2201 29.862 32.6125H27.862ZM33.5255 31.3809C31.7807 30.8758 29.9048 30.9255 28.3925 31.7295L29.3314 33.4955C30.2736 32.9946 31.5889 32.9024 32.9694 33.302L33.5255 31.3809ZM39.6146 31.1134C39.6157 31.0571 39.6177 31.0006 39.6207 30.9441L37.6235 30.8386C37.6193 30.9172 37.6165 30.9959 37.615 31.0745L39.6146 31.1134ZM31.7635 31.3491C34.0549 32.7444 36.9341 33.1115 39.0815 31.9784L38.1481 30.2095C36.7914 30.9255 34.676 30.781 32.8037 29.6409L31.7635 31.3491ZM27.862 24.9894C27.862 27.4475 29.4498 29.8467 31.7389 31.3336L32.8284 29.6564C30.9447 28.4328 29.862 26.597 29.862 24.9894H27.862ZM35.7247 24.7282C33.4285 23.33 30.5414 22.964 28.3925 24.1064L29.3314 25.8724C30.6876 25.1514 32.8078 25.2936 34.6845 26.4364L35.7247 24.7282ZM39.6212 30.8495C39.5218 28.4764 37.9675 26.1845 35.7493 24.7437L34.6598 26.4209C36.4801 27.6033 37.5572 29.3626 37.623 30.9332L39.6212 30.8495Z" fill="#BDACA8" mask="url(#path-1-inside-1)"/>
</svg>
