<svg width="68" height="68" viewBox="0 0 68 68" fill="none" xmlns="http://www.w3.org/2000/svg">
<path d="M31.9318 37.9231H28.6895C28.7124 40.9895 30.3612 42.8929 33.0317 43.2935V45.8193H35.2576V43.2904C38.0387 42.8626 39.5999 40.8163 39.5999 38.3052C39.5999 35.0606 37.1907 33.6421 35.1339 32.4311C33.6021 31.5291 32.2657 30.7423 32.2657 29.4018C32.2657 28.3723 32.9316 27.7046 34.1447 27.7046C35.3578 27.7046 36.0737 28.3983 36.0997 29.8395H39.3383C39.3188 27.019 37.7895 25.1479 35.2576 24.7331V22.2048H33.0317V24.7337C30.5167 25.1474 29.0512 26.9806 29.0512 29.3294C29.0512 32.3867 31.3514 33.8035 33.3614 35.0416C34.9209 36.0021 36.3056 36.855 36.3056 38.283C36.3056 39.4404 35.6119 40.2899 34.1706 40.2899C32.8073 40.2899 31.9578 39.5424 31.9318 37.9231Z" fill="#BDACA8"/>
<path fill-rule="evenodd" clip-rule="evenodd" d="M14.4829 34.1447C14.4829 23.2858 23.2858 14.483 34.1447 14.483C45.0036 14.483 53.8064 23.2858 53.8064 34.1447C53.8064 45.0036 45.0036 53.8065 34.1447 53.8065C23.2858 53.8065 14.4829 45.0036 14.4829 34.1447ZM34.1447 16.7088C24.5151 16.7088 16.7088 24.5151 16.7088 34.1447C16.7088 43.7743 24.5151 51.5806 34.1447 51.5806C43.7743 51.5806 51.5806 43.7743 51.5806 34.1447C51.5806 24.5151 43.7743 16.7088 34.1447 16.7088Z" fill="#BDACA8"/>
<path fill-rule="evenodd" clip-rule="evenodd" d="M5.2085 34.1447C5.2085 18.1637 18.1637 5.20854 34.1447 5.20854C50.1257 5.20854 63.0808 18.1637 63.0808 34.1447C63.0808 50.1257 50.1257 63.0809 34.1447 63.0809C18.1637 63.0809 5.2085 50.1257 5.2085 34.1447ZM34.1447 7.4344C32.3125 7.4344 30.5234 7.61887 28.795 7.97024C28.8789 8.19694 29.171 8.58737 30.0295 8.99297C31.0251 9.46334 32.4787 9.78454 34.1447 9.78454C35.8106 9.78454 37.2643 9.46334 38.2598 8.99297C39.1183 8.58737 39.4104 8.19694 39.4943 7.97024C37.7659 7.61887 35.9768 7.4344 34.1447 7.4344ZM7.43436 34.1447C7.43436 31.0391 7.96439 28.0572 8.93893 25.2847C9.79508 25.3684 10.7037 25.1169 11.4835 24.7583C12.8443 24.1324 14.2764 22.9942 15.51 21.5232C16.7433 20.0527 17.6157 18.445 17.9962 16.9964C18.3221 15.7555 18.3624 14.2728 17.4716 13.276C20.1499 11.1334 23.2497 9.49562 26.6267 8.50698C26.934 9.67323 28.007 10.4992 29.0786 11.0055C30.4327 11.6453 32.2251 12.0104 34.1447 12.0104C36.0642 12.0104 37.8566 11.6453 39.2107 11.0055C40.2823 10.4992 41.3553 9.67323 41.6626 8.50698C45.0419 9.49629 48.1436 11.1356 50.8231 13.2803C49.9362 14.2772 49.977 15.7579 50.3024 16.9971C50.6829 18.4459 51.5554 20.0537 52.7888 21.5235C54.0222 22.9933 55.4537 24.1313 56.8139 24.7574C57.5911 25.1152 58.4966 25.3666 59.3506 25.2852C60.325 28.0576 60.855 31.0393 60.855 34.1447C60.855 37.2516 60.3245 40.2347 59.3492 43.0082C58.4942 42.9258 57.5867 43.1763 56.8067 43.5342C55.4459 44.1588 54.0134 45.2946 52.7793 46.7662C51.5461 48.2367 50.6737 49.8444 50.2932 51.2927C49.9673 52.5332 49.9266 54.0165 50.8185 55.0128C48.14 57.1557 45.04 58.7937 41.6626 59.7824C41.3553 58.6162 40.2823 57.7902 39.2107 57.2839C37.8566 56.6441 36.0642 56.279 34.1447 56.279C32.2251 56.279 30.4327 56.6441 29.0786 57.2839C28.007 57.7902 26.934 58.6162 26.6267 59.7824C23.2471 58.793 20.1451 57.1535 17.4654 55.0084C18.3533 54.0122 18.3123 52.5314 17.9869 51.2927C17.6064 49.8444 16.734 48.2367 15.5007 46.7662C14.2673 45.2953 12.8357 44.1571 11.4753 43.5312C10.6979 43.1735 9.79251 42.9225 8.93867 43.004C7.9643 40.2317 7.43436 37.2501 7.43436 34.1447ZM9.86876 45.3012C11.3043 48.4196 13.323 51.2141 15.7851 53.545C15.9163 53.3989 16.1163 52.9324 15.8341 51.8583C15.5543 50.7932 14.8658 49.473 13.7952 48.1965C12.725 46.9202 11.5449 46.0134 10.5449 45.5533C10.287 45.4346 10.0626 45.3539 9.86876 45.3012ZM52.4553 16.4317C52.1741 15.361 52.3715 14.8924 52.5034 14.7437C54.9658 17.0746 56.9847 19.8692 58.4203 22.9877C58.2266 22.9349 58.0024 22.8542 57.7446 22.7355C56.7444 22.2751 55.5642 21.3682 54.4939 20.0927C53.4236 18.8173 52.7351 17.4972 52.4553 16.4317ZM52.4993 53.5497C54.9631 51.2184 56.9832 48.423 58.4196 45.3034C58.2236 45.3561 57.9965 45.4373 57.7351 45.5572C56.7346 46.0164 55.5545 46.921 54.4848 48.1965C53.4143 49.473 52.7258 50.7932 52.446 51.8583C52.1607 52.9442 52.3682 53.4091 52.4993 53.5497ZM10.5534 22.7361C10.2912 22.8566 10.0637 22.9381 9.86762 22.9907C11.3043 19.8689 13.3255 17.0715 15.7909 14.7389C15.9228 14.8823 16.1276 15.349 15.8434 16.4309C15.5635 17.4962 14.875 18.8164 13.8045 20.093C12.7343 21.3691 11.5539 22.2759 10.5534 22.7361ZM28.795 60.3192C30.5234 60.6706 32.3125 60.855 34.1447 60.855C35.9768 60.855 37.7659 60.6706 39.4943 60.3192C39.4104 60.0925 39.1183 59.7021 38.2598 59.2965C37.2643 58.8261 35.8106 58.5049 34.1447 58.5049C32.4787 58.5049 31.0251 58.8261 30.0295 59.2965C29.171 59.7021 28.8789 60.0925 28.795 60.3192Z" fill="#BDACA8"/>
</svg>
