<svg width="68" height="68" viewBox="0 0 68 68" fill="none" xmlns="http://www.w3.org/2000/svg">
<path d="M46.0744 12.565C46.0744 13.6724 45.1769 14.5701 44.0697 14.5701C42.9626 14.5701 42.065 13.6724 42.065 12.565C42.065 11.4576 42.9626 10.5598 44.0697 10.5598C45.1769 10.5598 46.0744 11.4576 46.0744 12.565Z" fill="#BDACA8"/>
<path d="M51.6545 14.5701C52.7617 14.5701 53.6592 13.6724 53.6592 12.565C53.6592 11.4576 52.7617 10.5598 51.6545 10.5598C50.5474 10.5598 49.6498 11.4576 49.6498 12.565C49.6498 13.6724 50.5474 14.5701 51.6545 14.5701Z" fill="#BDACA8"/>
<path d="M61.244 12.565C61.244 13.6724 60.3465 14.5701 59.2393 14.5701C58.1321 14.5701 57.2346 13.6724 57.2346 12.565C57.2346 11.4576 58.1321 10.5598 59.2393 10.5598C60.3465 10.5598 61.244 11.4576 61.244 12.565Z" fill="#BDACA8"/>
<path fill-rule="evenodd" clip-rule="evenodd" d="M14.2498 23.4198C13.6144 23.4198 12.9853 23.5449 12.3982 23.7881C11.8112 24.0313 11.2779 24.3878 10.8286 24.8372C10.3793 25.2866 10.0229 25.82 9.77976 26.4072C9.53661 26.9943 9.41147 27.6236 9.41147 28.2591V34.3469C9.41147 35.6304 9.92122 36.8613 10.8286 37.7688C11.2779 38.2182 11.8112 38.5747 12.3982 38.8179C12.9853 39.0611 13.6144 39.1863 14.2498 39.1863C14.8852 39.1863 15.5143 39.0611 16.1013 38.8179C16.6883 38.5747 17.2217 38.2182 17.671 37.7688C18.1203 37.3195 18.4767 36.786 18.7198 36.1988C18.963 35.6117 19.0881 34.9824 19.0881 34.3469V28.2591C19.0881 27.6236 18.963 26.9943 18.7198 26.4072C18.4767 25.82 18.1203 25.2866 17.671 24.8372C17.2217 24.3878 16.6883 24.0313 16.1013 23.7881C15.5143 23.5449 14.8852 23.4198 14.2498 23.4198ZM14.2498 25.6456C14.9426 25.6461 15.607 25.9216 16.0969 26.4116C16.5868 26.9017 16.8622 27.5661 16.8627 28.2591V34.3469C16.8627 35.04 16.5874 35.7048 16.0974 36.1949C15.6074 36.685 14.9428 36.9604 14.2498 36.9604C13.5568 36.9604 12.8922 36.685 12.4022 36.1949C11.9121 35.7048 11.6368 35.04 11.6368 34.3469V28.2591C11.6373 27.5661 11.9128 26.9017 12.4027 26.4116C12.8926 25.9216 13.5569 25.6461 14.2498 25.6456Z" fill="#BDACA8"/>
<path d="M26.9789 23.4198V39.1863H29.2043V23.4198H26.9789Z" fill="#BDACA8"/>
<path fill-rule="evenodd" clip-rule="evenodd" d="M41.9334 23.4198C41.298 23.4198 40.6688 23.5449 40.0818 23.7881C39.4948 24.0313 38.9614 24.3878 38.5121 24.8372C38.0629 25.2866 37.7065 25.82 37.4633 26.4072C37.2202 26.9943 37.095 27.6236 37.095 28.2591V34.3469C37.095 34.9824 37.2202 35.6117 37.4633 36.1988C37.7065 36.786 38.0629 37.3195 38.5121 37.7688C38.9614 38.2182 39.4948 38.5747 40.0818 38.8179C40.6688 39.0611 41.298 39.1863 41.9334 39.1863C42.5687 39.1863 43.1979 39.0611 43.7849 38.8179C44.3719 38.5747 44.9053 38.2182 45.3546 37.7688C45.8038 37.3195 46.1602 36.786 46.4034 36.1988C46.6465 35.6117 46.7717 34.9824 46.7717 34.3469V28.2591C46.7717 27.6236 46.6465 26.9943 46.4034 26.4072C46.1602 25.82 45.8038 25.2866 45.3546 24.8372C44.9053 24.3878 44.3719 24.0313 43.7849 23.7881C43.1979 23.5449 42.5687 23.4198 41.9334 23.4198ZM41.9334 25.6456C42.6262 25.6461 43.2905 25.9216 43.7805 26.4116C44.2704 26.9017 44.5458 27.5661 44.5463 28.2591V34.3469C44.5463 35.04 44.271 35.7048 43.781 36.1949C43.291 36.685 42.6264 36.9604 41.9334 36.9604C41.2404 36.9604 40.5757 36.685 40.0857 36.1949C39.5957 35.7048 39.3204 35.04 39.3204 34.3469V28.2591C39.3209 27.5661 39.5963 26.9017 40.0863 26.4116C40.5762 25.9216 41.2405 25.6461 41.9334 25.6456Z" fill="#BDACA8"/>
<path d="M54.6606 23.4198V39.1863H56.886V23.4198H54.6606Z" fill="#BDACA8"/>
<path fill-rule="evenodd" clip-rule="evenodd" d="M52.4872 42.0428C51.204 42.0428 49.9733 42.5526 49.066 43.4602C48.1586 44.3678 47.6488 45.5987 47.6488 46.8822V52.968C47.6488 54.2515 48.1586 55.4824 49.066 56.39C49.9733 57.2976 51.204 57.8074 52.4872 57.8074C53.7704 57.8074 55.001 57.2976 55.9084 56.39C56.8157 55.4824 57.3255 54.2515 57.3255 52.968V46.8822C57.3255 45.5987 56.8157 44.3678 55.9084 43.4602C55.001 42.5526 53.7704 42.0428 52.4872 42.0428ZM52.4872 44.2686C53.18 44.2691 53.8443 44.5446 54.3343 45.0347C54.8242 45.5247 55.0996 46.1892 55.1001 46.8822V52.968C55.1001 53.6612 54.8248 54.3259 54.3348 54.8161C53.8448 55.3062 53.1802 55.5816 52.4872 55.5816C51.7942 55.5816 51.1296 55.3062 50.6395 54.8161C50.1495 54.3259 49.8742 53.6612 49.8742 52.968V46.8822C49.8747 46.1892 50.1502 45.5247 50.6401 45.0347C51.13 44.5446 51.7943 44.2691 52.4872 44.2686Z" fill="#BDACA8"/>
<path d="M37.5327 42.0428V57.8093H39.7581V42.0428H37.5327Z" fill="#BDACA8"/>
<path fill-rule="evenodd" clip-rule="evenodd" d="M24.8054 42.0428C23.5221 42.0428 22.2912 42.5526 21.3836 43.4601C20.4759 44.3676 19.9658 45.5985 19.9653 46.8822V52.968C19.9527 53.6116 20.0685 54.2513 20.3061 54.8496C20.5436 55.4479 20.8981 55.9928 21.3487 56.4524C21.7993 56.912 22.337 57.2771 22.9304 57.5264C23.5238 57.7757 24.1609 57.904 24.8045 57.904C25.4481 57.904 26.0852 57.7757 26.6786 57.5264C27.272 57.2771 27.8098 56.912 28.2604 56.4524C28.711 55.9928 29.0654 55.4479 29.303 54.8496C29.5405 54.2513 29.6564 53.6116 29.6438 52.968V46.8822C29.6438 46.2466 29.5186 45.6174 29.2755 45.0302C29.0323 44.4431 28.6759 43.9096 28.2267 43.4602C27.7774 43.0108 27.244 42.6544 26.657 42.4112C26.07 42.1679 25.4408 42.0428 24.8054 42.0428ZM24.8054 44.2686C25.4983 44.2691 26.1626 44.5446 26.6525 45.0347C27.1425 45.5247 27.4179 46.1892 27.4184 46.8822V52.968C27.4277 53.3172 27.367 53.6647 27.2398 53.9901C27.1126 54.3154 26.9216 54.612 26.6779 54.8622C26.4343 55.1125 26.143 55.3114 25.8212 55.4473C25.4995 55.5831 25.1538 55.6531 24.8045 55.6531C24.4553 55.6531 24.1096 55.5831 23.7878 55.4473C23.4661 55.3114 23.1748 55.1125 22.9311 54.8622C22.6875 54.612 22.4964 54.3154 22.3692 53.9901C22.2421 53.6647 22.1813 53.3172 22.1906 52.968V46.8822C22.1916 46.189 22.4675 45.5245 22.9577 45.0345C23.4479 44.5446 24.1124 44.2691 24.8054 44.2686Z" fill="#BDACA8"/>
<path d="M9.85098 42.0428V57.8093H12.0763V42.0428H9.85098Z" fill="#BDACA8"/>
<path fill-rule="evenodd" clip-rule="evenodd" d="M0.578613 5.20851H67.7105V63.0809H0.578613V5.20851ZM2.80398 7.43437V17.9831H65.4852V7.43437H2.80398ZM2.80398 60.855V20.2089H65.4852V60.855H2.80398Z" fill="#BDACA8"/>
</svg>
