<svg width="69" height="68" viewBox="0 0 69 68" fill="none" xmlns="http://www.w3.org/2000/svg">
<path fill-rule="evenodd" clip-rule="evenodd" d="M34.6886 7.75C20.087 7.75 8.25 19.587 8.25 34.1886C8.25 48.7902 20.087 60.6272 34.6886 60.6272C49.2902 60.6272 61.1272 48.7902 61.1272 34.1886C61.1272 19.587 49.2902 7.75 34.6886 7.75ZM6.75 34.1886C6.75 18.7585 19.2585 6.25 34.6886 6.25C50.1186 6.25 62.6272 18.7585 62.6272 34.1886C62.6272 49.6186 50.1186 62.1272 34.6886 62.1272C19.2585 62.1272 6.75 49.6186 6.75 34.1886ZM51.1617 26.9116V23.8729H50.442L48.043 17.8754V16.436H39.7265V17.7155L22.7736 23.9529H16.6162V26.9916H22.4537V32.7492C21.734 32.9091 21.2542 33.5488 21.2542 34.3485C21.2542 35.1482 21.734 35.7079 22.4537 35.9478V37.5471H22.8535C23.1734 37.5471 23.4933 37.787 23.4933 38.1869C23.4933 38.5067 23.2534 38.8266 22.8535 38.8266C22.5337 38.8266 22.2138 38.5867 22.2138 38.1869H21.4142C21.4142 38.6667 21.6541 39.1465 22.0539 39.3864L19.9748 41.4655H18.6153V47.7029H27.0918V41.4655H25.7323L23.6532 39.3864C24.053 39.1465 24.2929 38.6667 24.2929 38.1869C24.2929 37.5471 23.8931 36.9874 23.2534 36.8274V36.0278C23.9731 35.8679 24.4529 35.2281 24.4529 34.4285C24.4529 33.7088 23.9731 33.069 23.2534 32.8291V27.0716H39.7265V48.6625H38.2071L37.0586 51.2012H19.0951C18.819 51.2012 18.5951 51.4251 18.5951 51.7012C18.5951 51.9773 18.819 52.2012 19.0951 52.2012H50.362C50.5165 52.2012 50.6546 52.1311 50.7463 52.0211H51.0817L49.6423 48.5025H48.1229V26.9116H51.1617ZM49.7934 51.2012L49.0026 49.3822H38.7669L37.976 51.2012H49.7934ZM26.2121 46.6633H19.415V42.1052H26.2121V46.6633ZM21.1743 41.3056L22.8535 39.6263L24.5328 41.3056H21.1743ZM23.6532 34.1886C23.6532 34.5884 23.3333 34.9882 22.8535 34.9882C22.4537 34.9882 22.0539 34.6684 22.0539 34.1886C22.0539 33.7088 22.3738 33.3889 22.8535 33.3889C23.2534 33.4689 23.6532 33.7887 23.6532 34.1886ZM43.245 30.1902L40.5261 32.9891V27.5513L43.245 30.1902ZM46.6036 26.9116L43.8847 29.6305L41.1659 26.9116H46.6036ZM43.8847 30.83L47.0034 33.9487L43.8847 37.1473L40.6861 33.9487L43.8847 30.83ZM40.5261 34.9882L43.245 37.7071L40.5261 40.4259V34.9882ZM43.8847 38.2668L47.0034 41.3855L43.8847 44.5842L40.6861 41.4655L43.8847 38.2668ZM43.245 45.2239L40.5261 47.9428V42.5051L43.245 45.2239ZM43.8847 45.7837L46.6036 48.5025H41.1659L43.8847 45.7837ZM44.4445 45.2239L47.1633 42.5051V47.9428L44.4445 45.2239ZM47.2433 40.4259L44.5244 37.7071L47.2433 34.9882V40.4259ZM44.4445 30.1902L47.1633 27.4714V32.9891L44.4445 30.1902ZM49.5623 23.8729H48.043V20.1145L49.5623 23.8729ZM40.5261 17.7954L43.245 20.5143L40.5261 23.2332V17.7954ZM47.2433 23.2332L44.5244 20.5143L47.2433 17.7954V23.2332ZM43.8847 19.9545L41.1659 17.2357H46.6036L43.8847 19.9545ZM43.8847 21.154L46.6036 23.8729H41.1659L43.8847 21.154ZM39.7265 18.5151V23.8729H25.1726L39.7265 18.5151ZM17.4158 24.6726H50.282V26.032H17.4158V24.6726Z" fill="#BDACA8"/>
<path d="M51.1617 23.8729H51.4117C51.4117 23.7348 51.2997 23.6229 51.1617 23.6229V23.8729ZM51.1617 26.9116V27.1616C51.2997 27.1616 51.4117 27.0497 51.4117 26.9116H51.1617ZM50.442 23.8729L50.2098 23.9657C50.2478 24.0607 50.3397 24.1229 50.442 24.1229V23.8729ZM48.043 17.8754H47.793C47.793 17.9072 47.799 17.9387 47.8108 17.9683L48.043 17.8754ZM48.043 16.436H48.293C48.293 16.2979 48.181 16.186 48.043 16.186V16.436ZM39.7265 16.436V16.186C39.5884 16.186 39.4765 16.2979 39.4765 16.436H39.7265ZM39.7265 17.7155L39.8128 17.9501C39.9111 17.9139 39.9765 17.8203 39.9765 17.7155H39.7265ZM22.7736 23.9529V24.2029C22.803 24.2029 22.8323 24.1977 22.8599 24.1875L22.7736 23.9529ZM16.6162 23.9529V23.7029C16.4781 23.7029 16.3662 23.8148 16.3662 23.9529H16.6162ZM16.6162 26.9916H16.3662C16.3662 27.1297 16.4781 27.2416 16.6162 27.2416V26.9916ZM22.4537 26.9916H22.7037C22.7037 26.8535 22.5918 26.7416 22.4537 26.7416V26.9916ZM22.4537 32.7492L22.5079 32.9932C22.6223 32.9678 22.7037 32.8663 22.7037 32.7492H22.4537ZM22.4537 35.9478H22.7037C22.7037 35.8402 22.6349 35.7447 22.5328 35.7106L22.4537 35.9478ZM22.4537 37.5471H22.2037C22.2037 37.6852 22.3156 37.7971 22.4537 37.7971V37.5471ZM22.2138 38.1869H22.4638C22.4638 38.0488 22.3519 37.9369 22.2138 37.9369V38.1869ZM21.4142 38.1869V37.9369C21.2761 37.9369 21.1642 38.0488 21.1642 38.1869H21.4142ZM22.0539 39.3864L22.2307 39.5632C22.2851 39.5087 22.3114 39.4322 22.302 39.3558C22.2926 39.2794 22.2485 39.2116 22.1825 39.172L22.0539 39.3864ZM19.9748 41.4655V41.7155C20.0411 41.7155 20.1047 41.6892 20.1515 41.6423L19.9748 41.4655ZM18.6153 41.4655V41.2155C18.4773 41.2155 18.3653 41.3274 18.3653 41.4655H18.6153ZM18.6153 47.7029H18.3653C18.3653 47.841 18.4773 47.9529 18.6153 47.9529V47.7029ZM27.0918 47.7029V47.9529C27.2298 47.9529 27.3418 47.841 27.3418 47.7029H27.0918ZM27.0918 41.4655H27.3418C27.3418 41.3274 27.2298 41.2155 27.0918 41.2155V41.4655ZM25.7323 41.4655L25.5556 41.6423C25.6024 41.6892 25.666 41.7155 25.7323 41.7155V41.4655ZM23.6532 39.3864L23.5246 39.172C23.4586 39.2116 23.4145 39.2794 23.4051 39.3558C23.3957 39.4322 23.422 39.5087 23.4764 39.5632L23.6532 39.3864ZM23.2534 36.8274H23.0034C23.0034 36.9422 23.0815 37.0422 23.1927 37.07L23.2534 36.8274ZM23.2534 36.0278L23.1991 35.7837C23.0848 35.8092 23.0034 35.9106 23.0034 36.0278H23.2534ZM23.2534 32.8291H23.0034C23.0034 32.9367 23.0722 33.0323 23.1743 33.0663L23.2534 32.8291ZM23.2534 27.0716V26.8216C23.1153 26.8216 23.0034 26.9335 23.0034 27.0716H23.2534ZM39.7265 27.0716H39.9765C39.9765 26.9335 39.8645 26.8216 39.7265 26.8216V27.0716ZM39.7265 48.6625V48.9125C39.8645 48.9125 39.9765 48.8005 39.9765 48.6625H39.7265ZM38.2071 48.6625V48.4125C38.1089 48.4125 38.0198 48.47 37.9793 48.5594L38.2071 48.6625ZM37.0586 51.2012V51.4512C37.1568 51.4512 37.2459 51.3937 37.2864 51.3042L37.0586 51.2012ZM50.7463 52.0211V51.7711C50.6721 51.7711 50.6017 51.804 50.5542 51.861L50.7463 52.0211ZM51.0817 52.0211V52.2711C51.165 52.2711 51.2428 52.2296 51.2892 52.1604C51.3357 52.0913 51.3446 52.0035 51.3131 51.9264L51.0817 52.0211ZM49.6423 48.5025L49.8737 48.4079C49.8352 48.3139 49.7438 48.2525 49.6423 48.2525V48.5025ZM48.1229 48.5025H47.8729C47.8729 48.6406 47.9849 48.7525 48.1229 48.7525V48.5025ZM48.1229 26.9116V26.6616C47.9849 26.6616 47.8729 26.7735 47.8729 26.9116H48.1229ZM49.7934 51.2012V51.4512C49.8777 51.4512 49.9563 51.4088 50.0025 51.3383C50.0487 51.2678 50.0563 51.1788 50.0227 51.1015L49.7934 51.2012ZM49.0026 49.3822L49.2318 49.2825C49.1921 49.1912 49.1021 49.1322 49.0026 49.1322V49.3822ZM38.7669 49.3822V49.1322C38.6673 49.1322 38.5773 49.1912 38.5376 49.2825L38.7669 49.3822ZM37.976 51.2012L37.7467 51.1015C37.7131 51.1788 37.7207 51.2678 37.7669 51.3383C37.8131 51.4088 37.8917 51.4512 37.976 51.4512V51.2012ZM19.415 46.6633H19.165C19.165 46.8014 19.2769 46.9133 19.415 46.9133V46.6633ZM26.2121 46.6633V46.9133C26.3502 46.9133 26.4621 46.8014 26.4621 46.6633H26.2121ZM19.415 42.1052V41.8552C19.2769 41.8552 19.165 41.9672 19.165 42.1052H19.415ZM26.2121 42.1052H26.4621C26.4621 41.9672 26.3502 41.8552 26.2121 41.8552V42.1052ZM22.8535 39.6263L23.0303 39.4495C22.9834 39.4026 22.9199 39.3763 22.8535 39.3763C22.7872 39.3763 22.7237 39.4026 22.6768 39.4495L22.8535 39.6263ZM21.1743 41.3056L20.9975 41.1288C20.926 41.2003 20.9046 41.3078 20.9433 41.4012C20.982 41.4947 21.0731 41.5556 21.1743 41.5556V41.3056ZM24.5328 41.3056V41.5556C24.634 41.5556 24.7251 41.4947 24.7638 41.4012C24.8025 41.3078 24.7811 41.2003 24.7096 41.1288L24.5328 41.3056ZM22.8535 33.3889L22.9026 33.1438C22.8864 33.1405 22.87 33.1389 22.8535 33.1389V33.3889ZM40.5261 32.9891H40.2761C40.2761 33.0908 40.3378 33.1825 40.4321 33.2207C40.5264 33.259 40.6345 33.2363 40.7054 33.1633L40.5261 32.9891ZM43.245 30.1902L43.4243 30.3644C43.4705 30.3169 43.4959 30.2529 43.495 30.1866C43.494 30.1202 43.4667 30.057 43.4191 30.0108L43.245 30.1902ZM40.5261 27.5513L40.7002 27.372C40.6282 27.302 40.5212 27.282 40.4287 27.3211C40.3362 27.3602 40.2761 27.4509 40.2761 27.5513H40.5261ZM43.8847 29.6305L43.7079 29.8073C43.7548 29.8541 43.8184 29.8805 43.8847 29.8805C43.951 29.8805 44.0146 29.8541 44.0615 29.8073L43.8847 29.6305ZM46.6036 26.9116L46.7803 27.0884C46.8518 27.0169 46.8732 26.9094 46.8345 26.8159C46.7958 26.7225 46.7047 26.6616 46.6036 26.6616V26.9116ZM41.1659 26.9116V26.6616C41.0647 26.6616 40.9736 26.7225 40.9349 26.8159C40.8962 26.9094 40.9176 27.0169 40.9891 27.0884L41.1659 26.9116ZM47.0034 33.9487L47.1824 34.1232C47.2779 34.0252 47.2769 33.8686 47.1802 33.7719L47.0034 33.9487ZM43.8847 30.83L44.0615 30.6532C43.9647 30.5564 43.8082 30.5554 43.7102 30.651L43.8847 30.83ZM43.8847 37.1473L43.7079 37.3241C43.7552 37.3714 43.8194 37.3977 43.8863 37.3973C43.9531 37.3969 44.017 37.3697 44.0637 37.3218L43.8847 37.1473ZM40.6861 33.9487L40.5115 33.7697C40.4637 33.8163 40.4365 33.8802 40.4361 33.9471C40.4356 34.0139 40.462 34.0782 40.5093 34.1254L40.6861 33.9487ZM43.245 37.7071L43.4218 37.8839C43.4686 37.837 43.495 37.7734 43.495 37.7071C43.495 37.6408 43.4686 37.5772 43.4218 37.5303L43.245 37.7071ZM40.5261 34.9882L40.7029 34.8114C40.6314 34.7399 40.5239 34.7186 40.4305 34.7573C40.337 34.7959 40.2761 34.8871 40.2761 34.9882H40.5261ZM40.5261 40.4259H40.2761C40.2761 40.5271 40.337 40.6182 40.4305 40.6569C40.5239 40.6956 40.6314 40.6742 40.7029 40.6027L40.5261 40.4259ZM47.0034 41.3855L47.1824 41.5601C47.2779 41.4621 47.2769 41.3055 47.1802 41.2088L47.0034 41.3855ZM43.8847 38.2668L44.0615 38.0901C43.9639 37.9924 43.8056 37.9924 43.7079 38.0901L43.8847 38.2668ZM43.8847 44.5842L43.7102 44.7632C43.809 44.8596 43.9673 44.8576 44.0637 44.7587L43.8847 44.5842ZM40.6861 41.4655L40.5093 41.2887C40.462 41.336 40.4356 41.4002 40.4361 41.4671C40.4365 41.5339 40.4637 41.5978 40.5115 41.6445L40.6861 41.4655ZM40.5261 47.9428H40.2761C40.2761 48.0439 40.337 48.1351 40.4305 48.1737C40.5239 48.2124 40.6314 48.1911 40.7029 48.1196L40.5261 47.9428ZM43.245 45.2239L43.4218 45.4007C43.4686 45.3538 43.495 45.2902 43.495 45.2239C43.495 45.1576 43.4686 45.094 43.4218 45.0471L43.245 45.2239ZM40.5261 42.5051L40.7029 42.3283C40.6314 42.2568 40.5239 42.2354 40.4305 42.2741C40.337 42.3128 40.2761 42.4039 40.2761 42.5051H40.5261ZM46.6036 48.5025V48.7525C46.7047 48.7525 46.7958 48.6916 46.8345 48.5982C46.8732 48.5048 46.8518 48.3973 46.7803 48.3258L46.6036 48.5025ZM43.8847 45.7837L44.0615 45.6069C43.9639 45.5093 43.8056 45.5093 43.7079 45.6069L43.8847 45.7837ZM41.1659 48.5025L40.9891 48.3258C40.9176 48.3973 40.8962 48.5048 40.9349 48.5982C40.9736 48.6916 41.0647 48.7525 41.1659 48.7525V48.5025ZM47.1633 42.5051H47.4133C47.4133 42.4039 47.3524 42.3128 47.259 42.2741C47.1656 42.2354 47.0581 42.2568 46.9866 42.3283L47.1633 42.5051ZM44.4445 45.2239L44.2677 45.0471C44.1701 45.1448 44.1701 45.3031 44.2677 45.4007L44.4445 45.2239ZM47.1633 47.9428L46.9866 48.1196C47.0581 48.1911 47.1656 48.2124 47.259 48.1737C47.3524 48.1351 47.4133 48.0439 47.4133 47.9428H47.1633ZM44.5244 37.7071L44.3477 37.5303C44.3008 37.5772 44.2744 37.6408 44.2744 37.7071C44.2744 37.7734 44.3008 37.837 44.3477 37.8839L44.5244 37.7071ZM47.2433 40.4259L47.0665 40.6027C47.138 40.6742 47.2456 40.6956 47.339 40.6569C47.4324 40.6182 47.4933 40.5271 47.4933 40.4259H47.2433ZM47.2433 34.9882H47.4933C47.4933 34.8871 47.4324 34.7959 47.339 34.7573C47.2456 34.7186 47.138 34.7399 47.0665 34.8114L47.2433 34.9882ZM47.1633 27.4714H47.4133C47.4133 27.3703 47.3524 27.2791 47.259 27.2404C47.1656 27.2017 47.0581 27.2231 46.9866 27.2946L47.1633 27.4714ZM44.4445 30.1902L44.2677 30.0135C44.1711 30.1101 44.1699 30.2664 44.2652 30.3644L44.4445 30.1902ZM47.1633 32.9891L46.984 33.1633C47.0549 33.2363 47.163 33.259 47.2573 33.2207C47.3516 33.1825 47.4133 33.0908 47.4133 32.9891H47.1633ZM48.043 23.8729H47.793C47.793 24.011 47.9049 24.1229 48.043 24.1229V23.8729ZM49.5623 23.8729V24.1229C49.6454 24.1229 49.7231 24.0816 49.7696 24.0127C49.8161 23.9438 49.8253 23.8563 49.7941 23.7792L49.5623 23.8729ZM48.043 20.1145L48.2747 20.0208C48.2299 19.9098 48.1127 19.8462 47.9952 19.8691C47.8778 19.8919 47.793 19.9948 47.793 20.1145H48.043ZM43.245 20.5143L43.4218 20.6911C43.4686 20.6442 43.495 20.5806 43.495 20.5143C43.495 20.448 43.4686 20.3844 43.4218 20.3375L43.245 20.5143ZM40.5261 17.7954L40.7029 17.6187C40.6314 17.5472 40.5239 17.5258 40.4305 17.5645C40.337 17.6032 40.2761 17.6943 40.2761 17.7954H40.5261ZM40.5261 23.2332H40.2761C40.2761 23.3343 40.337 23.4254 40.4305 23.4641C40.5239 23.5028 40.6314 23.4814 40.7029 23.4099L40.5261 23.2332ZM44.5244 20.5143L44.3477 20.3375C44.3008 20.3844 44.2744 20.448 44.2744 20.5143C44.2744 20.5806 44.3008 20.6442 44.3477 20.6911L44.5244 20.5143ZM47.2433 23.2332L47.0665 23.4099C47.138 23.4814 47.2456 23.5028 47.339 23.4641C47.4324 23.4254 47.4933 23.3343 47.4933 23.2332H47.2433ZM47.2433 17.7954H47.4933C47.4933 17.6943 47.4324 17.6032 47.339 17.5645C47.2456 17.5258 47.138 17.5472 47.0665 17.6187L47.2433 17.7954ZM41.1659 17.2357V16.9857C41.0647 16.9857 40.9736 17.0466 40.9349 17.14C40.8962 17.2334 40.9176 17.341 40.9891 17.4125L41.1659 17.2357ZM43.8847 19.9545L43.7079 20.1313C43.7548 20.1782 43.8184 20.2045 43.8847 20.2045C43.951 20.2045 44.0146 20.1782 44.0615 20.1313L43.8847 19.9545ZM46.6036 17.2357L46.7803 17.4125C46.8518 17.341 46.8732 17.2334 46.8345 17.14C46.7958 17.0466 46.7047 16.9857 46.6036 16.9857V17.2357ZM46.6036 23.8729V24.1229C46.7047 24.1229 46.7958 24.062 46.8345 23.9686C46.8732 23.8751 46.8518 23.7676 46.7803 23.6961L46.6036 23.8729ZM43.8847 21.154L44.0615 20.9773C44.0146 20.9304 43.951 20.904 43.8847 20.904C43.8184 20.904 43.7548 20.9304 43.7079 20.9773L43.8847 21.154ZM41.1659 23.8729L40.9891 23.6961C40.9176 23.7676 40.8962 23.8751 40.9349 23.9686C40.9736 24.062 41.0647 24.1229 41.1659 24.1229V23.8729ZM39.7265 23.8729V24.1229C39.8645 24.1229 39.9765 24.011 39.9765 23.8729H39.7265ZM39.7265 18.5151H39.9765C39.9765 18.4334 39.9365 18.3568 39.8695 18.3101C39.8024 18.2633 39.7168 18.2523 39.6401 18.2805L39.7265 18.5151ZM25.1726 23.8729L25.0862 23.6383C24.9725 23.6801 24.9052 23.7975 24.9265 23.9168C24.9477 24.036 25.0514 24.1229 25.1726 24.1229V23.8729ZM50.282 24.6726H50.532C50.532 24.5345 50.4201 24.4226 50.282 24.4226V24.6726ZM17.4158 24.6726V24.4226C17.2778 24.4226 17.1658 24.5345 17.1658 24.6726H17.4158ZM50.282 26.032V26.282C50.4201 26.282 50.532 26.1701 50.532 26.032H50.282ZM17.4158 26.032H17.1658C17.1658 26.1701 17.2778 26.282 17.4158 26.282V26.032ZM8.5 34.1886C8.5 19.725 20.225 8 34.6886 8V7.5C19.9489 7.5 8 19.4489 8 34.1886H8.5ZM34.6886 60.3772C20.225 60.3772 8.5 48.6521 8.5 34.1886H8C8 48.9283 19.9489 60.8772 34.6886 60.8772V60.3772ZM60.8772 34.1886C60.8772 48.6521 49.1521 60.3772 34.6886 60.3772V60.8772C49.4283 60.8772 61.3772 48.9283 61.3772 34.1886H60.8772ZM34.6886 8C49.1521 8 60.8772 19.725 60.8772 34.1886H61.3772C61.3772 19.4489 49.4283 7.5 34.6886 7.5V8ZM34.6886 6C19.1205 6 6.5 18.6205 6.5 34.1886H7C7 18.8966 19.3966 6.5 34.6886 6.5V6ZM62.8772 34.1886C62.8772 18.6205 50.2567 6 34.6886 6V6.5C49.9806 6.5 62.3772 18.8966 62.3772 34.1886H62.8772ZM34.6886 62.3772C50.2567 62.3772 62.8772 49.7567 62.8772 34.1886H62.3772C62.3772 49.4806 49.9806 61.8772 34.6886 61.8772V62.3772ZM6.5 34.1886C6.5 49.7567 19.1205 62.3772 34.6886 62.3772V61.8772C19.3966 61.8772 7 49.4806 7 34.1886H6.5ZM50.9117 23.8729V26.9116H51.4117V23.8729H50.9117ZM50.442 24.1229H51.1617V23.6229H50.442V24.1229ZM47.8108 17.9683L50.2098 23.9657L50.6741 23.78L48.2751 17.7826L47.8108 17.9683ZM47.793 16.436V17.8754H48.293V16.436H47.793ZM39.7265 16.686H48.043V16.186H39.7265V16.686ZM39.9765 17.7155V16.436H39.4765V17.7155H39.9765ZM22.8599 24.1875L39.8128 17.9501L39.6401 17.4809L22.6873 23.7182L22.8599 24.1875ZM16.6162 24.2029H22.7736V23.7029H16.6162V24.2029ZM16.8662 26.9916V23.9529H16.3662V26.9916H16.8662ZM22.4537 26.7416H16.6162V27.2416H22.4537V26.7416ZM22.7037 32.7492V26.9916H22.2037V32.7492H22.7037ZM21.5042 34.3485C21.5042 33.6518 21.9159 33.1248 22.5079 32.9932L22.3995 32.5051C21.5521 32.6934 21.0042 33.4459 21.0042 34.3485H21.5042ZM22.5328 35.7106C21.9006 35.4999 21.5042 35.0259 21.5042 34.3485H21.0042C21.0042 35.2704 21.5675 35.9159 22.3747 36.185L22.5328 35.7106ZM22.7037 37.5471V35.9478H22.2037V37.5471H22.7037ZM22.8535 37.2971H22.4537V37.7971H22.8535V37.2971ZM23.7433 38.1869C23.7433 37.6289 23.2906 37.2971 22.8535 37.2971V37.7971C23.0563 37.7971 23.2433 37.9452 23.2433 38.1869H23.7433ZM22.8535 39.0766C23.4115 39.0766 23.7433 38.6239 23.7433 38.1869H23.2433C23.2433 38.3896 23.0953 38.5766 22.8535 38.5766V39.0766ZM21.9638 38.1869C21.9638 38.7448 22.4165 39.0766 22.8535 39.0766V38.5766C22.6508 38.5766 22.4638 38.4286 22.4638 38.1869H21.9638ZM21.4142 38.4369H22.2138V37.9369H21.4142V38.4369ZM22.1825 39.172C21.8684 38.9835 21.6642 38.5917 21.6642 38.1869H21.1642C21.1642 38.7416 21.4397 39.3094 21.9253 39.6007L22.1825 39.172ZM20.1515 41.6423L22.2307 39.5632L21.8771 39.2096L19.798 41.2887L20.1515 41.6423ZM18.6153 41.7155H19.9748V41.2155H18.6153V41.7155ZM18.8653 47.7029V41.4655H18.3653V47.7029H18.8653ZM27.0918 47.4529H18.6153V47.9529H27.0918V47.4529ZM26.8418 41.4655V47.7029H27.3418V41.4655H26.8418ZM25.7323 41.7155H27.0918V41.2155H25.7323V41.7155ZM23.4764 39.5632L25.5556 41.6423L25.9091 41.2887L23.83 39.2096L23.4764 39.5632ZM24.0429 38.1869C24.0429 38.5917 23.8387 38.9835 23.5246 39.172L23.7818 39.6007C24.2674 39.3094 24.5429 38.7416 24.5429 38.1869H24.0429ZM23.1927 37.07C23.7133 37.2001 24.0429 37.6536 24.0429 38.1869H24.5429C24.5429 37.4407 24.0729 36.7746 23.314 36.5849L23.1927 37.07ZM23.0034 36.0278V36.8274H23.5034V36.0278H23.0034ZM24.2029 34.4285C24.2029 35.1251 23.7912 35.6522 23.1991 35.7837L23.3076 36.2718C24.155 36.0835 24.7029 35.3311 24.7029 34.4285H24.2029ZM23.1743 33.0663C23.7994 33.2747 24.2029 33.8241 24.2029 34.4285H24.7029C24.7029 33.5935 24.1467 32.8634 23.3324 32.592L23.1743 33.0663ZM23.0034 27.0716V32.8291H23.5034V27.0716H23.0034ZM39.7265 26.8216H23.2534V27.3216H39.7265V26.8216ZM39.9765 48.6625V27.0716H39.4765V48.6625H39.9765ZM38.2071 48.9125H39.7265V48.4125H38.2071V48.9125ZM37.2864 51.3042L38.4349 48.7655L37.9793 48.5594L36.8308 51.0982L37.2864 51.3042ZM19.0951 51.4512H37.0586V50.9512H19.0951V51.4512ZM18.8451 51.7012C18.8451 51.5631 18.9571 51.4512 19.0951 51.4512V50.9512C18.6809 50.9512 18.3451 51.287 18.3451 51.7012H18.8451ZM19.0951 51.9512C18.9571 51.9512 18.8451 51.8393 18.8451 51.7012H18.3451C18.3451 52.1154 18.6809 52.4512 19.0951 52.4512V51.9512ZM50.362 51.9512H19.0951V52.4512H50.362V51.9512ZM50.5542 51.861C50.508 51.9165 50.4392 51.9512 50.362 51.9512V52.4512C50.5938 52.4512 50.8012 52.3457 50.9384 52.1811L50.5542 51.861ZM51.0817 51.7711H50.7463V52.2711H51.0817V51.7711ZM49.4109 48.5972L50.8503 52.1157L51.3131 51.9264L49.8737 48.4079L49.4109 48.5972ZM48.1229 48.7525H49.6423V48.2525H48.1229V48.7525ZM47.8729 26.9116V48.5025H48.3729V26.9116H47.8729ZM51.1617 26.6616H48.1229V27.1616H51.1617V26.6616ZM50.0227 51.1015L49.2318 49.2825L48.7733 49.4819L49.5642 51.3009L50.0227 51.1015ZM49.0026 49.1322H38.7669V49.6322H49.0026V49.1322ZM38.5376 49.2825L37.7467 51.1015L38.2052 51.3009L38.9961 49.4819L38.5376 49.2825ZM37.976 51.4512H49.7934V50.9512H37.976V51.4512ZM19.415 46.9133H26.2121V46.4133H19.415V46.9133ZM19.165 42.1052V46.6633H19.665V42.1052H19.165ZM26.2121 41.8552H19.415V42.3552H26.2121V41.8552ZM26.4621 46.6633V42.1052H25.9621V46.6633H26.4621ZM22.6768 39.4495L20.9975 41.1288L21.351 41.4823L23.0303 39.8031L22.6768 39.4495ZM24.7096 41.1288L23.0303 39.4495L22.6768 39.8031L24.3561 41.4823L24.7096 41.1288ZM21.1743 41.5556H24.5328V41.0556H21.1743V41.5556ZM22.8535 35.2382C23.4874 35.2382 23.9032 34.7099 23.9032 34.1886H23.4032C23.4032 34.4668 23.1793 34.7382 22.8535 34.7382V35.2382ZM21.8039 34.1886C21.8039 34.8224 22.3322 35.2382 22.8535 35.2382V34.7382C22.5753 34.7382 22.3039 34.5143 22.3039 34.1886H21.8039ZM22.8535 33.1389C22.5568 33.1389 22.2902 33.2389 22.097 33.432C21.9039 33.6252 21.8039 33.8918 21.8039 34.1886H22.3039C22.3039 34.0055 22.3638 33.8723 22.4506 33.7856C22.5373 33.6988 22.6705 33.6389 22.8535 33.6389V33.1389ZM23.9032 34.1886C23.9032 33.901 23.7593 33.6591 23.5739 33.486C23.3887 33.3132 23.1462 33.1925 22.9026 33.1438L22.8045 33.634C22.9607 33.6653 23.118 33.7445 23.2327 33.8515C23.3472 33.9583 23.4032 34.0762 23.4032 34.1886H23.9032ZM40.7054 33.1633L43.4243 30.3644L43.0657 30.016L40.3468 32.8149L40.7054 33.1633ZM40.2761 27.5513V32.9891H40.7761V27.5513H40.2761ZM43.4191 30.0108L40.7002 27.372L40.352 27.7307L43.0709 30.3696L43.4191 30.0108ZM44.0615 29.8073L46.7803 27.0884L46.4268 26.7348L43.7079 29.4537L44.0615 29.8073ZM40.9891 27.0884L43.7079 29.8073L44.0615 29.4537L41.3426 26.7348L40.9891 27.0884ZM46.6036 26.6616H41.1659V27.1616H46.6036V26.6616ZM47.1802 33.7719L44.0615 30.6532L43.7079 31.0067L46.8266 34.1254L47.1802 33.7719ZM44.0637 37.3218L47.1824 34.1232L46.8244 33.7741L43.7057 36.9728L44.0637 37.3218ZM40.5093 34.1254L43.7079 37.3241L44.0615 36.9705L40.8628 33.7719L40.5093 34.1254ZM43.7102 30.651L40.5115 33.7697L40.8606 34.1277L44.0592 31.009L43.7102 30.651ZM43.4218 37.5303L40.7029 34.8114L40.3493 35.165L43.0682 37.8839L43.4218 37.5303ZM40.7029 40.6027L43.4218 37.8839L43.0682 37.5303L40.3493 40.2492L40.7029 40.6027ZM40.2761 34.9882V40.4259H40.7761V34.9882H40.2761ZM47.1802 41.2088L44.0615 38.0901L43.7079 38.4436L46.8266 41.5623L47.1802 41.2088ZM44.0637 44.7587L47.1824 41.5601L46.8244 41.211L43.7057 44.4097L44.0637 44.7587ZM40.5115 41.6445L43.7102 44.7632L44.0592 44.4052L40.8606 41.2865L40.5115 41.6445ZM43.7079 38.0901L40.5093 41.2887L40.8628 41.6423L44.0615 38.4436L43.7079 38.0901ZM40.7029 48.1196L43.4218 45.4007L43.0682 45.0471L40.3493 47.766L40.7029 48.1196ZM40.2761 42.5051V47.9428H40.7761V42.5051H40.2761ZM43.4218 45.0471L40.7029 42.3283L40.3493 42.6818L43.0682 45.4007L43.4218 45.0471ZM46.7803 48.3258L44.0615 45.6069L43.7079 45.9605L46.4268 48.6793L46.7803 48.3258ZM41.1659 48.7525H46.6036V48.2525H41.1659V48.7525ZM43.7079 45.6069L40.9891 48.3258L41.3426 48.6793L44.0615 45.9605L43.7079 45.6069ZM46.9866 42.3283L44.2677 45.0471L44.6213 45.4007L47.3401 42.6818L46.9866 42.3283ZM47.4133 47.9428V42.5051H46.9133V47.9428H47.4133ZM44.2677 45.4007L46.9866 48.1196L47.3401 47.766L44.6213 45.0471L44.2677 45.4007ZM44.3477 37.8839L47.0665 40.6027L47.4201 40.2492L44.7012 37.5303L44.3477 37.8839ZM47.0665 34.8114L44.3477 37.5303L44.7012 37.8839L47.4201 35.165L47.0665 34.8114ZM47.4933 40.4259V34.9882H46.9933V40.4259H47.4933ZM46.9866 27.2946L44.2677 30.0135L44.6213 30.367L47.3401 27.6482L46.9866 27.2946ZM47.4133 32.9891V27.4714H46.9133V32.9891H47.4133ZM44.2652 30.3644L46.984 33.1633L47.3427 32.8149L44.6238 30.016L44.2652 30.3644ZM48.043 24.1229H49.5623V23.6229H48.043V24.1229ZM47.793 20.1145V23.8729H48.293V20.1145H47.793ZM49.7941 23.7792L48.2747 20.0208L47.8112 20.2082L49.3305 23.9666L49.7941 23.7792ZM43.4218 20.3375L40.7029 17.6187L40.3493 17.9722L43.0682 20.6911L43.4218 20.3375ZM40.7029 23.4099L43.4218 20.6911L43.0682 20.3375L40.3493 23.0564L40.7029 23.4099ZM40.2761 17.7954V23.2332H40.7761V17.7954H40.2761ZM44.3477 20.6911L47.0665 23.4099L47.4201 23.0564L44.7012 20.3375L44.3477 20.6911ZM47.0665 17.6187L44.3477 20.3375L44.7012 20.6911L47.4201 17.9722L47.0665 17.6187ZM47.4933 23.2332V17.7954H46.9933V23.2332H47.4933ZM40.9891 17.4125L43.7079 20.1313L44.0615 19.7778L41.3426 17.0589L40.9891 17.4125ZM46.6036 16.9857H41.1659V17.4857H46.6036V16.9857ZM44.0615 20.1313L46.7803 17.4125L46.4268 17.0589L43.7079 19.7778L44.0615 20.1313ZM46.7803 23.6961L44.0615 20.9773L43.7079 21.3308L46.4268 24.0497L46.7803 23.6961ZM41.1659 24.1229H46.6036V23.6229H41.1659V24.1229ZM43.7079 20.9773L40.9891 23.6961L41.3426 24.0497L44.0615 21.3308L43.7079 20.9773ZM39.9765 23.8729V18.5151H39.4765V23.8729H39.9765ZM25.1726 24.1229H39.7265V23.6229H25.1726V24.1229ZM39.6401 18.2805L25.0862 23.6383L25.2589 24.1075L39.8128 18.7498L39.6401 18.2805ZM50.282 24.4226H17.4158V24.9226H50.282V24.4226ZM50.532 26.032V24.6726H50.032V26.032H50.532ZM17.4158 26.282H50.282V25.782H17.4158V26.282ZM17.1658 24.6726V26.032H17.6658V24.6726H17.1658Z" fill="#BDACA8"/>
</svg>
