<svg width="68" height="68" viewBox="0 0 68 68" fill="none" xmlns="http://www.w3.org/2000/svg">
<path d="M31.2147 11.8902C32.1741 11.7651 33.1521 11.7006 34.1447 11.7006C35.1372 11.7006 36.1152 11.7651 37.0747 11.8902L36.7868 14.0974C35.9225 13.9847 35.0407 13.9265 34.1447 13.9265C33.2487 13.9265 32.3668 13.9847 31.5026 14.0974L31.2147 11.8902Z" fill="#BDACA8"/>
<path d="M20.4805 16.3381C22.0245 15.1515 23.7278 14.161 25.5531 13.4041L26.4057 15.4602C24.7626 16.1416 23.2283 17.0336 21.8367 18.103L20.4805 16.3381Z" fill="#BDACA8"/>
<path d="M42.7363 13.4041C44.5615 14.161 46.2648 15.1515 47.8089 16.3381L46.4526 18.103C45.061 17.0336 43.5268 16.1416 41.8837 15.4602L42.7363 13.4041Z" fill="#BDACA8"/>
<path d="M13.4041 25.5531C14.161 23.7278 15.1515 22.0245 16.3381 20.4805L18.103 21.8368C17.0336 23.2284 16.1415 24.7626 15.4602 26.4057L13.4041 25.5531Z" fill="#BDACA8"/>
<path d="M51.9513 20.4805C53.1378 22.0245 54.1283 23.7278 54.8852 25.5531L52.8292 26.4057C52.1478 24.7626 51.2557 23.2284 50.1863 21.8368L51.9513 20.4805Z" fill="#BDACA8"/>
<path d="M11.7006 34.1447C11.7006 33.1521 11.7651 32.1741 11.8902 31.2147L14.0974 31.5026C13.9847 32.3668 13.9264 33.2487 13.9264 34.1447C13.9264 35.0407 13.9847 35.9225 14.0974 36.7868L11.8902 37.0747C11.7651 36.1152 11.7006 35.1372 11.7006 34.1447Z" fill="#BDACA8"/>
<path d="M56.3991 31.2147C56.5243 32.1741 56.5887 33.1522 56.5887 34.1447C56.5887 35.1372 56.5243 36.1152 56.3991 37.0747L54.1919 36.7868C54.3047 35.9225 54.3629 35.0407 54.3629 34.1447C54.3629 33.2487 54.3047 32.3668 54.1919 31.5026L56.3991 31.2147Z" fill="#BDACA8"/>
<path d="M16.3381 47.8089C15.1515 46.2648 14.161 44.5616 13.4041 42.7363L15.4602 41.8837C16.1415 43.5268 17.0336 45.061 18.103 46.4526L16.3381 47.8089Z" fill="#BDACA8"/>
<path d="M54.8852 42.7363C54.1283 44.5616 53.1378 46.2648 51.9513 47.8089L50.1863 46.4526C51.2557 45.061 52.1478 43.5268 52.8292 41.8837L54.8852 42.7363Z" fill="#BDACA8"/>
<path d="M25.553 54.8853C23.7278 54.1283 22.0245 53.1378 20.4805 51.9513L21.8367 50.1863C23.2283 51.2557 24.7626 52.1478 26.4057 52.8292L25.553 54.8853Z" fill="#BDACA8"/>
<path d="M47.8089 51.9513C46.2648 53.1378 44.5615 54.1284 42.7363 54.8853L41.8837 52.8292C43.5267 52.1478 45.061 51.2557 46.4526 50.1863L47.8089 51.9513Z" fill="#BDACA8"/>
<path d="M34.1447 56.5888C33.1521 56.5888 32.1741 56.5243 31.2147 56.3991L31.5026 54.192C32.3668 54.3047 33.2487 54.3629 34.1447 54.3629C35.0407 54.3629 35.9225 54.3047 36.7868 54.192L37.0747 56.3991C36.1152 56.5243 35.1372 56.5888 34.1447 56.5888Z" fill="#BDACA8"/>
<path fill-rule="evenodd" clip-rule="evenodd" d="M43.5396 35.9773C42.9372 34.9678 42.027 34.178 40.9428 33.7236C41.8417 33.1843 42.5711 32.4034 43.0481 31.4699C43.5625 30.5302 43.8341 29.4769 43.8383 28.4057C43.8569 27.5954 43.6996 26.7907 43.3771 26.0471C43.0547 25.3035 42.5747 24.6388 41.9704 24.0986C40.935 23.1465 39.6632 22.5902 38.1549 22.4298V20.1552H35.9291V22.381H33.2877V20.1552H31.0619V22.381H27.9215V22.6463H26.0833V24.8721H27.9215V43.3264H26.0833V45.5522H27.9215V45.938H31.0619V47.9784H33.2877V45.938H35.9291V47.9784H38.1549V45.9038C39.8228 45.7581 41.2479 45.1469 42.4304 44.0702C43.0885 43.4949 43.613 42.7828 43.9674 41.9838C44.3217 41.1848 44.4973 40.318 44.4819 39.4441C44.4978 38.2232 44.1714 37.0222 43.5396 35.9773ZM40.367 27.0147C40.6878 27.558 40.8524 28.1792 40.8427 28.81C40.8511 29.2789 40.7612 29.7442 40.5788 30.1762C40.3964 30.6081 40.1255 30.997 39.7835 31.3178C39.4393 31.6542 39.0312 31.9183 38.5833 32.0944C38.1353 32.2706 37.6567 32.3553 37.1755 32.3436H30.8152V25.2783H37.1422C37.7978 25.2683 38.4454 25.424 39.0249 25.7309C39.5819 26.0272 40.0463 26.4714 40.367 27.0147ZM40.2361 41.8981C39.446 42.6416 38.3936 43.0418 37.3091 43.011H30.817V35.2335H37.3091C38.3936 35.2027 39.446 35.6029 40.2361 36.3464C40.6177 36.6961 40.9201 37.1232 41.1233 37.5992C41.3264 38.0752 41.4255 38.5891 41.414 39.1065C41.4276 39.6288 41.3296 40.1481 41.1265 40.6295C40.9234 41.1109 40.6198 41.5434 40.2361 41.8981Z" fill="#BDACA8"/>
<path fill-rule="evenodd" clip-rule="evenodd" d="M5.2085 34.1447C5.2085 18.1637 18.1637 5.20851 34.1447 5.20851C50.1257 5.20851 63.0808 18.1637 63.0808 34.1447C63.0808 50.1257 50.1257 63.0809 34.1447 63.0809C18.1637 63.0809 5.2085 50.1257 5.2085 34.1447ZM34.1447 7.43437C19.393 7.43437 7.43436 19.393 7.43436 34.1447C7.43436 48.8964 19.393 60.855 34.1447 60.855C48.8964 60.855 60.855 48.8964 60.855 34.1447C60.855 19.393 48.8964 7.43437 34.1447 7.43437Z" fill="#BDACA8"/>
</svg>
