<svg width="68" height="68" viewBox="0 0 68 68" fill="none" xmlns="http://www.w3.org/2000/svg">
<path fill-rule="evenodd" clip-rule="evenodd" d="M0.289307 5.2085H67.6279V62.9882H0.289307V5.2085ZM2.52153 7.43079V14.3421H65.3957V7.43079H2.52153ZM65.3957 16.5644H2.52153V60.7659H65.3957V16.5644ZM30.387 25.8414C31.5698 25.8394 32.7413 26.0699 33.8345 26.5197C34.9276 26.9695 35.9208 27.6296 36.7571 28.4623C37.5934 29.2951 38.2564 30.284 38.7079 31.3723C39.1595 32.4607 39.3908 33.6271 39.3887 34.8046C39.3865 35.9822 39.1508 37.1477 38.6951 38.2344C38.2398 39.3203 37.5738 40.3062 36.7351 41.1355C36.7346 41.136 36.734 41.1366 36.7335 41.1371L25.1214 52.6994L25.1212 52.6997C24.4846 53.3332 23.6213 53.689 22.7212 53.689C21.8212 53.689 20.9579 53.3332 20.3213 52.6997L20.3211 52.6995L8.70428 41.1343C7.01925 39.4562 6.07252 37.1804 6.07252 34.8077C6.07252 32.4349 7.01912 30.1592 8.70415 28.4811L8.70441 28.4809C10.39 26.8034 12.6758 25.861 15.0592 25.861C17.4425 25.861 19.7283 26.8034 21.4139 28.4809L22.7212 29.7824L24.0257 28.4837C24.0262 28.4832 24.0267 28.4828 24.0272 28.4823C24.8604 27.6474 25.8508 26.9844 26.9418 26.5313C28.0334 26.0779 29.2041 25.8434 30.387 25.8414ZM32.9819 28.5735C32.1603 28.2355 31.2797 28.0622 30.3907 28.0637C29.5017 28.0652 28.6218 28.2414 27.8013 28.5822C26.9809 28.923 26.236 29.4217 25.6096 30.0497L25.6082 30.0511L22.7212 32.9252L19.8357 30.0525C19.8357 30.0525 19.8358 30.0526 19.8357 30.0525C18.5688 28.7917 16.8506 28.0833 15.0592 28.0833C13.2677 28.0833 11.5495 28.7916 10.2826 30.0525C9.01616 31.3139 8.30474 33.0243 8.30474 34.8077C8.30474 36.5911 9.01621 38.3015 10.2827 39.5629M10.2827 39.5629L21.8993 51.1279C21.8994 51.128 21.8995 51.128 21.8995 51.1281C22.1175 51.3449 22.4131 51.4667 22.7212 51.4667C23.0295 51.4667 23.3251 51.3448 23.5431 51.1279L35.1593 39.5615L35.1608 39.56C35.7917 38.9365 36.2927 38.1951 36.6352 37.3783C36.9777 36.5616 37.1548 35.6855 37.1564 34.8005C37.1581 33.9154 36.9842 33.0388 36.6448 32.2208C36.3054 31.4028 35.8071 30.6595 35.1786 30.0336C34.55 29.4077 33.8035 28.9116 32.9819 28.5735M60.749 28.6297H43.7971V26.4074H60.749V28.6297ZM60.749 35.0817H43.7971V32.8594H60.749V35.0817ZM60.749 41.5338H43.7971V39.3115H60.749V41.5338ZM55.1684 47.984H43.7971V45.7617H55.1684V47.984Z" fill="#BDACA8"/>
</svg>
