<svg width="68" height="68" viewBox="0 0 68 68" fill="none" xmlns="http://www.w3.org/2000/svg">
<path d="M46.0745 12.565C46.0745 13.6724 45.177 14.5701 44.0698 14.5701C42.9627 14.5701 42.0651 13.6724 42.0651 12.565C42.0651 11.4576 42.9627 10.5598 44.0698 10.5598C45.177 10.5598 46.0745 11.4576 46.0745 12.565Z" fill="#BDACA8"/>
<path d="M51.6546 14.5701C52.7618 14.5701 53.6593 13.6724 53.6593 12.565C53.6593 11.4576 52.7618 10.5598 51.6546 10.5598C50.5475 10.5598 49.6499 11.4576 49.6499 12.565C49.6499 13.6724 50.5475 14.5701 51.6546 14.5701Z" fill="#BDACA8"/>
<path d="M61.2441 12.565C61.2441 13.6724 60.3466 14.5701 59.2394 14.5701C58.1322 14.5701 57.2347 13.6724 57.2347 12.565C57.2347 11.4576 58.1322 10.5598 59.2394 10.5598C60.3466 10.5598 61.2441 11.4576 61.2441 12.565Z" fill="#BDACA8"/>
<path fill-rule="evenodd" clip-rule="evenodd" d="M0.578735 5.20851V63.0809H67.7107V5.20851H0.578735ZM2.8041 17.9831V7.43437H65.4853V17.9831H2.8041ZM2.8041 20.2089V60.855H65.4853V20.2089H2.8041Z" fill="#BDACA8"/>
<path d="M44.8247 48.519H25.2115L21.722 28.0635H17.2699" stroke="#BDACA8" stroke-width="1.3" stroke-miterlimit="10" stroke-linecap="round" stroke-linejoin="round"/>
<path d="M22.5643 30.7107H47.472L44.8248 44.0669H25.2115" stroke="#BDACA8" stroke-width="1.3" stroke-miterlimit="10" stroke-linecap="round" stroke-linejoin="round"/>
<path d="M28.8213 30.7107V44.0669" stroke="#BDACA8" stroke-width="1.3" stroke-miterlimit="10" stroke-linecap="round" stroke-linejoin="round"/>
<path d="M34.9579 30.7107V44.0669" stroke="#BDACA8" stroke-width="1.3" stroke-miterlimit="10" stroke-linecap="round" stroke-linejoin="round"/>
<path d="M45.6669 36.9677H23.4065" stroke="#BDACA8" stroke-width="1.3" stroke-miterlimit="10" stroke-linecap="round" stroke-linejoin="round"/>
<path d="M41.215 30.7107V44.0669" stroke="#BDACA8" stroke-width="1.3" stroke-miterlimit="10" stroke-linecap="round" stroke-linejoin="round"/>
<path d="M29.1822 52.8508C30.3784 52.8508 31.3481 51.8811 31.3481 50.6849C31.3481 49.4887 30.3784 48.519 29.1822 48.519C27.9861 48.519 27.0164 49.4887 27.0164 50.6849C27.0164 51.8811 27.9861 52.8508 29.1822 52.8508Z" stroke="#BDACA8" stroke-width="1.3" stroke-miterlimit="10" stroke-linecap="round" stroke-linejoin="round"/>
<path d="M40.854 52.8508C42.0502 52.8508 43.0199 51.8811 43.0199 50.6849C43.0199 49.4887 42.0502 48.519 40.854 48.519C39.6578 48.519 38.6881 49.4887 38.6881 50.6849C38.6881 51.8811 39.6578 52.8508 40.854 52.8508Z" stroke="#BDACA8" stroke-width="1.3" stroke-miterlimit="10" stroke-linecap="round" stroke-linejoin="round"/>
</svg>
