<svg width="68" height="68" viewBox="0 0 68 68" fill="none" xmlns="http://www.w3.org/2000/svg">
<path d="M66.7107 62.0809H1.57874V6.20851H66.7107V62.0809Z" stroke="#BDACA8" stroke-width="2"/>
<path d="M21.5873 27.7037H17.2698C15.4815 27.7037 14.0317 26.2539 14.0317 24.4656V24.4656C14.0317 22.6772 15.4815 21.2275 17.2698 21.2275H48.9312C50.7196 21.2275 52.1693 22.6772 52.1693 24.4656V24.4656C52.1693 26.2539 50.7196 27.7037 48.9312 27.7037H44.6137" stroke="#BDACA8" stroke-width="1.5"/>
<path d="M21.5873 30.582H13.873C12.7685 30.582 11.873 29.6866 11.873 28.582V20.3492C11.873 19.2446 12.7685 18.3492 13.873 18.3492H53.0476C54.1522 18.3492 55.0476 19.2446 55.0476 20.3492V28.582C55.0476 29.6866 54.1522 30.582 53.0476 30.582H44.6138" stroke="#BDACA8" stroke-width="1.5"/>
<path d="M21.2275 21.2275V50.1693C21.2275 51.2738 22.123 52.1693 23.2275 52.1693H42.9736C44.0781 52.1693 44.9736 51.2738 44.9736 50.1693V21.2275" stroke="#BDACA8" stroke-width="1.5"/>
<line x1="40.6865" y1="21.2274" x2="40.6865" y2="52.1692" stroke="#BDACA8" stroke-width="1.5"/>
<line x1="36.369" y1="21.2274" x2="36.369" y2="52.1692" stroke="#BDACA8" stroke-width="1.5"/>
<line x1="26.295" y1="42.8148" x2="26.295" y2="47.8518" stroke="#BDACA8" stroke-width="1.5"/>
</svg>
