<svg width="68" height="68" viewBox="0 0 68 68" fill="none" xmlns="http://www.w3.org/2000/svg">
<path fill-rule="evenodd" clip-rule="evenodd" d="M0.578735 5.20847H67.6181V62.9882H0.578735V5.20847ZM2.80103 7.43076V60.7659H65.3958V7.43076H2.80103ZM58.6672 14.7272L40.6081 29.6163L32.8339 23.6418L23.2301 33.4869L18.4081 28.6199L10.5828 35.4268V39.7782H60.1715V42.0005H8.36048V14.6366H10.5828V32.4814L18.521 25.5763L23.2178 30.317L32.6221 20.6763L40.5595 26.7762L57.2535 13.0125L58.6672 14.7272ZM22.3461 49.1322H8.05121V46.9099H22.3461V49.1322ZM41.2598 49.1322H26.963V46.9099H41.2598V49.1322ZM60.1715 49.1322H45.8766V46.9099H60.1715V49.1322ZM22.3461 55.438H8.05121V53.2157H22.3461V55.438ZM41.2598 55.438H26.963V53.2157H41.2598V55.438ZM60.1715 55.438H45.8766V53.2157H60.1715V55.438Z" fill="#BDACA8"/>
</svg>
