<svg width="68" height="68" viewBox="0 0 68 68" fill="none" xmlns="http://www.w3.org/2000/svg">
<path fill-rule="evenodd" clip-rule="evenodd" d="M8.97195 25.1912C7.97637 27.9902 7.43436 31.0041 7.43436 34.1447C7.43436 37.4607 8.03862 40.6355 9.14303 43.5651L15.42 40.8962L16.291 42.9445L10.0149 45.6132C12.7228 51.3005 17.3822 55.8794 23.1272 58.4841L25.6781 52.1585L27.7425 52.991L25.1912 59.3174C27.9902 60.313 31.0041 60.855 34.1447 60.855C37.4607 60.855 40.6355 60.2507 43.5651 59.1463L40.8962 52.8693L42.9445 51.9983L45.6132 58.2745C51.3005 55.5666 55.8794 50.9071 58.4841 45.1621L52.1585 42.6112L52.991 40.5469L59.3174 43.0981C60.313 40.2992 60.855 37.2852 60.855 34.1447C60.855 30.8287 60.2507 27.6538 59.1463 24.7242L52.8693 27.3932L51.9983 25.3448L58.2745 22.6762C55.5666 16.9888 50.9071 12.4099 45.1621 9.80525L42.6112 16.1308L40.5469 15.2983L43.0981 8.97195C40.2992 7.97637 37.2852 7.43436 34.1447 7.43436C30.8287 7.43436 27.6538 8.03862 24.7242 9.14303L27.3932 15.42L25.3448 16.291L22.6762 10.0149C16.9888 12.7228 12.4099 17.3822 9.80525 23.1272L16.1308 25.6781L15.2983 27.7425L8.97195 25.1912ZM5.2085 34.1447C5.2085 18.1637 18.1637 5.2085 34.1447 5.2085C50.1257 5.2085 63.0808 18.1637 63.0808 34.1447C63.0808 50.1257 50.1257 63.0808 34.1447 63.0808C18.1637 63.0808 5.2085 50.1257 5.2085 34.1447ZM34.1447 16.7088C24.5151 16.7088 16.7088 24.5151 16.7088 34.1447C16.7088 43.7742 24.5151 51.5806 34.1447 51.5806C43.7742 51.5806 51.5806 43.7742 51.5806 34.1447C51.5806 24.5151 43.7742 16.7088 34.1447 16.7088ZM14.4829 34.1447C14.4829 23.2858 23.2858 14.4829 34.1447 14.4829C45.0036 14.4829 53.8064 23.2858 53.8064 34.1447C53.8064 45.0036 45.0036 53.8064 34.1447 53.8064C23.2858 53.8064 14.4829 45.0036 14.4829 34.1447ZM34.1318 21.8186L43.032 30.2674L43.0449 30.2806C44.0309 31.2808 44.5837 32.6289 44.5837 34.0334C44.5837 35.4379 44.0309 36.786 43.0449 37.7862L43.0362 37.795L43.0273 37.8037C42.035 38.7663 40.7069 39.3047 39.3244 39.3047C37.942 39.3047 36.6138 38.7663 35.6216 37.8037L35.6145 37.7969L35.2576 37.4382V42.998H38.7819V45.2239H29.5075V42.998H33.0317V37.423L32.6517 37.807L32.6415 37.8168C31.6433 38.7756 30.3092 39.3051 28.9253 39.2919C27.5413 39.2786 26.2176 38.7238 25.2379 37.7462C24.2582 36.7686 23.7004 35.4462 23.6842 34.0622C23.6679 32.6783 24.1945 31.3431 25.151 30.3428L25.1697 30.3232L34.1318 21.8186ZM26.7426 31.8992C26.1992 32.4767 25.9005 33.2426 25.9099 34.0361C25.9193 34.8379 26.2424 35.6042 26.8101 36.1706C27.3777 36.737 28.1447 37.0584 28.9465 37.0661C29.744 37.0737 30.5129 36.7703 31.0902 36.2206L34.1294 33.1489L37.1779 36.2124C37.7542 36.7681 38.5236 37.0788 39.3244 37.0788C40.1241 37.0788 40.8925 36.769 41.4685 36.2147C42.0385 35.6319 42.3578 34.8489 42.3578 34.0334C42.3578 33.2194 42.0397 32.4378 41.4717 31.8553L34.1315 24.8874L26.7426 31.8992Z" fill="#BDACA8"/>
</svg>
