<svg width="68" height="68" viewBox="0 0 68 68" fill="none" xmlns="http://www.w3.org/2000/svg">
<path fill-rule="evenodd" clip-rule="evenodd" d="M39.0251 15.8242C38.0113 15.8242 37.039 16.229 36.3222 16.9495C35.6053 17.6701 35.2026 18.6474 35.2026 19.6664V27.6594H36.8541V30.3715H45.0802C46.3741 30.3576 47.6579 30.6015 48.8575 31.0892C50.0582 31.5774 51.1507 32.3002 52.0717 33.2157C52.9926 34.1312 53.7238 35.2212 54.2228 36.4226C54.7218 37.6241 54.9787 38.9131 54.9787 40.215C54.9787 41.5169 54.7218 42.8059 54.2228 44.0074C53.7238 45.2088 52.9926 46.2988 52.0717 47.2143C51.1507 48.1298 50.0582 48.8525 48.8575 49.3407C47.6581 49.8284 46.3746 50.0723 45.0809 50.0585C43.2655 50.0625 41.4849 49.5572 39.9396 48.5994C38.3943 47.6417 37.1455 46.2696 36.3338 44.6375H32.7222C31.9397 46.202 30.7561 47.5283 29.2936 48.4797C27.8301 49.4318 26.1403 49.9739 24.3987 50.0502C22.6572 50.1265 20.9269 49.7342 19.3865 48.9137C17.8462 48.0933 16.5517 46.8744 15.6366 45.3831C14.7215 43.8917 14.219 42.1818 14.181 40.43C14.1431 38.6782 14.571 36.948 15.4206 35.4179C16.2701 33.8879 17.5106 32.6135 19.0139 31.7264C20.5173 30.8393 22.2289 30.3716 23.9721 30.3715H32.2019V27.6594H33.8534V19.6664C33.8534 18.2877 34.3983 16.9655 35.3682 15.9906C36.3381 15.0158 37.6535 14.4681 39.0251 14.4681H54.2029V15.8242H39.0251ZM33.551 29.0155V31.7276H23.9722C22.4691 31.7276 20.9932 32.1309 19.697 32.8959C18.4008 33.6608 17.3312 34.7596 16.5986 36.0788C15.8661 37.3981 15.4971 38.89 15.5299 40.4005C15.5626 41.9109 15.9959 43.3853 16.7849 44.6712C17.5739 45.9571 18.6901 47.0081 20.0183 47.7155C21.3464 48.4229 22.8383 48.7612 24.34 48.6954C25.8417 48.6297 27.2987 48.1622 28.5605 47.3413C29.8224 46.5204 30.8434 45.3758 31.5181 44.0258L31.5189 44.0243L31.5197 44.0228C31.632 43.8007 31.8031 43.614 32.0142 43.4832C32.2252 43.3524 32.468 43.2826 32.7159 43.2814L32.7175 43.2814H36.3386L36.3401 43.2814C36.588 43.2826 36.8308 43.3524 37.0419 43.4832C37.2529 43.614 37.424 43.8007 37.5364 44.0228L37.5375 44.025L37.5386 44.0273C38.2381 45.4354 39.3148 46.6191 40.6476 47.4451C41.9804 48.2711 43.5163 48.7066 45.0821 48.7024L45.0867 48.7024L45.0914 48.7024C46.2081 48.7149 47.3162 48.5045 48.3516 48.0836C49.3869 47.6627 50.3289 47.0395 51.123 46.2501C51.9171 45.4607 52.5475 44.5209 52.9778 43.4849C53.408 42.449 53.6296 41.3376 53.6296 40.215C53.6296 39.0924 53.408 37.981 52.9778 36.945C52.5475 35.9091 51.9171 34.9693 51.123 34.1799C50.3289 33.3905 49.3869 32.7673 48.3516 32.3464C47.3162 31.9254 46.2081 31.7151 45.0914 31.7276L45.0876 31.7276H35.505V29.0155H33.551ZM45.9855 35.78C45.613 35.78 45.311 36.0836 45.311 36.4581C45.311 36.8326 45.613 37.1361 45.9855 37.1361C46.3581 37.1361 46.6601 36.8326 46.6601 36.4581C46.6601 36.0836 46.3581 35.78 45.9855 35.78ZM43.9618 36.4581C43.9618 35.3347 44.8679 34.424 45.9855 34.424C47.1032 34.424 48.0092 35.3347 48.0092 36.4581C48.0092 37.5815 47.1032 38.4922 45.9855 38.4922C44.8679 38.4922 43.9618 37.5815 43.9618 36.4581ZM21.058 35.667C21.058 35.2926 21.36 34.989 21.7326 34.989H24.8806C25.2531 34.989 25.5551 35.2926 25.5551 35.667V37.9272H27.8037C28.1762 37.9272 28.4783 38.2307 28.4783 38.6052V41.7694C28.4783 42.1439 28.1762 42.4474 27.8037 42.4474H25.5551V44.7076C25.5551 45.0821 25.2531 45.3856 24.8806 45.3856H21.7326C21.36 45.3856 21.058 45.0821 21.058 44.7076V42.4474H18.8095C18.4369 42.4474 18.1349 42.1439 18.1349 41.7694V38.6052C18.1349 38.2307 18.4369 37.9272 18.8095 37.9272H21.058V35.667ZM22.4072 36.3451V38.6052C22.4072 38.9797 22.1051 39.2833 21.7326 39.2833H19.484V41.0914H21.7326C22.1051 41.0914 22.4072 41.3949 22.4072 41.7694V44.0295H24.206V41.7694C24.206 41.3949 24.508 41.0914 24.8806 41.0914H27.1291V39.2833H24.8806C24.508 39.2833 24.206 38.9797 24.206 38.6052V36.3451H22.4072ZM36.8496 37.8063H32.2064V36.4502H36.8496V37.8063ZM42.2754 39.5093C41.9029 39.5093 41.6009 39.8128 41.6009 40.1873C41.6009 40.5618 41.9029 40.8653 42.2754 40.8653C42.648 40.8653 42.95 40.5618 42.95 40.1873C42.95 39.8128 42.648 39.5093 42.2754 39.5093ZM40.2517 40.1873C40.2517 39.0639 41.1578 38.1532 42.2754 38.1532C43.3931 38.1532 44.2991 39.0639 44.2991 40.1873C44.2991 41.3107 43.3931 42.2214 42.2754 42.2214C41.1578 42.2214 40.2517 41.3107 40.2517 40.1873ZM49.6957 39.5093C49.3231 39.5093 49.0211 39.8128 49.0211 40.1873C49.0211 40.5618 49.3231 40.8653 49.6957 40.8653C50.0682 40.8653 50.3702 40.5618 50.3702 40.1873C50.3702 39.8128 50.0682 39.5093 49.6957 39.5093ZM47.672 40.1873C47.672 39.0639 48.578 38.1532 49.6957 38.1532C50.8133 38.1532 51.7194 39.0639 51.7194 40.1873C51.7194 41.3107 50.8133 42.2214 49.6957 42.2214C48.578 42.2214 47.672 41.3107 47.672 40.1873ZM45.9855 43.2385C45.613 43.2385 45.311 43.5421 45.311 43.9165C45.311 44.291 45.613 44.5946 45.9855 44.5946C46.3581 44.5946 46.6601 44.291 46.6601 43.9165C46.6601 43.5421 46.3581 43.2385 45.9855 43.2385ZM43.9618 43.9165C43.9618 42.7931 44.8679 41.8824 45.9855 41.8824C47.1032 41.8824 48.0092 42.7931 48.0092 43.9165C48.0092 45.0399 47.1032 45.9507 45.9855 45.9507C44.8679 45.9507 43.9618 45.0399 43.9618 43.9165Z" fill="#BDACA8"/>
<path fill-rule="evenodd" clip-rule="evenodd" d="M35.3635 16.0336C36.3692 15.0313 37.7335 14.4681 39.1561 14.4681H54.2871C54.4017 14.4681 54.4946 14.5604 54.4946 14.6742V16.0146C54.4946 16.1284 54.4017 16.2207 54.2871 16.2207H39.1561C38.2007 16.2207 37.2843 16.599 36.6085 17.2724C35.9327 17.9459 35.5529 18.8596 35.5529 19.8123V27.5066H36.9918C37.1064 27.5066 37.1993 27.5989 37.1993 27.7127V30.1873H45.1913C46.5084 30.1734 47.8152 30.4197 49.0362 30.9119C50.2588 31.4047 51.371 32.1343 52.3086 33.0583C53.2463 33.9824 53.9906 35.0826 54.4985 36.2953C55.0065 37.5079 55.2681 38.8089 55.2681 40.1229C55.2681 41.4369 55.0065 42.7379 54.4985 43.9505C53.9906 45.1632 53.2463 46.2634 52.3086 47.1875C51.371 48.1115 50.2588 48.8411 49.0362 49.3339C47.8155 49.826 46.5092 50.0722 45.1925 50.0585C43.3443 50.0623 41.5317 49.5522 39.9586 48.5855C38.4216 47.6411 37.1729 46.2976 36.3455 44.7003H32.9998C32.2032 46.2299 31.0207 47.5275 29.5675 48.4648C28.0776 49.4258 26.3571 49.9731 24.5838 50.0502C22.8106 50.1272 21.0489 49.7311 19.4806 48.9029C17.9123 48.0747 16.5944 46.8444 15.6628 45.339C14.7312 43.8337 14.2197 42.108 14.1811 40.3399C14.1424 38.5718 14.578 36.8255 15.4429 35.2812C16.3078 33.7369 17.5707 32.4505 19.1012 31.555C20.6318 30.6595 22.3745 30.1874 24.1495 30.1873H32.1464V27.7127C32.1464 27.5989 32.2393 27.5066 32.3539 27.5066H33.7928V19.8123C33.7928 18.3952 34.3577 17.0359 35.3635 16.0336ZM39.1561 14.8804C37.844 14.8804 36.5854 15.3998 35.6574 16.3247C34.7294 17.2495 34.2079 18.5041 34.2079 19.8123V27.7127C34.2079 27.8265 34.115 27.9188 34.0004 27.9188H32.5614V30.3935C32.5614 30.5073 32.4685 30.5996 32.3539 30.5996H24.1495C22.4487 30.5996 20.7787 31.0521 19.3119 31.9102C17.8451 32.7684 16.6346 34.0013 15.8056 35.4816C14.9765 36.9619 14.559 38.636 14.596 40.3309C14.6331 42.0259 15.1234 43.6802 16.0164 45.1231C16.9094 46.566 18.1725 47.7452 19.6754 48.5389C21.1783 49.3326 22.8665 49.7121 24.5657 49.6383C26.2649 49.5645 27.9136 49.04 29.3415 48.119C30.7685 47.1986 31.9234 45.9154 32.6871 44.4018C32.7223 44.3321 32.7941 44.2881 32.8726 44.2881H36.4731C36.5518 44.2881 36.6237 44.3323 36.6588 44.4023C37.4509 45.9812 38.6693 47.3085 40.1769 48.2349C41.6846 49.1614 43.4217 49.6501 45.1928 49.6462L45.1955 49.6462C46.4576 49.6596 47.7099 49.4236 48.8801 48.9519C50.0517 48.4797 51.1177 47.7805 52.0163 46.8948C52.915 46.0091 53.6284 44.9546 54.1154 43.7921C54.6023 42.6297 54.853 41.3826 54.853 40.1229C54.853 38.8632 54.6023 37.616 54.1154 36.4536C53.6284 35.2912 52.915 34.2366 52.0163 33.351C51.1177 32.4653 50.0517 31.7661 48.8801 31.2939C47.7097 30.822 46.4571 30.5861 45.1947 30.5996L45.1925 30.5996H36.9918C36.8772 30.5996 36.7843 30.5073 36.7843 30.3935V27.9188H35.3453C35.2307 27.9188 35.1378 27.8265 35.1378 27.7127V19.8123C35.1378 18.7507 35.561 17.7323 36.3145 16.9814C37.068 16.2305 38.0902 15.8085 39.1561 15.8085H54.0796V14.8804H39.1561ZM33.4913 29.0531C33.4913 28.9392 33.5842 28.847 33.6989 28.847H35.6468C35.7614 28.847 35.8544 28.9392 35.8544 29.0531V31.5277H45.1999L45.2013 31.5277C46.3422 31.515 47.4742 31.7281 48.5319 32.1544C49.5895 32.5808 50.5518 33.2119 51.3629 34.0114C52.174 34.8108 52.8179 35.7626 53.2574 36.8116C53.6968 37.8607 53.9231 38.9861 53.9231 40.1229C53.9231 41.2596 53.6968 42.3851 53.2574 43.4342C52.8179 44.4832 52.174 45.435 51.3629 46.2344C50.5518 47.0338 49.5895 47.665 48.5319 48.0914C47.4742 48.5177 46.3422 48.7307 45.2013 48.7181L45.1996 48.7181L45.1949 48.7181C43.5952 48.7224 42.0261 48.2813 40.6645 47.4446C39.3028 46.6079 38.2029 45.4089 37.4884 43.9828L37.4879 43.9819L37.4873 43.9807L37.4868 43.9798C37.392 43.7939 37.2477 43.6378 37.0698 43.5285C36.8919 43.4192 36.6873 43.3609 36.4784 43.3599L36.4778 43.3599L36.477 43.3599H32.8687L32.8679 43.3599L32.8673 43.3599C32.6584 43.3609 32.4538 43.4192 32.2759 43.5285C32.098 43.6378 31.9537 43.7939 31.8589 43.9797M31.8589 43.9797L31.8587 43.9801L31.8581 43.9812L31.8579 43.9816C31.1688 45.3488 30.1258 46.5081 28.8368 47.3395C27.5478 48.1709 26.0594 48.6444 24.5253 48.711C22.9912 48.7777 21.4671 48.435 20.1104 47.7185C18.7536 47.002 17.6135 45.9377 16.8076 44.6354C16.0017 43.3332 15.5592 41.8402 15.5257 40.3107C15.4923 38.7812 15.8691 37.2704 16.6173 35.9344C17.3656 34.5985 18.4581 33.4856 19.7822 32.7109C21.1063 31.9362 22.614 31.5277 24.1495 31.5277H33.4913V29.0531M33.9064 29.2592V31.7338C33.9064 31.8477 33.8135 31.94 33.6989 31.94H24.1495C22.6881 31.94 21.2532 32.3287 19.9928 33.0661C18.7325 33.8035 17.6924 34.8629 16.98 36.1349C16.2677 37.4068 15.9088 38.8453 15.9407 40.3017C15.9725 41.7582 16.3939 43.1797 17.1612 44.4195C17.9285 45.6594 19.0139 46.6725 20.3052 47.3545C21.5966 48.0365 23.0471 48.3626 24.5072 48.2992C25.9672 48.2358 27.3838 47.7851 28.6107 46.9938C29.8377 46.2024 30.8305 45.0989 31.4867 43.7972L31.4873 43.796L31.4879 43.7949L31.4886 43.7934C31.6179 43.5402 31.8147 43.3271 32.0576 43.1779C32.3004 43.0287 32.5799 42.949 32.8653 42.9477L32.867 42.9477L32.8679 42.9477L36.4786 42.9477L36.4802 42.9477C36.7656 42.949 37.0453 43.0287 37.2881 43.1779C37.531 43.3271 37.7278 43.5401 37.857 43.7934L37.8588 43.7969L37.8599 43.7991C38.54 45.1566 39.587 46.2978 40.8828 47.094C42.1786 47.8902 43.6717 48.3099 45.1938 48.3058L45.2013 48.3058L45.2059 48.3059C46.2917 48.3179 47.3691 48.1152 48.3758 47.7094C49.3825 47.3036 50.2984 46.7028 51.0706 45.9418C51.8427 45.1808 52.4558 44.2746 52.8742 43.2758C53.2926 42.277 53.5081 41.2053 53.5081 40.1229C53.5081 39.0405 53.2926 37.9688 52.8742 36.97C52.4558 35.9712 51.8427 35.065 51.0706 34.304C50.2984 33.543 49.3825 32.9422 48.3758 32.5364C47.3691 32.1306 46.2917 31.9279 45.2059 31.9399L45.2022 31.9399L45.1999 31.94H35.6468C35.5322 31.94 35.4393 31.8477 35.4393 31.7338V29.2592H33.9064ZM43.8701 36.4095C43.8701 35.1859 44.8656 34.1928 46.0951 34.1928C47.3246 34.1928 48.3201 35.1859 48.3201 36.4095C48.3201 37.6331 47.3246 38.6262 46.0951 38.6262C44.8656 38.6262 43.8701 37.6331 43.8701 36.4095ZM46.0951 34.6051C45.0961 34.6051 44.2851 35.4123 44.2851 36.4095C44.2851 37.4067 45.0961 38.2139 46.0951 38.2139C47.094 38.2139 47.905 37.4067 47.905 36.4095C47.905 35.4123 47.094 34.6051 46.0951 34.6051ZM21.0368 35.6276C21.0368 35.1443 21.4302 34.7513 21.9168 34.7513H25.0551C25.5418 34.7513 25.9351 35.1443 25.9351 35.6276V37.6554H27.9692C28.4559 37.6554 28.8493 38.0484 28.8493 38.5318V41.6593C28.8493 42.1426 28.4559 42.5356 27.9692 42.5356H25.9351V44.5634C25.9351 45.0468 25.5418 45.4398 25.0551 45.4398H21.9168C21.4302 45.4398 21.0368 45.0468 21.0368 44.5634V42.5356H19.0027C18.5161 42.5356 18.1227 42.1426 18.1227 41.6593V38.5318C18.1227 38.0484 18.5161 37.6554 19.0027 37.6554H21.0368V35.6276ZM21.9168 35.1636C21.6607 35.1636 21.4519 35.3707 21.4519 35.6276V37.8616C21.4519 37.9754 21.359 38.0677 21.2443 38.0677H19.0027C18.7466 38.0677 18.5377 38.2748 18.5377 38.5318V41.6593C18.5377 41.9162 18.7466 42.1234 19.0027 42.1234H21.2443C21.359 42.1234 21.4519 42.2156 21.4519 42.3295V44.5634C21.4519 44.8204 21.6607 45.0275 21.9168 45.0275H25.0551C25.3113 45.0275 25.5201 44.8204 25.5201 44.5634V42.3295C25.5201 42.2156 25.613 42.1234 25.7276 42.1234H27.9692C28.2254 42.1234 28.4342 41.9162 28.4342 41.6593V38.5318C28.4342 38.2748 28.2254 38.0677 27.9692 38.0677H25.7276C25.613 38.0677 25.5201 37.9754 25.5201 37.8616V35.6276C25.5201 35.3707 25.3113 35.1636 25.0551 35.1636H21.9168ZM46.0951 35.9454C45.8389 35.9454 45.6301 36.1526 45.6301 36.4095C45.6301 36.6664 45.8389 36.8736 46.0951 36.8736C46.3512 36.8736 46.56 36.6664 46.56 36.4095C46.56 36.1526 46.3512 35.9454 46.0951 35.9454ZM45.2151 36.4095C45.2151 35.9262 45.6084 35.5332 46.0951 35.5332C46.5817 35.5332 46.9751 35.9262 46.9751 36.4095C46.9751 36.8928 46.5817 37.2858 46.0951 37.2858C45.6084 37.2858 45.2151 36.8928 45.2151 36.4095ZM22.3818 36.2978C22.3818 36.184 22.4747 36.0917 22.5893 36.0917H24.3826C24.4972 36.0917 24.5902 36.184 24.5902 36.2978V38.5318C24.5902 38.7887 24.799 38.9958 25.0551 38.9958H27.2968C27.4114 38.9958 27.5043 39.0881 27.5043 39.2019V40.9891C27.5043 41.103 27.4114 41.1952 27.2968 41.1952H25.0551C24.799 41.1952 24.5902 41.4024 24.5902 41.6593V43.8933C24.5902 44.0071 24.4972 44.0994 24.3826 44.0994H22.5893C22.4747 44.0994 22.3818 44.0071 22.3818 43.8933V41.6593C22.3818 41.4024 22.173 41.1952 21.9168 41.1952H19.6752C19.5606 41.1952 19.4677 41.103 19.4677 40.9891V39.2019C19.4677 39.0881 19.5606 38.9958 19.6752 38.9958H21.9168C22.173 38.9958 22.3818 38.7887 22.3818 38.5318V36.2978ZM22.7968 36.5039V38.5318C22.7968 39.0151 22.4035 39.4081 21.9168 39.4081H19.8827V40.783H21.9168C22.4035 40.783 22.7968 41.176 22.7968 41.6593V43.6871H24.1751V41.6593C24.1751 41.176 24.5685 40.783 25.0551 40.783H27.0892V39.4081H25.0551C24.5685 39.4081 24.1751 39.0151 24.1751 38.5318V36.5039H22.7968ZM32.1508 36.4017C32.1508 36.2878 32.2437 36.1956 32.3584 36.1956H36.9873C37.1019 36.1956 37.1949 36.2878 37.1949 36.4017V37.7421C37.1949 37.8559 37.1019 37.9482 36.9873 37.9482H32.3584C32.2437 37.9482 32.1508 37.8559 32.1508 37.7421V36.4017ZM32.5659 36.6078V37.5359H36.7798V36.6078H32.5659ZM40.1714 40.0955C40.1714 38.8719 41.1669 37.8788 42.3964 37.8788C43.6259 37.8788 44.6214 38.8719 44.6214 40.0955C44.6214 41.3191 43.6259 42.3122 42.3964 42.3122C41.1669 42.3122 40.1714 41.3191 40.1714 40.0955ZM42.3964 38.2911C41.3974 38.2911 40.5864 39.0983 40.5864 40.0955C40.5864 41.0927 41.3974 41.9 42.3964 41.9C43.3953 41.9 44.2063 41.0927 44.2063 40.0955C44.2063 39.0983 43.3953 38.2911 42.3964 38.2911ZM47.5688 40.0955C47.5688 38.8719 48.5643 37.8788 49.7938 37.8788C51.0232 37.8788 52.0188 38.8719 52.0188 40.0955C52.0188 41.3191 51.0232 42.3122 49.7938 42.3122C48.5643 42.3122 47.5688 41.3191 47.5688 40.0955ZM49.7938 38.2911C48.7948 38.2911 47.9838 39.0983 47.9838 40.0955C47.9838 41.0927 48.7948 41.9 49.7938 41.9C50.7927 41.9 51.6037 41.0927 51.6037 40.0955C51.6037 39.0983 50.7927 38.2911 49.7938 38.2911ZM42.3964 39.6315C42.1402 39.6315 41.9314 39.8386 41.9314 40.0955C41.9314 40.3525 42.1402 40.5596 42.3964 40.5596C42.6525 40.5596 42.8614 40.3525 42.8614 40.0955C42.8614 39.8386 42.6525 39.6315 42.3964 39.6315ZM41.5164 40.0955C41.5164 39.6122 41.9097 39.2192 42.3964 39.2192C42.883 39.2192 43.2764 39.6122 43.2764 40.0955C43.2764 40.5789 42.883 40.9718 42.3964 40.9718C41.9097 40.9718 41.5164 40.5789 41.5164 40.0955ZM49.7938 39.6315C49.5376 39.6315 49.3288 39.8386 49.3288 40.0955C49.3288 40.3525 49.5376 40.5596 49.7938 40.5596C50.0499 40.5596 50.2587 40.3525 50.2587 40.0955C50.2587 39.8386 50.0499 39.6315 49.7938 39.6315ZM48.9138 40.0955C48.9138 39.6122 49.3071 39.2192 49.7938 39.2192C50.2804 39.2192 50.6738 39.6122 50.6738 40.0955C50.6738 40.5789 50.2804 40.9718 49.7938 40.9718C49.3071 40.9718 48.9138 40.5789 48.9138 40.0955ZM43.8701 43.7816C43.8701 42.558 44.8656 41.5649 46.0951 41.5649C47.3246 41.5649 48.3201 42.558 48.3201 43.7816C48.3201 45.0052 47.3246 45.9982 46.0951 45.9982C44.8656 45.9982 43.8701 45.0052 43.8701 43.7816ZM46.0951 41.9771C45.0961 41.9771 44.2851 42.7843 44.2851 43.7816C44.2851 44.7788 45.0961 45.586 46.0951 45.586C47.094 45.586 47.905 44.7788 47.905 43.7816C47.905 42.7843 47.094 41.9771 46.0951 41.9771ZM46.0951 43.3175C45.8389 43.3175 45.6301 43.5246 45.6301 43.7816C45.6301 44.0385 45.8389 44.2456 46.0951 44.2456C46.3512 44.2456 46.56 44.0385 46.56 43.7816C46.56 43.5246 46.3512 43.3175 46.0951 43.3175ZM45.2151 43.7816C45.2151 43.2982 45.6084 42.9052 46.0951 42.9052C46.5817 42.9052 46.9751 43.2982 46.9751 43.7816C46.9751 44.2649 46.5817 44.6579 46.0951 44.6579C45.6084 44.6579 45.2151 44.2649 45.2151 43.7816Z" fill="#BDACA8"/>
<path fill-rule="evenodd" clip-rule="evenodd" d="M34.1447 61.3447C49.007 61.3447 61.0553 49.2964 61.0553 34.434C61.0553 19.5717 49.007 7.5234 34.1447 7.5234C19.2823 7.5234 7.23403 19.5717 7.23403 34.434C7.23403 49.2964 19.2823 61.3447 34.1447 61.3447ZM34.1447 63.3702C50.1257 63.3702 63.0808 50.415 63.0808 34.434C63.0808 18.453 50.1257 5.49786 34.1447 5.49786C18.1637 5.49786 5.2085 18.453 5.2085 34.434C5.2085 50.415 18.1637 63.3702 34.1447 63.3702Z" fill="#BDACA8"/>
</svg>
