<svg width="68" height="68" viewBox="0 0 68 68" fill="none" xmlns="http://www.w3.org/2000/svg">
<path d="M46.0745 12.565C46.0745 13.6724 45.177 14.5701 44.0698 14.5701C42.9627 14.5701 42.0651 13.6724 42.0651 12.565C42.0651 11.4576 42.9627 10.5598 44.0698 10.5598C45.177 10.5598 46.0745 11.4576 46.0745 12.565Z" fill="#BDACA8"/>
<path d="M51.6546 14.5701C52.7618 14.5701 53.6593 13.6724 53.6593 12.565C53.6593 11.4576 52.7618 10.5598 51.6546 10.5598C50.5475 10.5598 49.6499 11.4576 49.6499 12.565C49.6499 13.6724 50.5475 14.5701 51.6546 14.5701Z" fill="#BDACA8"/>
<path d="M61.2441 12.565C61.2441 13.6724 60.3465 14.5701 59.2394 14.5701C58.1322 14.5701 57.2347 13.6724 57.2347 12.565C57.2347 11.4576 58.1322 10.5598 59.2394 10.5598C60.3465 10.5598 61.2441 11.4576 61.2441 12.565Z" fill="#BDACA8"/>
<path d="M11.6564 40.2675L19.4264 32.4942L17.8526 30.9205L8.50941 40.2677L17.8527 49.613L19.4263 48.0391L11.6564 40.2675Z" fill="#BDACA8"/>
<path d="M48.863 32.4942L56.633 40.2675L48.8631 48.0391L50.4367 49.613L59.78 40.2677L50.4368 30.9205L48.863 32.4942Z" fill="#BDACA8"/>
<path d="M43.919 29.7998L26.0939 51.6261L24.3704 50.218L42.1955 28.3916L43.919 29.7998Z" fill="#BDACA8"/>
<path fill-rule="evenodd" clip-rule="evenodd" d="M0.578735 5.2085V63.0808H67.7107V5.2085H0.578735ZM2.8041 17.9831V7.43436H65.4853V17.9831H2.8041ZM2.8041 20.2089V60.855H65.4853V20.2089H2.8041Z" fill="#BDACA8"/>
</svg>
