<svg width="68" height="68" viewBox="0 0 68 68" fill="none" xmlns="http://www.w3.org/2000/svg">
<path fill-rule="evenodd" clip-rule="evenodd" d="M5.2085 34.1447C5.2085 18.1637 18.1637 5.20851 34.1447 5.20851C50.1257 5.20851 63.0808 18.1637 63.0808 34.1447C63.0808 50.1257 50.1257 63.0809 34.1447 63.0809C18.1637 63.0809 5.2085 50.1257 5.2085 34.1447ZM34.1447 7.43437C19.393 7.43437 7.43436 19.393 7.43436 34.1447C7.43436 48.8964 19.393 60.855 34.1447 60.855C48.8964 60.855 60.855 48.8964 60.855 34.1447C60.855 19.393 48.8964 7.43437 34.1447 7.43437Z" fill="#BDACA8"/>
<path d="M25.7129 24.2572C25.1296 24.8555 24.3878 25.1547 23.4877 25.1547C22.7531 25.1547 22.1086 24.9588 21.5541 24.567C21.0068 24.1752 20.636 23.6624 20.4415 23.0284H24.1466V22.5583H20.3227C20.3011 22.3945 20.2903 22.2271 20.2903 22.0561C20.2903 21.878 20.3011 21.7107 20.3227 21.5539H24.1466V21.0838H20.4415C20.636 20.4499 21.0068 19.937 21.5541 19.5452C22.1086 19.1535 22.7531 18.9576 23.4877 18.9576C24.3806 18.9576 25.1224 19.2532 25.7129 19.8444L26.2314 19.3422C25.8929 18.9861 25.486 18.7154 25.0107 18.5302C24.5355 18.345 24.0134 18.2524 23.4445 18.2524C22.818 18.2524 22.2382 18.3735 21.7054 18.6157C21.1725 18.8507 20.7224 19.182 20.3551 19.6093C19.995 20.0367 19.7466 20.5282 19.6098 21.0838H18.3568V21.5539H19.5234C19.5018 21.7107 19.491 21.878 19.491 22.0561C19.491 22.2271 19.5018 22.3945 19.5234 22.5583H18.3568V23.0284H19.6098C19.7466 23.584 19.995 24.0755 20.3551 24.5029C20.7224 24.9303 21.1725 25.2651 21.7054 25.5073C22.2382 25.7423 22.818 25.8598 23.4445 25.8598C24.0134 25.8598 24.5355 25.7672 25.0107 25.582C25.486 25.3968 25.8929 25.1226 26.2314 24.7593L25.7129 24.2572Z" fill="#BDACA8"/>
<path fill-rule="evenodd" clip-rule="evenodd" d="M23.1345 15.1111C26.3003 15.1111 28.9713 17.2066 29.8072 20.0718H40.8806C41.9459 20.0718 42.8095 20.9261 42.8095 21.9798V24.6518C48.9846 24.7282 53.9682 29.6911 53.9682 35.8041C53.9682 41.9171 48.9846 46.8801 42.8095 46.9564V50.9809C42.8095 52.0347 41.9459 52.8889 40.8806 52.8889H24.6777C23.6124 52.8889 22.7487 52.0347 22.7487 50.9809V28.8381C19.0931 28.6401 16.1904 25.6452 16.1904 21.9798C16.1904 18.1863 19.2994 15.1111 23.1345 15.1111ZM23.1345 28.0853C26.5435 28.0853 29.3071 25.3518 29.3071 21.9798C29.3071 18.6078 26.5435 15.8743 23.1345 15.8743C19.7255 15.8743 16.962 18.6078 16.962 21.9798C16.962 25.3518 19.7255 28.0853 23.1345 28.0853ZM23.5203 47.9282V28.8381C27.176 28.6401 30.0786 25.6452 30.0786 21.9798C30.0786 21.5898 30.0458 21.2073 29.9826 20.835H40.8806C41.5197 20.835 42.0379 21.3476 42.0379 21.9798V24.6678C36.0879 24.9889 31.3619 29.8512 31.3619 35.8041C31.3619 41.757 36.0879 46.6193 42.0379 46.9404V47.9282H23.5203ZM42.0379 48.6914H23.5203V50.9809C23.5203 51.6132 24.0385 52.1257 24.6777 52.1257H40.8806C41.5198 52.1257 42.0379 51.6132 42.0379 50.9809V48.6914ZM40.9587 25.5498C38.5412 25.9383 36.4002 27.1389 34.8327 28.8582H39.207C39.2797 28.6225 39.356 28.3951 39.4359 28.1767C39.7954 27.1931 40.2326 26.3702 40.7374 25.7861C40.8091 25.7031 40.8829 25.6242 40.9587 25.5498ZM44.0746 25.5064C44.1664 25.5932 44.2552 25.6868 44.341 25.7861C44.8459 26.3702 45.283 27.1931 45.6425 28.1767C45.7224 28.3951 45.7988 28.6225 45.8715 28.8582H50.4974C48.866 27.0688 46.6136 25.8414 44.0746 25.5064ZM45.0628 28.8582C45.0156 28.7137 44.9669 28.5729 44.9169 28.4362C44.5751 27.5009 44.1771 26.7709 43.7545 26.282C43.3308 25.7916 42.9187 25.5824 42.5392 25.5824C42.1597 25.5824 41.7476 25.7916 41.3239 26.282C40.9013 26.7709 40.5033 27.5009 40.1615 28.4362C40.1115 28.5729 40.0629 28.7137 40.0156 28.8582H45.0628ZM45.2893 29.6214C45.7378 31.2877 46.0119 33.3477 46.0283 35.5905H39.0501C39.0665 33.3477 39.3406 31.2877 39.7891 29.6214H45.2893ZM38.9919 29.6214H34.2002C32.9416 31.2959 32.1813 33.3568 32.1356 35.5905H38.2785C38.2943 33.3815 38.5539 31.3269 38.9919 29.6214ZM38.2828 36.3537H32.1479C32.2591 38.4577 33.0047 40.3961 34.1997 41.9862H38.9918C38.5762 40.3676 38.3212 38.4346 38.2828 36.3537ZM39.2068 42.7494H34.832C36.3997 44.4691 38.541 45.6699 40.9589 46.0585C40.883 45.984 40.8091 45.905 40.7374 45.822C40.2326 45.2378 39.7954 44.415 39.4359 43.4314C39.356 43.2128 39.2796 42.9852 39.2068 42.7494ZM44.0745 46.1019C46.6138 45.7668 48.8665 44.5391 50.498 42.7494H45.8716C45.7989 42.9852 45.7224 43.2128 45.6425 43.4314C45.283 44.415 44.8459 45.2378 44.341 45.822C44.2552 45.9214 44.1663 46.015 44.0745 46.1019ZM45.0629 42.7494C45.0157 42.8941 44.967 43.035 44.9169 43.1719C44.5751 44.1072 44.1771 44.8371 43.7545 45.3261C43.3308 45.8165 42.9187 46.0257 42.5392 46.0257C42.1597 46.0257 41.7476 45.8165 41.3239 45.3261C40.9013 44.8371 40.5033 44.1072 40.1615 43.1719C40.1114 43.035 40.0627 42.8941 40.0155 42.7494H45.0629ZM39.789 41.9862C39.3631 40.4036 39.0944 38.4659 39.0545 36.3537H46.0239C45.984 38.4659 45.7153 40.4036 45.2894 41.9862H39.789ZM46.0866 41.9862H51.1303C52.3254 40.3961 53.071 38.4577 53.1822 36.3537H46.7956C46.7573 38.4346 46.5023 40.3676 46.0866 41.9862ZM46.7999 35.5905H53.1945C53.1488 33.3568 52.3885 31.2959 51.1298 29.6214H46.0865C46.5245 31.3269 46.7842 33.3815 46.7999 35.5905Z" fill="#BDACA8"/>
<path d="M25.7129 24.2572C25.1296 24.8555 24.3878 25.1547 23.4877 25.1547C22.7531 25.1547 22.1086 24.9588 21.5541 24.567C21.0068 24.1752 20.636 23.6624 20.4415 23.0284H24.1466V22.5583H20.3227C20.3011 22.3945 20.2903 22.2271 20.2903 22.0561C20.2903 21.878 20.3011 21.7107 20.3227 21.5539H24.1466V21.0838H20.4415C20.636 20.4499 21.0068 19.937 21.5541 19.5452C22.1086 19.1535 22.7531 18.9576 23.4877 18.9576C24.3806 18.9576 25.1224 19.2532 25.7129 19.8444L26.2314 19.3422C25.8929 18.9861 25.486 18.7154 25.0107 18.5302C24.5355 18.345 24.0134 18.2524 23.4445 18.2524C22.818 18.2524 22.2382 18.3735 21.7054 18.6157C21.1725 18.8507 20.7224 19.182 20.3551 19.6093C19.995 20.0367 19.7466 20.5282 19.6098 21.0838H18.3568V21.5539H19.5234C19.5018 21.7107 19.491 21.878 19.491 22.0561C19.491 22.2271 19.5018 22.3945 19.5234 22.5583H18.3568V23.0284H19.6098C19.7466 23.584 19.995 24.0755 20.3551 24.5029C20.7224 24.9303 21.1725 25.2651 21.7054 25.5073C22.2382 25.7423 22.818 25.8598 23.4445 25.8598C24.0134 25.8598 24.5355 25.7672 25.0107 25.582C25.486 25.3968 25.8929 25.1226 26.2314 24.7593L25.7129 24.2572Z" stroke="#BDACA8" stroke-width="0.5"/>
<path fill-rule="evenodd" clip-rule="evenodd" d="M23.1345 15.1111C26.3003 15.1111 28.9713 17.2066 29.8072 20.0718H40.8806C41.9459 20.0718 42.8095 20.9261 42.8095 21.9798V24.6518C48.9846 24.7282 53.9682 29.6911 53.9682 35.8041C53.9682 41.9171 48.9846 46.8801 42.8095 46.9564V50.9809C42.8095 52.0347 41.9459 52.8889 40.8806 52.8889H24.6777C23.6124 52.8889 22.7487 52.0347 22.7487 50.9809V28.8381C19.0931 28.6401 16.1904 25.6452 16.1904 21.9798C16.1904 18.1863 19.2994 15.1111 23.1345 15.1111ZM23.1345 28.0853C26.5435 28.0853 29.3071 25.3518 29.3071 21.9798C29.3071 18.6078 26.5435 15.8743 23.1345 15.8743C19.7255 15.8743 16.962 18.6078 16.962 21.9798C16.962 25.3518 19.7255 28.0853 23.1345 28.0853ZM23.5203 47.9282V28.8381C27.176 28.6401 30.0786 25.6452 30.0786 21.9798C30.0786 21.5898 30.0458 21.2073 29.9826 20.835H40.8806C41.5197 20.835 42.0379 21.3476 42.0379 21.9798V24.6678C36.0879 24.9889 31.3619 29.8512 31.3619 35.8041C31.3619 41.757 36.0879 46.6193 42.0379 46.9404V47.9282H23.5203ZM42.0379 48.6914H23.5203V50.9809C23.5203 51.6132 24.0385 52.1257 24.6777 52.1257H40.8806C41.5198 52.1257 42.0379 51.6132 42.0379 50.9809V48.6914ZM40.9587 25.5498C38.5412 25.9383 36.4002 27.1389 34.8327 28.8582H39.207C39.2797 28.6225 39.356 28.3951 39.4359 28.1767C39.7954 27.1931 40.2326 26.3702 40.7374 25.7861C40.8091 25.7031 40.8829 25.6242 40.9587 25.5498ZM44.0746 25.5064C44.1664 25.5932 44.2552 25.6868 44.341 25.7861C44.8459 26.3702 45.283 27.1931 45.6425 28.1767C45.7224 28.3951 45.7988 28.6225 45.8715 28.8582H50.4974C48.866 27.0688 46.6136 25.8414 44.0746 25.5064ZM45.0628 28.8582C45.0156 28.7137 44.9669 28.5729 44.9169 28.4362C44.5751 27.5009 44.1771 26.7709 43.7545 26.282C43.3308 25.7916 42.9187 25.5824 42.5392 25.5824C42.1597 25.5824 41.7476 25.7916 41.3239 26.282C40.9013 26.7709 40.5033 27.5009 40.1615 28.4362C40.1115 28.5729 40.0629 28.7137 40.0156 28.8582H45.0628ZM45.2893 29.6214C45.7378 31.2877 46.0119 33.3477 46.0283 35.5905H39.0501C39.0665 33.3477 39.3406 31.2877 39.7891 29.6214H45.2893ZM38.9919 29.6214H34.2002C32.9416 31.2959 32.1813 33.3568 32.1356 35.5905H38.2785C38.2943 33.3815 38.5539 31.3269 38.9919 29.6214ZM38.2828 36.3537H32.1479C32.2591 38.4577 33.0047 40.3961 34.1997 41.9862H38.9918C38.5762 40.3676 38.3212 38.4346 38.2828 36.3537ZM39.2068 42.7494H34.832C36.3997 44.4691 38.541 45.6699 40.9589 46.0585C40.883 45.984 40.8091 45.905 40.7374 45.822C40.2326 45.2378 39.7954 44.415 39.4359 43.4314C39.356 43.2128 39.2796 42.9852 39.2068 42.7494ZM44.0745 46.1019C46.6138 45.7668 48.8665 44.5391 50.498 42.7494H45.8716C45.7989 42.9852 45.7224 43.2128 45.6425 43.4314C45.283 44.415 44.8459 45.2378 44.341 45.822C44.2552 45.9214 44.1663 46.015 44.0745 46.1019ZM45.0629 42.7494C45.0157 42.8941 44.967 43.035 44.9169 43.1719C44.5751 44.1072 44.1771 44.8371 43.7545 45.3261C43.3308 45.8165 42.9187 46.0257 42.5392 46.0257C42.1597 46.0257 41.7476 45.8165 41.3239 45.3261C40.9013 44.8371 40.5033 44.1072 40.1615 43.1719C40.1114 43.035 40.0627 42.8941 40.0155 42.7494H45.0629ZM39.789 41.9862C39.3631 40.4036 39.0944 38.4659 39.0545 36.3537H46.0239C45.984 38.4659 45.7153 40.4036 45.2894 41.9862H39.789ZM46.0866 41.9862H51.1303C52.3254 40.3961 53.071 38.4577 53.1822 36.3537H46.7956C46.7573 38.4346 46.5023 40.3676 46.0866 41.9862ZM46.7999 35.5905H53.1945C53.1488 33.3568 52.3885 31.2959 51.1298 29.6214H46.0865C46.5245 31.3269 46.7842 33.3815 46.7999 35.5905Z" stroke="#BDACA8" stroke-width="0.5"/>
</svg>
