<svg width="69" height="68" viewBox="0 0 69 68" fill="none" xmlns="http://www.w3.org/2000/svg">
<path fill-rule="evenodd" clip-rule="evenodd" d="M34.1772 7.25C19.5818 7.25 7.75 19.0818 7.75 33.6772C7.75 48.2725 19.5818 60.1043 34.1772 60.1043C48.7725 60.1043 60.6043 48.2725 60.6043 33.6772C60.6043 19.0818 48.7725 7.25 34.1772 7.25ZM6.25 33.6772C6.25 18.2534 18.7534 5.75 34.1772 5.75C49.6009 5.75 62.1043 18.2534 62.1043 33.6772C62.1043 49.1009 49.6009 61.6043 34.1772 61.6043C18.7534 61.6043 6.25 49.1009 6.25 33.6772ZM22.8267 36.3949H30.4203C30.7401 36.3949 30.8999 36.1551 30.8999 35.9153C30.8999 35.5956 30.6601 35.4357 30.4203 35.4357H22.8267C22.507 35.4357 22.3471 35.6755 22.3471 35.9153C22.2672 36.1551 22.507 36.3949 22.8267 36.3949ZM30.4203 39.9919H22.8267C22.507 39.9919 22.2672 39.7521 22.3471 39.5123C22.3471 39.2725 22.507 39.0327 22.8267 39.0327H30.4203C30.6601 39.0327 30.8999 39.1925 30.8999 39.5123C30.8999 39.7521 30.7401 39.9919 30.4203 39.9919ZM22.8267 43.5888H30.4203C30.7401 43.5888 30.8999 43.349 30.8999 43.1092C30.8999 42.7895 30.6601 42.6297 30.4203 42.6297H22.8267C22.507 42.6297 22.3471 42.8694 22.3471 43.1092C22.2672 43.349 22.507 43.5888 22.8267 43.5888ZM30.4203 47.1858H22.8267C22.507 47.1858 22.2672 46.946 22.3471 46.7062C22.3471 46.4664 22.507 46.2266 22.8267 46.2266H30.4203C30.6601 46.2266 30.8999 46.3865 30.8999 46.7062C30.8999 46.946 30.7401 47.1858 30.4203 47.1858ZM37.2945 47.9852C37.6143 47.9852 37.7741 47.7454 37.7741 47.5056V28.1618C37.7741 27.8421 37.5343 27.6822 37.2945 27.6822C37.0547 27.6822 36.8149 27.922 36.8149 28.1618V47.5056C36.735 47.7454 36.9748 47.9852 37.2945 47.9852ZM41.531 47.5056C41.531 47.7454 41.3711 47.9852 41.0514 47.9852C40.8116 47.9852 40.5718 47.7454 40.5718 47.5056V28.1618C40.5718 27.922 40.7317 27.6822 41.0514 27.6822C41.2912 27.6822 41.531 27.8421 41.531 28.1618V47.5056ZM44.8882 47.9852C45.2079 47.9852 45.3678 47.7454 45.3678 47.5056V28.1618C45.3678 27.8421 45.128 27.6822 44.8882 27.6822C44.5684 27.6822 44.4086 27.922 44.4086 28.1618V47.5056C44.3286 47.7454 44.5684 47.9852 44.8882 47.9852ZM33.3778 21.2076C33.3778 20.9678 33.5377 20.728 33.8574 20.728C34.0972 20.728 34.337 20.9678 34.337 21.2076C34.337 21.4474 34.1772 21.6872 33.8574 21.6872C33.6176 21.6872 33.3778 21.5274 33.3778 21.2076ZM31.0598 20.728C30.7401 20.728 30.5802 20.9678 30.5802 21.2076C30.5802 21.5274 30.82 21.6872 31.0598 21.6872C31.3795 21.6872 31.5394 21.4474 31.5394 21.2076C31.6193 20.9678 31.3795 20.728 31.0598 20.728ZM27.8625 21.2076C27.8625 20.9678 28.0223 20.728 28.3421 20.728C28.5819 20.728 28.8217 20.9678 28.8217 21.2076C28.8217 21.4474 28.6618 21.6872 28.3421 21.6872C28.1023 21.6872 27.8625 21.5274 27.8625 21.2076ZM36.5752 20.728C36.2554 20.728 36.0956 20.9678 36.0956 21.2076C36.0956 21.5274 36.3354 21.6872 36.5752 21.6872C36.8949 21.6872 37.0547 21.4474 37.0547 21.2076C37.1347 20.9678 36.8949 20.728 36.5752 20.728ZM27.8625 25.3642C27.8625 25.1244 28.0223 24.8846 28.3421 24.8846C28.5819 24.8846 28.8217 25.1244 28.8217 25.3642C28.8217 25.604 28.6618 25.8438 28.3421 25.8438C28.1023 25.8438 27.8625 25.6839 27.8625 25.3642ZM31.0598 24.8846C30.7401 24.8846 30.5802 25.1244 30.5802 25.3642C30.5802 25.6839 30.82 25.8438 31.0598 25.8438C31.3795 25.8438 31.5394 25.604 31.5394 25.3642C31.6193 25.1244 31.3795 24.8846 31.0598 24.8846ZM27.8625 29.5207C27.8625 29.2809 28.0223 29.0411 28.3421 29.0411C28.5819 29.0411 28.8217 29.2809 28.8217 29.5207C28.8217 29.7605 28.6618 30.0003 28.3421 30.0003C28.1023 30.0003 27.8625 29.8404 27.8625 29.5207ZM31.0598 29.0411C30.7401 29.0411 30.5802 29.2809 30.5802 29.5207C30.5802 29.8404 30.82 30.0003 31.0598 30.0003C31.3795 30.0003 31.5394 29.7605 31.5394 29.5207C31.6193 29.2809 31.3795 29.0411 31.0598 29.0411ZM49.2045 49.7437H50.7233C51.043 49.7437 51.2828 49.9835 51.2828 50.1433C51.2828 50.3831 51.1229 50.6229 50.8032 50.6229H17.711C17.4712 50.6229 17.2314 50.4631 17.2314 50.1433C17.2314 49.9035 17.3913 49.6637 17.711 49.6637H19.2297V32.2384C19.2297 31.9986 19.3896 31.7588 19.7093 31.7588H25.0648V17.6107H24.1856C23.9458 17.6107 23.706 17.4508 23.706 17.1311C23.706 16.8913 23.8658 16.6515 24.1856 16.6515H40.8116C41.0514 16.6515 41.2912 16.8113 41.2912 17.1311C41.2912 17.3709 41.1313 17.6107 40.8116 17.6107H39.9323V24.8846H48.7249C48.9647 24.8846 49.2045 25.0444 49.2045 25.3642V49.7437ZM20.1889 49.7437H32.9782V32.7979H20.1889V49.7437ZM32.9782 31.7588V25.3642C32.9782 25.1244 33.218 24.8846 33.5377 24.8846H38.8932V17.6107H26.104V31.7588H32.9782ZM34.0173 49.7437H48.1654V25.9237H34.0173V49.7437Z" fill="#BDACA8"/>
<path d="M22.3471 35.9153L22.5843 35.9943L22.5971 35.9559V35.9153H22.3471ZM22.3471 39.5123L22.5843 39.5913L22.5971 39.5528V39.5123H22.3471ZM22.3471 43.1092L22.5843 43.1883L22.5971 43.1498V43.1092H22.3471ZM22.3471 46.7062L22.5843 46.7853L22.5971 46.7468V46.7062H22.3471ZM36.8149 47.5056L37.0521 47.5846L37.0649 47.5461V47.5056H36.8149ZM44.4086 47.5056L44.6457 47.5846L44.6586 47.5461V47.5056H44.4086ZM31.5394 21.2076L31.3022 21.1286L31.2894 21.1671V21.2076H31.5394ZM37.0547 21.2076L36.8176 21.1286L36.8047 21.1671V21.2076H37.0547ZM31.5394 25.3642L31.3022 25.2851L31.2894 25.3236V25.3642H31.5394ZM31.5394 29.5207L31.3022 29.4416L31.2894 29.4801V29.5207H31.5394ZM49.2045 49.7437H48.9545V49.9937H49.2045V49.7437ZM19.2297 49.6637V49.9137H19.4797V49.6637H19.2297ZM25.0648 31.7588V32.0088H25.3148V31.7588H25.0648ZM25.0648 17.6107H25.3148V17.3607H25.0648V17.6107ZM39.9323 17.6107V17.3607H39.6823V17.6107H39.9323ZM39.9323 24.8846H39.6823V25.1346H39.9323V24.8846ZM32.9782 49.7437V49.9937H33.2282V49.7437H32.9782ZM20.1889 49.7437H19.9389V49.9937H20.1889V49.7437ZM32.9782 32.7979H33.2282V32.5479H32.9782V32.7979ZM20.1889 32.7979V32.5479H19.9389V32.7979H20.1889ZM32.9782 31.7588V32.0088H33.2282V31.7588H32.9782ZM38.8932 24.8846V25.1346H39.1432V24.8846H38.8932ZM38.8932 17.6107H39.1432V17.3607H38.8932V17.6107ZM26.104 17.6107V17.3607H25.854V17.6107H26.104ZM26.104 31.7588H25.854V32.0088H26.104V31.7588ZM48.1654 49.7437V49.9937H48.4154V49.7437H48.1654ZM34.0173 49.7437H33.7673V49.9937H34.0173V49.7437ZM48.1654 25.9237H48.4154V25.6737H48.1654V25.9237ZM34.0173 25.9237V25.6737H33.7673V25.9237H34.0173ZM8 33.6772C8 19.2199 19.7199 7.5 34.1772 7.5V7C19.4438 7 7.5 18.9438 7.5 33.6772H8ZM34.1772 59.8543C19.7199 59.8543 8 48.1344 8 33.6772H7.5C7.5 48.4106 19.4438 60.3543 34.1772 60.3543V59.8543ZM60.3543 33.6772C60.3543 48.1344 48.6344 59.8543 34.1772 59.8543V60.3543C48.9106 60.3543 60.8543 48.4106 60.8543 33.6772H60.3543ZM34.1772 7.5C48.6344 7.5 60.3543 19.2199 60.3543 33.6772H60.8543C60.8543 18.9438 48.9106 7 34.1772 7V7.5ZM34.1772 5.5C18.6153 5.5 6 18.1153 6 33.6772H6.5C6.5 18.3915 18.8915 6 34.1772 6V5.5ZM62.3543 33.6772C62.3543 18.1153 49.739 5.5 34.1772 5.5V6C49.4628 6 61.8543 18.3915 61.8543 33.6772H62.3543ZM34.1772 61.8543C49.739 61.8543 62.3543 49.239 62.3543 33.6772H61.8543C61.8543 48.9628 49.4628 61.3543 34.1772 61.3543V61.8543ZM6 33.6772C6 49.239 18.6153 61.8543 34.1772 61.8543V61.3543C18.8915 61.3543 6.5 48.9628 6.5 33.6772H6ZM30.4203 36.1449H22.8267V36.6449H30.4203V36.1449ZM30.6499 35.9153C30.6499 35.9819 30.6274 36.0404 30.5932 36.0789C30.563 36.1129 30.5123 36.1449 30.4203 36.1449V36.6449C30.648 36.6449 30.8372 36.557 30.9669 36.4111C31.0925 36.2698 31.1499 36.0885 31.1499 35.9153H30.6499ZM30.4203 35.6857C30.487 35.6857 30.5454 35.7082 30.584 35.7424C30.6179 35.7726 30.6499 35.8233 30.6499 35.9153H31.1499C31.1499 35.6876 31.062 35.4984 30.9161 35.3687C30.7748 35.2431 30.5935 35.1857 30.4203 35.1857V35.6857ZM22.8267 35.6857H30.4203V35.1857H22.8267V35.6857ZM22.5971 35.9153C22.5971 35.8487 22.6196 35.7902 22.6539 35.7517C22.684 35.7177 22.7347 35.6857 22.8267 35.6857V35.1857C22.599 35.1857 22.4098 35.2736 22.2802 35.4195C22.1545 35.5608 22.0971 35.7421 22.0971 35.9153H22.5971ZM22.8267 36.1449C22.7275 36.1449 22.653 36.1074 22.6138 36.0682C22.5766 36.031 22.5801 36.0068 22.5843 35.9943L22.1099 35.8362C22.0341 36.0636 22.1176 36.2791 22.2603 36.4218C22.4009 36.5625 22.6062 36.6449 22.8267 36.6449V36.1449ZM22.8267 40.2419H30.4203V39.7419H22.8267V40.2419ZM22.1099 39.4332C22.0341 39.6606 22.1176 39.8761 22.2603 40.0188C22.4009 40.1594 22.6062 40.2419 22.8267 40.2419V39.7419C22.7275 39.7419 22.653 39.7044 22.6138 39.6652C22.5766 39.628 22.5801 39.6038 22.5843 39.5913L22.1099 39.4332ZM22.8267 38.7827C22.599 38.7827 22.4098 38.8705 22.2802 39.0164C22.1545 39.1578 22.0971 39.3391 22.0971 39.5123H22.5971C22.5971 39.4456 22.6196 39.3872 22.6539 39.3486C22.684 39.3147 22.7347 39.2827 22.8267 39.2827V38.7827ZM30.4203 38.7827H22.8267V39.2827H30.4203V38.7827ZM31.1499 39.5123C31.1499 39.2846 31.062 39.0954 30.9161 38.9657C30.7748 38.8401 30.5935 38.7827 30.4203 38.7827V39.2827C30.487 39.2827 30.5454 39.3052 30.584 39.3394C30.6179 39.3696 30.6499 39.4202 30.6499 39.5123H31.1499ZM30.4203 40.2419C30.648 40.2419 30.8372 40.154 30.9669 40.0081C31.0925 39.8668 31.1499 39.6854 31.1499 39.5123H30.6499C30.6499 39.5789 30.6274 39.6374 30.5932 39.6759C30.563 39.7098 30.5123 39.7419 30.4203 39.7419V40.2419ZM30.4203 43.3388H22.8267V43.8388H30.4203V43.3388ZM30.6499 43.1092C30.6499 43.1759 30.6274 43.2343 30.5932 43.2729C30.563 43.3068 30.5123 43.3388 30.4203 43.3388V43.8388C30.648 43.8388 30.8372 43.751 30.9669 43.6051C31.0925 43.4637 31.1499 43.2824 31.1499 43.1092H30.6499ZM30.4203 42.8797C30.487 42.8797 30.5454 42.9021 30.584 42.9364C30.6179 42.9666 30.6499 43.0172 30.6499 43.1092H31.1499C31.1499 42.8815 31.062 42.6924 30.9161 42.5627C30.7748 42.4371 30.5935 42.3797 30.4203 42.3797V42.8797ZM22.8267 42.8797H30.4203V42.3797H22.8267V42.8797ZM22.5971 43.1092C22.5971 43.0426 22.6196 42.9842 22.6539 42.9456C22.684 42.9117 22.7347 42.8797 22.8267 42.8797V42.3797C22.599 42.3797 22.4098 42.4675 22.2802 42.6134C22.1545 42.7547 22.0971 42.9361 22.0971 43.1092H22.5971ZM22.8267 43.3388C22.7275 43.3388 22.653 43.3014 22.6138 43.2622C22.5766 43.225 22.5801 43.2007 22.5843 43.1883L22.1099 43.0302C22.0341 43.2575 22.1176 43.4731 22.2603 43.6157C22.4009 43.7564 22.6062 43.8388 22.8267 43.8388V43.3388ZM22.8267 47.4358H30.4203V46.9358H22.8267V47.4358ZM22.1099 46.6272C22.0341 46.8545 22.1176 47.0701 22.2603 47.2127C22.4009 47.3534 22.6062 47.4358 22.8267 47.4358V46.9358C22.7275 46.9358 22.653 46.8983 22.6138 46.8592C22.5766 46.822 22.5801 46.7977 22.5843 46.7853L22.1099 46.6272ZM22.8267 45.9766C22.599 45.9766 22.4098 46.0645 22.2802 46.2104C22.1545 46.3517 22.0971 46.5331 22.0971 46.7062H22.5971C22.5971 46.6396 22.6196 46.5811 22.6539 46.5426C22.684 46.5086 22.7347 46.4766 22.8267 46.4766V45.9766ZM30.4203 45.9766H22.8267V46.4766H30.4203V45.9766ZM31.1499 46.7062C31.1499 46.4785 31.062 46.2894 30.9161 46.1597C30.7748 46.0341 30.5935 45.9766 30.4203 45.9766V46.4766C30.487 46.4766 30.5454 46.4991 30.584 46.5334C30.6179 46.5635 30.6499 46.6142 30.6499 46.7062H31.1499ZM30.4203 47.4358C30.648 47.4358 30.8372 47.3479 30.9669 47.202C31.0925 47.0607 31.1499 46.8794 31.1499 46.7062H30.6499C30.6499 46.7729 30.6274 46.8313 30.5932 46.8699C30.563 46.9038 30.5123 46.9358 30.4203 46.9358V47.4358ZM37.5241 47.5056C37.5241 47.5722 37.5016 47.6306 37.4674 47.6692C37.4372 47.7031 37.3866 47.7352 37.2945 47.7352V48.2352C37.5223 48.2352 37.7114 48.1473 37.8411 48.0014C37.9667 47.8601 38.0241 47.6787 38.0241 47.5056H37.5241ZM37.5241 28.1618V47.5056H38.0241V28.1618H37.5241ZM37.2945 27.9322C37.3612 27.9322 37.4196 27.9547 37.4582 27.989C37.4921 28.0191 37.5241 28.0698 37.5241 28.1618H38.0241C38.0241 27.9341 37.9363 27.745 37.7904 27.6153C37.6491 27.4896 37.4677 27.4322 37.2945 27.4322V27.9322ZM37.0649 28.1618C37.0649 28.1232 37.0868 28.0637 37.1416 28.0089C37.1964 27.954 37.256 27.9322 37.2945 27.9322V27.4322C37.0933 27.4322 36.9131 27.5303 36.788 27.6553C36.663 27.7803 36.5649 27.9606 36.5649 28.1618H37.0649ZM37.0649 47.5056V28.1618H36.5649V47.5056H37.0649ZM37.2945 47.7352C37.1953 47.7352 37.1208 47.6977 37.0816 47.6585C37.0445 47.6213 37.048 47.5971 37.0521 47.5846L36.5778 47.4265C36.502 47.6539 36.5854 47.8694 36.7281 48.0121C36.8688 48.1527 37.0741 48.2352 37.2945 48.2352V47.7352ZM41.0514 48.2352C41.2791 48.2352 41.4682 48.1473 41.5979 48.0014C41.7235 47.8601 41.781 47.6787 41.781 47.5056H41.281C41.281 47.5722 41.2585 47.6306 41.2242 47.6692C41.1941 47.7031 41.1434 47.7352 41.0514 47.7352V48.2352ZM40.3218 47.5056C40.3218 47.7068 40.4199 47.887 40.5449 48.0121C40.6699 48.1371 40.8502 48.2352 41.0514 48.2352V47.7352C41.0128 47.7352 40.9533 47.7133 40.8984 47.6585C40.8436 47.6037 40.8218 47.5442 40.8218 47.5056H40.3218ZM40.3218 28.1618V47.5056H40.8218V28.1618H40.3218ZM41.0514 27.4322C40.8237 27.4322 40.6345 27.5201 40.5048 27.666C40.3792 27.8073 40.3218 27.9886 40.3218 28.1618H40.8218C40.8218 28.0952 40.8443 28.0367 40.8785 27.9982C40.9087 27.9642 40.9594 27.9322 41.0514 27.9322V27.4322ZM41.781 28.1618C41.781 27.9341 41.6931 27.7449 41.5472 27.6153C41.4059 27.4896 41.2246 27.4322 41.0514 27.4322V27.9322C41.118 27.9322 41.1765 27.9547 41.215 27.989C41.249 28.0191 41.281 28.0698 41.281 28.1618H41.781ZM41.781 47.5056V28.1618H41.281V47.5056H41.781ZM45.1178 47.5056C45.1178 47.5722 45.0953 47.6306 45.061 47.6692C45.0308 47.7031 44.9802 47.7352 44.8882 47.7352V48.2352C45.1159 48.2352 45.305 48.1473 45.4347 48.0014C45.5603 47.8601 45.6178 47.6787 45.6178 47.5056H45.1178ZM45.1178 28.1618V47.5056H45.6178V28.1618H45.1178ZM44.8882 27.9322C44.9548 27.9322 45.0133 27.9547 45.0518 27.989C45.0857 28.0191 45.1178 28.0698 45.1178 28.1618H45.6178C45.6178 27.9341 45.5299 27.7449 45.384 27.6153C45.2427 27.4896 45.0613 27.4322 44.8882 27.4322V27.9322ZM44.6586 28.1618C44.6586 28.0952 44.6811 28.0367 44.7153 27.9982C44.7455 27.9642 44.7961 27.9322 44.8882 27.9322V27.4322C44.6605 27.4322 44.4713 27.5201 44.3416 27.666C44.216 27.8073 44.1586 27.9886 44.1586 28.1618H44.6586ZM44.6586 47.5056V28.1618H44.1586V47.5056H44.6586ZM44.8882 47.7352C44.7889 47.7352 44.7144 47.6977 44.6753 47.6585C44.6381 47.6213 44.6416 47.5971 44.6457 47.5846L44.1714 47.4265C44.0956 47.6539 44.1791 47.8694 44.3217 48.0121C44.4624 48.1527 44.6677 48.2352 44.8882 48.2352V47.7352ZM33.8574 20.478C33.6297 20.478 33.4406 20.5659 33.3109 20.7118C33.1853 20.8531 33.1278 21.0345 33.1278 21.2076H33.6278C33.6278 21.141 33.6503 21.0826 33.6846 21.044C33.7148 21.0101 33.7654 20.978 33.8574 20.978V20.478ZM34.587 21.2076C34.587 21.0064 34.4889 20.8262 34.3639 20.7011C34.2389 20.5761 34.0586 20.478 33.8574 20.478V20.978C33.896 20.978 33.9555 20.9999 34.0104 21.0547C34.0652 21.1095 34.087 21.1691 34.087 21.2076H34.587ZM33.8574 21.9372C34.0851 21.9372 34.2743 21.8494 34.404 21.7035C34.5296 21.5622 34.587 21.3808 34.587 21.2076H34.087C34.087 21.2743 34.0645 21.3327 34.0303 21.3713C34.0001 21.4052 33.9495 21.4372 33.8574 21.4372V21.9372ZM33.1278 21.2076C33.1278 21.4353 33.2157 21.6245 33.3616 21.7542C33.5029 21.8798 33.6843 21.9372 33.8574 21.9372V21.4372C33.7908 21.4372 33.7323 21.4148 33.6938 21.3805C33.6599 21.3503 33.6278 21.2997 33.6278 21.2076H33.1278ZM30.8302 21.2076C30.8302 21.141 30.8527 21.0826 30.8869 21.044C30.9171 21.0101 30.9678 20.978 31.0598 20.978V20.478C30.8321 20.478 30.6429 20.5659 30.5132 20.7118C30.3876 20.8531 30.3302 21.0345 30.3302 21.2076H30.8302ZM31.0598 21.4372C30.9932 21.4372 30.9347 21.4148 30.8962 21.3805C30.8622 21.3503 30.8302 21.2997 30.8302 21.2076H30.3302C30.3302 21.4353 30.4181 21.6245 30.564 21.7542C30.7053 21.8798 30.8866 21.9372 31.0598 21.9372V21.4372ZM31.2894 21.2076C31.2894 21.2743 31.2669 21.3327 31.2326 21.3713C31.2025 21.4052 31.1518 21.4372 31.0598 21.4372V21.9372C31.2875 21.9372 31.4766 21.8494 31.6063 21.7035C31.7319 21.5622 31.7894 21.3808 31.7894 21.2076H31.2894ZM31.0598 20.978C31.159 20.978 31.2335 21.0155 31.2727 21.0547C31.3099 21.0919 31.3064 21.1161 31.3022 21.1286L31.7766 21.2867C31.8523 21.0593 31.7689 20.8438 31.6262 20.7011C31.4856 20.5605 31.2803 20.478 31.0598 20.478V20.978ZM28.3421 20.478C28.1144 20.478 27.9252 20.5659 27.7955 20.7118C27.6699 20.8531 27.6125 21.0345 27.6125 21.2076H28.1125C28.1125 21.141 28.135 21.0826 28.1692 21.044C28.1994 21.0101 28.25 20.978 28.3421 20.978V20.478ZM29.0717 21.2076C29.0717 21.0064 28.9736 20.8262 28.8486 20.7011C28.7236 20.5761 28.5433 20.478 28.3421 20.478V20.978C28.3807 20.978 28.4402 20.9999 28.495 21.0547C28.5499 21.1095 28.5717 21.1691 28.5717 21.2076H29.0717ZM28.3421 21.9372C28.5698 21.9372 28.7589 21.8494 28.8886 21.7035C29.0142 21.5622 29.0717 21.3808 29.0717 21.2076H28.5717C28.5717 21.2743 28.5492 21.3327 28.5149 21.3713C28.4847 21.4052 28.4341 21.4372 28.3421 21.4372V21.9372ZM27.6125 21.2076C27.6125 21.4353 27.7003 21.6245 27.8463 21.7542C27.9876 21.8798 28.1689 21.9372 28.3421 21.9372V21.4372C28.2754 21.4372 28.217 21.4148 28.1784 21.3805C28.1445 21.3503 28.1125 21.2997 28.1125 21.2076H27.6125ZM36.3456 21.2076C36.3456 21.141 36.368 21.0826 36.4023 21.044C36.4325 21.0101 36.4831 20.978 36.5752 20.978V20.478C36.3474 20.478 36.1583 20.5659 36.0286 20.7118C35.903 20.8531 35.8456 21.0345 35.8456 21.2076H36.3456ZM36.5752 21.4372C36.5085 21.4372 36.4501 21.4148 36.4115 21.3805C36.3776 21.3503 36.3456 21.2997 36.3456 21.2076H35.8456C35.8456 21.4353 35.9334 21.6245 36.0793 21.7542C36.2206 21.8798 36.402 21.9372 36.5752 21.9372V21.4372ZM36.8047 21.2076C36.8047 21.2743 36.7823 21.3327 36.748 21.3713C36.7178 21.4052 36.6672 21.4372 36.5752 21.4372V21.9372C36.8029 21.9372 36.992 21.8494 37.1217 21.7035C37.2473 21.5622 37.3047 21.3808 37.3047 21.2076H36.8047ZM36.5752 20.978C36.6744 20.978 36.7489 21.0155 36.788 21.0547C36.8252 21.0919 36.8217 21.1161 36.8176 21.1286L37.2919 21.2867C37.3677 21.0593 37.2843 20.8438 37.1416 20.7011C37.0009 20.5605 36.7956 20.478 36.5752 20.478V20.978ZM28.3421 24.6346C28.1144 24.6346 27.9252 24.7224 27.7955 24.8683C27.6699 25.0096 27.6125 25.191 27.6125 25.3642H28.1125C28.1125 25.2975 28.135 25.2391 28.1692 25.2005C28.1994 25.1666 28.25 25.1346 28.3421 25.1346V24.6346ZM29.0717 25.3642C29.0717 25.1629 28.9736 24.9827 28.8486 24.8577C28.7236 24.7326 28.5433 24.6346 28.3421 24.6346V25.1346C28.3807 25.1346 28.4402 25.1564 28.495 25.2112C28.5499 25.266 28.5717 25.3256 28.5717 25.3642H29.0717ZM28.3421 26.0938C28.5698 26.0938 28.7589 26.0059 28.8886 25.86C29.0142 25.7187 29.0717 25.5373 29.0717 25.3642H28.5717C28.5717 25.4308 28.5492 25.4892 28.5149 25.5278C28.4847 25.5617 28.4341 25.5938 28.3421 25.5938V26.0938ZM27.6125 25.3642C27.6125 25.5919 27.7003 25.781 27.8463 25.9107C27.9876 26.0363 28.1689 26.0938 28.3421 26.0938V25.5938C28.2754 25.5938 28.217 25.5713 28.1784 25.537C28.1445 25.5068 28.1125 25.4562 28.1125 25.3642H27.6125ZM30.8302 25.3642C30.8302 25.2975 30.8527 25.2391 30.8869 25.2005C30.9171 25.1666 30.9678 25.1346 31.0598 25.1346V24.6346C30.8321 24.6346 30.6429 24.7224 30.5132 24.8683C30.3876 25.0096 30.3302 25.191 30.3302 25.3642H30.8302ZM31.0598 25.5938C30.9932 25.5938 30.9347 25.5713 30.8962 25.537C30.8622 25.5068 30.8302 25.4562 30.8302 25.3642H30.3302C30.3302 25.5919 30.4181 25.781 30.564 25.9107C30.7053 26.0363 30.8866 26.0938 31.0598 26.0938V25.5938ZM31.2894 25.3642C31.2894 25.4308 31.2669 25.4892 31.2326 25.5278C31.2025 25.5617 31.1518 25.5938 31.0598 25.5938V26.0938C31.2875 26.0938 31.4766 26.0059 31.6063 25.86C31.7319 25.7187 31.7894 25.5373 31.7894 25.3642H31.2894ZM31.0598 25.1346C31.159 25.1346 31.2335 25.172 31.2727 25.2112C31.3099 25.2484 31.3064 25.2727 31.3022 25.2851L31.7766 25.4432C31.8523 25.2159 31.7689 25.0003 31.6262 24.8577C31.4856 24.717 31.2803 24.6346 31.0598 24.6346V25.1346ZM28.3421 28.7911C28.1144 28.7911 27.9252 28.8789 27.7955 29.0248C27.6699 29.1662 27.6125 29.3475 27.6125 29.5207H28.1125C28.1125 29.454 28.135 29.3956 28.1692 29.357C28.1994 29.3231 28.25 29.2911 28.3421 29.2911V28.7911ZM29.0717 29.5207C29.0717 29.3195 28.9736 29.1392 28.8486 29.0142C28.7236 28.8892 28.5433 28.7911 28.3421 28.7911V29.2911C28.3807 29.2911 28.4402 29.3129 28.495 29.3677C28.5499 29.4226 28.5717 29.4821 28.5717 29.5207H29.0717ZM28.3421 30.2503C28.5698 30.2503 28.7589 30.1624 28.8886 30.0165C29.0142 29.8752 29.0717 29.6938 29.0717 29.5207H28.5717C28.5717 29.5873 28.5492 29.6458 28.5149 29.6843C28.4847 29.7182 28.4341 29.7503 28.3421 29.7503V30.2503ZM27.6125 29.5207C27.6125 29.7484 27.7003 29.9375 27.8463 30.0672C27.9876 30.1928 28.1689 30.2503 28.3421 30.2503V29.7503C28.2754 29.7503 28.217 29.7278 28.1784 29.6935C28.1445 29.6633 28.1125 29.6127 28.1125 29.5207H27.6125ZM30.8302 29.5207C30.8302 29.454 30.8527 29.3956 30.8869 29.357C30.9171 29.3231 30.9678 29.2911 31.0598 29.2911V28.7911C30.8321 28.7911 30.6429 28.8789 30.5132 29.0248C30.3876 29.1662 30.3302 29.3475 30.3302 29.5207H30.8302ZM31.0598 29.7503C30.9932 29.7503 30.9347 29.7278 30.8962 29.6935C30.8622 29.6633 30.8302 29.6127 30.8302 29.5207H30.3302C30.3302 29.7484 30.4181 29.9375 30.564 30.0672C30.7053 30.1928 30.8866 30.2503 31.0598 30.2503V29.7503ZM31.2894 29.5207C31.2894 29.5873 31.2669 29.6458 31.2326 29.6843C31.2025 29.7182 31.1518 29.7503 31.0598 29.7503V30.2503C31.2875 30.2503 31.4766 30.1624 31.6063 30.0165C31.7319 29.8752 31.7894 29.6938 31.7894 29.5207H31.2894ZM31.0598 29.2911C31.159 29.2911 31.2335 29.3285 31.2727 29.3677C31.3099 29.4049 31.3064 29.4292 31.3022 29.4416L31.7766 29.5997C31.8523 29.3724 31.7689 29.1568 31.6262 29.0142C31.4856 28.8735 31.2803 28.7911 31.0598 28.7911V29.2911ZM50.7233 49.4937H49.2045V49.9937H50.7233V49.4937ZM51.5328 50.1433C51.5328 49.9542 51.4063 49.7901 51.2791 49.6883C51.1398 49.5769 50.9459 49.4937 50.7233 49.4937V49.9937C50.8204 49.9937 50.9063 50.0304 50.9668 50.0788C50.9969 50.1029 51.0165 50.1266 51.027 50.1438C51.0389 50.1632 51.0328 50.1632 51.0328 50.1433H51.5328ZM50.8032 50.8729C51.0309 50.8729 51.2201 50.7851 51.3498 50.6391C51.4754 50.4978 51.5328 50.3165 51.5328 50.1433H51.0328C51.0328 50.21 51.0103 50.2684 50.976 50.307C50.9459 50.3409 50.8952 50.3729 50.8032 50.3729V50.8729ZM17.711 50.8729H50.8032V50.3729H17.711V50.8729ZM16.9814 50.1433C16.9814 50.371 17.0693 50.5602 17.2152 50.6899C17.3565 50.8155 17.5378 50.8729 17.711 50.8729V50.3729C17.6444 50.3729 17.5859 50.3504 17.5474 50.3162C17.5134 50.286 17.4814 50.2354 17.4814 50.1433H16.9814ZM17.711 49.4137C17.4833 49.4137 17.2941 49.5016 17.1645 49.6475C17.0388 49.7888 16.9814 49.9702 16.9814 50.1433H17.4814C17.4814 50.0767 17.5039 50.0182 17.5382 49.9797C17.5683 49.9458 17.619 49.9137 17.711 49.9137V49.4137ZM19.2297 49.4137H17.711V49.9137H19.2297V49.4137ZM18.9797 32.2384V49.6637H19.4797V32.2384H18.9797ZM19.7093 31.5088C19.4816 31.5088 19.2925 31.5967 19.1628 31.7426C19.0372 31.8839 18.9797 32.0652 18.9797 32.2384H19.4797C19.4797 32.1717 19.5022 32.1133 19.5365 32.0747C19.5666 32.0408 19.6173 32.0088 19.7093 32.0088V31.5088ZM25.0648 31.5088H19.7093V32.0088H25.0648V31.5088ZM24.8148 17.6107V31.7588H25.3148V17.6107H24.8148ZM24.1856 17.8607H25.0648V17.3607H24.1856V17.8607ZM23.456 17.1311C23.456 17.3588 23.5438 17.5479 23.6897 17.6776C23.8311 17.8032 24.0124 17.8607 24.1856 17.8607V17.3607C24.1189 17.3607 24.0605 17.3382 24.0219 17.3039C23.988 17.2737 23.956 17.2231 23.956 17.1311H23.456ZM24.1856 16.4015C23.9579 16.4015 23.7687 16.4893 23.639 16.6353C23.5134 16.7766 23.456 16.9579 23.456 17.1311H23.956C23.956 17.0644 23.9785 17.006 24.0127 16.9674C24.0429 16.9335 24.0935 16.9015 24.1856 16.9015V16.4015ZM40.8116 16.4015H24.1856V16.9015H40.8116V16.4015ZM41.5412 17.1311C41.5412 16.9034 41.4533 16.7142 41.3074 16.5845C41.1661 16.4589 40.9848 16.4015 40.8116 16.4015V16.9015C40.8782 16.9015 40.9367 16.924 40.9752 16.9582C41.0092 16.9884 41.0412 17.039 41.0412 17.1311H41.5412ZM40.8116 17.8607C41.0393 17.8607 41.2284 17.7728 41.3581 17.6269C41.4837 17.4856 41.5412 17.3042 41.5412 17.1311H41.0412C41.0412 17.1977 41.0187 17.2562 40.9844 17.2947C40.9543 17.3286 40.9036 17.3607 40.8116 17.3607V17.8607ZM39.9323 17.8607H40.8116V17.3607H39.9323V17.8607ZM40.1823 24.8846V17.6107H39.6823V24.8846H40.1823ZM48.7249 24.6346H39.9323V25.1346H48.7249V24.6346ZM49.4545 25.3642C49.4545 25.1364 49.3667 24.9473 49.2208 24.8176C49.0795 24.692 48.8981 24.6346 48.7249 24.6346V25.1346C48.7916 25.1346 48.85 25.157 48.8886 25.1913C48.9225 25.2215 48.9545 25.2721 48.9545 25.3642H49.4545ZM49.4545 49.7437V25.3642H48.9545V49.7437H49.4545ZM32.9782 49.4937H20.1889V49.9937H32.9782V49.4937ZM32.7282 32.7979V49.7437H33.2282V32.7979H32.7282ZM20.1889 33.0479H32.9782V32.5479H20.1889V33.0479ZM20.4389 49.7437V32.7979H19.9389V49.7437H20.4389ZM32.7282 25.3642V31.7588H33.2282V25.3642H32.7282ZM33.5377 24.6346C33.1053 24.6346 32.7282 24.9622 32.7282 25.3642H33.2282C33.2282 25.2866 33.3306 25.1346 33.5377 25.1346V24.6346ZM38.8932 24.6346H33.5377V25.1346H38.8932V24.6346ZM38.6432 17.6107V24.8846H39.1432V17.6107H38.6432ZM26.104 17.8607H38.8932V17.3607H26.104V17.8607ZM26.354 31.7588V17.6107H25.854V31.7588H26.354ZM32.9782 31.5088H26.104V32.0088H32.9782V31.5088ZM48.1654 49.4937H34.0173V49.9937H48.1654V49.4937ZM47.9154 25.9237V49.7437H48.4154V25.9237H47.9154ZM34.0173 26.1737H48.1654V25.6737H34.0173V26.1737ZM34.2673 49.7437V25.9237H33.7673V49.7437H34.2673Z" fill="#BDACA8"/>
</svg>
