<svg width="68" height="68" viewBox="0 0 68 68" fill="none" xmlns="http://www.w3.org/2000/svg">
<path fill-rule="evenodd" clip-rule="evenodd" d="M34 7C19.0883 7 7 19.0883 7 34C7 48.9117 19.0883 61 34 61C48.9117 61 61 48.9117 61 34C61 19.0883 48.9117 7 34 7ZM5 34C5 17.9837 17.9837 5 34 5C50.0163 5 63 17.9837 63 34C63 50.0163 50.0163 63 34 63C17.9837 63 5 50.0163 5 34ZM14.4088 28.8941C14.4088 30.0612 15.0456 31.2148 16.0559 31.796V44.7059C16.0559 45.0649 16.3469 45.3559 16.7059 45.3559H36.3988L37.0652 49.2623C37.1184 49.5746 37.3891 49.803 37.7059 49.803H38.4598C38.3512 50.0587 38.2912 50.34 38.2912 50.6353C38.2912 51.813 39.2459 52.7677 40.4235 52.7677C41.6012 52.7677 42.5559 51.813 42.5559 50.6353C42.5559 50.34 42.4959 50.0587 42.3873 49.803H46.448C46.3395 50.0587 46.2794 50.34 46.2794 50.6353C46.2794 51.813 47.2341 52.7677 48.4118 52.7677C49.5894 52.7677 50.5441 51.813 50.5441 50.6353C50.5441 50.34 50.4841 50.0587 50.3756 49.803H51.1294C51.4884 49.803 51.7794 49.5119 51.7794 49.153C51.7794 48.794 51.4884 48.503 51.1294 48.503H38.2544L37.9564 46.7559H40.1765H44.3765H48.6588H51.1294C51.4397 46.7559 51.7067 46.5366 51.767 46.2323L53.5788 37.0911C53.6166 36.9003 53.567 36.7025 53.4435 36.5522C53.32 36.4019 53.1357 36.3147 52.9412 36.3147H48.6588H44.65V30.3391C44.8415 29.9093 44.9441 29.4416 44.9441 28.9765V27.193L45.5508 26.9503L45.3094 26.3468L43.7088 22.3454V21.8206V18.3529C43.7088 17.9939 43.4178 17.7029 43.0588 17.7029H16.7059C16.3469 17.7029 16.0559 17.9939 16.0559 18.3529V22.3454L14.4607 26.3333C14.4568 26.3424 14.4532 26.3515 14.4498 26.3607L14.2139 26.9503L14.4088 27.0283V28.8941ZM43.5703 29.5123C43.4352 29.6314 43.35 29.8058 43.35 30V30.028C43.1611 30.3451 42.8914 30.6064 42.5713 30.7597C42.3441 30.8349 42.1915 30.8794 41.9882 30.8794C41.9728 30.8794 41.9573 30.88 41.9419 30.8811C41.1248 30.9394 40.4149 30.4286 40.1551 29.7355C40.1352 29.6213 40.0889 29.4953 39.9951 29.3798C39.849 29.2 39.6368 29.1088 39.425 29.1088C39.036 29.1088 38.7926 29.3848 38.6892 29.5917C38.6781 29.6139 38.6682 29.6368 38.6597 29.6602C38.4133 30.338 37.7326 30.8794 36.9647 30.8794C36.1938 30.8794 35.5521 30.424 35.2963 29.736C35.2765 29.6217 35.2302 29.4955 35.1363 29.3798C34.9901 29.2 34.778 29.1088 34.5662 29.1088C34.1772 29.1088 33.9338 29.3848 33.8304 29.5917C33.8193 29.6139 33.8094 29.6368 33.8009 29.6602C33.5544 30.338 32.8737 30.8794 32.1059 30.8794C31.335 30.8794 30.6933 30.424 30.4375 29.736C30.4177 29.6217 30.3714 29.4955 30.2775 29.3798C30.1313 29.2 29.9191 29.1088 29.7073 29.1088C29.3183 29.1088 29.075 29.3848 28.9716 29.5917C28.9604 29.6139 28.9506 29.6368 28.9421 29.6602C28.6956 30.338 28.0149 30.8794 27.2471 30.8794C26.4762 30.8794 25.8345 30.424 25.5787 29.736C25.5589 29.6217 25.5126 29.4955 25.4186 29.3798C25.2725 29.2 25.0603 29.1088 24.8485 29.1088C24.4595 29.1088 24.2162 29.3848 24.1127 29.5917C24.1016 29.6139 24.0918 29.6368 24.0832 29.6602C23.8368 30.338 23.1561 30.8794 22.3882 30.8794C21.6173 30.8794 20.9756 30.424 20.7198 29.736C20.7001 29.6217 20.6538 29.4955 20.5598 29.3798C20.4137 29.2 20.2015 29.1088 19.9897 29.1088C19.6007 29.1088 19.3573 29.3848 19.2539 29.5917C19.2402 29.6192 19.2284 29.6476 19.2186 29.6768C18.9777 30.3996 18.251 30.9411 17.411 30.8811L17.411 30.881L17.4052 30.8807C16.4869 30.8233 15.7088 29.9284 15.7088 28.8941V27.3206H43.6441V28.9765C43.6441 29.158 43.6184 29.3386 43.5703 29.5123ZM43.35 31.8168V36.3147H40.1765H36.1752L35.9584 35.0437C35.9051 34.7314 35.6345 34.503 35.3177 34.503H32.2706C31.9116 34.503 31.6206 34.794 31.6206 35.153C31.6206 35.5119 31.9116 35.803 32.2706 35.803H34.7691L36.177 44.0559H17.3559V32.1802C18.4179 32.2433 19.3631 31.7582 19.9556 31.0054C20.5227 31.7341 21.4041 32.1794 22.3882 32.1794C23.379 32.1794 24.2436 31.6897 24.8033 30.9911C25.37 31.7283 26.2565 32.1794 27.2471 32.1794C28.2378 32.1794 29.1025 31.6897 29.6621 30.9911C30.2288 31.7283 31.1153 32.1794 32.1059 32.1794C33.0966 32.1794 33.9613 31.6897 34.521 30.9911C35.0877 31.7283 35.9742 32.1794 36.9647 32.1794C37.9573 32.1794 38.8234 31.6878 39.383 30.9871C39.9772 31.7537 40.9352 32.2484 42.0118 32.1793C42.4356 32.1754 42.7594 32.0674 43.0007 31.9869L43.0173 31.9813C43.0389 31.9742 43.06 31.9658 43.0807 31.9564C43.1735 31.9143 43.2633 31.8676 43.35 31.8168ZM47.5794 50.6353C47.5794 50.1756 47.9521 49.803 48.4118 49.803C48.8715 49.803 49.2441 50.1756 49.2441 50.6353C49.2441 51.095 48.8715 51.4677 48.4118 51.4677C47.9521 51.4677 47.5794 51.095 47.5794 50.6353ZM40.4235 49.803C39.9638 49.803 39.5912 50.1756 39.5912 50.6353C39.5912 51.095 39.9638 51.4677 40.4235 51.4677C40.8832 51.4677 41.2559 51.095 41.2559 50.6353C41.2559 50.1756 40.8832 49.803 40.4235 49.803ZM50.5956 45.4559H49.3088V41.8971H51.301L50.5956 45.4559ZM48.0088 45.4559V41.8971H45.0265V45.4559H48.0088ZM51.5586 40.5971H49.3088V37.6147H52.1497L51.5586 40.5971ZM48.0088 40.5971V37.6147H45.0265V40.5971H48.0088ZM43.7265 40.5971V37.6147H40.8265V40.5971H43.7265ZM39.5265 40.5971V37.6147H36.397L36.9058 40.5971H39.5265ZM37.1275 41.8971H39.5265V45.4559H37.7346L37.1275 41.8971ZM40.8265 41.8971H43.7265V45.4559H40.8265V41.8971ZM42.6188 23.1206L43.7788 26.0206H43.7088V25.9382H43.0588H16.0189L17.1459 23.1206L17.3559 23.1206H42.4088H42.6188ZM42.4088 21.8206V19.0029H17.3559V21.8206H42.4088ZM20.9971 35.6471C20.9971 35.2881 21.2881 34.9971 21.6471 34.9971H29.8824C30.2413 34.9971 30.5324 35.2881 30.5324 35.6471V41.4118C30.5324 41.7707 30.2413 42.0618 29.8824 42.0618H21.6471C21.2881 42.0618 20.9971 41.7707 20.9971 41.4118V35.6471ZM22.2971 36.2971V40.7618H29.2324V36.2971H22.2971Z" fill="#BDACA8"/>
</svg>
