<svg width="104" height="110" viewBox="0 0 104 110" fill="none" xmlns="http://www.w3.org/2000/svg">
<mask id="path-1-inside-1" fill="white">
<path fill-rule="evenodd" clip-rule="evenodd" d="M24.9117 33.7983C24.9117 18.4317 37.1818 6 52.2866 6C67.3913 6 79.6614 18.4317 79.6614 33.7983C79.6614 37.237 79.0469 40.5288 77.9238 43.5672H57.7401C57.7743 43.4847 57.7946 43.3906 57.7946 43.2863V40.0783C58.562 40.3626 59.3884 40.4897 60.2148 40.4897C61.717 40.4897 63.3027 39.9815 64.7214 39.2192C67.3085 37.6099 68.8107 34.8994 68.6438 32.3584C68.6438 32.189 68.5603 32.0196 68.3934 31.9349C67.5467 31.4061 66.5602 31.1094 65.5182 31.0398C67.6125 29.4054 68.7928 27.0029 68.6438 24.7353C68.6438 24.5659 68.5603 24.3965 68.3934 24.3118C67.5191 23.7657 66.4957 23.4672 65.416 23.4107C67.574 21.7752 68.7952 19.3317 68.6438 17.0275C68.6438 16.8581 68.5603 16.6887 68.3934 16.604C66.2236 15.2488 63.1358 15.4182 60.5486 17.0275C59.3995 17.7423 58.4645 18.6744 57.7946 19.7123V16.8596C57.7946 16.5208 57.5442 16.2667 57.2104 16.2667C56.8766 16.2667 56.6262 16.5208 56.6262 16.8596V19.7597C55.9515 18.6688 54.9864 17.6878 53.7888 16.9428C51.2016 15.3335 48.1138 15.1641 45.944 16.5193C45.777 16.604 45.6936 16.7734 45.6936 16.9428C45.5422 19.247 46.7634 21.6905 48.9214 23.326C47.8417 23.3825 46.8183 23.681 45.944 24.2271C45.777 24.3118 45.6936 24.4812 45.6936 24.6506C45.5446 26.9182 46.7249 29.3207 48.8191 30.9551C47.7772 31.0247 46.7907 31.3214 45.944 31.8502C45.777 31.9349 45.6936 32.1043 45.6936 32.2737C45.5267 34.8147 47.0289 37.5252 49.616 39.1345C51.0347 40.0662 52.6204 40.4897 54.1226 40.4897C55.035 40.4897 55.8588 40.3097 56.6262 39.9825V43.371C56.6262 43.4404 56.6368 43.5063 56.6563 43.5672H37.0546C37.0825 43.4847 37.0977 43.3906 37.0977 43.2863V41.4894C37.5813 41.6633 38.1164 41.7602 38.6833 41.7602C39.7683 41.7602 40.9366 41.4214 41.9381 40.7438C43.7741 39.6427 44.9425 37.6099 44.7756 35.7464C44.7756 35.577 44.6921 35.4076 44.5252 35.3229C43.997 35.0126 43.3947 34.815 42.7584 34.7333C44.111 33.5815 44.916 31.8936 44.7756 30.3256C44.7756 30.1562 44.6921 29.9868 44.5252 29.9021C43.997 29.5917 43.3947 29.3941 42.7584 29.3125C44.111 28.1606 44.916 26.4727 44.7756 24.9047C44.7756 24.7353 44.6921 24.5659 44.5252 24.4812C42.9396 23.5495 40.6863 23.6342 38.8502 24.82C38.1598 25.2341 37.5638 25.7799 37.0977 26.399V24.5674C37.0977 24.2286 36.8473 23.9745 36.5135 23.9745C36.1797 23.9745 35.9293 24.2286 35.9293 24.5674V26.4129C35.4763 25.8397 34.9101 25.3245 34.2602 24.9047C32.4242 23.7189 30.1709 23.6342 28.5852 24.5659C28.4183 24.6506 28.3349 24.82 28.3349 24.9894C28.1934 26.5684 29.0108 28.2083 30.3807 29.3936C29.7339 29.4729 29.1214 29.6717 28.5852 29.9868C28.4183 30.0715 28.3349 30.2409 28.3349 30.4103C28.1934 31.9893 29.0108 33.6291 30.3807 34.8144C29.7339 34.8938 29.1214 35.0926 28.5852 35.4076C28.4183 35.4923 28.3349 35.6617 28.3349 35.8312C28.168 37.6946 29.3363 39.6427 31.1724 40.8285C32.1738 41.4214 33.3422 41.7602 34.4271 41.7602C34.9341 41.7602 35.441 41.6977 35.9293 41.5537V43.371C35.9293 43.4404 35.9398 43.5063 35.9594 43.5672H27.5049H27.5039H26.6494C25.5262 40.5288 24.9117 37.237 24.9117 33.7983ZM27.1188 44.753H27.5039C28.7658 45.5207 37.11 50.6876 40.1849 58.7392C34.3548 55.8166 29.6948 50.8479 27.1188 44.753ZM29.5227 44.753C32.7701 46.9306 39.3547 52.0573 41.6846 59.4345C43.0923 60.0356 44.5597 60.5205 46.0752 60.8777C42.8061 51.1033 32.9208 44.9788 32.8415 44.9788C32.6997 44.9429 32.5881 44.8611 32.5129 44.753H29.5227ZM34.6826 44.753C37.8025 46.9267 44.8483 52.6914 47.3557 61.1467C48.777 61.4093 50.2363 61.5604 51.7245 61.5909C48.713 51.4022 38.3473 44.9788 38.2661 44.9788C38.1243 44.9429 38.0127 44.8611 37.9375 44.753H34.6826ZM57.1057 61.1671C55.7648 61.409 54.3902 61.5518 52.9897 61.5876C50.5992 52.8918 43.3119 46.9643 40.1167 44.753H43.6011C43.6695 44.8189 43.7558 44.8683 43.8576 44.8941C43.8621 44.8987 43.898 44.9226 43.9623 44.9653C45.0419 45.6822 54.1245 51.7134 57.1057 61.1671ZM58.3039 60.9226C55.7516 52.6418 48.8274 46.9772 45.7243 44.753H49.0257C49.0941 44.8189 49.1804 44.8683 49.2822 44.8941C49.2866 44.8987 49.318 44.9198 49.3738 44.9574C50.3129 45.5895 58.1667 50.8758 61.0812 60.1305C60.1757 60.4423 59.249 60.7073 58.3039 60.9226ZM77.4543 44.753H51.1511C51.7709 45.2097 52.5398 45.8145 53.3882 46.5661C53.4774 46.5261 53.5842 46.5035 53.7014 46.5035H76.6419C76.9319 45.9313 77.203 45.3475 77.4543 44.753ZM76.194 47.3505C75.8757 47.9282 75.5377 48.4932 75.1809 49.0445H56.1697C56.0865 49.0445 56.0088 49.0575 55.9397 49.0811C55.3636 48.4489 54.7927 47.872 54.2434 47.3505H76.194ZM56.654 49.8915H74.6105C74.203 50.4732 73.7741 51.0383 73.3248 51.5855H58.0012C57.5582 50.9871 57.1066 50.4224 56.654 49.8915ZM58.6062 52.4325C58.978 52.9725 59.3407 53.5372 59.6896 54.1266H70.9584C71.5291 53.5858 72.0771 53.0206 72.6007 52.4325H58.6062ZM61.0309 56.685C60.76 56.0946 60.4723 55.5241 60.1715 54.9736H70.0226C69.3283 55.5737 68.6041 56.1392 67.8527 56.6676H61.1993C61.1401 56.6676 61.0837 56.6736 61.0309 56.685ZM61.3949 57.5146C61.6909 58.2217 61.9622 58.9555 62.2031 59.7161C63.731 59.1128 65.1926 58.3741 66.5734 57.5146H61.3949ZM81.6614 33.7983C81.6614 46.5873 73.7141 57.5082 62.5424 61.7306C62.4673 61.8188 62.3571 61.8837 62.2177 61.919H62.0508L62.0409 61.9189L62.0303 61.9186C58.9819 63.0054 55.7029 63.5966 52.2866 63.5966C36.0494 63.5966 22.9117 50.2415 22.9117 33.7983C22.9117 17.3552 36.0494 4 52.2866 4C68.5237 4 81.6614 17.3552 81.6614 33.7983ZM35.9293 28.7998V29.4321C34.6909 29.979 33.1439 29.7987 31.7565 28.9704C30.3378 28.1234 29.4198 26.6834 29.4198 25.3282C30.5882 24.7353 32.2573 24.9047 33.676 25.7517C34.8886 26.4757 35.6744 27.6327 35.9293 28.7998ZM35.9293 30.712C35.6308 30.8 35.3254 30.8576 35.0172 30.889C35.3565 31.1787 35.6625 31.4962 35.9293 31.8338V30.712ZM37.0977 31.8198V30.6477C37.3777 30.7484 37.675 30.8233 37.9858 30.8685C37.6539 31.1565 37.3559 31.4769 37.0977 31.8198ZM35.9293 34.2206V34.8529C34.6909 35.3998 33.1439 35.2195 31.7565 34.3912C30.3378 33.5442 29.4198 32.1043 29.4198 30.7491C30.5882 30.1562 32.2573 30.3256 33.676 31.1726C34.8886 31.8965 35.6744 33.0535 35.9293 34.2206ZM35.9293 36.1328V37.2546C35.6625 36.9171 35.3565 36.5996 35.0172 36.3099C35.3254 36.2784 35.6308 36.2209 35.9293 36.1328ZM37.0977 37.2407V36.0686C37.3777 36.1692 37.675 36.2441 37.9858 36.2893C37.6539 36.5773 37.3559 36.8978 37.0977 37.2407ZM35.9293 39.6415C35.6744 38.4744 34.8886 37.3174 33.676 36.5935C32.2573 35.7464 30.5882 35.577 29.4198 36.17C29.4198 37.5252 30.3378 38.9651 31.7565 39.8121C33.1439 40.6404 34.6909 40.8207 35.9293 40.2738V39.6415ZM37.1056 40.1332C37.1078 40.1694 37.1096 40.2056 37.1109 40.2418C38.3606 40.8273 39.9401 40.6561 41.3539 39.8121C42.7726 38.9651 43.6072 37.5252 43.6907 36.1699C42.4388 35.577 40.8532 35.7464 39.4344 36.5935C38.1328 37.5017 37.2276 38.8124 37.1056 40.1332ZM41.3539 34.3912C39.9401 35.2353 38.3606 35.4064 37.1109 34.8209C37.1096 34.7847 37.1078 34.7485 37.1056 34.7123C37.2276 33.3915 38.1328 32.0808 39.4344 31.1726C40.8532 30.3256 42.4388 30.1562 43.6907 30.7491C43.6072 32.1043 42.7726 33.5442 41.3539 34.3912ZM39.4344 25.8364C38.1429 26.6557 37.2417 28.0297 37.1086 29.3452C37.1109 29.3921 37.1124 29.4389 37.113 29.4858C38.3625 30.0701 39.941 29.8986 41.3539 29.0551C42.7726 28.2081 43.6072 26.7681 43.6907 25.4129C42.4388 24.82 40.8532 24.9894 39.4344 25.8364ZM56.6201 23.2246C56.6163 23.307 56.6142 23.3892 56.6137 23.4714C54.8618 24.3953 52.3651 24.1394 50.2836 22.8719C48.1972 21.5167 46.862 19.3992 46.862 17.3663C48.6145 16.4346 51.1182 16.6887 53.2046 17.9592C55.2089 19.2612 56.5201 21.2666 56.6201 23.2246ZM57.7946 23.1025L57.7946 23.4648C59.6306 24.3965 62.0508 24.1424 64.1372 22.8719C66.2236 21.6014 67.5589 19.4839 67.5589 17.3663C65.7229 16.4346 63.3027 16.6887 61.2163 17.9592C59.1751 19.2341 57.8724 21.1836 57.7946 23.1025ZM57.7946 27.4201V24.7475C58.4747 24.9994 59.2012 25.1279 59.9329 25.1538C59.0625 25.7988 58.3405 26.5743 57.7946 27.4201ZM57.7946 30.7256L57.7946 31.0879C59.6306 32.0196 62.0508 31.7655 64.1372 30.495C66.2236 29.2245 67.5589 27.1069 67.5589 24.9894C65.7229 24.0577 63.3027 24.3118 61.2163 25.5823C59.1751 26.8572 57.8724 28.8066 57.7946 30.7256ZM54.5122 25.1502C55.3791 25.8126 56.0933 26.6057 56.6262 27.4675V24.6882C55.9696 24.9754 55.2716 25.1157 54.5122 25.1502ZM56.6262 35.0906V32.3594C55.9979 32.6273 55.3317 32.7965 54.61 32.8491C55.4329 33.4959 56.1135 34.2615 56.6262 35.0906ZM57.7946 32.4552V35.0432C58.318 34.2321 59.0034 33.4857 59.8263 32.8571C59.1307 32.8229 58.4417 32.6949 57.7946 32.4552ZM57.7946 38.3487L57.7946 38.711C59.6306 39.6427 62.0508 39.3886 64.1372 38.1181C66.2236 36.8476 67.5589 34.73 67.5589 32.6125C65.7229 31.6808 63.3027 31.9349 61.2163 33.2054C59.1751 34.4803 57.8724 36.4297 57.7946 38.3487ZM51.2475 32.3415C51.4444 32.4155 51.6426 32.4814 51.8415 32.5394C52.3071 32.7153 52.7651 32.9378 53.2046 33.2054C55.2238 34.517 56.5395 36.5426 56.6221 38.5145C56.6185 38.582 56.6161 38.6496 56.6148 38.717C54.8628 39.6416 52.3655 39.3858 50.2836 38.1181C48.1972 36.7628 46.862 34.6453 46.862 32.6125C48.0892 31.9601 49.6848 31.8891 51.2475 32.3415ZM56.6221 30.8914C56.6185 30.959 56.6161 31.0265 56.6148 31.094C54.8628 32.0185 52.3655 31.7627 50.2836 30.495C48.1972 29.1398 46.862 27.0222 46.862 24.9894C48.6145 24.0577 51.1182 24.3118 53.2046 25.5823C55.2238 26.8939 56.5395 28.9196 56.6221 30.8914Z"/>
</mask>
<path fill-rule="evenodd" clip-rule="evenodd" d="M24.9117 33.7983C24.9117 18.4317 37.1818 6 52.2866 6C67.3913 6 79.6614 18.4317 79.6614 33.7983C79.6614 37.237 79.0469 40.5288 77.9238 43.5672H57.7401C57.7743 43.4847 57.7946 43.3906 57.7946 43.2863V40.0783C58.562 40.3626 59.3884 40.4897 60.2148 40.4897C61.717 40.4897 63.3027 39.9815 64.7214 39.2192C67.3085 37.6099 68.8107 34.8994 68.6438 32.3584C68.6438 32.189 68.5603 32.0196 68.3934 31.9349C67.5467 31.4061 66.5602 31.1094 65.5182 31.0398C67.6125 29.4054 68.7928 27.0029 68.6438 24.7353C68.6438 24.5659 68.5603 24.3965 68.3934 24.3118C67.5191 23.7657 66.4957 23.4672 65.416 23.4107C67.574 21.7752 68.7952 19.3317 68.6438 17.0275C68.6438 16.8581 68.5603 16.6887 68.3934 16.604C66.2236 15.2488 63.1358 15.4182 60.5486 17.0275C59.3995 17.7423 58.4645 18.6744 57.7946 19.7123V16.8596C57.7946 16.5208 57.5442 16.2667 57.2104 16.2667C56.8766 16.2667 56.6262 16.5208 56.6262 16.8596V19.7597C55.9515 18.6688 54.9864 17.6878 53.7888 16.9428C51.2016 15.3335 48.1138 15.1641 45.944 16.5193C45.777 16.604 45.6936 16.7734 45.6936 16.9428C45.5422 19.247 46.7634 21.6905 48.9214 23.326C47.8417 23.3825 46.8183 23.681 45.944 24.2271C45.777 24.3118 45.6936 24.4812 45.6936 24.6506C45.5446 26.9182 46.7249 29.3207 48.8191 30.9551C47.7772 31.0247 46.7907 31.3214 45.944 31.8502C45.777 31.9349 45.6936 32.1043 45.6936 32.2737C45.5267 34.8147 47.0289 37.5252 49.616 39.1345C51.0347 40.0662 52.6204 40.4897 54.1226 40.4897C55.035 40.4897 55.8588 40.3097 56.6262 39.9825V43.371C56.6262 43.4404 56.6368 43.5063 56.6563 43.5672H37.0546C37.0825 43.4847 37.0977 43.3906 37.0977 43.2863V41.4894C37.5813 41.6633 38.1164 41.7602 38.6833 41.7602C39.7683 41.7602 40.9366 41.4214 41.9381 40.7438C43.7741 39.6427 44.9425 37.6099 44.7756 35.7464C44.7756 35.577 44.6921 35.4076 44.5252 35.3229C43.997 35.0126 43.3947 34.815 42.7584 34.7333C44.111 33.5815 44.916 31.8936 44.7756 30.3256C44.7756 30.1562 44.6921 29.9868 44.5252 29.9021C43.997 29.5917 43.3947 29.3941 42.7584 29.3125C44.111 28.1606 44.916 26.4727 44.7756 24.9047C44.7756 24.7353 44.6921 24.5659 44.5252 24.4812C42.9396 23.5495 40.6863 23.6342 38.8502 24.82C38.1598 25.2341 37.5638 25.7799 37.0977 26.399V24.5674C37.0977 24.2286 36.8473 23.9745 36.5135 23.9745C36.1797 23.9745 35.9293 24.2286 35.9293 24.5674V26.4129C35.4763 25.8397 34.9101 25.3245 34.2602 24.9047C32.4242 23.7189 30.1709 23.6342 28.5852 24.5659C28.4183 24.6506 28.3349 24.82 28.3349 24.9894C28.1934 26.5684 29.0108 28.2083 30.3807 29.3936C29.7339 29.4729 29.1214 29.6717 28.5852 29.9868C28.4183 30.0715 28.3349 30.2409 28.3349 30.4103C28.1934 31.9893 29.0108 33.6291 30.3807 34.8144C29.7339 34.8938 29.1214 35.0926 28.5852 35.4076C28.4183 35.4923 28.3349 35.6617 28.3349 35.8312C28.168 37.6946 29.3363 39.6427 31.1724 40.8285C32.1738 41.4214 33.3422 41.7602 34.4271 41.7602C34.9341 41.7602 35.441 41.6977 35.9293 41.5537V43.371C35.9293 43.4404 35.9398 43.5063 35.9594 43.5672H27.5049H27.5039H26.6494C25.5262 40.5288 24.9117 37.237 24.9117 33.7983ZM27.1188 44.753H27.5039C28.7658 45.5207 37.11 50.6876 40.1849 58.7392C34.3548 55.8166 29.6948 50.8479 27.1188 44.753ZM29.5227 44.753C32.7701 46.9306 39.3547 52.0573 41.6846 59.4345C43.0923 60.0356 44.5597 60.5205 46.0752 60.8777C42.8061 51.1033 32.9208 44.9788 32.8415 44.9788C32.6997 44.9429 32.5881 44.8611 32.5129 44.753H29.5227ZM34.6826 44.753C37.8025 46.9267 44.8483 52.6914 47.3557 61.1467C48.777 61.4093 50.2363 61.5604 51.7245 61.5909C48.713 51.4022 38.3473 44.9788 38.2661 44.9788C38.1243 44.9429 38.0127 44.8611 37.9375 44.753H34.6826ZM57.1057 61.1671C55.7648 61.409 54.3902 61.5518 52.9897 61.5876C50.5992 52.8918 43.3119 46.9643 40.1167 44.753H43.6011C43.6695 44.8189 43.7558 44.8683 43.8576 44.8941C43.8621 44.8987 43.898 44.9226 43.9623 44.9653C45.0419 45.6822 54.1245 51.7134 57.1057 61.1671ZM58.3039 60.9226C55.7516 52.6418 48.8274 46.9772 45.7243 44.753H49.0257C49.0941 44.8189 49.1804 44.8683 49.2822 44.8941C49.2866 44.8987 49.318 44.9198 49.3738 44.9574C50.3129 45.5895 58.1667 50.8758 61.0812 60.1305C60.1757 60.4423 59.249 60.7073 58.3039 60.9226ZM77.4543 44.753H51.1511C51.7709 45.2097 52.5398 45.8145 53.3882 46.5661C53.4774 46.5261 53.5842 46.5035 53.7014 46.5035H76.6419C76.9319 45.9313 77.203 45.3475 77.4543 44.753ZM76.194 47.3505C75.8757 47.9282 75.5377 48.4932 75.1809 49.0445H56.1697C56.0865 49.0445 56.0088 49.0575 55.9397 49.0811C55.3636 48.4489 54.7927 47.872 54.2434 47.3505H76.194ZM56.654 49.8915H74.6105C74.203 50.4732 73.7741 51.0383 73.3248 51.5855H58.0012C57.5582 50.9871 57.1066 50.4224 56.654 49.8915ZM58.6062 52.4325C58.978 52.9725 59.3407 53.5372 59.6896 54.1266H70.9584C71.5291 53.5858 72.0771 53.0206 72.6007 52.4325H58.6062ZM61.0309 56.685C60.76 56.0946 60.4723 55.5241 60.1715 54.9736H70.0226C69.3283 55.5737 68.6041 56.1392 67.8527 56.6676H61.1993C61.1401 56.6676 61.0837 56.6736 61.0309 56.685ZM61.3949 57.5146C61.6909 58.2217 61.9622 58.9555 62.2031 59.7161C63.731 59.1128 65.1926 58.3741 66.5734 57.5146H61.3949ZM81.6614 33.7983C81.6614 46.5873 73.7141 57.5082 62.5424 61.7306C62.4673 61.8188 62.3571 61.8837 62.2177 61.919H62.0508L62.0409 61.9189L62.0303 61.9186C58.9819 63.0054 55.7029 63.5966 52.2866 63.5966C36.0494 63.5966 22.9117 50.2415 22.9117 33.7983C22.9117 17.3552 36.0494 4 52.2866 4C68.5237 4 81.6614 17.3552 81.6614 33.7983ZM35.9293 28.7998V29.4321C34.6909 29.979 33.1439 29.7987 31.7565 28.9704C30.3378 28.1234 29.4198 26.6834 29.4198 25.3282C30.5882 24.7353 32.2573 24.9047 33.676 25.7517C34.8886 26.4757 35.6744 27.6327 35.9293 28.7998ZM35.9293 30.712C35.6308 30.8 35.3254 30.8576 35.0172 30.889C35.3565 31.1787 35.6625 31.4962 35.9293 31.8338V30.712ZM37.0977 31.8198V30.6477C37.3777 30.7484 37.675 30.8233 37.9858 30.8685C37.6539 31.1565 37.3559 31.4769 37.0977 31.8198ZM35.9293 34.2206V34.8529C34.6909 35.3998 33.1439 35.2195 31.7565 34.3912C30.3378 33.5442 29.4198 32.1043 29.4198 30.7491C30.5882 30.1562 32.2573 30.3256 33.676 31.1726C34.8886 31.8965 35.6744 33.0535 35.9293 34.2206ZM35.9293 36.1328V37.2546C35.6625 36.9171 35.3565 36.5996 35.0172 36.3099C35.3254 36.2784 35.6308 36.2209 35.9293 36.1328ZM37.0977 37.2407V36.0686C37.3777 36.1692 37.675 36.2441 37.9858 36.2893C37.6539 36.5773 37.3559 36.8978 37.0977 37.2407ZM35.9293 39.6415C35.6744 38.4744 34.8886 37.3174 33.676 36.5935C32.2573 35.7464 30.5882 35.577 29.4198 36.17C29.4198 37.5252 30.3378 38.9651 31.7565 39.8121C33.1439 40.6404 34.6909 40.8207 35.9293 40.2738V39.6415ZM37.1056 40.1332C37.1078 40.1694 37.1096 40.2056 37.1109 40.2418C38.3606 40.8273 39.9401 40.6561 41.3539 39.8121C42.7726 38.9651 43.6072 37.5252 43.6907 36.1699C42.4388 35.577 40.8532 35.7464 39.4344 36.5935C38.1328 37.5017 37.2276 38.8124 37.1056 40.1332ZM41.3539 34.3912C39.9401 35.2353 38.3606 35.4064 37.1109 34.8209C37.1096 34.7847 37.1078 34.7485 37.1056 34.7123C37.2276 33.3915 38.1328 32.0808 39.4344 31.1726C40.8532 30.3256 42.4388 30.1562 43.6907 30.7491C43.6072 32.1043 42.7726 33.5442 41.3539 34.3912ZM39.4344 25.8364C38.1429 26.6557 37.2417 28.0297 37.1086 29.3452C37.1109 29.3921 37.1124 29.4389 37.113 29.4858C38.3625 30.0701 39.941 29.8986 41.3539 29.0551C42.7726 28.2081 43.6072 26.7681 43.6907 25.4129C42.4388 24.82 40.8532 24.9894 39.4344 25.8364ZM56.6201 23.2246C56.6163 23.307 56.6142 23.3892 56.6137 23.4714C54.8618 24.3953 52.3651 24.1394 50.2836 22.8719C48.1972 21.5167 46.862 19.3992 46.862 17.3663C48.6145 16.4346 51.1182 16.6887 53.2046 17.9592C55.2089 19.2612 56.5201 21.2666 56.6201 23.2246ZM57.7946 23.1025L57.7946 23.4648C59.6306 24.3965 62.0508 24.1424 64.1372 22.8719C66.2236 21.6014 67.5589 19.4839 67.5589 17.3663C65.7229 16.4346 63.3027 16.6887 61.2163 17.9592C59.1751 19.2341 57.8724 21.1836 57.7946 23.1025ZM57.7946 27.4201V24.7475C58.4747 24.9994 59.2012 25.1279 59.9329 25.1538C59.0625 25.7988 58.3405 26.5743 57.7946 27.4201ZM57.7946 30.7256L57.7946 31.0879C59.6306 32.0196 62.0508 31.7655 64.1372 30.495C66.2236 29.2245 67.5589 27.1069 67.5589 24.9894C65.7229 24.0577 63.3027 24.3118 61.2163 25.5823C59.1751 26.8572 57.8724 28.8066 57.7946 30.7256ZM54.5122 25.1502C55.3791 25.8126 56.0933 26.6057 56.6262 27.4675V24.6882C55.9696 24.9754 55.2716 25.1157 54.5122 25.1502ZM56.6262 35.0906V32.3594C55.9979 32.6273 55.3317 32.7965 54.61 32.8491C55.4329 33.4959 56.1135 34.2615 56.6262 35.0906ZM57.7946 32.4552V35.0432C58.318 34.2321 59.0034 33.4857 59.8263 32.8571C59.1307 32.8229 58.4417 32.6949 57.7946 32.4552ZM57.7946 38.3487L57.7946 38.711C59.6306 39.6427 62.0508 39.3886 64.1372 38.1181C66.2236 36.8476 67.5589 34.73 67.5589 32.6125C65.7229 31.6808 63.3027 31.9349 61.2163 33.2054C59.1751 34.4803 57.8724 36.4297 57.7946 38.3487ZM51.2475 32.3415C51.4444 32.4155 51.6426 32.4814 51.8415 32.5394C52.3071 32.7153 52.7651 32.9378 53.2046 33.2054C55.2238 34.517 56.5395 36.5426 56.6221 38.5145C56.6185 38.582 56.6161 38.6496 56.6148 38.717C54.8628 39.6416 52.3655 39.3858 50.2836 38.1181C48.1972 36.7628 46.862 34.6453 46.862 32.6125C48.0892 31.9601 49.6848 31.8891 51.2475 32.3415ZM56.6221 30.8914C56.6185 30.959 56.6161 31.0265 56.6148 31.094C54.8628 32.0185 52.3655 31.7627 50.2836 30.495C48.1972 29.1398 46.862 27.0222 46.862 24.9894C48.6145 24.0577 51.1182 24.3118 53.2046 25.5823C55.2238 26.8939 56.5395 28.9196 56.6221 30.8914Z" fill="black"/>
<path d="M77.9238 43.5672V44.5672H78.6202L78.8617 43.9139L77.9238 43.5672ZM57.7401 43.5672L56.8166 43.1835L56.2418 44.5672H57.7401V43.5672ZM57.7946 40.0783L58.142 39.1406L56.7946 38.6415V40.0783H57.7946ZM64.7214 39.2192L65.1947 40.1001L65.2227 40.0851L65.2496 40.0683L64.7214 39.2192ZM68.6438 32.3584H67.6438V32.3912L67.646 32.424L68.6438 32.3584ZM68.3934 31.9349L67.8637 32.7831L67.9013 32.8066L67.9409 32.8267L68.3934 31.9349ZM65.5182 31.0398L64.903 30.2515L62.838 31.8632L65.4516 32.0376L65.5182 31.0398ZM68.6438 24.7353H67.6438V24.7681L67.646 24.8009L68.6438 24.7353ZM68.3934 24.3118L67.8637 25.16L67.9013 25.1835L67.9409 25.2036L68.3934 24.3118ZM65.416 23.4107L64.812 22.6137L62.6314 24.2663L65.3638 24.4093L65.416 23.4107ZM68.6438 17.0275H67.6438V17.0603L67.646 17.0931L68.6438 17.0275ZM68.3934 16.604L67.8637 17.4522L67.9013 17.4757L67.9409 17.4958L68.3934 16.604ZM60.5486 17.0275L61.0768 17.8767V17.8767L60.5486 17.0275ZM57.7946 19.7123H56.7946V23.106L58.6348 20.2546L57.7946 19.7123ZM56.6262 19.7597L55.7758 20.2857L57.6262 23.2777V19.7597H56.6262ZM53.7888 16.9428L54.317 16.0937L53.7888 16.9428ZM45.944 16.5193L46.3965 17.4111L46.4361 17.391L46.4737 17.3675L45.944 16.5193ZM45.6936 16.9428L46.6914 17.0084L46.6936 16.9756V16.9428H45.6936ZM48.9214 23.326L48.9736 24.3246L51.706 24.1816L49.5254 22.529L48.9214 23.326ZM45.944 24.2271L46.3965 25.1189L46.4361 25.0988L46.4737 25.0753L45.944 24.2271ZM45.6936 24.6506L46.6914 24.7162L46.6936 24.6834V24.6506H45.6936ZM48.8191 30.9551L48.8858 31.9529L51.4994 31.7785L49.4344 30.1668L48.8191 30.9551ZM45.944 31.8502L46.3965 32.7419L46.4361 32.7219L46.4737 32.6984L45.944 31.8502ZM45.6936 32.2737L46.6914 32.3392L46.6936 32.3065V32.2737H45.6936ZM49.616 39.1345L50.1649 38.2986L50.1546 38.2919L50.1442 38.2854L49.616 39.1345ZM56.6262 39.9825H57.6262V38.469L56.234 39.0626L56.6262 39.9825ZM56.6563 43.5672V44.5672H58.0288L57.6082 43.2607L56.6563 43.5672ZM37.0546 43.5672L36.1073 43.2469L35.661 44.5672H37.0546V43.5672ZM37.0977 41.4894L37.436 40.5484L36.0977 40.0672V41.4894H37.0977ZM41.9381 40.7438L41.4238 39.8862L41.4003 39.9003L41.3777 39.9156L41.9381 40.7438ZM44.7756 35.7464H43.7756V35.7911L43.7796 35.8357L44.7756 35.7464ZM44.5252 35.3229L44.0186 36.1851L44.0452 36.2007L44.0727 36.2147L44.5252 35.3229ZM42.7584 34.7333L42.1101 33.972L40.3891 35.4375L42.6311 35.7252L42.7584 34.7333ZM44.7756 30.3256H43.7756V30.3703L43.7796 30.4148L44.7756 30.3256ZM44.5252 29.9021L44.0186 30.7643L44.0452 30.7799L44.0727 30.7938L44.5252 29.9021ZM42.7584 29.3125L42.1101 28.5511L40.3891 30.0166L42.6311 30.3043L42.7584 29.3125ZM44.7756 24.9047H43.7756V24.9494L43.7796 24.9939L44.7756 24.9047ZM44.5252 24.4812L44.0186 25.3434L44.0452 25.359L44.0727 25.373L44.5252 24.4812ZM38.8502 24.82L39.3646 25.6776L39.3788 25.6691L39.3928 25.66L38.8502 24.82ZM37.0977 26.399H36.0977V29.3896L37.8966 27.0005L37.0977 26.399ZM35.9293 26.4129L35.1447 27.0329L36.9293 29.2911V26.4129H35.9293ZM34.2602 24.9047L34.8027 24.0647H34.8027L34.2602 24.9047ZM28.5852 24.5659L29.0378 25.4577L29.0653 25.4437L29.0918 25.4281L28.5852 24.5659ZM28.3349 24.9894L29.3309 25.0786L29.3349 25.0341V24.9894H28.3349ZM30.3807 29.3936L30.5025 30.3861L32.7391 30.1118L31.035 28.6373L30.3807 29.3936ZM28.5852 29.9868L29.0378 30.8785L29.0653 30.8646L29.0918 30.849L28.5852 29.9868ZM28.3349 30.4103L29.3309 30.4995L29.3349 30.455V30.4103H28.3349ZM30.3807 34.8144L30.5025 35.807L32.7391 35.5326L31.035 34.0582L30.3807 34.8144ZM28.5852 35.4076L29.0378 36.2994L29.0653 36.2854L29.0918 36.2698L28.5852 35.4076ZM28.3349 35.8312L29.3309 35.9204L29.3349 35.8758V35.8312H28.3349ZM31.1724 40.8285L30.6298 41.6685L30.6462 41.6791L30.6629 41.689L31.1724 40.8285ZM35.9293 41.5537H36.9293V40.2161L35.6464 40.5945L35.9293 41.5537ZM35.9594 43.5672V44.5672H37.3319L36.9113 43.2607L35.9594 43.5672ZM26.6494 43.5672L25.7114 43.9139L25.9529 44.5672H26.6494V43.5672ZM27.5039 44.753L28.0237 43.8987L27.7842 43.753H27.5039V44.753ZM27.1188 44.753V43.753H25.6105L26.1977 45.1423L27.1188 44.753ZM40.1849 58.7392L39.7367 59.6331L42.0371 60.7863L41.1191 58.3824L40.1849 58.7392ZM41.6846 59.4345L40.731 59.7356L40.8693 60.1737L41.2919 60.3541L41.6846 59.4345ZM29.5227 44.753V43.753H26.236L28.9658 45.5835L29.5227 44.753ZM46.0752 60.8777L45.8459 61.851L47.5929 62.2627L47.0236 60.5605L46.0752 60.8777ZM32.8415 44.9788L32.5955 45.9481L32.7166 45.9788H32.8415V44.9788ZM32.5129 44.753L33.334 44.1822L33.0356 43.753H32.5129V44.753ZM47.3557 61.1467L46.397 61.431L46.5713 62.0187L47.174 62.13L47.3557 61.1467ZM34.6826 44.753V43.753H31.498L34.1109 45.5735L34.6826 44.753ZM51.7245 61.5909L51.704 62.5907L53.0711 62.6187L52.6835 61.3074L51.7245 61.5909ZM38.2661 44.9788L38.0201 45.9481L38.1412 45.9788H38.2661V44.9788ZM37.9375 44.753L38.7586 44.1822L38.4602 43.753H37.9375V44.753ZM52.9897 61.5876L52.0255 61.8527L52.2329 62.6074L53.0153 62.5873L52.9897 61.5876ZM57.1057 61.1671L57.2833 62.1512L58.401 61.9495L58.0594 60.8663L57.1057 61.1671ZM40.1167 44.753V43.753H36.9144L39.5476 45.5753L40.1167 44.753ZM43.6011 44.753L44.2949 44.0328L44.0044 43.753H43.6011V44.753ZM43.8576 44.8941L44.5699 44.1923L44.374 43.9935L44.1035 43.9249L43.8576 44.8941ZM43.9623 44.9653L43.4091 45.7983L43.4091 45.7983L43.9623 44.9653ZM45.7243 44.753V43.753H42.6126L45.1418 45.5658L45.7243 44.753ZM58.3039 60.9226L57.3482 61.2172L57.6215 62.1037L58.526 61.8976L58.3039 60.9226ZM49.0257 44.753L49.7195 44.0328L49.429 43.753H49.0257V44.753ZM49.2822 44.8941L49.9943 44.1921L49.7985 43.9935L49.5281 43.9249L49.2822 44.8941ZM49.3738 44.9574L49.9322 44.1278L49.9322 44.1278L49.3738 44.9574ZM61.0812 60.1305L61.4067 61.076L62.3275 60.759L62.035 59.8302L61.0812 60.1305ZM51.1511 44.753V43.753H48.1082L50.5578 45.558L51.1511 44.753ZM77.4543 44.753L78.3754 45.1423L78.9626 43.753H77.4543V44.753ZM53.3882 46.5661L52.7251 47.3146L53.2084 47.7428L53.7975 47.4785L53.3882 46.5661ZM76.6419 46.5035V47.5035H77.2561L77.5338 46.9556L76.6419 46.5035ZM75.1809 49.0445V50.0445H75.7249L76.0205 49.5878L75.1809 49.0445ZM76.194 47.3505L77.0699 47.833L77.8867 46.3505H76.194V47.3505ZM55.9397 49.0811L55.2005 49.7547L55.6423 50.2395L56.263 50.0274L55.9397 49.0811ZM54.2434 47.3505V46.3505H51.7374L53.5549 48.0757L54.2434 47.3505ZM74.6105 49.8915L75.4296 50.4652L76.5319 48.8915H74.6105V49.8915ZM56.654 49.8915V48.8915H54.4876L55.893 50.5402L56.654 49.8915ZM73.3248 51.5855V52.5855H73.7977L74.0978 52.22L73.3248 51.5855ZM58.0012 51.5855L57.1975 52.1805L57.4973 52.5855H58.0012V51.5855ZM59.6896 54.1266L58.829 54.6359L59.1194 55.1266H59.6896V54.1266ZM58.6062 52.4325V51.4325H56.7035L57.7826 52.9997L58.6062 52.4325ZM70.9584 54.1266V55.1266H71.3569L71.6462 54.8525L70.9584 54.1266ZM72.6007 52.4325L73.3476 53.0975L74.8298 51.4325H72.6007V52.4325ZM60.1715 54.9736V53.9736H58.4857L59.2939 55.453L60.1715 54.9736ZM61.0309 56.685L60.1221 57.1021L60.4568 57.8314L61.2413 57.6626L61.0309 56.685ZM70.0226 54.9736L70.6765 55.7301L72.7086 53.9736H70.0226V54.9736ZM67.8527 56.6676V57.6676H68.1691L68.4279 57.4856L67.8527 56.6676ZM61.3949 57.5146V56.5146H59.8922L60.4725 57.9008L61.3949 57.5146ZM62.2031 59.7161L61.2498 60.0181L61.5735 61.0398L62.5704 60.6462L62.2031 59.7161ZM66.5734 57.5146L67.1019 58.3636L70.0723 56.5146H66.5734V57.5146ZM62.5424 61.7306L62.1889 60.7952L61.948 60.8862L61.781 61.0823L62.5424 61.7306ZM62.2177 61.919V62.919H62.3426L62.4637 62.8883L62.2177 61.919ZM62.0508 61.919L62.0417 62.919H62.0508V61.919ZM62.0409 61.9189L62.013 62.9185L62.0223 62.9188L62.0317 62.9189L62.0409 61.9189ZM62.0303 61.9186L62.0582 60.919L61.871 60.9138L61.6945 60.9767L62.0303 61.9186ZM35.9293 29.4321L36.3333 30.3468L36.9293 30.0836V29.4321H35.9293ZM35.9293 28.7998H36.9293V28.6918L36.9063 28.5864L35.9293 28.7998ZM31.7565 28.9704L32.2692 28.1117L31.7565 28.9704ZM29.4198 25.3282L28.9673 24.4365L28.4198 24.7143V25.3282H29.4198ZM33.676 25.7517L34.1886 24.8931L33.676 25.7517ZM35.0172 30.889L34.9156 29.8942L32.5901 30.1316L34.3679 31.6495L35.0172 30.889ZM35.9293 30.712H36.9293V29.3744L35.6464 29.7528L35.9293 30.712ZM35.9293 31.8338L35.1447 32.4538L36.9293 34.712V31.8338H35.9293ZM37.0977 30.6477L37.436 29.7067L36.0977 29.2255V30.6477H37.0977ZM37.0977 31.8198H36.0977V34.8104L37.8966 32.4213L37.0977 31.8198ZM37.9858 30.8685L38.6412 31.6237L40.2897 30.193L38.1297 29.8789L37.9858 30.8685ZM35.9293 34.8529L36.3333 35.7677L36.9293 35.5045V34.8529H35.9293ZM35.9293 34.2206H36.9293V34.1127L36.9063 34.0073L35.9293 34.2206ZM31.7565 34.3912L31.2439 35.2498H31.2439L31.7565 34.3912ZM29.4198 30.7491L28.9673 29.8573L28.4198 30.1352V30.7491H29.4198ZM33.676 31.1726L33.1634 32.0312H33.1634L33.676 31.1726ZM35.9293 37.2546L35.1447 37.8747L36.9293 40.1329V37.2546H35.9293ZM35.9293 36.1328H36.9293V34.7953L35.6464 35.1737L35.9293 36.1328ZM35.0172 36.3099L34.9156 35.3151L32.5902 35.5525L34.3678 37.0704L35.0172 36.3099ZM37.0977 36.0686L37.436 35.1275L36.0977 34.6464V36.0686H37.0977ZM37.0977 37.2407H36.0977V40.2313L37.8966 37.8422L37.0977 37.2407ZM37.9858 36.2893L38.6412 37.0446L40.2898 35.6139L38.1297 35.2997L37.9858 36.2893ZM33.676 36.5935L34.1886 35.7348H34.1886L33.676 36.5935ZM35.9293 39.6415H36.9293V39.5336L36.9063 39.4281L35.9293 39.6415ZM29.4198 36.17L28.9673 35.2782L28.4198 35.556V36.17H29.4198ZM31.7565 39.8121L32.2692 38.9535L32.2692 38.9535L31.7565 39.8121ZM35.9293 40.2738L36.3333 41.1885L36.9293 40.9253V40.2738H35.9293ZM37.1109 40.2418L36.1115 40.2775L36.1333 40.8881L36.6866 41.1474L37.1109 40.2418ZM37.1056 40.1332L36.1098 40.0412L36.1027 40.118L36.1075 40.195L37.1056 40.1332ZM41.3539 39.8121L40.8413 38.9535L40.8413 38.9535L41.3539 39.8121ZM43.6907 36.1699L44.6888 36.2314L44.7304 35.5559L44.1187 35.2662L43.6907 36.1699ZM39.4344 36.5935L38.9218 35.7348L38.8913 35.753L38.8622 35.7734L39.4344 36.5935ZM37.1109 34.8209L36.1115 34.8566L36.1333 35.4673L36.6866 35.7265L37.1109 34.8209ZM41.3539 34.3912L41.8665 35.2498L41.3539 34.3912ZM37.1056 34.7123L36.1098 34.6203L36.1027 34.6972L36.1075 34.7742L37.1056 34.7123ZM39.4344 31.1726L38.9218 30.314L38.8913 30.3322L38.8622 30.3525L39.4344 31.1726ZM43.6907 30.7491L44.6888 30.8106L44.7304 30.135L44.1187 29.8453L43.6907 30.7491ZM37.1086 29.3452L36.1136 29.2445L36.1061 29.3192L36.1098 29.3942L37.1086 29.3452ZM39.4344 25.8364L38.9218 24.9778L38.9102 24.9847L38.8988 24.992L39.4344 25.8364ZM37.113 29.4858L36.1132 29.5006L36.1224 30.1265L36.6894 30.3916L37.113 29.4858ZM41.3539 29.0551L40.8413 28.1964H40.8413L41.3539 29.0551ZM43.6907 25.4129L44.6888 25.4744L44.7304 24.7989L44.1187 24.5092L43.6907 25.4129ZM56.6137 23.4714L57.0802 24.356L57.6106 24.0763L57.6137 23.4766L56.6137 23.4714ZM56.6201 23.2246L57.619 23.2707L57.6213 23.2221L57.6188 23.1736L56.6201 23.2246ZM50.2836 22.8719L49.7389 23.7105L49.7511 23.7184L49.7635 23.726L50.2836 22.8719ZM46.862 17.3663L46.3925 16.4834L45.862 16.7654V17.3663H46.862ZM53.2046 17.9592L53.7493 17.1206L53.7371 17.1127L53.7247 17.1051L53.2046 17.9592ZM57.7946 23.4648L56.7946 23.4648L56.7946 24.0787L57.3421 24.3566L57.7946 23.4648ZM57.7946 23.1025L56.7954 23.062L56.7946 23.0822V23.1025L57.7946 23.1025ZM67.5589 17.3663H68.5589V16.7524L68.0114 16.4746L67.5589 17.3663ZM61.2163 17.9592L60.6961 17.1051L60.6865 17.1111L61.2163 17.9592ZM57.7946 24.7475L58.142 23.8097L56.7946 23.3106V24.7475H57.7946ZM57.7946 27.4201H56.7946V30.8138L58.6348 27.9623L57.7946 27.4201ZM59.9329 25.1538L60.5282 25.9573L62.8246 24.2559L59.9684 24.1545L59.9329 25.1538ZM57.7946 31.0879L56.7946 31.0879L56.7946 31.7018L57.3421 31.9796L57.7946 31.0879ZM57.7946 30.7256L56.7954 30.6851L56.7946 30.7053V30.7256L57.7946 30.7256ZM64.1372 30.495L63.6171 29.6409L64.1372 30.495ZM67.5589 24.9894H68.5589V24.3755L68.0114 24.0977L67.5589 24.9894ZM61.2163 25.5823L60.6961 24.7282L60.6865 24.7342L61.2163 25.5823ZM56.6262 27.4675L55.7758 27.9935L57.6262 30.9855V27.4675H56.6262ZM54.5122 25.1502L54.4668 24.1512L51.7212 24.276L53.905 25.9448L54.5122 25.1502ZM56.6262 24.6882H57.6262V23.1594L56.2256 23.772L56.6262 24.6882ZM56.6262 32.3594H57.6262V30.8459L56.234 31.4395L56.6262 32.3594ZM56.6262 35.0906L55.7758 35.6166L57.6262 38.6086V35.0906H56.6262ZM54.61 32.8491L54.5374 31.8517L51.9614 32.0392L53.9921 33.6353L54.61 32.8491ZM57.7946 35.0432H56.7946V38.4369L58.6348 35.5854L57.7946 35.0432ZM57.7946 32.4552L58.142 31.5175L56.7946 31.0184V32.4552H57.7946ZM59.8263 32.8571L60.4334 33.6518L62.6053 31.9927L59.8755 31.8583L59.8263 32.8571ZM57.7946 38.711L56.7946 38.711L56.7946 39.3249L57.3421 39.6027L57.7946 38.711ZM57.7946 38.3487L56.7954 38.3082L56.7946 38.3284V38.3487L57.7946 38.3487ZM64.1372 38.1181L63.6171 37.264L64.1372 38.1181ZM67.5589 32.6125H68.5589V31.9986L68.0114 31.7208L67.5589 32.6125ZM61.2163 33.2054L60.6961 32.3513L60.6865 32.3573L61.2163 33.2054ZM51.8415 32.5394L52.1948 31.6039L52.1585 31.5902L52.1213 31.5794L51.8415 32.5394ZM51.2475 32.3415L51.5994 31.4054L51.5629 31.3917L51.5255 31.3809L51.2475 32.3415ZM53.2046 33.2054L53.7493 32.3668L53.7371 32.3589L53.7247 32.3513L53.2046 33.2054ZM56.6221 38.5145L57.6207 38.5672L57.6232 38.5199L57.6212 38.4726L56.6221 38.5145ZM56.6148 38.717L57.0815 39.6015L57.6032 39.3262L57.6146 38.7364L56.6148 38.717ZM50.2836 38.1181L49.7389 38.9567L49.7511 38.9646L49.7635 38.9722L50.2836 38.1181ZM46.862 32.6125L46.3925 31.7295L45.862 32.0116V32.6125H46.862ZM56.6148 31.094L57.0815 31.9784L57.6032 31.7031L57.6146 31.1133L56.6148 31.094ZM56.6221 30.8914L57.6207 30.9442L57.6232 30.8969L57.6212 30.8495L56.6221 30.8914ZM50.2836 30.495L49.7389 31.3336L49.7511 31.3415L49.7635 31.3491L50.2836 30.495ZM46.862 24.9894L46.3925 24.1064L45.862 24.3885V24.9894H46.862ZM53.2046 25.5823L53.7493 24.7437L53.7371 24.7358L53.7247 24.7282L53.2046 25.5823ZM52.2866 5C36.6157 5 23.9117 17.8933 23.9117 33.7983H25.9117C25.9117 18.9701 37.7478 7 52.2866 7V5ZM80.6614 33.7983C80.6614 17.8933 67.9574 5 52.2866 5V7C66.8253 7 78.6614 18.9701 78.6614 33.7983H80.6614ZM78.8617 43.9139C80.0254 40.766 80.6614 37.3569 80.6614 33.7983H78.6614C78.6614 37.1172 78.0685 40.2916 76.9858 43.2204L78.8617 43.9139ZM57.7401 44.5672H77.9238V42.5672H57.7401V44.5672ZM56.7946 43.2863C56.7946 43.2589 56.8004 43.2226 56.8166 43.1835L58.6636 43.9508C58.7483 43.7468 58.7946 43.5223 58.7946 43.2863H56.7946ZM56.7946 40.0783V43.2863H58.7946V40.0783H56.7946ZM60.2148 39.4897C59.4887 39.4897 58.7822 39.3778 58.142 39.1406L57.4473 41.0161C58.3417 41.3474 59.2881 41.4897 60.2148 41.4897V39.4897ZM64.2481 38.3383C62.926 39.0487 61.5041 39.4897 60.2148 39.4897V41.4897C61.93 41.4897 63.6793 40.9143 65.1947 40.1001L64.2481 38.3383ZM67.646 32.424C67.7846 34.535 66.5233 36.9206 64.1932 38.3701L65.2496 40.0683C68.0937 38.2991 69.8368 35.2639 69.6417 32.2929L67.646 32.424ZM67.9409 32.8267C67.7208 32.715 67.6438 32.5047 67.6438 32.3584H69.6438C69.6438 31.8733 69.3999 31.3242 68.846 31.0432L67.9409 32.8267ZM65.4516 32.0376C66.3478 32.0974 67.1716 32.3508 67.8637 32.7831L68.9232 31.0867C67.9218 30.4613 66.7727 30.1214 65.5848 30.0421L65.4516 32.0376ZM67.646 24.8009C67.7696 26.6829 66.783 28.7842 64.903 30.2515L66.1335 31.8282C68.442 30.0265 69.8159 27.3229 69.6417 24.6698L67.646 24.8009ZM67.9409 25.2036C67.7208 25.0919 67.6438 24.8816 67.6438 24.7353H69.6438C69.6438 24.2503 69.3999 23.7011 68.846 23.4201L67.9409 25.2036ZM65.3638 24.4093C66.2938 24.458 67.149 24.7136 67.8637 25.16L68.9232 23.4637C67.8891 22.8178 66.6976 22.4764 65.4683 22.412L65.3638 24.4093ZM67.646 17.0931C67.7716 19.0057 66.7503 21.1448 64.812 22.6137L66.02 24.2077C68.3978 22.4057 69.8187 19.6577 69.6417 16.962L67.646 17.0931ZM67.9409 17.4958C67.7208 17.3841 67.6438 17.1738 67.6438 17.0275H69.6438C69.6438 16.5425 69.3999 15.9934 68.846 15.7123L67.9409 17.4958ZM61.0768 17.8767C63.4167 16.4211 66.0876 16.3429 67.8637 17.4522L68.9232 15.7559C66.3596 14.1547 62.8548 14.4153 60.0204 16.1784L61.0768 17.8767ZM58.6348 20.2546C59.2234 19.3425 60.0513 18.5146 61.0768 17.8767L60.0204 16.1784C58.7478 16.9701 57.7055 18.0063 56.9544 19.1701L58.6348 20.2546ZM56.7946 16.8596V19.7123H58.7946V16.8596H56.7946ZM57.2104 17.2667C57.1158 17.2667 57.0034 17.2273 56.9154 17.1379C56.8281 17.0493 56.7946 16.9423 56.7946 16.8596H58.7946C58.7946 15.9825 58.1105 15.2667 57.2104 15.2667V17.2667ZM57.6262 16.8596C57.6262 16.9423 57.5928 17.0493 57.5055 17.138C57.4175 17.2273 57.305 17.2667 57.2104 17.2667V15.2667C56.3104 15.2667 55.6262 15.9825 55.6262 16.8596H57.6262ZM57.6262 19.7597V16.8596H55.6262V19.7597H57.6262ZM53.2606 17.792C54.3296 18.4569 55.1835 19.3281 55.7758 20.2857L57.4767 19.2337C56.7196 18.0095 55.6433 16.9187 54.317 16.0937L53.2606 17.792ZM46.4737 17.3675C48.2498 16.2582 50.9207 16.3364 53.2606 17.792L54.317 16.0937C51.4826 14.3306 47.9778 14.07 45.4142 15.6712L46.4737 17.3675ZM46.6936 16.9428C46.6936 17.0891 46.6165 17.2994 46.3965 17.4111L45.4914 15.6276C44.9375 15.9087 44.6936 16.4578 44.6936 16.9428H46.6936ZM49.5254 22.529C47.5871 21.0601 46.5658 18.921 46.6914 17.0084L44.6957 16.8773C44.5187 19.573 45.9396 22.321 48.3174 24.123L49.5254 22.529ZM46.4737 25.0753C47.1883 24.6289 48.0436 24.3733 48.9736 24.3246L48.8691 22.3273C47.6398 22.3917 46.4483 22.7331 45.4142 23.379L46.4737 25.0753ZM46.6936 24.6506C46.6936 24.7969 46.6165 25.0072 46.3965 25.1189L45.4914 23.3354C44.9375 23.6164 44.6936 24.1656 44.6936 24.6506H46.6936ZM49.4344 30.1668C47.5544 28.6995 46.5678 26.5982 46.6914 24.7162L44.6957 24.5851C44.5215 27.2382 45.8954 29.9418 48.2039 31.7435L49.4344 30.1668ZM46.4737 32.6984C47.1658 32.2661 47.9896 32.0127 48.8858 31.9529L48.7525 29.9574C47.5647 30.0366 46.4155 30.3766 45.4142 31.002L46.4737 32.6984ZM46.6936 32.2737C46.6936 32.42 46.6165 32.6303 46.3965 32.7419L45.4914 30.9584C44.9375 31.2395 44.6936 31.7886 44.6936 32.2737H46.6936ZM50.1442 38.2854C47.8141 36.8359 46.5528 34.4503 46.6914 32.3392L44.6957 32.2082C44.5006 35.1791 46.2437 38.2144 49.0878 39.9836L50.1442 38.2854ZM54.1226 39.4897C52.8063 39.4897 51.4132 39.1183 50.1649 38.2986L49.0671 39.9703C50.6563 41.014 52.4344 41.4897 54.1226 41.4897V39.4897ZM56.234 39.0626C55.5879 39.3381 54.8973 39.4897 54.1226 39.4897V41.4897C55.1727 41.4897 56.1297 41.2813 57.0185 40.9024L56.234 39.0626ZM57.6262 43.371V39.9825H55.6262V43.371H57.6262ZM57.6082 43.2607C57.6213 43.3013 57.6262 43.339 57.6262 43.371H55.6262C55.6262 43.5419 55.6522 43.7113 55.7045 43.8736L57.6082 43.2607ZM37.0546 44.5672H56.6563V42.5672H37.0546V44.5672ZM36.0977 43.2863C36.0977 43.2939 36.0966 43.2786 36.1073 43.2469L38.0019 43.8874C38.0684 43.6908 38.0977 43.4873 38.0977 43.2863H36.0977ZM36.0977 41.4894V43.2863H38.0977V41.4894H36.0977ZM38.6833 40.7602C38.2305 40.7602 37.81 40.6828 37.436 40.5484L36.7594 42.4305C37.3526 42.6438 38.0023 42.7602 38.6833 42.7602V40.7602ZM41.3777 39.9156C40.5418 40.4811 39.5687 40.7602 38.6833 40.7602V42.7602C39.9679 42.7602 41.3314 42.3617 42.4985 41.572L41.3777 39.9156ZM43.7796 35.8357C43.9059 37.2459 42.9972 38.9426 41.4238 39.8862L42.4524 41.6014C44.551 40.3428 45.9791 37.9738 45.7716 35.6572L43.7796 35.8357ZM44.0727 36.2147C43.8526 36.103 43.7756 35.8927 43.7756 35.7464H45.7756C45.7756 35.2614 45.5316 34.7123 44.9777 34.4312L44.0727 36.2147ZM42.6311 35.7252C43.1454 35.7912 43.6167 35.949 44.0186 36.1851L45.0318 34.4608C44.3773 34.0762 43.6439 33.8388 42.8857 33.7415L42.6311 35.7252ZM43.7796 30.4148C43.8852 31.5945 43.27 32.9842 42.1101 33.972L43.4067 35.4947C44.952 34.1788 45.9468 32.1926 45.7716 30.2364L43.7796 30.4148ZM44.0727 30.7938C43.8526 30.6822 43.7756 30.4718 43.7756 30.3256H45.7756C45.7756 29.8405 45.5316 29.2914 44.9777 29.0103L44.0727 30.7938ZM42.6311 30.3043C43.1454 30.3703 43.6167 30.5281 44.0186 30.7643L45.0318 29.0399C44.3773 28.6553 43.6439 28.4179 42.8857 28.3206L42.6311 30.3043ZM43.7796 24.9939C43.8852 26.1737 43.27 27.5633 42.1101 28.5511L43.4067 30.0738C44.952 28.7579 45.9468 26.7717 45.7716 24.8155L43.7796 24.9939ZM44.0727 25.373C43.8526 25.2613 43.7756 25.051 43.7756 24.9047H45.7756C45.7756 24.4197 45.5316 23.8705 44.9777 23.5895L44.0727 25.373ZM39.3928 25.66C40.9549 24.6511 42.8012 24.628 44.0186 25.3434L45.0318 23.619C43.0779 22.471 40.4176 22.6173 38.3077 23.98L39.3928 25.66ZM37.8966 27.0005C38.2873 26.4815 38.7876 26.0236 39.3646 25.6776L38.3359 23.9624C37.532 24.4445 36.8403 25.0784 36.2988 25.7975L37.8966 27.0005ZM36.0977 24.5674V26.399H38.0977V24.5674H36.0977ZM36.5135 24.9745C36.4189 24.9745 36.3064 24.9351 36.2185 24.8458C36.1311 24.7571 36.0977 24.6501 36.0977 24.5674H38.0977C38.0977 23.6903 37.4135 22.9745 36.5135 22.9745V24.9745ZM36.9293 24.5674C36.9293 24.6501 36.8959 24.7571 36.8085 24.8458C36.7206 24.9351 36.6081 24.9745 36.5135 24.9745V22.9745C35.6135 22.9745 34.9293 23.6903 34.9293 24.5674H36.9293ZM36.9293 26.4129V24.5674H34.9293V26.4129H36.9293ZM33.7177 25.7447C34.2777 26.1065 34.7615 26.548 35.1447 27.0329L36.7139 25.7929C36.1911 25.1314 35.5425 24.5425 34.8027 24.0647L33.7177 25.7447ZM29.0918 25.4281C30.3093 24.7127 32.1555 24.7358 33.7177 25.7447L34.8027 24.0647C32.6928 22.702 30.0325 22.5557 28.0786 23.7037L29.0918 25.4281ZM29.3349 24.9894C29.3349 25.1357 29.2578 25.346 29.0378 25.4577L28.1327 23.6742C27.5788 23.9552 27.3349 24.5044 27.3349 24.9894H29.3349ZM31.035 28.6373C29.8386 27.6021 29.2255 26.2553 29.3309 25.0786L27.3389 24.9002C27.1614 26.8816 28.183 28.8144 29.7264 30.1498L31.035 28.6373ZM29.0918 30.849C29.4998 30.6093 29.9792 30.4503 30.5025 30.3861L30.259 28.401C29.4885 28.4955 28.743 28.7342 28.0786 29.1246L29.0918 30.849ZM29.3349 30.4103C29.3349 30.5565 29.2578 30.7669 29.0378 30.8785L28.1327 29.095C27.5788 29.3761 27.3349 29.9252 27.3349 30.4103H29.3349ZM31.035 34.0582C29.8386 33.023 29.2255 31.6761 29.3309 30.4995L27.3389 30.3211C27.1614 32.3025 28.183 34.2353 29.7264 35.5707L31.035 34.0582ZM29.0918 36.2698C29.4998 36.0301 29.9792 35.8712 30.5025 35.807L30.259 33.8219C29.4885 33.9164 28.743 34.1551 28.0786 34.5455L29.0918 36.2698ZM29.3349 35.8312C29.3349 35.9774 29.2578 36.1877 29.0378 36.2994L28.1327 34.5159C27.5788 34.797 27.3349 35.3461 27.3349 35.8312H29.3349ZM31.7149 39.9885C30.0953 38.9424 29.2062 37.3128 29.3309 35.9204L27.3389 35.7419C27.1298 38.0763 28.5774 40.343 30.6298 41.6685L31.7149 39.9885ZM34.4271 40.7602C33.5383 40.7602 32.5442 40.4785 31.6818 39.968L30.6629 41.689C31.8035 42.3643 33.1461 42.7602 34.4271 42.7602V40.7602ZM35.6464 40.5945C35.2628 40.7077 34.8527 40.7602 34.4271 40.7602V42.7602C35.0155 42.7602 35.6193 42.6877 36.2122 42.5128L35.6464 40.5945ZM36.9293 43.371V41.5537H34.9293V43.371H36.9293ZM36.9113 43.2607C36.9244 43.3014 36.9293 43.339 36.9293 43.371H34.9293C34.9293 43.5418 34.9553 43.7113 35.0075 43.8736L36.9113 43.2607ZM27.5049 44.5672H35.9594V42.5672H27.5049V44.5672ZM27.5039 44.5672H27.5049V42.5672H27.5039V44.5672ZM26.6494 44.5672H27.5039V42.5672H26.6494V44.5672ZM23.9117 33.7983C23.9117 37.3569 24.5477 40.766 25.7114 43.9139L27.5873 43.2204C26.5047 40.2916 25.9117 37.1172 25.9117 33.7983H23.9117ZM27.5039 43.753H27.1188V45.753H27.5039V43.753ZM41.1191 58.3824C39.5039 54.1531 36.5256 50.7237 33.838 48.2754C31.1419 45.8194 28.6792 44.2975 28.0237 43.8987L26.9842 45.6073C27.5906 45.9762 29.9309 47.4216 32.4911 49.7539C35.0598 52.0939 37.791 55.2737 39.2507 59.0959L41.1191 58.3824ZM26.1977 45.1423C28.8657 51.4549 33.6926 56.6033 39.7367 59.6331L40.633 57.8452C35.017 55.0299 30.5239 50.2409 28.0399 44.3637L26.1977 45.1423ZM42.6381 59.1333C40.1992 51.4107 33.3589 46.1215 30.0797 43.9224L28.9658 45.5835C32.1813 47.7398 38.5102 52.7039 40.731 59.7356L42.6381 59.1333ZM46.3046 59.9043C44.8456 59.5605 43.4328 59.0936 42.0772 58.5148L41.2919 60.3541C42.7518 60.9775 44.2738 61.4806 45.8459 61.851L46.3046 59.9043ZM32.8415 45.9788C32.6846 45.9788 32.5658 45.9401 32.5493 45.9351C32.5089 45.9227 32.4781 45.9103 32.4637 45.9044C32.4334 45.8919 32.4114 45.8809 32.4053 45.8778C32.3899 45.8701 32.3819 45.8655 32.3869 45.8683C32.3939 45.8722 32.4132 45.8834 32.447 45.904C32.5129 45.9442 32.6151 46.0085 32.7501 46.0971C33.0195 46.2739 33.4104 46.5412 33.8907 46.8943C34.8519 47.6007 36.1634 48.6447 37.5724 49.9869C40.402 52.6824 43.5645 56.5236 45.1269 61.1949L47.0236 60.5605C45.3168 55.4574 41.902 51.3491 38.9519 48.5388C37.471 47.1281 36.0921 46.0301 35.0752 45.2827C34.5666 44.9089 34.1466 44.6214 33.8474 44.425C33.6982 44.3271 33.5767 44.2503 33.4875 44.196C33.4438 44.1694 33.4026 44.145 33.3674 44.1251C33.3512 44.116 33.3267 44.1025 33.2993 44.0888C33.2872 44.0827 33.2604 44.0696 33.2265 44.0556C33.2103 44.0489 33.178 44.036 33.1364 44.0232C33.1187 44.0177 32.9989 43.9788 32.8415 43.9788V45.9788ZM31.6918 45.3238C31.9011 45.6249 32.2148 45.8515 32.5955 45.9481L33.0874 44.0096C33.1847 44.0342 33.275 44.0973 33.334 44.1822L31.6918 45.3238ZM29.5227 45.753H32.5129V43.753H29.5227V45.753ZM48.3145 60.8624C45.7077 52.0718 38.4251 46.1417 35.2543 43.9325L34.1109 45.5735C37.1798 47.7117 43.989 53.3109 46.397 61.431L48.3145 60.8624ZM51.745 60.5911C50.3111 60.5618 48.9057 60.4162 47.5374 60.1633L47.174 62.13C48.6482 62.4024 50.1614 62.5591 51.704 62.5907L51.745 60.5911ZM38.2661 45.9788C38.1067 45.9788 37.9858 45.9388 37.9707 45.9341C37.9305 45.9216 37.8999 45.9092 37.8857 45.9033C37.8559 45.8909 37.8344 45.8801 37.8285 45.8771C37.8137 45.8697 37.8063 45.8654 37.8118 45.8685C37.8199 45.8731 37.8408 45.8852 37.8764 45.9069C37.9458 45.9493 38.053 46.017 38.1944 46.1101C38.4763 46.2956 38.8848 46.576 39.3854 46.9459C40.387 47.6861 41.7495 48.7793 43.2013 50.183C46.1174 53.0026 49.3284 57.0123 50.7655 61.8744L52.6835 61.3074C51.1091 55.9808 47.6314 51.6845 44.5915 48.7452C43.0653 47.2695 41.6329 46.12 40.5741 45.3375C40.0444 44.946 39.6062 44.6449 39.2939 44.4394C39.1382 44.3369 39.0115 44.2567 38.9187 44.2C38.8731 44.1722 38.8308 44.147 38.7947 44.1267C38.7781 44.1173 38.7534 44.1036 38.7262 44.0899C38.7141 44.0839 38.6875 44.0707 38.6539 44.0567C38.6379 44.05 38.6057 44.0371 38.5643 44.0242C38.5479 44.0191 38.4261 43.9788 38.2661 43.9788V45.9788ZM37.1164 45.3238C37.3257 45.6249 37.6394 45.8515 38.0201 45.9481L38.512 44.0096C38.6093 44.0342 38.6996 44.0973 38.7586 44.1822L37.1164 45.3238ZM34.6826 45.753H37.9375V43.753H34.6826V45.753ZM53.0153 62.5873C54.467 62.5501 55.8924 62.4021 57.2833 62.1512L56.9282 60.183C55.6371 60.4159 54.3134 60.5534 52.9641 60.588L53.0153 62.5873ZM39.5476 45.5753C42.6943 47.7529 49.7317 53.5087 52.0255 61.8527L53.9539 61.3226C51.4667 52.2748 43.9296 46.1756 40.6857 43.9307L39.5476 45.5753ZM43.6011 43.753H40.1167V45.753H43.6011V43.753ZM44.1035 43.9249C44.1701 43.9417 44.2381 43.9781 44.2949 44.0328L42.9073 45.4732C43.1009 45.6596 43.3415 45.7949 43.6116 45.8634L44.1035 43.9249ZM44.5155 44.1322C44.4818 44.1099 44.4607 44.0958 44.4472 44.0867C44.4399 44.0818 44.4405 44.0821 44.4449 44.0852C44.4467 44.0865 44.4553 44.0926 44.467 44.1015C44.4729 44.106 44.4837 44.1143 44.497 44.1254C44.5039 44.1311 44.5133 44.1391 44.5244 44.1489C44.5348 44.1583 44.551 44.1731 44.5699 44.1923L43.1453 45.596C43.201 45.6526 43.2538 45.6915 43.2544 45.692C43.2692 45.7033 43.2818 45.7123 43.2887 45.7172C43.3031 45.7274 43.3175 45.7372 43.3279 45.7441C43.3495 45.7587 43.3785 45.778 43.4091 45.7983L44.5155 44.1322ZM58.0594 60.8663C56.5024 55.9288 53.368 51.9236 50.5281 49.0829C47.6811 46.235 45.0774 44.5053 44.5155 44.1322L43.4091 45.7983C43.9268 46.1421 46.4041 47.7865 49.1137 50.4969C51.8303 53.2144 54.7279 56.9517 56.152 61.4678L58.0594 60.8663ZM45.1418 45.5658C48.206 47.7621 54.8971 53.2643 57.3482 61.2172L59.2595 60.6281C56.6062 52.0193 49.4489 46.1923 46.3069 43.9402L45.1418 45.5658ZM49.0257 43.753H45.7243V45.753H49.0257V43.753ZM49.5281 43.9249C49.5947 43.9417 49.6627 43.9781 49.7195 44.0328L48.3319 45.4732C48.5254 45.6596 48.7661 45.7949 49.0362 45.8634L49.5281 43.9249ZM49.9322 44.1278C49.9027 44.1079 49.8852 44.0961 49.8742 44.0886C49.8682 44.0845 49.8701 44.0857 49.8756 44.0897C49.8781 44.0915 49.8871 44.098 49.8991 44.1073C49.9052 44.1121 49.9157 44.1204 49.9286 44.1312C49.9352 44.1368 49.944 44.1444 49.9541 44.1536C49.9639 44.1624 49.978 44.1756 49.9943 44.1921L48.57 45.5962C48.6206 45.6475 48.6672 45.6829 48.6711 45.6859C48.6859 45.6974 48.6985 45.7066 48.7055 45.7116C48.7199 45.722 48.7339 45.7317 48.7433 45.7382C48.7631 45.7517 48.7892 45.7693 48.8155 45.787L49.9322 44.1278ZM62.035 59.8302C59.01 50.2246 50.893 44.7745 49.9322 44.1278L48.8155 45.787C49.7329 46.4045 57.3233 51.5269 60.1273 60.4309L62.035 59.8302ZM58.526 61.8976C59.5063 61.6743 60.4676 61.3994 61.4067 61.076L60.7556 59.185C59.8838 59.4852 58.9916 59.7403 58.0817 59.9476L58.526 61.8976ZM51.1511 45.753H77.4543V43.753H51.1511V45.753ZM54.0514 45.8177C53.1779 45.0438 52.3853 44.4203 51.7443 43.9479L50.5578 45.558C51.1565 45.9991 51.9017 46.5851 52.7251 47.3146L54.0514 45.8177ZM53.7014 45.5035C53.4576 45.5035 53.2094 45.5504 52.9789 45.6538L53.7975 47.4785C53.7454 47.5019 53.7108 47.5035 53.7014 47.5035V45.5035ZM76.6419 45.5035H53.7014V47.5035H76.6419V45.5035ZM76.5332 44.3637C76.2909 44.9368 76.0296 45.4996 75.7499 46.0513L77.5338 46.9556C77.8343 46.3629 78.1151 45.7581 78.3754 45.1423L76.5332 44.3637ZM76.0205 49.5878C76.3901 49.0167 76.7402 48.4315 77.0699 47.833L75.3182 46.8679C75.0113 47.4249 74.6854 47.9696 74.3414 48.5012L76.0205 49.5878ZM56.1697 50.0445H75.1809V48.0445H56.1697V50.0445ZM56.263 50.0274C56.2219 50.0414 56.1897 50.0445 56.1697 50.0445V48.0445C55.9832 48.0445 55.7957 48.0735 55.6163 48.1348L56.263 50.0274ZM53.5549 48.0757C54.0881 48.5819 54.6419 49.1416 55.2005 49.7547L56.6788 48.4075C56.0853 47.7562 55.4974 47.1621 54.9319 46.6252L53.5549 48.0757ZM76.194 46.3505H54.2434V48.3505H76.194V46.3505ZM74.6105 48.8915H56.654V50.8915H74.6105V48.8915ZM74.0978 52.22C74.5631 51.6531 75.0075 51.0678 75.4296 50.4652L73.7914 49.3178C73.3986 49.8786 72.9851 50.4234 72.5519 50.951L74.0978 52.22ZM58.0012 52.5855H73.3248V50.5855H58.0012V52.5855ZM55.893 50.5402C56.3316 51.0547 56.7689 51.6015 57.1975 52.1805L58.805 50.9905C58.3476 50.3727 57.8816 49.7901 57.4151 49.2428L55.893 50.5402ZM60.5501 53.6172C60.1891 53.0073 59.814 52.4233 59.4298 51.8654L57.7826 52.9997C58.142 53.5216 58.4923 54.0671 58.829 54.6359L60.5501 53.6172ZM70.9584 53.1266H59.6896V55.1266H70.9584V53.1266ZM71.8538 51.7676C71.349 52.3345 70.8208 52.8794 70.2707 53.4006L71.6462 54.8525C72.2375 54.2923 72.8052 53.7067 73.3476 53.0975L71.8538 51.7676ZM58.6062 53.4325H72.6007V51.4325H58.6062V53.4325ZM59.2939 55.453C59.584 55.9839 59.8612 56.5337 60.1221 57.1021L61.9398 56.2678C61.6587 55.6556 61.3606 55.0643 61.0491 54.4941L59.2939 55.453ZM70.0226 53.9736H60.1715V55.9736H70.0226V53.9736ZM68.4279 57.4856C69.2067 56.938 69.9571 56.3519 70.6765 55.7301L69.3686 54.217C68.6994 54.7955 68.0016 55.3405 67.2776 55.8496L68.4279 57.4856ZM67.8527 55.6676H61.1993V57.6676H67.8527V55.6676ZM61.1993 55.6676C61.0722 55.6676 60.9451 55.6806 60.8206 55.7074L61.2413 57.6626C61.2223 57.6667 61.2081 57.6676 61.1993 57.6676V55.6676ZM60.4725 57.9008C60.7574 58.5812 61.0182 59.287 61.2498 60.0181L63.1564 59.4141C62.9062 58.6241 62.6245 57.8621 62.3173 57.1284L60.4725 57.9008ZM62.5704 60.6462C64.1551 60.0205 65.6705 59.2545 67.1019 58.3636L66.045 56.6656C64.7147 57.4937 63.307 58.205 61.8359 58.786L62.5704 60.6462ZM61.3949 58.5146H66.5734V56.5146H61.3949V58.5146ZM62.896 62.666C74.451 58.2988 82.6614 47.0092 82.6614 33.7983H80.6614C80.6614 46.1653 72.9772 56.7177 62.1889 60.7952L62.896 62.666ZM62.4637 62.8883C62.7619 62.8126 63.0687 62.655 63.3038 62.3789L61.781 61.0823C61.8659 60.9826 61.9522 60.9547 61.9718 60.9497L62.4637 62.8883ZM62.0508 62.919H62.2177V60.919H62.0508V62.919ZM62.0317 62.9189L62.0417 62.919L62.06 60.9191L62.05 60.919L62.0317 62.9189ZM62.0025 62.9183L62.013 62.9185L62.0687 60.9193L62.0582 60.919L62.0025 62.9183ZM52.2866 64.5966C55.819 64.5966 59.2116 63.9852 62.3661 62.8606L61.6945 60.9767C58.7523 62.0257 55.5867 62.5966 52.2866 62.5966V64.5966ZM21.9117 33.7983C21.9117 50.7796 35.483 64.5966 52.2866 64.5966V62.5966C36.6157 62.5966 23.9117 49.7033 23.9117 33.7983H21.9117ZM52.2866 3C35.483 3 21.9117 16.8171 21.9117 33.7983H23.9117C23.9117 17.8933 36.6157 5 52.2866 5V3ZM82.6614 33.7983C82.6614 16.8171 69.0901 3 52.2866 3V5C67.9574 5 80.6614 17.8933 80.6614 33.7983H82.6614ZM36.9293 29.4321V28.7998H34.9293V29.4321H36.9293ZM31.2439 29.829C32.8413 30.7827 34.7323 31.0539 36.3333 30.3468L35.5253 28.5173C34.6496 28.9041 33.4466 28.8147 32.2692 28.1117L31.2439 29.829ZM28.4198 25.3282C28.4198 27.1134 29.5964 28.8454 31.2439 29.829L32.2692 28.1117C31.0792 27.4013 30.4198 26.2535 30.4198 25.3282H28.4198ZM34.1886 24.8931C32.5657 23.9242 30.5252 23.6459 28.9673 24.4365L29.8723 26.22C30.6511 25.8248 31.9488 25.8852 33.1634 26.6104L34.1886 24.8931ZM36.9063 28.5864C36.5918 27.1464 35.636 25.7572 34.1886 24.8931L33.1634 26.6104C34.1412 27.1941 34.757 28.1189 34.9523 29.0131L36.9063 28.5864ZM35.1188 31.8839C35.4831 31.8467 35.8496 31.7781 36.2122 31.6711L35.6464 29.7528C35.412 29.8219 35.1677 29.8685 34.9156 29.8942L35.1188 31.8839ZM36.7139 31.2137C36.4057 30.8238 36.0541 30.4595 35.6666 30.1285L34.3679 31.6495C34.6588 31.898 34.9194 32.1686 35.1447 32.4538L36.7139 31.2137ZM34.9293 30.712V31.8338H36.9293V30.712H34.9293ZM36.0977 30.6477V31.8198H38.0977V30.6477H36.0977ZM38.1297 29.8789C37.8847 29.8432 37.6526 29.7845 37.436 29.7067L36.7594 31.5887C37.1029 31.7122 37.4654 31.8033 37.8419 31.8581L38.1297 29.8789ZM37.8966 32.4213C38.1126 32.1344 38.3626 31.8655 38.6412 31.6237L37.3304 30.1132C36.9453 30.4474 36.5992 30.8194 36.2988 31.2183L37.8966 32.4213ZM36.9293 34.8529V34.2206H34.9293V34.8529H36.9293ZM31.2439 35.2498C32.8413 36.2035 34.7323 36.4747 36.3333 35.7677L35.5253 33.9382C34.6496 34.3249 33.4466 34.2355 32.2692 33.5326L31.2439 35.2498ZM28.4198 30.7491C28.4198 32.5342 29.5964 34.2662 31.2439 35.2498L32.2692 33.5326C31.0792 32.8222 30.4198 31.6744 30.4198 30.7491H28.4198ZM34.1886 30.314C32.5657 29.3451 30.5252 29.0667 28.9673 29.8573L29.8723 31.6408C30.6511 31.2456 31.9488 31.3061 33.1634 32.0312L34.1886 30.314ZM36.9063 34.0073C36.5918 32.5673 35.636 31.1781 34.1886 30.314L33.1634 32.0312C34.1412 32.615 34.757 33.5398 34.9523 34.434L36.9063 34.0073ZM36.9293 37.2546V36.1328H34.9293V37.2546H36.9293ZM34.3678 37.0704C34.6588 37.3189 34.9194 37.5895 35.1447 37.8747L36.7139 36.6346C36.4057 36.2446 36.0541 35.8803 35.6666 35.5494L34.3678 37.0704ZM35.6464 35.1737C35.412 35.2428 35.1677 35.2893 34.9156 35.3151L35.1188 37.3047C35.4831 37.2675 35.8496 37.1989 36.2122 37.092L35.6464 35.1737ZM36.0977 36.0686V37.2407H38.0977V36.0686H36.0977ZM38.1297 35.2997C37.8847 35.2641 37.6526 35.2054 37.436 35.1275L36.7594 37.0096C37.1029 37.1331 37.4654 37.2241 37.8419 37.2789L38.1297 35.2997ZM37.8966 37.8422C38.1126 37.5553 38.3626 37.2864 38.6412 37.0446L37.3304 35.5341C36.9453 35.8683 36.5992 36.2403 36.2988 36.6392L37.8966 37.8422ZM33.1634 37.4521C34.1412 38.0358 34.757 38.9606 34.9523 39.8549L36.9063 39.4281C36.5918 37.9882 35.636 36.5989 34.1886 35.7348L33.1634 37.4521ZM29.8723 37.0617C30.6511 36.6665 31.9488 36.727 33.1634 37.4521L34.1886 35.7348C32.5657 34.7659 30.5252 34.4876 28.9673 35.2782L29.8723 37.0617ZM32.2692 38.9535C31.0792 38.2431 30.4198 37.0952 30.4198 36.17H28.4198C28.4198 37.9551 29.5964 39.6871 31.2439 40.6707L32.2692 38.9535ZM35.5253 39.359C34.6496 39.7458 33.4466 39.6564 32.2692 38.9535L31.2439 40.6707C32.8413 41.6244 34.7323 41.8956 36.3333 41.1885L35.5253 39.359ZM34.9293 39.6415V40.2738H36.9293V39.6415H34.9293ZM38.1102 40.2061C38.1086 40.1611 38.1064 40.1162 38.1037 40.0714L36.1075 40.195C36.1092 40.2226 36.1105 40.2501 36.1115 40.2775L38.1102 40.2061ZM40.8413 38.9535C39.6409 39.6701 38.4156 39.7488 37.5351 39.3363L36.6866 41.1474C38.3057 41.9058 40.2394 41.6421 41.8665 40.6707L40.8413 38.9535ZM42.6926 36.1085C42.6304 37.118 41.9907 38.2673 40.8413 38.9535L41.8665 40.6707C43.5546 39.6629 44.584 37.9324 44.6888 36.2314L42.6926 36.1085ZM39.947 37.4521C41.1518 36.7328 42.3813 36.6563 43.2626 37.0737L44.1187 35.2662C42.4964 34.4978 40.5545 34.7601 38.9218 35.7348L39.947 37.4521ZM38.1013 40.2252C38.1886 39.2812 38.8679 38.2081 40.0067 37.4135L38.8622 35.7734C37.3976 36.7953 36.2667 38.3435 36.1098 40.0412L38.1013 40.2252ZM36.6866 35.7265C38.3057 36.485 40.2394 36.2212 41.8665 35.2498L40.8413 33.5326C39.6409 34.2493 38.4156 34.3279 37.5351 33.9154L36.6866 35.7265ZM36.1075 34.7742C36.1092 34.8017 36.1105 34.8292 36.1115 34.8566L38.1102 34.7852C38.1086 34.7403 38.1064 34.6954 38.1037 34.6505L36.1075 34.7742ZM38.8622 30.3525C37.3976 31.3744 36.2667 32.9227 36.1098 34.6203L38.1013 34.8044C38.1886 33.8604 38.8679 32.7873 40.0067 31.9927L38.8622 30.3525ZM44.1187 29.8453C42.4964 29.077 40.5545 29.3392 38.9218 30.314L39.947 32.0312C41.1518 31.3119 42.3813 31.2354 43.2626 31.6528L44.1187 29.8453ZM41.8665 35.2498C43.5546 34.2421 44.584 32.5115 44.6888 30.8106L42.6926 30.6876C42.6304 31.6971 41.9907 32.8464 40.8413 33.5326L41.8665 35.2498ZM38.1035 29.4459C38.2013 28.4796 38.8978 27.361 39.9701 26.6809L38.8988 24.992C37.3879 25.9504 36.2821 27.5798 36.1136 29.2445L38.1035 29.4459ZM38.1129 29.471C38.1121 29.4126 38.1102 29.3544 38.1074 29.2962L36.1098 29.3942C36.1115 29.4298 36.1126 29.4653 36.1132 29.5006L38.1129 29.471ZM40.8413 28.1964C39.6416 28.9127 38.417 28.9917 37.5367 28.58L36.6894 30.3916C38.3079 31.1485 40.2404 30.8845 41.8665 29.9137L40.8413 28.1964ZM42.6926 25.3515C42.6304 26.3609 41.9907 27.5102 40.8413 28.1964L41.8665 29.9137C43.5546 28.9059 44.584 27.1754 44.6888 25.4744L42.6926 25.3515ZM39.947 26.6951C41.1518 25.9758 42.3813 25.8992 43.2626 26.3167L44.1187 24.5092C42.4964 23.7408 40.5545 24.0031 38.9218 24.9778L39.947 26.6951ZM57.6137 23.4766C57.6141 23.4082 57.6158 23.3396 57.619 23.2707L55.6211 23.1786C55.6167 23.2744 55.6142 23.3703 55.6137 23.4662L57.6137 23.4766ZM49.7635 23.726C52.0545 25.1211 54.933 25.4883 57.0802 24.356L56.1473 22.5869C54.7906 23.3023 52.6756 23.1577 50.8037 22.0178L49.7635 23.726ZM45.862 17.3663C45.862 19.8244 47.4498 22.2236 49.7389 23.7105L50.8284 22.0333C48.9447 20.8097 47.862 18.9739 47.862 17.3663H45.862ZM53.7247 17.1051C51.4285 15.7069 48.5414 15.341 46.3925 16.4834L47.3314 18.2493C48.6876 17.5283 50.8078 17.6706 52.6845 18.8133L53.7247 17.1051ZM57.6188 23.1736C57.4985 20.8197 55.9517 18.5512 53.7493 17.1206L52.6598 18.7979C54.4661 19.9711 55.5416 21.7135 55.6214 23.2756L57.6188 23.1736ZM58.7946 23.4648L58.7946 23.1025L56.7946 23.1025L56.7946 23.4648L58.7946 23.4648ZM63.6171 22.0178C61.7475 23.1563 59.6999 23.3103 58.2471 22.5731L57.3421 24.3566C59.5613 25.4827 62.3542 25.1285 64.6573 23.726L63.6171 22.0178ZM66.5589 17.3663C66.5589 19.0675 65.468 20.8907 63.6171 22.0178L64.6573 23.726C66.9792 22.3121 68.5589 19.9002 68.5589 17.3663H66.5589ZM61.7364 18.8133C63.606 17.6748 65.6536 17.5209 67.1064 18.2581L68.0114 16.4746C65.7922 15.3484 62.9993 15.7026 60.6962 17.1051L61.7364 18.8133ZM58.7938 23.143C58.8547 21.641 59.9026 19.9588 61.746 18.8074L60.6865 17.1111C58.4476 18.5095 56.8902 20.7261 56.7954 23.062L58.7938 23.143ZM56.7946 24.7475V27.4201H58.7946V24.7475H56.7946ZM59.9684 24.1545C59.3285 24.1318 58.7091 24.0198 58.142 23.8097L57.4473 25.6852C58.2402 25.9789 59.0738 26.124 59.8974 26.1532L59.9684 24.1545ZM58.6348 27.9623C59.1143 27.2194 59.7528 26.5319 60.5282 25.9573L59.3376 24.3504C58.3722 25.0657 57.5666 25.9292 56.9544 26.8779L58.6348 27.9623ZM58.7946 31.0879L58.7946 30.7256L56.7946 30.7256L56.7946 31.0879L58.7946 31.0879ZM63.6171 29.6409C61.7475 30.7794 59.6999 30.9334 58.2471 30.1961L57.3421 31.9796C59.5613 33.1058 62.3542 32.7516 64.6573 31.3491L63.6171 29.6409ZM66.5589 24.9894C66.5589 26.6906 65.468 28.5138 63.6171 29.6409L64.6573 31.3491C66.9792 29.9351 68.5589 27.5233 68.5589 24.9894H66.5589ZM61.7364 26.4364C63.606 25.2979 65.6536 25.1439 67.1064 25.8812L68.0114 24.0977C65.7922 22.9715 62.9993 23.3257 60.6962 24.7282L61.7364 26.4364ZM58.7938 30.7661C58.8547 29.2641 59.9026 27.5818 61.746 26.4305L60.6865 24.7342C58.4476 26.1325 56.8902 28.3492 56.7954 30.6851L58.7938 30.7661ZM57.4767 26.9415C56.8784 25.9741 56.0811 25.0905 55.1194 24.3556L53.905 25.9448C54.6771 26.5347 55.3082 27.2374 55.7758 27.9935L57.4767 26.9415ZM55.6262 24.6882V27.4675H57.6262V24.6882H55.6262ZM54.5576 26.1492C55.4142 26.1102 56.2368 25.95 57.0269 25.6044L56.2256 23.772C55.7023 24.0008 55.1291 24.1211 54.4668 24.1512L54.5576 26.1492ZM55.6262 32.3594V35.0906H57.6262V32.3594H55.6262ZM54.6826 33.8464C55.5184 33.7856 56.2923 33.5889 57.0184 33.2793L56.234 31.4395C55.7034 31.6658 55.145 31.8075 54.5374 31.8517L54.6826 33.8464ZM57.4767 34.5646C56.901 33.6337 56.1411 32.7806 55.228 32.0629L53.9921 33.6353C54.7247 34.2111 55.3259 34.8892 55.7758 35.6166L57.4767 34.5646ZM58.7946 35.0432V32.4552H56.7946V35.0432H58.7946ZM59.2193 32.0624C58.3063 32.7599 57.5415 33.5912 56.9544 34.5009L58.6348 35.5854C59.0946 34.8731 59.7005 34.2116 60.4334 33.6518L59.2193 32.0624ZM57.4473 33.393C58.2018 33.6725 58.993 33.8173 59.7772 33.8559L59.8755 31.8583C59.2684 31.8284 58.6815 31.7174 58.142 31.5175L57.4473 33.393ZM58.7946 38.711L58.7946 38.3487L56.7946 38.3487L56.7946 38.711L58.7946 38.711ZM63.6171 37.264C61.7475 38.4025 59.6999 38.5564 58.2471 37.8192L57.3421 39.6027C59.5613 40.7289 62.3542 40.3747 64.6573 38.9722L63.6171 37.264ZM66.5589 32.6125C66.5589 34.3137 65.468 36.1369 63.6171 37.264L64.6573 38.9722C66.9792 37.5582 68.5589 35.1464 68.5589 32.6125H66.5589ZM61.7364 34.0595C63.606 32.921 65.6536 32.767 67.1064 33.5043L68.0114 31.7208C65.7922 30.5946 62.9993 30.9488 60.6962 32.3513L61.7364 34.0595ZM58.7938 38.3892C58.8547 36.8872 59.9026 35.2049 61.746 34.0536L60.6865 32.3573C58.4476 33.7556 56.8902 35.9723 56.7954 38.3082L58.7938 38.3892ZM52.1213 31.5794C51.9466 31.5284 51.7725 31.4705 51.5994 31.4054L50.8955 33.2775C51.1163 33.3605 51.3386 33.4344 51.5616 33.4995L52.1213 31.5794ZM53.7247 32.3513C53.2321 32.0514 52.7182 31.8016 52.1948 31.6039L51.4882 33.4749C51.8959 33.6289 52.2981 33.8242 52.6845 34.0595L53.7247 32.3513ZM57.6212 38.4726C57.5218 36.0996 55.9675 33.8076 53.7493 32.3668L52.6598 34.044C54.4801 35.2264 55.5572 36.9857 55.623 38.5563L57.6212 38.4726ZM57.6146 38.7364C57.6157 38.6802 57.6177 38.6238 57.6207 38.5672L55.6235 38.4618C55.6194 38.5403 55.6165 38.6189 55.615 38.6976L57.6146 38.7364ZM49.7635 38.9722C52.0549 40.3675 54.9341 40.7346 57.0815 39.6015L56.1481 37.8326C54.7914 38.5485 52.676 38.4041 50.8037 37.264L49.7635 38.9722ZM45.862 32.6125C45.862 35.0706 47.4498 37.4698 49.7389 38.9567L50.8284 37.2794C48.9447 36.0559 47.862 34.2201 47.862 32.6125H45.862ZM51.5255 31.3809C49.7807 30.8758 47.9048 30.9255 46.3925 31.7295L47.3314 33.4955C48.2736 32.9946 49.5889 32.9024 50.9694 33.302L51.5255 31.3809ZM57.6146 31.1133C57.6157 31.0571 57.6177 31.0007 57.6207 30.9442L55.6235 30.8386C55.6193 30.9172 55.6165 30.9959 55.615 31.0746L57.6146 31.1133ZM49.7635 31.3491C52.0549 32.7444 54.9341 33.1115 57.0815 31.9784L56.1481 30.2095C54.7914 30.9255 52.676 30.781 50.8037 29.6409L49.7635 31.3491ZM45.862 24.9894C45.862 27.4475 47.4498 29.8467 49.7389 31.3336L50.8284 29.6564C48.9447 28.4328 47.862 26.597 47.862 24.9894H45.862ZM53.7247 24.7282C51.4285 23.33 48.5414 22.964 46.3925 24.1064L47.3314 25.8724C48.6876 25.1514 50.8078 25.2936 52.6845 26.4364L53.7247 24.7282ZM57.6212 30.8495C57.5218 28.4765 55.9675 26.1846 53.7493 24.7437L52.6598 26.4209C54.4801 27.6033 55.5572 29.3626 55.623 30.9332L57.6212 30.8495Z" fill="#BDACA8" mask="url(#path-1-inside-1)"/>
<path d="M9.08349 101.9H4.53349L3.66549 104H1.34149L5.70949 94.2H7.94949L12.3315 104H9.95149L9.08349 101.9ZM8.36949 100.178L6.81549 96.426L5.26149 100.178H8.36949ZM20.5331 96.048H15.8711L15.8851 104H13.6311V94.2H20.5471L20.5331 96.048ZM26.1719 94.2C27.0399 94.2 27.7912 94.3447 28.4259 94.634C29.0699 94.9233 29.5646 95.334 29.9099 95.866C30.2552 96.398 30.4279 97.028 30.4279 97.756C30.4279 98.4747 30.2552 99.1047 29.9099 99.646C29.5646 100.178 29.0699 100.589 28.4259 100.878C27.7912 101.158 27.0399 101.298 26.1719 101.298H24.1979V104H21.9299V94.2H26.1719ZM26.0459 99.45C26.7272 99.45 27.2452 99.3053 27.5999 99.016C27.9546 98.7173 28.1319 98.2973 28.1319 97.756C28.1319 97.2053 27.9546 96.7853 27.5999 96.496C27.2452 96.1973 26.7272 96.048 26.0459 96.048H24.1979V99.45H26.0459ZM36.7368 104.168C35.7194 104.168 34.8001 103.949 33.9788 103.51C33.1668 103.071 32.5274 102.469 32.0608 101.704C31.6034 100.929 31.3748 100.061 31.3748 99.1C31.3748 98.1387 31.6034 97.2753 32.0608 96.51C32.5274 95.7353 33.1668 95.1287 33.9788 94.69C34.8001 94.2513 35.7194 94.032 36.7368 94.032C37.7541 94.032 38.6688 94.2513 39.4808 94.69C40.2928 95.1287 40.9321 95.7353 41.3988 96.51C41.8654 97.2753 42.0988 98.1387 42.0988 99.1C42.0988 100.061 41.8654 100.929 41.3988 101.704C40.9321 102.469 40.2928 103.071 39.4808 103.51C38.6688 103.949 37.7541 104.168 36.7368 104.168ZM36.7368 102.236C37.3154 102.236 37.8381 102.105 38.3048 101.844C38.7714 101.573 39.1354 101.2 39.3968 100.724C39.6674 100.248 39.8028 99.7067 39.8028 99.1C39.8028 98.4933 39.6674 97.952 39.3968 97.476C39.1354 97 38.7714 96.6313 38.3048 96.37C37.8381 96.0993 37.3154 95.964 36.7368 95.964C36.1581 95.964 35.6354 96.0993 35.1688 96.37C34.7021 96.6313 34.3334 97 34.0628 97.476C33.8014 97.952 33.6708 98.4933 33.6708 99.1C33.6708 99.7067 33.8014 100.248 34.0628 100.724C34.3334 101.2 34.7021 101.573 35.1688 101.844C35.6354 102.105 36.1581 102.236 36.7368 102.236ZM48.4799 104.168C47.4813 104.168 46.5759 103.953 45.7639 103.524C44.9613 103.085 44.3266 102.483 43.8599 101.718C43.4026 100.943 43.1739 100.071 43.1739 99.1C43.1739 98.1293 43.4026 97.2613 43.8599 96.496C44.3266 95.7213 44.9613 95.1193 45.7639 94.69C46.5759 94.2513 47.4859 94.032 48.4939 94.032C49.3433 94.032 50.1086 94.1813 50.7899 94.48C51.4806 94.7787 52.0593 95.208 52.5259 95.768L51.0699 97.112C50.4073 96.3467 49.5859 95.964 48.6059 95.964C47.9993 95.964 47.4579 96.0993 46.9819 96.37C46.5059 96.6313 46.1326 97 45.8619 97.476C45.6006 97.952 45.4699 98.4933 45.4699 99.1C45.4699 99.7067 45.6006 100.248 45.8619 100.724C46.1326 101.2 46.5059 101.573 46.9819 101.844C47.4579 102.105 47.9993 102.236 48.6059 102.236C49.5859 102.236 50.4073 101.849 51.0699 101.074L52.5259 102.418C52.0593 102.987 51.4806 103.421 50.7899 103.72C50.0993 104.019 49.3293 104.168 48.4799 104.168ZM61.5921 102.18V104H54.0041V94.2H61.4101V96.02H56.2581V98.148H60.8081V99.912H56.2581V102.18H61.5921ZM67.2181 100.052H65.6501V104H63.3961V94.2H65.6501V98.162H67.2741L69.8501 94.2H72.2441L69.0381 98.932L72.3421 104H69.7661L67.2181 100.052ZM80.7851 96.048H77.6491V104H75.4091V96.048H72.2871V94.2H80.7851V96.048ZM86.7485 104.168C85.7312 104.168 84.8118 103.949 83.9905 103.51C83.1785 103.071 82.5392 102.469 82.0725 101.704C81.6152 100.929 81.3865 100.061 81.3865 99.1C81.3865 98.1387 81.6152 97.2753 82.0725 96.51C82.5392 95.7353 83.1785 95.1287 83.9905 94.69C84.8118 94.2513 85.7312 94.032 86.7485 94.032C87.7658 94.032 88.6805 94.2513 89.4925 94.69C90.3045 95.1287 90.9438 95.7353 91.4105 96.51C91.8772 97.2753 92.1105 98.1387 92.1105 99.1C92.1105 100.061 91.8772 100.929 91.4105 101.704C90.9438 102.469 90.3045 103.071 89.4925 103.51C88.6805 103.949 87.7658 104.168 86.7485 104.168ZM86.7485 102.236C87.3272 102.236 87.8498 102.105 88.3165 101.844C88.7832 101.573 89.1472 101.2 89.4085 100.724C89.6792 100.248 89.8145 99.7067 89.8145 99.1C89.8145 98.4933 89.6792 97.952 89.4085 97.476C89.1472 97 88.7832 96.6313 88.3165 96.37C87.8498 96.0993 87.3272 95.964 86.7485 95.964C86.1698 95.964 85.6472 96.0993 85.1805 96.37C84.7138 96.6313 84.3452 97 84.0745 97.476C83.8132 97.952 83.6825 98.4933 83.6825 99.1C83.6825 99.7067 83.8132 100.248 84.0745 100.724C84.3452 101.2 84.7138 101.573 85.1805 101.844C85.6472 102.105 86.1698 102.236 86.7485 102.236ZM98.0996 94.2C98.9676 94.2 99.719 94.3447 100.354 94.634C100.998 94.9233 101.492 95.334 101.838 95.866C102.183 96.398 102.356 97.028 102.356 97.756C102.356 98.4747 102.183 99.1047 101.838 99.646C101.492 100.178 100.998 100.589 100.354 100.878C99.719 101.158 98.9676 101.298 98.0996 101.298H96.1256V104H93.8576V94.2H98.0996ZM97.9736 99.45C98.655 99.45 99.173 99.3053 99.5276 99.016C99.8823 98.7173 100.06 98.2973 100.06 97.756C100.06 97.2053 99.8823 96.7853 99.5276 96.496C99.173 96.1973 98.655 96.048 97.9736 96.048H96.1256V99.45H97.9736Z" fill="#BDACA8"/>
</svg>
