<svg width="144" height="105" viewBox="0 0 144 105" fill="none" xmlns="http://www.w3.org/2000/svg">
<mask id="path-1-inside-1" fill="white">
<path fill-rule="evenodd" clip-rule="evenodd" d="M44.9119 33.7983C44.9119 18.4317 57.1819 6 72.2867 6C87.3915 6 99.6615 18.4317 99.6615 33.7983C99.6615 37.237 99.047 40.5288 97.9239 43.5672H77.7402C77.7745 43.4847 77.7947 43.3906 77.7947 43.2863V40.0783C78.5621 40.3626 79.3885 40.4897 80.2149 40.4897C81.7171 40.4897 83.3028 39.9815 84.7215 39.2192C87.3086 37.6099 88.8108 34.8994 88.6439 32.3584C88.6439 32.189 88.5605 32.0196 88.3936 31.9349C87.5468 31.4061 86.5603 31.1094 85.5184 31.0398C87.6126 29.4054 88.7929 27.0029 88.6439 24.7353C88.6439 24.5659 88.5605 24.3965 88.3936 24.3118C87.5192 23.7657 86.4958 23.4672 85.4162 23.4107C87.5742 21.7752 88.7953 19.3317 88.6439 17.0275C88.6439 16.8581 88.5605 16.6887 88.3936 16.604C86.2237 15.2488 83.1359 15.4182 80.5488 17.0275C79.3997 17.7423 78.4646 18.6744 77.7947 19.7123V16.8596C77.7947 16.5208 77.5444 16.2667 77.2106 16.2667C76.8767 16.2667 76.6264 16.5208 76.6264 16.8596V19.7597C75.9517 18.6688 74.9865 17.6878 73.7889 16.9428C71.2018 15.3335 68.1139 15.1641 65.9441 16.5193C65.7772 16.604 65.6937 16.7734 65.6937 16.9428C65.5424 19.247 66.7635 21.6905 68.9215 23.326C67.8418 23.3825 66.8184 23.681 65.9441 24.2271C65.7772 24.3118 65.6937 24.4812 65.6937 24.6506C65.5448 26.9182 66.725 29.3207 68.8193 30.9551C67.7773 31.0247 66.7908 31.3214 65.9441 31.8502C65.7772 31.9349 65.6937 32.1043 65.6937 32.2737C65.5268 34.8147 67.029 37.5252 69.6161 39.1345C71.0349 40.0662 72.6205 40.4897 74.1227 40.4897C75.0352 40.4897 75.8589 40.3097 76.6264 39.9825V43.371C76.6264 43.4404 76.6369 43.5063 76.6565 43.5672H57.0547C57.0826 43.4847 57.0978 43.3906 57.0978 43.2863V41.4894C57.5814 41.6633 58.1165 41.7602 58.6835 41.7602C59.7684 41.7602 60.9368 41.4214 61.9382 40.7438C63.7742 39.6427 64.9426 37.6099 64.7757 35.7464C64.7757 35.577 64.6922 35.4076 64.5253 35.3229C63.9971 35.0126 63.3948 34.815 62.7585 34.7333C64.1112 33.5815 64.9161 31.8936 64.7757 30.3256C64.7757 30.1562 64.6922 29.9868 64.5253 29.9021C63.9971 29.5917 63.3948 29.3941 62.7585 29.3125C64.1112 28.1606 64.9161 26.4727 64.7757 24.9047C64.7757 24.7353 64.6922 24.5659 64.5253 24.4812C62.9397 23.5495 60.6864 23.6342 58.8504 24.82C58.1599 25.2341 57.5639 25.7799 57.0978 26.399V24.5674C57.0978 24.2286 56.8474 23.9745 56.5136 23.9745C56.1798 23.9745 55.9294 24.2286 55.9294 24.5674V26.4129C55.4765 25.8397 54.9102 25.3245 54.2603 24.9047C52.4243 23.7189 50.171 23.6342 48.5854 24.5659C48.4185 24.6506 48.335 24.82 48.335 24.9894C48.1936 26.5684 49.0109 28.2083 50.3808 29.3936C49.734 29.4729 49.1215 29.6717 48.5854 29.9868C48.4185 30.0715 48.335 30.2409 48.335 30.4103C48.1936 31.9893 49.0109 33.6291 50.3809 34.8144C49.734 34.8938 49.1215 35.0926 48.5854 35.4076C48.4185 35.4923 48.335 35.6617 48.335 35.8312C48.1681 37.6946 49.3365 39.6427 51.1725 40.8285C52.1739 41.4214 53.3423 41.7602 54.4272 41.7602C54.9342 41.7602 55.4412 41.6977 55.9294 41.5537V43.371C55.9294 43.4404 55.9399 43.5063 55.9595 43.5672H47.505H47.504H46.6495C45.5263 40.5288 44.9119 37.237 44.9119 33.7983ZM47.119 44.753H47.504C48.7659 45.5207 57.1102 50.6876 60.185 58.7392C54.3549 55.8166 49.6949 50.8479 47.119 44.753ZM49.5229 44.753C52.7702 46.9306 59.3548 52.0573 61.6847 59.4345C63.0924 60.0356 64.5598 60.5205 66.0754 60.8777C62.8062 51.1033 52.9209 44.9788 52.8416 44.9788C52.6998 44.9429 52.5882 44.8611 52.513 44.753H49.5229ZM54.6827 44.753C57.8026 46.9267 64.8484 52.6914 67.3559 61.1467C68.7771 61.4093 70.2364 61.5604 71.7246 61.5909C68.7131 51.4022 58.3474 44.9788 58.2662 44.9788C58.1244 44.9429 58.0128 44.8611 57.9376 44.753H54.6827ZM77.1059 61.1671C75.7649 61.409 74.3903 61.5518 72.9898 61.5876C70.5994 52.8918 63.312 46.9643 60.1168 44.753H63.6012C63.6696 44.8189 63.7559 44.8683 63.8577 44.8941C63.8622 44.8987 63.8981 44.9226 63.9624 44.9653L63.9624 44.9653C65.042 45.6821 74.1246 51.7134 77.1059 61.1671ZM78.304 60.9226C75.7517 52.6418 68.8276 46.9771 65.7245 44.753H69.0258C69.0942 44.8189 69.1805 44.8683 69.2823 44.8941C69.2868 44.8987 69.3182 44.9198 69.374 44.9574C70.313 45.5895 78.1668 50.8758 81.0813 60.1305C80.1758 60.4423 79.2491 60.7073 78.304 60.9226ZM97.4544 44.753H71.1512C71.771 45.2097 72.5399 45.8145 73.3883 46.5661C73.4775 46.5261 73.5843 46.5035 73.7015 46.5035H96.642C96.9321 45.9313 97.2031 45.3475 97.4544 44.753ZM96.1942 47.3505C95.8759 47.9282 95.5379 48.4932 95.1811 49.0445H76.1698C76.0866 49.0445 76.0089 49.0575 75.9398 49.0811C75.3637 48.4489 74.7929 47.872 74.2435 47.3505H96.1942ZM76.6542 49.8915H94.6106C94.2032 50.4732 93.7742 51.0383 93.325 51.5855H78.0014C77.5584 50.9871 77.1067 50.4224 76.6542 49.8915ZM78.6063 52.4325C78.9781 52.9725 79.3409 53.5372 79.6897 54.1266H90.9585C91.5293 53.5858 92.0772 53.0206 92.6008 52.4325H78.6063ZM81.0311 56.685C80.7601 56.0946 80.4724 55.5241 80.1716 54.9736H90.0227C89.3284 55.5737 88.6043 56.1392 87.8529 56.6676H81.1994C81.1403 56.6676 81.0838 56.6736 81.0311 56.685ZM81.395 57.5146C81.6911 58.2217 81.9623 58.9555 82.2032 59.7161C83.7312 59.1128 85.1927 58.3741 86.5736 57.5146H81.395ZM101.661 33.7983C101.661 46.5873 93.7142 57.5082 82.5425 61.7306C82.4674 61.8188 82.3572 61.8837 82.2179 61.919H82.0509C82.0441 61.919 82.0373 61.9189 82.0305 61.9186C78.9821 63.0054 75.703 63.5966 72.2867 63.5966C56.0495 63.5966 42.9119 50.2415 42.9119 33.7983C42.9119 17.3552 56.0495 4 72.2867 4C88.5239 4 101.661 17.3552 101.661 33.7983ZM55.9294 28.7998V29.4321C54.6911 29.979 53.1441 29.7987 51.7567 28.9704C50.3379 28.1234 49.4199 26.6834 49.4199 25.3282C50.5883 24.7353 52.2574 24.9047 53.6761 25.7517C54.8887 26.4757 55.6745 27.6327 55.9294 28.7998ZM55.9294 30.712C55.631 30.8 55.3255 30.8576 55.0173 30.889C55.3566 31.1787 55.6627 31.4962 55.9294 31.8338V30.712ZM57.0978 31.8198V30.6477C57.3779 30.7484 57.6752 30.8233 57.9859 30.8685C57.654 31.1565 57.356 31.4769 57.0978 31.8198ZM55.9294 34.2206V34.8529C54.6911 35.3998 53.1441 35.2195 51.7567 34.3912C50.3379 33.5442 49.4199 32.1043 49.4199 30.7491C50.5883 30.1562 52.2574 30.3256 53.6761 31.1726C54.8887 31.8965 55.6745 33.0535 55.9294 34.2206ZM55.9294 36.1328V37.2546C55.6627 36.9171 55.3566 36.5996 55.0173 36.3099C55.3255 36.2784 55.631 36.2209 55.9294 36.1328ZM57.0978 37.2407V36.0686C57.3779 36.1692 57.6752 36.2441 57.9859 36.2893C57.654 36.5773 57.356 36.8978 57.0978 37.2407ZM55.9294 39.6415C55.6745 38.4744 54.8887 37.3174 53.6761 36.5935C52.2574 35.7464 50.5883 35.577 49.4199 36.17C49.4199 37.5252 50.3379 38.9651 51.7567 39.8121C53.1441 40.6404 54.6911 40.8207 55.9294 40.2738V39.6415ZM57.1057 40.1332C57.1079 40.1694 57.1097 40.2056 57.111 40.2418C58.3608 40.8273 59.9403 40.6561 61.354 39.8121C62.7728 38.9651 63.6073 37.5252 63.6908 36.1699C62.4389 35.577 60.8533 35.7464 59.4346 36.5935C58.1329 37.5017 57.2278 38.8124 57.1057 40.1332ZM61.354 34.3912C59.9403 35.2353 58.3608 35.4064 57.111 34.8209C57.1097 34.7847 57.1079 34.7485 57.1057 34.7123C57.2278 33.3915 58.1329 32.0808 59.4346 31.1726C60.8533 30.3256 62.4389 30.1562 63.6908 30.7491C63.6073 32.1043 62.7728 33.5442 61.354 34.3912ZM59.4346 25.8364C58.143 26.6557 57.2418 28.0297 57.1087 29.3452C57.111 29.3921 57.1125 29.4389 57.1132 29.4858C58.3626 30.0701 59.9411 29.8986 61.354 29.0551C62.7728 28.2081 63.6073 26.7681 63.6908 25.4129C62.4389 24.82 60.8533 24.9894 59.4346 25.8364ZM76.6202 23.2246C76.6164 23.3069 76.6143 23.3892 76.6138 23.4714C74.8619 24.3953 72.3652 24.1394 70.2838 22.8719C68.1974 21.5167 66.8621 19.3992 66.8621 17.3663C68.6146 16.4346 71.1183 16.6887 73.2047 17.9592C75.209 19.2612 76.5202 21.2666 76.6202 23.2246ZM77.7947 23.1023L77.7947 23.4648C79.6307 24.3965 82.051 24.1424 84.1373 22.8719C86.2237 21.6014 87.559 19.4839 87.559 17.3663C85.723 16.4346 83.3028 16.6887 81.2164 17.9592C79.1753 19.2341 77.8726 21.1834 77.7947 23.1023ZM77.7947 27.4201V24.7475C78.4748 24.9994 79.2013 25.1279 79.933 25.1538C79.0626 25.7988 78.3406 26.5743 77.7947 27.4201ZM77.7947 30.7254L77.7947 31.0879C79.6307 32.0196 82.051 31.7655 84.1373 30.495C86.2237 29.2245 87.559 27.1069 87.559 24.9894C85.723 24.0577 83.3028 24.3118 81.2164 25.5823C79.1753 26.8571 77.8726 28.8065 77.7947 30.7254ZM74.5123 25.1502C75.3792 25.8126 76.0934 26.6058 76.6264 27.4675V24.6882C75.9697 24.9754 75.2718 25.1157 74.5123 25.1502ZM76.6264 35.0906V32.3594C75.998 32.6273 75.3318 32.7965 74.6101 32.8491C75.433 33.4959 76.1136 34.2615 76.6264 35.0906ZM77.7947 32.4552V35.0432C78.3182 34.2321 79.0035 33.4857 79.8265 32.8571C79.1308 32.8229 78.4418 32.6949 77.7947 32.4552ZM77.7947 38.3485L77.7947 38.711C79.6307 39.6427 82.051 39.3886 84.1373 38.1181C86.2237 36.8476 87.559 34.73 87.559 32.6125C85.723 31.6808 83.3028 31.9349 81.2164 33.2054C79.1753 34.4802 77.8726 36.4296 77.7947 38.3485ZM71.2476 32.3415C71.4445 32.4155 71.6427 32.4814 71.8416 32.5394C72.3072 32.7153 72.7652 32.9378 73.2047 33.2054C75.2239 34.517 76.5396 36.5426 76.6222 38.5144C76.6187 38.582 76.6162 38.6495 76.6149 38.717C74.8629 39.6416 72.3656 39.3858 70.2838 38.1181C68.1974 36.7628 66.8621 34.6453 66.8621 32.6125C68.0893 31.9601 69.6849 31.8891 71.2476 32.3415ZM76.6222 30.8913C76.6187 30.9589 76.6162 31.0265 76.6149 31.094C74.8629 32.0185 72.3656 31.7627 70.2838 30.495C68.1974 29.1398 66.8621 27.0222 66.8621 24.9894C68.6146 24.0577 71.1183 24.3118 73.2047 25.5823C75.2239 26.8939 76.5396 28.9195 76.6222 30.8913Z"/>
</mask>
<path fill-rule="evenodd" clip-rule="evenodd" d="M44.9119 33.7983C44.9119 18.4317 57.1819 6 72.2867 6C87.3915 6 99.6615 18.4317 99.6615 33.7983C99.6615 37.237 99.047 40.5288 97.9239 43.5672H77.7402C77.7745 43.4847 77.7947 43.3906 77.7947 43.2863V40.0783C78.5621 40.3626 79.3885 40.4897 80.2149 40.4897C81.7171 40.4897 83.3028 39.9815 84.7215 39.2192C87.3086 37.6099 88.8108 34.8994 88.6439 32.3584C88.6439 32.189 88.5605 32.0196 88.3936 31.9349C87.5468 31.4061 86.5603 31.1094 85.5184 31.0398C87.6126 29.4054 88.7929 27.0029 88.6439 24.7353C88.6439 24.5659 88.5605 24.3965 88.3936 24.3118C87.5192 23.7657 86.4958 23.4672 85.4162 23.4107C87.5742 21.7752 88.7953 19.3317 88.6439 17.0275C88.6439 16.8581 88.5605 16.6887 88.3936 16.604C86.2237 15.2488 83.1359 15.4182 80.5488 17.0275C79.3997 17.7423 78.4646 18.6744 77.7947 19.7123V16.8596C77.7947 16.5208 77.5444 16.2667 77.2106 16.2667C76.8767 16.2667 76.6264 16.5208 76.6264 16.8596V19.7597C75.9517 18.6688 74.9865 17.6878 73.7889 16.9428C71.2018 15.3335 68.1139 15.1641 65.9441 16.5193C65.7772 16.604 65.6937 16.7734 65.6937 16.9428C65.5424 19.247 66.7635 21.6905 68.9215 23.326C67.8418 23.3825 66.8184 23.681 65.9441 24.2271C65.7772 24.3118 65.6937 24.4812 65.6937 24.6506C65.5448 26.9182 66.725 29.3207 68.8193 30.9551C67.7773 31.0247 66.7908 31.3214 65.9441 31.8502C65.7772 31.9349 65.6937 32.1043 65.6937 32.2737C65.5268 34.8147 67.029 37.5252 69.6161 39.1345C71.0349 40.0662 72.6205 40.4897 74.1227 40.4897C75.0352 40.4897 75.8589 40.3097 76.6264 39.9825V43.371C76.6264 43.4404 76.6369 43.5063 76.6565 43.5672H57.0547C57.0826 43.4847 57.0978 43.3906 57.0978 43.2863V41.4894C57.5814 41.6633 58.1165 41.7602 58.6835 41.7602C59.7684 41.7602 60.9368 41.4214 61.9382 40.7438C63.7742 39.6427 64.9426 37.6099 64.7757 35.7464C64.7757 35.577 64.6922 35.4076 64.5253 35.3229C63.9971 35.0126 63.3948 34.815 62.7585 34.7333C64.1112 33.5815 64.9161 31.8936 64.7757 30.3256C64.7757 30.1562 64.6922 29.9868 64.5253 29.9021C63.9971 29.5917 63.3948 29.3941 62.7585 29.3125C64.1112 28.1606 64.9161 26.4727 64.7757 24.9047C64.7757 24.7353 64.6922 24.5659 64.5253 24.4812C62.9397 23.5495 60.6864 23.6342 58.8504 24.82C58.1599 25.2341 57.5639 25.7799 57.0978 26.399V24.5674C57.0978 24.2286 56.8474 23.9745 56.5136 23.9745C56.1798 23.9745 55.9294 24.2286 55.9294 24.5674V26.4129C55.4765 25.8397 54.9102 25.3245 54.2603 24.9047C52.4243 23.7189 50.171 23.6342 48.5854 24.5659C48.4185 24.6506 48.335 24.82 48.335 24.9894C48.1936 26.5684 49.0109 28.2083 50.3808 29.3936C49.734 29.4729 49.1215 29.6717 48.5854 29.9868C48.4185 30.0715 48.335 30.2409 48.335 30.4103C48.1936 31.9893 49.0109 33.6291 50.3809 34.8144C49.734 34.8938 49.1215 35.0926 48.5854 35.4076C48.4185 35.4923 48.335 35.6617 48.335 35.8312C48.1681 37.6946 49.3365 39.6427 51.1725 40.8285C52.1739 41.4214 53.3423 41.7602 54.4272 41.7602C54.9342 41.7602 55.4412 41.6977 55.9294 41.5537V43.371C55.9294 43.4404 55.9399 43.5063 55.9595 43.5672H47.505H47.504H46.6495C45.5263 40.5288 44.9119 37.237 44.9119 33.7983ZM47.119 44.753H47.504C48.7659 45.5207 57.1102 50.6876 60.185 58.7392C54.3549 55.8166 49.6949 50.8479 47.119 44.753ZM49.5229 44.753C52.7702 46.9306 59.3548 52.0573 61.6847 59.4345C63.0924 60.0356 64.5598 60.5205 66.0754 60.8777C62.8062 51.1033 52.9209 44.9788 52.8416 44.9788C52.6998 44.9429 52.5882 44.8611 52.513 44.753H49.5229ZM54.6827 44.753C57.8026 46.9267 64.8484 52.6914 67.3559 61.1467C68.7771 61.4093 70.2364 61.5604 71.7246 61.5909C68.7131 51.4022 58.3474 44.9788 58.2662 44.9788C58.1244 44.9429 58.0128 44.8611 57.9376 44.753H54.6827ZM77.1059 61.1671C75.7649 61.409 74.3903 61.5518 72.9898 61.5876C70.5994 52.8918 63.312 46.9643 60.1168 44.753H63.6012C63.6696 44.8189 63.7559 44.8683 63.8577 44.8941C63.8622 44.8987 63.8981 44.9226 63.9624 44.9653L63.9624 44.9653C65.042 45.6821 74.1246 51.7134 77.1059 61.1671ZM78.304 60.9226C75.7517 52.6418 68.8276 46.9771 65.7245 44.753H69.0258C69.0942 44.8189 69.1805 44.8683 69.2823 44.8941C69.2868 44.8987 69.3182 44.9198 69.374 44.9574C70.313 45.5895 78.1668 50.8758 81.0813 60.1305C80.1758 60.4423 79.2491 60.7073 78.304 60.9226ZM97.4544 44.753H71.1512C71.771 45.2097 72.5399 45.8145 73.3883 46.5661C73.4775 46.5261 73.5843 46.5035 73.7015 46.5035H96.642C96.9321 45.9313 97.2031 45.3475 97.4544 44.753ZM96.1942 47.3505C95.8759 47.9282 95.5379 48.4932 95.1811 49.0445H76.1698C76.0866 49.0445 76.0089 49.0575 75.9398 49.0811C75.3637 48.4489 74.7929 47.872 74.2435 47.3505H96.1942ZM76.6542 49.8915H94.6106C94.2032 50.4732 93.7742 51.0383 93.325 51.5855H78.0014C77.5584 50.9871 77.1067 50.4224 76.6542 49.8915ZM78.6063 52.4325C78.9781 52.9725 79.3409 53.5372 79.6897 54.1266H90.9585C91.5293 53.5858 92.0772 53.0206 92.6008 52.4325H78.6063ZM81.0311 56.685C80.7601 56.0946 80.4724 55.5241 80.1716 54.9736H90.0227C89.3284 55.5737 88.6043 56.1392 87.8529 56.6676H81.1994C81.1403 56.6676 81.0838 56.6736 81.0311 56.685ZM81.395 57.5146C81.6911 58.2217 81.9623 58.9555 82.2032 59.7161C83.7312 59.1128 85.1927 58.3741 86.5736 57.5146H81.395ZM101.661 33.7983C101.661 46.5873 93.7142 57.5082 82.5425 61.7306C82.4674 61.8188 82.3572 61.8837 82.2179 61.919H82.0509C82.0441 61.919 82.0373 61.9189 82.0305 61.9186C78.9821 63.0054 75.703 63.5966 72.2867 63.5966C56.0495 63.5966 42.9119 50.2415 42.9119 33.7983C42.9119 17.3552 56.0495 4 72.2867 4C88.5239 4 101.661 17.3552 101.661 33.7983ZM55.9294 28.7998V29.4321C54.6911 29.979 53.1441 29.7987 51.7567 28.9704C50.3379 28.1234 49.4199 26.6834 49.4199 25.3282C50.5883 24.7353 52.2574 24.9047 53.6761 25.7517C54.8887 26.4757 55.6745 27.6327 55.9294 28.7998ZM55.9294 30.712C55.631 30.8 55.3255 30.8576 55.0173 30.889C55.3566 31.1787 55.6627 31.4962 55.9294 31.8338V30.712ZM57.0978 31.8198V30.6477C57.3779 30.7484 57.6752 30.8233 57.9859 30.8685C57.654 31.1565 57.356 31.4769 57.0978 31.8198ZM55.9294 34.2206V34.8529C54.6911 35.3998 53.1441 35.2195 51.7567 34.3912C50.3379 33.5442 49.4199 32.1043 49.4199 30.7491C50.5883 30.1562 52.2574 30.3256 53.6761 31.1726C54.8887 31.8965 55.6745 33.0535 55.9294 34.2206ZM55.9294 36.1328V37.2546C55.6627 36.9171 55.3566 36.5996 55.0173 36.3099C55.3255 36.2784 55.631 36.2209 55.9294 36.1328ZM57.0978 37.2407V36.0686C57.3779 36.1692 57.6752 36.2441 57.9859 36.2893C57.654 36.5773 57.356 36.8978 57.0978 37.2407ZM55.9294 39.6415C55.6745 38.4744 54.8887 37.3174 53.6761 36.5935C52.2574 35.7464 50.5883 35.577 49.4199 36.17C49.4199 37.5252 50.3379 38.9651 51.7567 39.8121C53.1441 40.6404 54.6911 40.8207 55.9294 40.2738V39.6415ZM57.1057 40.1332C57.1079 40.1694 57.1097 40.2056 57.111 40.2418C58.3608 40.8273 59.9403 40.6561 61.354 39.8121C62.7728 38.9651 63.6073 37.5252 63.6908 36.1699C62.4389 35.577 60.8533 35.7464 59.4346 36.5935C58.1329 37.5017 57.2278 38.8124 57.1057 40.1332ZM61.354 34.3912C59.9403 35.2353 58.3608 35.4064 57.111 34.8209C57.1097 34.7847 57.1079 34.7485 57.1057 34.7123C57.2278 33.3915 58.1329 32.0808 59.4346 31.1726C60.8533 30.3256 62.4389 30.1562 63.6908 30.7491C63.6073 32.1043 62.7728 33.5442 61.354 34.3912ZM59.4346 25.8364C58.143 26.6557 57.2418 28.0297 57.1087 29.3452C57.111 29.3921 57.1125 29.4389 57.1132 29.4858C58.3626 30.0701 59.9411 29.8986 61.354 29.0551C62.7728 28.2081 63.6073 26.7681 63.6908 25.4129C62.4389 24.82 60.8533 24.9894 59.4346 25.8364ZM76.6202 23.2246C76.6164 23.3069 76.6143 23.3892 76.6138 23.4714C74.8619 24.3953 72.3652 24.1394 70.2838 22.8719C68.1974 21.5167 66.8621 19.3992 66.8621 17.3663C68.6146 16.4346 71.1183 16.6887 73.2047 17.9592C75.209 19.2612 76.5202 21.2666 76.6202 23.2246ZM77.7947 23.1023L77.7947 23.4648C79.6307 24.3965 82.051 24.1424 84.1373 22.8719C86.2237 21.6014 87.559 19.4839 87.559 17.3663C85.723 16.4346 83.3028 16.6887 81.2164 17.9592C79.1753 19.2341 77.8726 21.1834 77.7947 23.1023ZM77.7947 27.4201V24.7475C78.4748 24.9994 79.2013 25.1279 79.933 25.1538C79.0626 25.7988 78.3406 26.5743 77.7947 27.4201ZM77.7947 30.7254L77.7947 31.0879C79.6307 32.0196 82.051 31.7655 84.1373 30.495C86.2237 29.2245 87.559 27.1069 87.559 24.9894C85.723 24.0577 83.3028 24.3118 81.2164 25.5823C79.1753 26.8571 77.8726 28.8065 77.7947 30.7254ZM74.5123 25.1502C75.3792 25.8126 76.0934 26.6058 76.6264 27.4675V24.6882C75.9697 24.9754 75.2718 25.1157 74.5123 25.1502ZM76.6264 35.0906V32.3594C75.998 32.6273 75.3318 32.7965 74.6101 32.8491C75.433 33.4959 76.1136 34.2615 76.6264 35.0906ZM77.7947 32.4552V35.0432C78.3182 34.2321 79.0035 33.4857 79.8265 32.8571C79.1308 32.8229 78.4418 32.6949 77.7947 32.4552ZM77.7947 38.3485L77.7947 38.711C79.6307 39.6427 82.051 39.3886 84.1373 38.1181C86.2237 36.8476 87.559 34.73 87.559 32.6125C85.723 31.6808 83.3028 31.9349 81.2164 33.2054C79.1753 34.4802 77.8726 36.4296 77.7947 38.3485ZM71.2476 32.3415C71.4445 32.4155 71.6427 32.4814 71.8416 32.5394C72.3072 32.7153 72.7652 32.9378 73.2047 33.2054C75.2239 34.517 76.5396 36.5426 76.6222 38.5144C76.6187 38.582 76.6162 38.6495 76.6149 38.717C74.8629 39.6416 72.3656 39.3858 70.2838 38.1181C68.1974 36.7628 66.8621 34.6453 66.8621 32.6125C68.0893 31.9601 69.6849 31.8891 71.2476 32.3415ZM76.6222 30.8913C76.6187 30.9589 76.6162 31.0265 76.6149 31.094C74.8629 32.0185 72.3656 31.7627 70.2838 30.495C68.1974 29.1398 66.8621 27.0222 66.8621 24.9894C68.6146 24.0577 71.1183 24.3118 73.2047 25.5823C75.2239 26.8939 76.5396 28.9195 76.6222 30.8913Z" fill="black"/>
<path d="M97.9239 43.5672V44.5672H98.6204L98.8618 43.9139L97.9239 43.5672ZM77.7402 43.5672L76.8167 43.1835L76.2419 44.5672H77.7402V43.5672ZM77.7947 40.0783L78.1421 39.1406L76.7947 38.6415V40.0783H77.7947ZM84.7215 39.2192L85.1948 40.1001L85.2228 40.0851L85.2497 40.0683L84.7215 39.2192ZM88.6439 32.3584H87.6439V32.3912L87.6461 32.424L88.6439 32.3584ZM88.3936 31.9349L87.8638 32.7831L87.9015 32.8066L87.941 32.8266L88.3936 31.9349ZM85.5184 31.0398L84.9031 30.2515L82.8381 31.8632L85.4518 32.0376L85.5184 31.0398ZM88.6439 24.7353H87.6439V24.7681L87.6461 24.8009L88.6439 24.7353ZM88.3936 24.3118L87.8638 25.16L87.9015 25.1835L87.941 25.2036L88.3936 24.3118ZM85.4162 23.4107L84.8122 22.6137L82.6315 24.2663L85.3639 24.4093L85.4162 23.4107ZM88.6439 17.0275H87.6439V17.0603L87.6461 17.0931L88.6439 17.0275ZM88.3936 16.604L87.8638 17.4522L87.9015 17.4757L87.941 17.4958L88.3936 16.604ZM80.5488 17.0275L80.0206 16.1784L80.0206 16.1784L80.5488 17.0275ZM77.7947 19.7123H76.7947V23.106L78.635 20.2546L77.7947 19.7123ZM76.6264 19.7597L75.7759 20.2857L77.6264 23.2777V19.7597H76.6264ZM73.7889 16.9428L73.2607 17.792L73.2607 17.792L73.7889 16.9428ZM65.9441 16.5193L66.3966 17.4111L66.4362 17.391L66.4738 17.3675L65.9441 16.5193ZM65.6937 16.9428L66.6916 17.0084L66.6937 16.9756V16.9428H65.6937ZM68.9215 23.326L68.9738 24.3246L71.7061 24.1816L69.5255 22.529L68.9215 23.326ZM65.9441 24.2271L66.3966 25.1189L66.4362 25.0988L66.4738 25.0753L65.9441 24.2271ZM65.6937 24.6506L66.6916 24.7162L66.6937 24.6834V24.6506H65.6937ZM68.8193 30.9551L68.8859 31.9529L71.4995 31.7785L69.4345 30.1668L68.8193 30.9551ZM65.9441 31.8502L66.3966 32.7419L66.4362 32.7219L66.4738 32.6984L65.9441 31.8502ZM65.6937 32.2737L66.6916 32.3392L66.6937 32.3065V32.2737H65.6937ZM69.6161 39.1345L70.165 38.2986L70.1548 38.2919L70.1443 38.2854L69.6161 39.1345ZM76.6264 39.9825H77.6264V38.469L76.2342 39.0626L76.6264 39.9825ZM76.6565 43.5672V44.5672H78.0289L77.6084 43.2607L76.6565 43.5672ZM57.0547 43.5672L56.1074 43.2469L55.6611 44.5672H57.0547V43.5672ZM57.0978 41.4894L57.4361 40.5484L56.0978 40.0672V41.4894H57.0978ZM61.9382 40.7438L61.4239 39.8862L61.4005 39.9003L61.3778 39.9156L61.9382 40.7438ZM64.7757 35.7464H63.7757V35.7911L63.7797 35.8357L64.7757 35.7464ZM64.5253 35.3229L64.0187 36.1851L64.0453 36.2007L64.0728 36.2147L64.5253 35.3229ZM62.7585 34.7333L62.1102 33.972L60.3892 35.4375L62.6312 35.7252L62.7585 34.7333ZM64.7757 30.3256H63.7757V30.3703L63.7797 30.4148L64.7757 30.3256ZM64.5253 29.9021L64.0187 30.7643L64.0453 30.7799L64.0728 30.7938L64.5253 29.9021ZM62.7585 29.3125L62.1102 28.5511L60.3892 30.0166L62.6312 30.3043L62.7585 29.3125ZM64.7757 24.9047H63.7757V24.9494L63.7797 24.9939L64.7757 24.9047ZM64.5253 24.4812L64.0187 25.3434L64.0453 25.359L64.0728 25.373L64.5253 24.4812ZM58.8504 24.82L59.3647 25.6776L59.3789 25.6691L59.3929 25.66L58.8504 24.82ZM57.0978 26.399H56.0978V29.3895L57.8967 27.0005L57.0978 26.399ZM55.9294 26.4129L55.1448 27.0329L56.9294 29.2911V26.4129H55.9294ZM54.2603 24.9047L54.8029 24.0647L54.8029 24.0647L54.2603 24.9047ZM48.5854 24.5659L49.0379 25.4577L49.0654 25.4437L49.092 25.4281L48.5854 24.5659ZM48.335 24.9894L49.331 25.0786L49.335 25.0341V24.9894H48.335ZM50.3808 29.3936L50.5026 30.3861L52.7392 30.1118L51.0352 28.6373L50.3808 29.3936ZM48.5854 29.9868L49.0379 30.8785L49.0654 30.8646L49.092 30.849L48.5854 29.9868ZM48.335 30.4103L49.331 30.4995L49.335 30.455V30.4103H48.335ZM50.3809 34.8144L50.5026 35.807L52.7393 35.5326L51.0352 34.0582L50.3809 34.8144ZM48.5854 35.4076L49.0379 36.2994L49.0654 36.2854L49.092 36.2698L48.5854 35.4076ZM48.335 35.8312L49.331 35.9204L49.335 35.8758V35.8312H48.335ZM51.1725 40.8285L50.6299 41.6685L50.6463 41.6791L50.663 41.689L51.1725 40.8285ZM55.9294 41.5537H56.9294V40.2161L55.6465 40.5945L55.9294 41.5537ZM55.9595 43.5672V44.5672H57.332L56.9114 43.2607L55.9595 43.5672ZM46.6495 43.5672L45.7115 43.9139L45.953 44.5672H46.6495V43.5672ZM47.504 44.753L48.0238 43.8987L47.7843 43.753H47.504V44.753ZM47.119 44.753V43.753H45.6107L46.1978 45.1423L47.119 44.753ZM60.185 58.7392L59.7369 59.6331L62.0372 60.7863L61.1192 58.3824L60.185 58.7392ZM61.6847 59.4345L60.7311 59.7356L60.8695 60.1737L61.292 60.3542L61.6847 59.4345ZM49.5229 44.753V43.753H46.2362L48.9659 45.5835L49.5229 44.753ZM66.0754 60.8777L65.846 61.851L67.5931 62.2627L67.0237 60.5605L66.0754 60.8777ZM52.8416 44.9788L52.5957 45.9481L52.7167 45.9788H52.8416V44.9788ZM52.513 44.753L53.3341 44.1822L53.0358 43.753H52.513V44.753ZM67.3559 61.1467L66.3971 61.431L66.5714 62.0187L67.1742 62.13L67.3559 61.1467ZM54.6827 44.753V43.753H51.4982L54.1111 45.5735L54.6827 44.753ZM71.7246 61.5909L71.7042 62.5907L73.0712 62.6187L72.6836 61.3074L71.7246 61.5909ZM58.2662 44.9788L58.0203 45.9481L58.1413 45.9788H58.2662V44.9788ZM57.9376 44.753L58.7587 44.1822L58.4604 43.753H57.9376V44.753ZM72.9898 61.5876L72.0256 61.8527L72.233 62.6074L73.0154 62.5873L72.9898 61.5876ZM77.1059 61.1671L77.2834 62.1512L78.4012 61.9495L78.0596 60.8663L77.1059 61.1671ZM60.1168 44.753V43.753H56.9146L59.5477 45.5753L60.1168 44.753ZM63.6012 44.753L64.295 44.0328L64.0045 43.753H63.6012V44.753ZM63.8577 44.8941L64.57 44.1923L64.3741 43.9935L64.1036 43.9249L63.8577 44.8941ZM63.9624 44.9653L64.5871 44.1844L64.5525 44.1567L64.5155 44.1322L63.9624 44.9653ZM63.9624 44.9653L63.3377 45.7462L63.3723 45.7738L63.4093 45.7983L63.9624 44.9653ZM65.7245 44.753V43.753H62.6127L65.1419 45.5658L65.7245 44.753ZM78.304 60.9226L77.3484 61.2172L77.6216 62.1037L78.5261 61.8976L78.304 60.9226ZM69.0258 44.753L69.7196 44.0328L69.4291 43.753H69.0258V44.753ZM69.2823 44.8941L69.9945 44.1921L69.7986 43.9935L69.5282 43.9249L69.2823 44.8941ZM69.374 44.9574L69.9323 44.1278L69.9323 44.1278L69.374 44.9574ZM81.0813 60.1305L81.4069 61.0761L82.3276 60.759L82.0351 59.8302L81.0813 60.1305ZM71.1512 44.753V43.753H68.1084L70.558 45.558L71.1512 44.753ZM97.4544 44.753L98.3755 45.1423L98.9627 43.753H97.4544V44.753ZM73.3883 46.5661L72.7252 47.3146L73.2085 47.7428L73.7976 47.4785L73.3883 46.5661ZM96.642 46.5035V47.5035H97.2562L97.5339 46.9556L96.642 46.5035ZM95.1811 49.0445V50.0445H95.725L96.0206 49.5878L95.1811 49.0445ZM96.1942 47.3505L97.07 47.833L97.8868 46.3505H96.1942V47.3505ZM75.9398 49.0811L75.2006 49.7547L75.6424 50.2395L76.2631 50.0274L75.9398 49.0811ZM74.2435 47.3505V46.3505H71.7376L73.555 48.0757L74.2435 47.3505ZM94.6106 49.8915L95.4297 50.4652L96.532 48.8915H94.6106V49.8915ZM76.6542 49.8915V48.8915H74.4877L75.8931 50.5402L76.6542 49.8915ZM93.325 51.5855V52.5855H93.7978L94.0979 52.22L93.325 51.5855ZM78.0014 51.5855L77.1976 52.1805L77.4974 52.5855H78.0014V51.5855ZM79.6897 54.1266L78.8291 54.6359L79.1195 55.1266H79.6897V54.1266ZM78.6063 52.4325V51.4325H76.7036L77.7827 52.9997L78.6063 52.4325ZM90.9585 54.1266V55.1266H91.357L91.6463 54.8525L90.9585 54.1266ZM92.6008 52.4325L93.3477 53.0975L94.8299 51.4325H92.6008V52.4325ZM80.1716 54.9736V53.9736H78.4858L79.294 55.453L80.1716 54.9736ZM81.0311 56.685L80.1222 57.1021L80.457 57.8314L81.2414 57.6626L81.0311 56.685ZM90.0227 54.9736L90.6766 55.7301L92.7087 53.9736H90.0227V54.9736ZM87.8529 56.6676V57.6676H88.1692L88.4281 57.4856L87.8529 56.6676ZM81.395 57.5146V56.5146H79.8923L80.4726 57.9008L81.395 57.5146ZM82.2032 59.7161L81.2499 60.0181L81.5736 61.0398L82.5705 60.6462L82.2032 59.7161ZM86.5736 57.5146L87.102 58.3635L90.0724 56.5146H86.5736V57.5146ZM82.5425 61.7306L82.189 60.7952L81.9481 60.8862L81.7811 61.0823L82.5425 61.7306ZM82.2179 61.919V62.919H82.3427L82.4638 62.8883L82.2179 61.919ZM82.0305 61.9186L82.0673 60.9193L81.8754 60.9123L81.6946 60.9767L82.0305 61.9186ZM55.9294 29.4321L56.3334 30.3468L56.9294 30.0836V29.4321H55.9294ZM55.9294 28.7998H56.9294V28.6918L56.9064 28.5864L55.9294 28.7998ZM51.7567 28.9704L52.2693 28.1117L52.2693 28.1117L51.7567 28.9704ZM49.4199 25.3282L48.9674 24.4365L48.4199 24.7143V25.3282H49.4199ZM53.6761 25.7517L53.1635 26.6104L53.1635 26.6104L53.6761 25.7517ZM55.0173 30.889L54.9158 29.8942L52.5903 30.1316L54.368 31.6495L55.0173 30.889ZM55.9294 30.712H56.9294V29.3744L55.6465 29.7528L55.9294 30.712ZM55.9294 31.8338L55.1449 32.4538L56.9294 34.712V31.8338H55.9294ZM57.0978 30.6477L57.4361 29.7067L56.0978 29.2255V30.6477H57.0978ZM57.0978 31.8198H56.0978V34.8104L57.8967 32.4213L57.0978 31.8198ZM57.9859 30.8685L58.6414 31.6237L60.2899 30.193L58.1299 29.8789L57.9859 30.8685ZM55.9294 34.8529L56.3334 35.7677L56.9294 35.5045V34.8529H55.9294ZM55.9294 34.2206H56.9294V34.1127L56.9064 34.0072L55.9294 34.2206ZM51.7567 34.3912L51.2441 35.2498L51.2441 35.2498L51.7567 34.3912ZM49.4199 30.7491L48.9674 29.8573L48.4199 30.1352V30.7491H49.4199ZM53.6761 31.1726L53.1635 32.0312L53.1635 32.0312L53.6761 31.1726ZM55.9294 37.2546L55.1449 37.8747L56.9294 40.1328V37.2546H55.9294ZM55.9294 36.1328H56.9294V34.7953L55.6465 35.1737L55.9294 36.1328ZM55.0173 36.3099L54.9158 35.3151L52.5903 35.5525L54.368 37.0704L55.0173 36.3099ZM57.0978 36.0686L57.4361 35.1275L56.0978 34.6464V36.0686H57.0978ZM57.0978 37.2407H56.0978V40.2313L57.8967 37.8422L57.0978 37.2407ZM57.9859 36.2893L58.6414 37.0446L60.2899 35.6139L58.1298 35.2997L57.9859 36.2893ZM53.6761 36.5935L54.1887 35.7348L54.1887 35.7348L53.6761 36.5935ZM55.9294 39.6415H56.9294V39.5336L56.9064 39.4281L55.9294 39.6415ZM49.4199 36.17L48.9674 35.2782L48.4199 35.556V36.17H49.4199ZM51.7567 39.8121L52.2693 38.9535L52.2693 38.9535L51.7567 39.8121ZM55.9294 40.2738L56.3334 41.1885L56.9294 40.9253V40.2738H55.9294ZM57.111 40.2418L56.1116 40.2775L56.1334 40.8881L56.6868 41.1474L57.111 40.2418ZM57.1057 40.1332L56.1099 40.0411L56.1028 40.118L56.1076 40.195L57.1057 40.1332ZM61.354 39.8121L60.8414 38.9535L60.8414 38.9535L61.354 39.8121ZM63.6908 36.1699L64.6889 36.2314L64.7305 35.5559L64.1188 35.2662L63.6908 36.1699ZM59.4346 36.5935L58.9219 35.7348L58.8915 35.753L58.8623 35.7734L59.4346 36.5935ZM57.111 34.8209L56.1116 34.8566L56.1334 35.4673L56.6868 35.7265L57.111 34.8209ZM61.354 34.3912L61.8666 35.2498L61.8666 35.2498L61.354 34.3912ZM57.1057 34.7123L56.1099 34.6203L56.1028 34.6971L56.1076 34.7741L57.1057 34.7123ZM59.4346 31.1726L58.9219 30.314L58.8915 30.3322L58.8623 30.3525L59.4346 31.1726ZM63.6908 30.7491L64.6889 30.8106L64.7305 30.135L64.1188 29.8453L63.6908 30.7491ZM57.1087 29.3452L56.1138 29.2445L56.1062 29.3191L56.1099 29.3941L57.1087 29.3452ZM59.4346 25.8364L58.9219 24.9778L58.9103 24.9847L58.8989 24.992L59.4346 25.8364ZM57.1132 29.4858L56.1133 29.5006L56.1226 30.1265L56.6896 30.3917L57.1132 29.4858ZM61.354 29.0551L61.8666 29.9137L61.8666 29.9137L61.354 29.0551ZM63.6908 25.4129L64.6889 25.4744L64.7305 24.7989L64.1188 24.5092L63.6908 25.4129ZM76.6138 23.4714L77.0803 24.356L77.6107 24.0763L77.6138 23.4766L76.6138 23.4714ZM76.6202 23.2246L77.6191 23.2706L77.6214 23.2221L77.6189 23.1735L76.6202 23.2246ZM70.2838 22.8719L69.739 23.7105L69.7512 23.7184L69.7636 23.726L70.2838 22.8719ZM66.8621 17.3663L66.3927 16.4834L65.8621 16.7654V17.3663H66.8621ZM73.2047 17.9592L73.7494 17.1206L73.7372 17.1127L73.7248 17.1051L73.2047 17.9592ZM77.7947 23.4648L76.7947 23.4648L76.7947 24.0787L77.3422 24.3566L77.7947 23.4648ZM77.7947 23.1023L76.7956 23.0618L76.7947 23.082L76.7947 23.1023L77.7947 23.1023ZM84.1373 22.8719L83.6172 22.0178L83.6172 22.0178L84.1373 22.8719ZM87.559 17.3663H88.559V16.7524L88.0115 16.4746L87.559 17.3663ZM81.2164 17.9592L80.6963 17.1051L80.6867 17.1111L81.2164 17.9592ZM77.7947 24.7475L78.1421 23.8097L76.7947 23.3107V24.7475H77.7947ZM77.7947 27.4201H76.7947V30.8138L78.635 27.9623L77.7947 27.4201ZM79.933 25.1538L80.5283 25.9573L82.8247 24.2559L79.9685 24.1545L79.933 25.1538ZM77.7947 31.0879L76.7947 31.0879L76.7947 31.7018L77.3422 31.9796L77.7947 31.0879ZM77.7947 30.7254L76.7956 30.6848L76.7947 30.7051L76.7947 30.7254L77.7947 30.7254ZM84.1373 30.495L83.6172 29.6409L83.6172 29.6409L84.1373 30.495ZM87.559 24.9894H88.559V24.3755L88.0115 24.0977L87.559 24.9894ZM81.2164 25.5823L80.6963 24.7282L80.6867 24.7342L81.2164 25.5823ZM76.6264 27.4675L75.7759 27.9935L77.6264 30.9855V27.4675H76.6264ZM74.5123 25.1502L74.4669 24.1512L71.7213 24.276L73.9052 25.9448L74.5123 25.1502ZM76.6264 24.6882H77.6264V23.1594L76.2257 23.772L76.6264 24.6882ZM76.6264 32.3594H77.6264V30.8459L76.2342 31.4395L76.6264 32.3594ZM76.6264 35.0906L75.7759 35.6166L77.6264 38.6086V35.0906H76.6264ZM74.6101 32.8491L74.5375 31.8517L71.9615 32.0392L73.9922 33.6353L74.6101 32.8491ZM77.7947 35.0432H76.7947V38.4369L78.635 35.5854L77.7947 35.0432ZM77.7947 32.4552L78.1421 31.5175L76.7947 31.0184V32.4552H77.7947ZM79.8265 32.8571L80.4335 33.6518L82.6054 31.9927L79.8756 31.8583L79.8265 32.8571ZM77.7947 38.711L76.7947 38.711L76.7947 39.3249L77.3422 39.6027L77.7947 38.711ZM77.7947 38.3485L76.7956 38.3079L76.7947 38.3282L76.7947 38.3485L77.7947 38.3485ZM84.1373 38.1181L83.6172 37.264L83.6172 37.264L84.1373 38.1181ZM87.559 32.6125H88.559V31.9986L88.0115 31.7208L87.559 32.6125ZM81.2164 33.2054L80.6963 32.3513L80.6867 32.3573L81.2164 33.2054ZM71.8416 32.5394L72.1949 31.6039L72.1586 31.5902L72.1214 31.5794L71.8416 32.5394ZM71.2476 32.3415L71.5996 31.4054L71.5631 31.3917L71.5256 31.3809L71.2476 32.3415ZM73.2047 33.2054L73.7494 32.3668L73.7372 32.3589L73.7248 32.3513L73.2047 33.2054ZM76.6222 38.5144L77.6208 38.5672L77.6233 38.5199L77.6213 38.4725L76.6222 38.5144ZM76.6149 38.717L77.0816 39.6015L77.6032 39.3262L77.6147 38.7365L76.6149 38.717ZM70.2838 38.1181L69.739 38.9567L69.7512 38.9646L69.7636 38.9722L70.2838 38.1181ZM66.8621 32.6125L66.3927 31.7295L65.8621 32.0116V32.6125H66.8621ZM76.6149 31.094L77.0816 31.9784L77.6032 31.7031L77.6147 31.1134L76.6149 31.094ZM76.6222 30.8913L77.6208 30.9441L77.6233 30.8968L77.6213 30.8495L76.6222 30.8913ZM70.2838 30.495L69.739 31.3336L69.7512 31.3415L69.7636 31.3491L70.2838 30.495ZM66.8621 24.9894L66.3927 24.1064L65.8621 24.3885V24.9894H66.8621ZM73.2047 25.5823L73.7494 24.7437L73.7372 24.7358L73.7248 24.7282L73.2047 25.5823ZM72.2867 5C56.6159 5 43.9119 17.8933 43.9119 33.7983H45.9119C45.9119 18.9701 57.7479 7 72.2867 7V5ZM100.661 33.7983C100.661 17.8933 87.9575 5 72.2867 5V7C86.8254 7 98.6615 18.9701 98.6615 33.7983H100.661ZM98.8618 43.9139C100.026 40.766 100.661 37.3569 100.661 33.7983H98.6615C98.6615 37.1172 98.0686 40.2916 96.9859 43.2204L98.8618 43.9139ZM77.7402 44.5672H97.9239V42.5672H77.7402V44.5672ZM76.7947 43.2863C76.7947 43.2589 76.8005 43.2226 76.8167 43.1835L78.6637 43.9508C78.7485 43.7467 78.7947 43.5223 78.7947 43.2863H76.7947ZM76.7947 40.0783V43.2863H78.7947V40.0783H76.7947ZM80.2149 39.4897C79.4888 39.4897 78.7823 39.3778 78.1421 39.1406L77.4474 41.0161C78.3418 41.3474 79.2882 41.4897 80.2149 41.4897V39.4897ZM84.2482 38.3383C82.9261 39.0487 81.5042 39.4897 80.2149 39.4897V41.4897C81.9301 41.4897 83.6794 40.9143 85.1948 40.1001L84.2482 38.3383ZM87.6461 32.424C87.7847 34.535 86.5235 36.9206 84.1933 38.3701L85.2497 40.0683C88.0938 38.2991 89.8369 35.2639 89.6418 32.2929L87.6461 32.424ZM87.941 32.8266C87.721 32.715 87.6439 32.5047 87.6439 32.3584H89.6439C89.6439 31.8733 89.4 31.3242 88.8461 31.0432L87.941 32.8266ZM85.4518 32.0376C86.3479 32.0974 87.1717 32.3508 87.8638 32.7831L88.9233 31.0867C87.922 30.4613 86.7728 30.1214 85.585 30.0421L85.4518 32.0376ZM87.6461 24.8009C87.7697 26.6829 86.7832 28.7842 84.9031 30.2515L86.1336 31.8282C88.4421 30.0265 89.8161 27.3229 89.6418 24.6698L87.6461 24.8009ZM87.941 25.2036C87.721 25.0919 87.6439 24.8816 87.6439 24.7353H89.6439C89.6439 24.2503 89.4 23.7011 88.8461 23.4201L87.941 25.2036ZM85.3639 24.4093C86.2939 24.458 87.1492 24.7136 87.8638 25.16L88.9233 23.4637C87.8893 22.8178 86.6977 22.4764 85.4684 22.412L85.3639 24.4093ZM87.6461 17.0931C87.7717 19.0057 86.7504 21.1448 84.8122 22.6137L86.0201 24.2077C88.3979 22.4057 89.8189 19.6577 89.6418 16.962L87.6461 17.0931ZM87.941 17.4958C87.721 17.3841 87.6439 17.1738 87.6439 17.0275H89.6439C89.6439 16.5425 89.4 15.9934 88.8461 15.7123L87.941 17.4958ZM81.077 17.8767C83.4168 16.4211 86.0877 16.3429 87.8638 17.4522L88.9233 15.7559C86.3597 14.1547 82.8549 14.4153 80.0206 16.1784L81.077 17.8767ZM78.635 20.2546C79.2236 19.3425 80.0514 18.5146 81.077 17.8767L80.0206 16.1784C78.7479 16.9701 77.7056 18.0062 76.9545 19.1701L78.635 20.2546ZM76.7947 16.8596V19.7123H78.7947V16.8596H76.7947ZM77.2106 17.2667C77.116 17.2667 77.0035 17.2273 76.9155 17.1379C76.8282 17.0493 76.7947 16.9423 76.7947 16.8596H78.7947C78.7947 15.9826 78.1106 15.2667 77.2106 15.2667V17.2667ZM77.6264 16.8596C77.6264 16.9423 77.5929 17.0493 77.5056 17.138C77.4176 17.2273 77.3051 17.2667 77.2106 17.2667V15.2667C76.3105 15.2667 75.6264 15.9825 75.6264 16.8596H77.6264ZM77.6264 19.7597V16.8596H75.6264V19.7597H77.6264ZM73.2607 17.792C74.3297 18.4569 75.1837 19.3281 75.7759 20.2857L77.4769 19.2337C76.7197 18.0095 75.6434 16.9187 74.3171 16.0937L73.2607 17.792ZM66.4738 17.3675C68.2499 16.2582 70.9208 16.3364 73.2607 17.792L74.3171 16.0937C71.4827 14.3306 67.9779 14.07 65.4143 15.6712L66.4738 17.3675ZM66.6937 16.9428C66.6937 17.0891 66.6167 17.2994 66.3966 17.4111L65.4915 15.6276C64.9377 15.9087 64.6937 16.4578 64.6937 16.9428H66.6937ZM69.5255 22.529C67.5872 21.0601 66.5659 18.921 66.6916 17.0084L64.6959 16.8773C64.5188 19.573 65.9397 22.321 68.3175 24.123L69.5255 22.529ZM66.4738 25.0753C67.1885 24.6289 68.0437 24.3733 68.9738 24.3246L68.8692 22.3273C67.64 22.3917 66.4484 22.7331 65.4143 23.379L66.4738 25.0753ZM66.6937 24.6506C66.6937 24.7969 66.6167 25.0072 66.3966 25.1189L65.4915 23.3354C64.9377 23.6164 64.6937 24.1656 64.6937 24.6506H66.6937ZM69.4345 30.1668C67.5545 28.6995 66.5679 26.5982 66.6916 24.7162L64.6959 24.5851C64.5216 27.2382 65.8955 29.9418 68.204 31.7435L69.4345 30.1668ZM66.4738 32.6984C67.1659 32.2661 67.9897 32.0127 68.8859 31.9529L68.7527 29.9574C67.5648 30.0367 66.4157 30.3766 65.4143 31.002L66.4738 32.6984ZM66.6937 32.2737C66.6937 32.42 66.6167 32.6303 66.3966 32.7419L65.4915 30.9584C64.9377 31.2395 64.6937 31.7886 64.6937 32.2737H66.6937ZM70.1443 38.2854C67.8142 36.8359 66.5529 34.4503 66.6916 32.3392L64.6959 32.2082C64.5007 35.1791 66.2438 38.2144 69.0879 39.9836L70.1443 38.2854ZM74.1227 39.4897C72.8065 39.4897 71.4133 39.1183 70.165 38.2986L69.0672 39.9703C70.6564 41.014 72.4345 41.4897 74.1227 41.4897V39.4897ZM76.2342 39.0626C75.588 39.3381 74.8974 39.4897 74.1227 39.4897V41.4897C75.1729 41.4897 76.1299 41.2813 77.0186 40.9023L76.2342 39.0626ZM77.6264 43.371V39.9825H75.6264V43.371H77.6264ZM77.6084 43.2607C77.6214 43.3013 77.6264 43.339 77.6264 43.371H75.6264C75.6264 43.5419 75.6523 43.7113 75.7046 43.8736L77.6084 43.2607ZM57.0547 44.5672H76.6565V42.5672H57.0547V44.5672ZM56.0978 43.2863C56.0978 43.2939 56.0967 43.2786 56.1074 43.2469L58.0021 43.8874C58.0685 43.6908 58.0978 43.4873 58.0978 43.2863H56.0978ZM56.0978 41.4894V43.2863H58.0978V41.4894H56.0978ZM58.6835 40.7602C58.2306 40.7602 57.8101 40.6828 57.4361 40.5484L56.7595 42.4305C57.3528 42.6438 58.0024 42.7602 58.6835 42.7602V40.7602ZM61.3778 39.9156C60.5419 40.4811 59.5688 40.7602 58.6835 40.7602V42.7602C59.968 42.7602 61.3316 42.3617 62.4986 41.572L61.3778 39.9156ZM63.7797 35.8357C63.906 37.2459 62.9974 38.9426 61.4239 39.8862L62.4525 41.6014C64.5511 40.3428 65.9792 37.9738 65.7717 35.6572L63.7797 35.8357ZM64.0728 36.2147C63.8527 36.103 63.7757 35.8927 63.7757 35.7464H65.7757C65.7757 35.2614 65.5317 34.7123 64.9779 34.4312L64.0728 36.2147ZM62.6312 35.7252C63.1455 35.7912 63.6168 35.949 64.0187 36.1851L65.0319 34.4608C64.3774 34.0762 63.6441 33.8388 62.8858 33.7415L62.6312 35.7252ZM63.7797 30.4148C63.8854 31.5945 63.2702 32.9842 62.1102 33.972L63.4068 35.4947C64.9522 34.1788 65.9469 32.1926 65.7717 30.2364L63.7797 30.4148ZM64.0728 30.7938C63.8527 30.6822 63.7757 30.4718 63.7757 30.3256H65.7757C65.7757 29.8405 65.5317 29.2914 64.9779 29.0103L64.0728 30.7938ZM62.6312 30.3043C63.1455 30.3703 63.6168 30.5281 64.0187 30.7643L65.0319 29.0399C64.3774 28.6553 63.6441 28.4179 62.8858 28.3206L62.6312 30.3043ZM63.7797 24.9939C63.8854 26.1737 63.2702 27.5633 62.1102 28.5511L63.4068 30.0738C64.9521 28.7579 65.9469 26.7717 65.7717 24.8155L63.7797 24.9939ZM64.0728 25.373C63.8527 25.2613 63.7757 25.051 63.7757 24.9047H65.7757C65.7757 24.4197 65.5317 23.8705 64.9779 23.5895L64.0728 25.373ZM59.3929 25.66C60.955 24.6511 62.8013 24.628 64.0187 25.3434L65.0319 23.619C63.0781 22.471 60.4177 22.6173 58.3078 23.98L59.3929 25.66ZM57.8967 27.0005C58.2874 26.4815 58.7877 26.0236 59.3647 25.6776L58.336 23.9624C57.5322 24.4445 56.8404 25.0784 56.2989 25.7975L57.8967 27.0005ZM56.0978 24.5674V26.399H58.0978V24.5674H56.0978ZM56.5136 24.9745C56.419 24.9745 56.3066 24.9351 56.2186 24.8458C56.1313 24.7571 56.0978 24.6501 56.0978 24.5674H58.0978C58.0978 23.6903 57.4136 22.9745 56.5136 22.9745V24.9745ZM56.9294 24.5674C56.9294 24.6501 56.896 24.7571 56.8087 24.8458C56.7207 24.9351 56.6082 24.9745 56.5136 24.9745V22.9745C55.6136 22.9745 54.9294 23.6903 54.9294 24.5674H56.9294ZM56.9294 26.4129V24.5674H54.9294V26.4129H56.9294ZM53.7178 25.7447C54.2778 26.1065 54.7616 26.548 55.1448 27.0329L56.714 25.7929C56.1913 25.1314 55.5426 24.5425 54.8029 24.0647L53.7178 25.7447ZM49.092 25.4281C50.3094 24.7127 52.1557 24.7358 53.7178 25.7447L54.8029 24.0647C52.693 22.702 50.0326 22.5557 48.0788 23.7037L49.092 25.4281ZM49.335 24.9894C49.335 25.1357 49.258 25.346 49.0379 25.4577L48.1328 23.6742C47.5789 23.9552 47.335 24.5044 47.335 24.9894H49.335ZM51.0352 28.6373C49.8387 27.6021 49.2256 26.2553 49.331 25.0786L47.339 24.9002C47.1615 26.8816 48.1832 28.8144 49.7265 30.1498L51.0352 28.6373ZM49.092 30.849C49.4999 30.6093 49.9793 30.4503 50.5026 30.3861L50.2591 28.401C49.4886 28.4955 48.7431 28.7342 48.0788 29.1246L49.092 30.849ZM49.335 30.4103C49.335 30.5565 49.258 30.7669 49.0379 30.8785L48.1328 29.095C47.5789 29.3761 47.335 29.9252 47.335 30.4103H49.335ZM51.0352 34.0582C49.8387 33.023 49.2256 31.6761 49.331 30.4995L47.339 30.3211C47.1615 32.3025 48.1832 34.2353 49.7265 35.5707L51.0352 34.0582ZM49.092 36.2698C49.4999 36.0301 49.9793 35.8712 50.5026 35.807L50.2591 33.8219C49.4886 33.9164 48.7431 34.1551 48.0788 34.5455L49.092 36.2698ZM49.335 35.8312C49.335 35.9774 49.258 36.1877 49.0379 36.2994L48.1328 34.5159C47.5789 34.797 47.335 35.3461 47.335 35.8312H49.335ZM51.715 39.9885C50.0954 38.9424 49.2063 37.3128 49.331 35.9204L47.339 35.7419C47.1299 38.0763 48.5775 40.343 50.6299 41.6685L51.715 39.9885ZM54.4272 40.7602C53.5384 40.7602 52.5443 40.4786 51.6819 39.968L50.663 41.689C51.8036 42.3643 53.1463 42.7602 54.4272 42.7602V40.7602ZM55.6465 40.5945C55.263 40.7077 54.8528 40.7602 54.4272 40.7602V42.7602C55.0156 42.7602 55.6194 42.6877 56.2123 42.5128L55.6465 40.5945ZM56.9294 43.371V41.5537H54.9294V43.371H56.9294ZM56.9114 43.2607C56.9245 43.3014 56.9294 43.339 56.9294 43.371H54.9294C54.9294 43.5418 54.9554 43.7113 55.0076 43.8736L56.9114 43.2607ZM47.505 44.5672H55.9595V42.5672H47.505V44.5672ZM47.504 44.5672H47.505V42.5672H47.504V44.5672ZM46.6495 44.5672H47.504V42.5672H46.6495V44.5672ZM43.9119 33.7983C43.9119 37.3569 44.5479 40.766 45.7115 43.9139L47.5874 43.2204C46.5048 40.2916 45.9119 37.1172 45.9119 33.7983H43.9119ZM47.504 43.753H47.119V45.753H47.504V43.753ZM61.1192 58.3824C59.504 54.1531 56.5257 50.7237 53.8381 48.2754C51.1421 45.8194 48.6793 44.2975 48.0238 43.8987L46.9843 45.6073C47.5907 45.9762 49.931 47.4216 52.4912 49.7539C55.0599 52.0939 57.7911 55.2737 59.2508 59.0959L61.1192 58.3824ZM46.1978 45.1423C48.8658 51.4549 53.6928 56.6033 59.7369 59.6331L60.6331 57.8452C55.0171 55.0299 50.524 50.2409 48.0401 44.3637L46.1978 45.1423ZM62.6382 59.1333C60.1993 51.4107 53.359 46.1215 50.0798 43.9224L48.9659 45.5835C52.1814 47.7398 58.5103 52.7039 60.7311 59.7356L62.6382 59.1333ZM66.3047 59.9043C64.8457 59.5605 63.4329 59.0936 62.0774 58.5148L61.292 60.3542C62.7519 60.9775 64.274 61.4806 65.846 61.851L66.3047 59.9043ZM52.8416 45.9788C52.6847 45.9788 52.5659 45.9401 52.5494 45.9351C52.509 45.9227 52.4783 45.9103 52.4638 45.9044C52.4335 45.8919 52.4116 45.8809 52.4054 45.8778C52.39 45.8701 52.382 45.8655 52.387 45.8683C52.394 45.8722 52.4133 45.8834 52.4471 45.904C52.513 45.9442 52.6152 46.0085 52.7503 46.0971C53.0196 46.2739 53.4105 46.5412 53.8909 46.8943C54.852 47.6007 56.1635 48.6447 57.5725 49.9869C60.4022 52.6824 63.5646 56.5236 65.127 61.1949L67.0237 60.5605C65.3169 55.4574 61.9022 51.3491 58.952 48.5388C57.4711 47.1281 56.0922 46.0301 55.0753 45.2828C54.5667 44.9089 54.1467 44.6214 53.8476 44.425C53.6984 44.3271 53.5768 44.2503 53.4876 44.196C53.4439 44.1694 53.4028 44.145 53.3675 44.1251C53.3513 44.116 53.3268 44.1025 53.2995 44.0888C53.2873 44.0827 53.2606 44.0696 53.2267 44.0556C53.2104 44.0489 53.1781 44.036 53.1365 44.0232C53.1188 44.0178 52.999 43.9788 52.8416 43.9788V45.9788ZM51.6919 45.3238C51.9013 45.6249 52.2149 45.8515 52.5957 45.9481L53.0875 44.0096C53.1848 44.0342 53.2751 44.0973 53.3341 44.1822L51.6919 45.3238ZM49.5229 45.753H52.513V43.753H49.5229V45.753ZM68.3146 60.8624C65.7078 52.0718 58.4252 46.1417 55.2544 43.9325L54.1111 45.5735C57.18 47.7117 63.9891 53.3109 66.3971 61.431L68.3146 60.8624ZM71.7451 60.5911C70.3112 60.5618 68.9059 60.4162 67.5376 60.1633L67.1742 62.13C68.6483 62.4024 70.1615 62.5591 71.7042 62.5907L71.7451 60.5911ZM58.2662 45.9788C58.1068 45.9788 57.9859 45.9388 57.9708 45.9341C57.9306 45.9216 57.9001 45.9092 57.8859 45.9033C57.856 45.8909 57.8345 45.8801 57.8286 45.8771C57.8138 45.8697 57.8064 45.8654 57.8119 45.8685C57.8201 45.8731 57.8409 45.8852 57.8765 45.9069C57.9459 45.9493 58.0532 46.017 58.1945 46.1101C58.4765 46.2956 58.8849 46.576 59.3855 46.9459C60.3872 47.6861 61.7497 48.7793 63.2014 50.183C66.1175 53.0026 69.3285 57.0123 70.7656 61.8744L72.6836 61.3074C71.1092 55.9808 67.6316 51.6845 64.5916 48.7452C63.0654 47.2695 61.633 46.12 60.5742 45.3375C60.0445 44.946 59.6063 44.6449 59.2941 44.4394C59.1383 44.3369 59.0116 44.2567 58.9188 44.2C58.8733 44.1722 58.8309 44.147 58.7949 44.1267C58.7783 44.1173 58.7536 44.1036 58.7263 44.0899C58.7142 44.0839 58.6876 44.0707 58.6541 44.0567C58.638 44.05 58.6059 44.0371 58.5644 44.0242C58.548 44.0191 58.4262 43.9788 58.2662 43.9788V45.9788ZM57.1165 45.3238C57.3259 45.6249 57.6395 45.8515 58.0203 45.9481L58.5121 44.0096C58.6094 44.0342 58.6997 44.0973 58.7587 44.1822L57.1165 45.3238ZM54.6827 45.753H57.9376V43.753H54.6827V45.753ZM73.0154 62.5873C74.4672 62.5501 75.8925 62.4021 77.2834 62.1512L76.9283 60.183C75.6373 60.4159 74.3135 60.5534 72.9642 60.588L73.0154 62.5873ZM59.5477 45.5753C62.6944 47.7529 69.7319 53.5087 72.0256 61.8527L73.954 61.3226C71.4669 52.2748 63.9297 46.1756 60.6859 43.9307L59.5477 45.5753ZM63.6012 43.753H60.1168V45.753H63.6012V43.753ZM64.1036 43.9249C64.1702 43.9417 64.2383 43.9781 64.295 44.0328L62.9075 45.4732C63.101 45.6596 63.3416 45.7949 63.6118 45.8634L64.1036 43.9249ZM64.5155 44.1322C64.4819 44.1098 64.4608 44.0958 64.4472 44.0866C64.44 44.0817 64.4406 44.0821 64.445 44.0852C64.4468 44.0865 64.4554 44.0926 64.4671 44.1015C64.473 44.106 64.4838 44.1143 64.4971 44.1254C64.504 44.1311 64.5134 44.1391 64.5245 44.1489C64.5349 44.1583 64.5511 44.1731 64.57 44.1923L63.1454 45.596C63.2012 45.6526 63.254 45.6915 63.2546 45.692C63.2693 45.7033 63.282 45.7123 63.2888 45.7172C63.3033 45.7274 63.3177 45.7372 63.328 45.7442C63.3496 45.7588 63.3786 45.778 63.4093 45.7983L64.5155 44.1322ZM64.5871 44.1844L64.5871 44.1844L63.3377 45.7461L63.3377 45.7462L64.5871 44.1844ZM78.0596 60.8663C76.5025 55.9288 73.3681 51.9236 70.5282 49.0829C67.6812 46.235 65.0775 44.5053 64.5156 44.1322L63.4093 45.7983C63.927 46.1421 66.4043 47.7865 69.1138 50.4969C71.8305 53.2144 74.728 56.9517 76.1522 61.4678L78.0596 60.8663ZM65.1419 45.5658C68.2061 47.762 74.8972 53.2643 77.3484 61.2172L79.2596 60.6281C76.6063 52.0193 69.449 46.1923 66.307 43.9402L65.1419 45.5658ZM69.0258 43.753H65.7245V45.753H69.0258V43.753ZM69.5282 43.9249C69.5948 43.9417 69.6629 43.9781 69.7196 44.0328L68.332 45.4732C68.5256 45.6596 68.7662 45.7949 69.0363 45.8634L69.5282 43.9249ZM69.9323 44.1278C69.9028 44.1079 69.8853 44.0961 69.8743 44.0886C69.8683 44.0845 69.8702 44.0857 69.8757 44.0897C69.8782 44.0915 69.8872 44.098 69.8992 44.1073C69.9053 44.1121 69.9158 44.1204 69.9287 44.1312C69.9353 44.1368 69.9441 44.1444 69.9542 44.1536C69.964 44.1624 69.9781 44.1756 69.9945 44.1921L68.5701 45.5962C68.6207 45.6475 68.6673 45.6829 68.6712 45.6859C68.686 45.6974 68.6986 45.7066 68.7056 45.7116C68.72 45.722 68.734 45.7317 68.7435 45.7382C68.7632 45.7517 68.7893 45.7693 68.8156 45.787L69.9323 44.1278ZM82.0351 59.8302C79.0101 50.2246 70.8931 44.7745 69.9323 44.1278L68.8156 45.787C69.733 46.4045 77.3234 51.5269 80.1275 60.4309L82.0351 59.8302ZM78.5261 61.8976C79.5065 61.6743 80.4677 61.3994 81.4069 61.0761L80.7557 59.185C79.8839 59.4852 78.9917 59.7403 78.0818 59.9476L78.5261 61.8976ZM71.1512 45.753H97.4544V43.753H71.1512V45.753ZM74.0515 45.8177C73.1781 45.0438 72.3854 44.4203 71.7444 43.9479L70.558 45.558C71.1566 45.9991 71.9018 46.5851 72.7252 47.3146L74.0515 45.8177ZM73.7015 45.5035C73.4577 45.5035 73.2095 45.5504 72.979 45.6538L73.7976 47.4785C73.7455 47.5019 73.7109 47.5035 73.7015 47.5035V45.5035ZM96.642 45.5035H73.7015V47.5035H96.642V45.5035ZM96.5333 44.3637C96.2911 44.9368 96.0297 45.4996 95.75 46.0513L97.5339 46.9556C97.8344 46.3629 98.1152 45.7581 98.3755 45.1423L96.5333 44.3637ZM96.0206 49.5878C96.3902 49.0167 96.7403 48.4315 97.07 47.833L95.3183 46.8679C95.0114 47.4249 94.6855 47.9696 94.3415 48.5012L96.0206 49.5878ZM76.1698 50.0445H95.1811V48.0445H76.1698V50.0445ZM76.2631 50.0274C76.222 50.0414 76.1899 50.0445 76.1698 50.0445V48.0445C75.9833 48.0445 75.7958 48.0735 75.6164 48.1348L76.2631 50.0274ZM73.555 48.0757C74.0882 48.5818 74.642 49.1416 75.2006 49.7547L76.6789 48.4075C76.0854 47.7562 75.4975 47.1621 74.932 46.6252L73.555 48.0757ZM96.1942 46.3505H74.2435V48.3505H96.1942V46.3505ZM94.6106 48.8915H76.6542V50.8915H94.6106V48.8915ZM94.0979 52.22C94.5633 51.6531 95.0076 51.0678 95.4297 50.4652L93.7916 49.3178C93.3987 49.8786 92.9852 50.4234 92.5521 50.951L94.0979 52.22ZM78.0014 52.5855H93.325V50.5855H78.0014V52.5855ZM75.8931 50.5402C76.3317 51.0547 76.769 51.6015 77.1976 52.1805L78.8051 50.9905C78.3477 50.3727 77.8817 49.7901 77.4152 49.2428L75.8931 50.5402ZM80.5503 53.6172C80.1893 53.0073 79.8141 52.4233 79.4299 51.8654L77.7827 52.9997C78.1421 53.5216 78.4925 54.0671 78.8291 54.6359L80.5503 53.6172ZM90.9585 53.1266H79.6897V55.1266H90.9585V53.1266ZM91.8539 51.7676C91.3491 52.3345 90.8209 52.8794 90.2708 53.4006L91.6463 54.8525C92.2376 54.2923 92.8053 53.7067 93.3477 53.0975L91.8539 51.7676ZM78.6063 53.4325H92.6008V51.4325H78.6063V53.4325ZM79.294 55.453C79.5841 55.9839 79.8613 56.5337 80.1222 57.1021L81.9399 56.2678C81.6589 55.6556 81.3607 55.0643 81.0492 54.4941L79.294 55.453ZM90.0227 53.9736H80.1716V55.9736H90.0227V53.9736ZM88.4281 57.4856C89.2068 56.938 89.9573 56.3519 90.6766 55.7301L89.3687 54.217C88.6996 54.7955 88.0017 55.3405 87.2777 55.8496L88.4281 57.4856ZM87.8529 55.6676H81.1994V57.6676H87.8529V55.6676ZM81.1994 55.6676C81.0723 55.6676 80.9452 55.6806 80.8207 55.7074L81.2414 57.6626C81.2224 57.6667 81.2082 57.6676 81.1994 57.6676V55.6676ZM80.4726 57.9008C80.7575 58.5812 81.0184 59.287 81.2499 60.0181L83.1566 59.4141C82.9063 58.6241 82.6246 57.8621 82.3175 57.1284L80.4726 57.9008ZM82.5705 60.6462C84.1552 60.0205 85.6706 59.2546 87.102 58.3635L86.0451 56.6656C84.7148 57.4937 83.3072 58.205 81.836 58.786L82.5705 60.6462ZM81.395 58.5146H86.5736V56.5146H81.395V58.5146ZM82.8961 62.666C94.4511 58.2988 102.661 47.0092 102.661 33.7983H100.661C100.661 46.1653 92.9773 56.7177 82.189 60.7952L82.8961 62.666ZM82.4638 62.8883C82.762 62.8126 83.0688 62.655 83.3039 62.3789L81.7811 61.0823C81.866 60.9826 81.9523 60.9547 81.9719 60.9497L82.4638 62.8883ZM82.0509 62.919H82.2179V60.919H82.0509V62.919ZM81.9936 62.918C82.012 62.9186 82.0311 62.919 82.0509 62.919V60.919C82.0571 60.919 82.0626 60.9192 82.0673 60.9193L81.9936 62.918ZM72.2867 64.5966C75.8191 64.5966 79.2117 63.9852 82.3663 62.8606L81.6946 60.9767C78.7524 62.0257 75.5868 62.5966 72.2867 62.5966V64.5966ZM41.9119 33.7983C41.9119 50.7796 55.4832 64.5966 72.2867 64.5966V62.5966C56.6158 62.5966 43.9119 49.7033 43.9119 33.7983H41.9119ZM72.2867 3C55.4832 3 41.9119 16.8171 41.9119 33.7983H43.9119C43.9119 17.8933 56.6158 5 72.2867 5V3ZM102.661 33.7983C102.661 16.8171 89.0902 3 72.2867 3V5C87.9575 5 100.661 17.8933 100.661 33.7983H102.661ZM56.9294 29.4321V28.7998H54.9294V29.4321H56.9294ZM51.2441 29.829C52.8414 30.7827 54.7324 31.0539 56.3334 30.3468L55.5254 28.5173C54.6497 28.9041 53.4467 28.8147 52.2693 28.1117L51.2441 29.829ZM48.4199 25.3282C48.4199 27.1134 49.5965 28.8454 51.2441 29.829L52.2693 28.1117C51.0793 27.4013 50.4199 26.2535 50.4199 25.3282H48.4199ZM54.1887 24.8931C52.5658 23.9242 50.5253 23.6459 48.9674 24.4365L49.8724 26.22C50.6512 25.8248 51.949 25.8852 53.1635 26.6104L54.1887 24.8931ZM56.9064 28.5864C56.5919 27.1464 55.6361 25.7572 54.1887 24.8931L53.1635 26.6104C54.1413 27.1941 54.7572 28.1189 54.9525 29.0131L56.9064 28.5864ZM55.1189 31.8839C55.4832 31.8467 55.8498 31.7781 56.2123 31.6711L55.6465 29.7528C55.4122 29.8219 55.1678 29.8685 54.9158 29.8942L55.1189 31.8839ZM56.714 31.2137C56.4058 30.8238 56.0543 30.4595 55.6667 30.1285L54.368 31.6495C54.659 31.898 54.9195 32.1686 55.1449 32.4538L56.714 31.2137ZM54.9294 30.712V31.8338H56.9294V30.712H54.9294ZM56.0978 30.6477V31.8198H58.0978V30.6477H56.0978ZM58.1299 29.8789C57.8849 29.8432 57.6527 29.7845 57.4361 29.7067L56.7595 31.5887C57.103 31.7122 57.4655 31.8033 57.842 31.8581L58.1299 29.8789ZM57.8967 32.4213C58.1127 32.1344 58.3627 31.8656 58.6414 31.6237L57.3305 30.1132C56.9454 30.4474 56.5993 30.8194 56.2989 31.2183L57.8967 32.4213ZM56.9294 34.8529V34.2206H54.9294V34.8529H56.9294ZM51.2441 35.2498C52.8414 36.2035 54.7324 36.4747 56.3334 35.7677L55.5254 33.9382C54.6497 34.3249 53.4467 34.2355 52.2693 33.5326L51.2441 35.2498ZM48.4199 30.7491C48.4199 32.5342 49.5965 34.2662 51.2441 35.2498L52.2693 33.5326C51.0793 32.8222 50.4199 31.6744 50.4199 30.7491H48.4199ZM54.1887 30.314C52.5658 29.3451 50.5253 29.0667 48.9674 29.8573L49.8724 31.6408C50.6512 31.2456 51.949 31.3061 53.1635 32.0312L54.1887 30.314ZM56.9064 34.0072C56.5919 32.5673 55.6361 31.1781 54.1887 30.314L53.1635 32.0312C54.1413 32.615 54.7572 33.5398 54.9525 34.434L56.9064 34.0072ZM56.9294 37.2546V36.1328H54.9294V37.2546H56.9294ZM54.368 37.0704C54.659 37.3188 54.9195 37.5895 55.1449 37.8747L56.714 36.6346C56.4058 36.2447 56.0543 35.8803 55.6667 35.5494L54.368 37.0704ZM55.6465 35.1737C55.4122 35.2428 55.1678 35.2893 54.9158 35.3151L55.1189 37.3047C55.4832 37.2675 55.8498 37.1989 56.2123 37.092L55.6465 35.1737ZM56.0978 36.0686V37.2407H58.0978V36.0686H56.0978ZM58.1298 35.2997C57.8849 35.2641 57.6527 35.2054 57.4361 35.1275L56.7595 37.0096C57.103 37.1331 57.4655 37.2241 57.842 37.2789L58.1298 35.2997ZM57.8967 37.8422C58.1127 37.5553 58.3627 37.2864 58.6414 37.0446L57.3305 35.5341C56.9454 35.8683 56.5993 36.2403 56.2989 36.6392L57.8967 37.8422ZM53.1635 37.4521C54.1413 38.0358 54.7572 38.9606 54.9525 39.8549L56.9064 39.4281C56.5919 37.9882 55.6361 36.5989 54.1887 35.7348L53.1635 37.4521ZM49.8724 37.0617C50.6512 36.6665 51.949 36.727 53.1635 37.4521L54.1887 35.7348C52.5658 34.7659 50.5253 34.4876 48.9674 35.2782L49.8724 37.0617ZM52.2693 38.9535C51.0793 38.2431 50.4199 37.0952 50.4199 36.17H48.4199C48.4199 37.9551 49.5965 39.6871 51.2441 40.6707L52.2693 38.9535ZM55.5254 39.359C54.6497 39.7458 53.4467 39.6564 52.2693 38.9535L51.2441 40.6707C52.8414 41.6244 54.7324 41.8956 56.3334 41.1885L55.5254 39.359ZM54.9294 39.6415V40.2738H56.9294V39.6415H54.9294ZM58.1104 40.2061C58.1088 40.1611 58.1066 40.1162 58.1038 40.0714L56.1076 40.195C56.1093 40.2226 56.1107 40.2501 56.1116 40.2775L58.1104 40.2061ZM60.8414 38.9535C59.641 39.6701 58.4158 39.7488 57.5352 39.3363L56.6868 41.1474C58.3058 41.9058 60.2395 41.6421 61.8666 40.6707L60.8414 38.9535ZM62.6927 36.1085C62.6305 37.118 61.9908 38.2672 60.8414 38.9535L61.8666 40.6707C63.5547 39.6629 64.5841 37.9324 64.6889 36.2314L62.6927 36.1085ZM59.9472 37.4521C61.152 36.7328 62.3814 36.6563 63.2627 37.0737L64.1188 35.2662C62.4965 34.4978 60.5546 34.7601 58.9219 35.7348L59.9472 37.4521ZM58.1015 40.2252C58.1887 39.2812 58.868 38.2081 60.0068 37.4135L58.8623 35.7734C57.3978 36.7953 56.2668 38.3435 56.1099 40.0411L58.1015 40.2252ZM56.6868 35.7265C58.3058 36.485 60.2395 36.2212 61.8666 35.2498L60.8414 33.5326C59.641 34.2493 58.4158 34.3279 57.5352 33.9154L56.6868 35.7265ZM56.1076 34.7741C56.1093 34.8017 56.1107 34.8292 56.1116 34.8566L58.1104 34.7853C58.1088 34.7402 58.1066 34.6953 58.1038 34.6505L56.1076 34.7741ZM58.8623 30.3525C57.3978 31.3744 56.2669 32.9227 56.1099 34.6203L58.1015 34.8044C58.1887 33.8604 58.868 32.7873 60.0068 31.9927L58.8623 30.3525ZM64.1188 29.8453C62.4965 29.077 60.5546 29.3392 58.9219 30.314L59.9472 32.0312C61.152 31.3119 62.3814 31.2354 63.2627 31.6528L64.1188 29.8453ZM61.8666 35.2498C63.5547 34.242 64.5841 32.5115 64.6889 30.8106L62.6927 30.6876C62.6305 31.6971 61.9908 32.8464 60.8414 33.5326L61.8666 35.2498ZM58.1036 29.4459C58.2014 28.4796 58.8979 27.361 59.9702 26.6809L58.8989 24.992C57.3881 25.9504 56.2823 27.5797 56.1138 29.2445L58.1036 29.4459ZM58.1131 29.471C58.1122 29.4126 58.1103 29.3544 58.1075 29.2962L56.1099 29.3941C56.1116 29.4298 56.1128 29.4653 56.1133 29.5006L58.1131 29.471ZM60.8414 28.1964C59.6417 28.9127 58.4172 28.9917 57.5368 28.58L56.6896 30.3917C58.308 31.1485 60.2405 30.8845 61.8666 29.9137L60.8414 28.1964ZM62.6927 25.3515C62.6305 26.3609 61.9908 27.5102 60.8414 28.1964L61.8666 29.9137C63.5547 28.9059 64.5841 27.1754 64.6889 25.4744L62.6927 25.3515ZM59.9472 26.6951C61.152 25.9758 62.3814 25.8992 63.2627 26.3167L64.1188 24.5092C62.4965 23.7408 60.5546 24.0031 58.9219 24.9778L59.9472 26.6951ZM77.6138 23.4766C77.6142 23.4082 77.616 23.3395 77.6191 23.2706L75.6213 23.1785C75.6168 23.2743 75.6144 23.3702 75.6139 23.4662L77.6138 23.4766ZM69.7636 23.726C72.0546 25.1211 74.9331 25.4883 77.0803 24.356L76.1474 22.5869C74.7907 23.3023 72.6757 23.1577 70.8039 22.0178L69.7636 23.726ZM65.8621 17.3663C65.8621 19.8244 67.45 22.2236 69.739 23.7105L70.8285 22.0333C68.9448 20.8097 67.8621 18.9739 67.8621 17.3663H65.8621ZM73.7248 17.1051C71.4287 15.7069 68.5416 15.341 66.3927 16.4834L67.3315 18.2493C68.6877 17.5283 70.8079 17.6706 72.6846 18.8133L73.7248 17.1051ZM77.6189 23.1735C77.4986 20.8196 75.9518 18.5512 73.7494 17.1206L72.66 18.7979C74.4662 19.9711 75.5417 21.7135 75.6215 23.2756L77.6189 23.1735ZM78.7947 23.4648L78.7947 23.1023L76.7947 23.1023L76.7947 23.4648L78.7947 23.4648ZM83.6172 22.0178C81.7476 23.1563 79.7 23.3103 78.2473 22.5731L77.3422 24.3566C79.5615 25.4827 82.3543 25.1285 84.6574 23.726L83.6172 22.0178ZM86.559 17.3663C86.559 19.0675 85.4681 20.8907 83.6172 22.0178L84.6574 23.726C86.9793 22.3121 88.559 19.9002 88.559 17.3663H86.559ZM81.7365 18.8133C83.6061 17.6748 85.6537 17.5209 87.1065 18.2581L88.0115 16.4746C85.7923 15.3484 82.9995 15.7026 80.6963 17.1051L81.7365 18.8133ZM78.7939 23.1429C78.8549 21.6409 79.9028 19.9587 81.7461 18.8074L80.6867 17.1111C78.4478 18.5094 76.8904 20.726 76.7956 23.0618L78.7939 23.1429ZM76.7947 24.7475V27.4201H78.7947V24.7475H76.7947ZM79.9685 24.1545C79.3287 24.1318 78.7093 24.0198 78.1421 23.8097L77.4474 25.6852C78.2404 25.9789 79.0739 26.124 79.8975 26.1532L79.9685 24.1545ZM78.635 27.9623C79.1144 27.2194 79.7529 26.5319 80.5283 25.9573L79.3377 24.3504C78.3723 25.0657 77.5668 25.9292 76.9545 26.8778L78.635 27.9623ZM78.7947 31.0879L78.7947 30.7254L76.7947 30.7254L76.7947 31.0879L78.7947 31.0879ZM83.6172 29.6409C81.7476 30.7794 79.7 30.9334 78.2473 30.1961L77.3422 31.9796C79.5615 33.1058 82.3543 32.7516 84.6574 31.3491L83.6172 29.6409ZM86.559 24.9894C86.559 26.6906 85.4681 28.5138 83.6172 29.6409L84.6574 31.3491C86.9793 29.9351 88.559 27.5233 88.559 24.9894H86.559ZM81.7365 26.4364C83.6061 25.2979 85.6537 25.1439 87.1065 25.8812L88.0115 24.0977C85.7923 22.9715 82.9995 23.3257 80.6963 24.7282L81.7365 26.4364ZM78.7939 30.766C78.8549 29.264 79.9028 27.5818 81.7461 26.4305L80.6867 24.7342C78.4478 26.1325 76.8904 28.3491 76.7956 30.6848L78.7939 30.766ZM77.4769 26.9415C76.8785 25.9741 76.0812 25.0905 75.1195 24.3556L73.9052 25.9448C74.6772 26.5347 75.3083 27.2374 75.7759 27.9935L77.4769 26.9415ZM75.6264 24.6882V27.4675H77.6264V24.6882H75.6264ZM74.5577 26.1492C75.4143 26.1102 76.2369 25.95 77.0271 25.6044L76.2257 23.772C75.7025 24.0008 75.1292 24.1211 74.4669 24.1512L74.5577 26.1492ZM75.6264 32.3594V35.0906H77.6264V32.3594H75.6264ZM74.6827 33.8464C75.5186 33.7856 76.2925 33.5889 77.0186 33.2793L76.2342 31.4395C75.7035 31.6658 75.1451 31.8075 74.5375 31.8517L74.6827 33.8464ZM77.4769 34.5646C76.9012 33.6337 76.1412 32.7806 75.2281 32.0629L73.9922 33.6353C74.7248 34.2111 75.326 34.8892 75.7759 35.6166L77.4769 34.5646ZM78.7947 35.0432V32.4552H76.7947V35.0432H78.7947ZM79.2194 32.0624C78.3064 32.7599 77.5416 33.5912 76.9545 34.5009L78.635 35.5854C79.0947 34.873 79.7007 34.2116 80.4335 33.6518L79.2194 32.0624ZM77.4474 33.393C78.2019 33.6725 78.9931 33.8173 79.7773 33.8559L79.8756 31.8583C79.2685 31.8284 78.6816 31.7174 78.1421 31.5175L77.4474 33.393ZM78.7947 38.711L78.7947 38.3485L76.7947 38.3485L76.7947 38.711L78.7947 38.711ZM83.6172 37.264C81.7476 38.4025 79.7 38.5564 78.2473 37.8192L77.3422 39.6027C79.5615 40.7289 82.3543 40.3747 84.6574 38.9722L83.6172 37.264ZM86.559 32.6125C86.559 34.3137 85.4681 36.1369 83.6172 37.264L84.6574 38.9722C86.9793 37.5582 88.559 35.1464 88.559 32.6125H86.559ZM81.7365 34.0595C83.6061 32.921 85.6537 32.767 87.1065 33.5043L88.0115 31.7208C85.7923 30.5946 82.9995 30.9488 80.6963 32.3513L81.7365 34.0595ZM78.7939 38.3891C78.8549 36.887 79.9028 35.2049 81.7461 34.0536L80.6867 32.3573C78.4478 33.7556 76.8904 35.9722 76.7956 38.3079L78.7939 38.3891ZM72.1214 31.5794C71.9467 31.5284 71.7726 31.4705 71.5996 31.4054L70.8956 33.2775C71.1164 33.3605 71.3387 33.4344 71.5617 33.4995L72.1214 31.5794ZM73.7248 32.3513C73.2322 32.0514 72.7184 31.8016 72.1949 31.6039L71.4883 33.4749C71.896 33.6289 72.2982 33.8242 72.6846 34.0595L73.7248 32.3513ZM77.6213 38.4725C77.5219 36.0995 75.9676 33.8076 73.7494 32.3668L72.66 34.044C74.4802 35.2264 75.5573 36.9857 75.6231 38.5563L77.6213 38.4725ZM77.6147 38.7365C77.6158 38.6802 77.6178 38.6237 77.6208 38.5672L75.6236 38.4617C75.6195 38.5403 75.6166 38.6189 75.6151 38.6976L77.6147 38.7365ZM69.7636 38.9722C72.0551 40.3675 74.9343 40.7346 77.0816 39.6015L76.1482 37.8326C74.7915 38.5485 72.6761 38.4041 70.8039 37.264L69.7636 38.9722ZM65.8621 32.6125C65.8621 35.0706 67.45 37.4698 69.739 38.9567L70.8285 37.2795C68.9448 36.0559 67.8621 34.2201 67.8621 32.6125H65.8621ZM71.5256 31.3809C69.7808 30.8758 67.905 30.9255 66.3927 31.7295L67.3315 33.4955C68.2737 32.9946 69.589 32.9024 70.9695 33.302L71.5256 31.3809ZM77.6147 31.1134C77.6158 31.0571 77.6178 31.0006 77.6208 30.9441L75.6236 30.8386C75.6195 30.9172 75.6166 30.9959 75.6151 31.0745L77.6147 31.1134ZM69.7636 31.3491C72.0551 32.7444 74.9343 33.1115 77.0816 31.9784L76.1482 30.2095C74.7915 30.9255 72.6761 30.781 70.8039 29.6409L69.7636 31.3491ZM65.8621 24.9894C65.8621 27.4475 67.45 29.8467 69.739 31.3336L70.8285 29.6564C68.9448 28.4328 67.8621 26.597 67.8621 24.9894H65.8621ZM73.7248 24.7282C71.4287 23.33 68.5416 22.964 66.3927 24.1064L67.3315 25.8724C68.6877 25.1514 70.8079 25.2936 72.6846 26.4364L73.7248 24.7282ZM77.6213 30.8495C77.5219 28.4764 75.9676 26.1845 73.7494 24.7437L72.66 26.4209C74.4802 27.6033 75.5573 29.3626 75.6231 30.9332L77.6213 30.8495Z" fill="#BDACA8" mask="url(#path-1-inside-1)"/>
<path d="M9.26868 99.732H4.36868L3.40268 102H1.52668L5.93668 92.2H7.72868L12.1527 102H10.2487L9.26868 99.732ZM8.66668 98.304L6.81868 94.02L4.98468 98.304H8.66668ZM19.9543 96.988H21.6763V100.894C21.1723 101.295 20.5843 101.603 19.9123 101.818C19.2403 102.033 18.5496 102.14 17.8403 102.14C16.8416 102.14 15.941 101.925 15.1383 101.496C14.3356 101.057 13.7056 100.455 13.2483 99.69C12.791 98.9247 12.5623 98.0613 12.5623 97.1C12.5623 96.1387 12.791 95.2753 13.2483 94.51C13.7056 93.7447 14.3356 93.1473 15.1383 92.718C15.9503 92.2793 16.8603 92.06 17.8683 92.06C18.6896 92.06 19.4363 92.1953 20.1083 92.466C20.7803 92.7367 21.345 93.1333 21.8023 93.656L20.6543 94.776C19.9076 94.0293 19.007 93.656 17.9523 93.656C17.2616 93.656 16.6456 93.8007 16.1043 94.09C15.5723 94.3793 15.1523 94.7853 14.8443 95.308C14.5456 95.8307 14.3963 96.428 14.3963 97.1C14.3963 97.7533 14.5456 98.3413 14.8443 98.864C15.1523 99.3867 15.5723 99.7973 16.1043 100.096C16.6456 100.395 17.257 100.544 17.9383 100.544C18.7036 100.544 19.3756 100.376 19.9543 100.04V96.988ZM30.4887 102L28.4867 99.13C28.4027 99.1393 28.2767 99.144 28.1087 99.144H25.8967V102H24.0767V92.2H28.1087C28.9581 92.2 29.6954 92.34 30.3207 92.62C30.9554 92.9 31.4407 93.3013 31.7767 93.824C32.1127 94.3467 32.2807 94.9673 32.2807 95.686C32.2807 96.4233 32.0987 97.058 31.7347 97.59C31.3801 98.122 30.8667 98.5187 30.1947 98.78L32.4487 102H30.4887ZM30.4467 95.686C30.4467 95.0607 30.2414 94.58 29.8307 94.244C29.4201 93.908 28.8181 93.74 28.0247 93.74H25.8967V97.646H28.0247C28.8181 97.646 29.4201 97.478 29.8307 97.142C30.2414 96.7967 30.4467 96.3113 30.4467 95.686ZM40.673 99.732H35.773L34.807 102H32.931L37.341 92.2H39.133L43.557 102H41.653L40.673 99.732ZM40.071 98.304L38.223 94.02L36.389 98.304H40.071ZM51.2153 102L49.2133 99.13C49.1293 99.1393 49.0033 99.144 48.8353 99.144H46.6233V102H44.8033V92.2H48.8353C49.6846 92.2 50.422 92.34 51.0473 92.62C51.682 92.9 52.1673 93.3013 52.5033 93.824C52.8393 94.3467 53.0073 94.9673 53.0073 95.686C53.0073 96.4233 52.8253 97.058 52.4613 97.59C52.1066 98.122 51.5933 98.5187 50.9213 98.78L53.1753 102H51.2153ZM51.1733 95.686C51.1733 95.0607 50.968 94.58 50.5573 94.244C50.1466 93.908 49.5446 93.74 48.7513 93.74H46.6233V97.646H48.7513C49.5446 97.646 50.1466 97.478 50.5573 97.142C50.968 96.7967 51.1733 96.3113 51.1733 95.686ZM55.0435 92.2H56.8635V102H55.0435V92.2ZM65.8702 99.732H60.9702L60.0042 102H58.1282L62.5382 92.2H64.3302L68.7542 102H66.8502L65.8702 99.732ZM65.2682 98.304L63.4202 94.02L61.5862 98.304H65.2682ZM78.7086 92.2V102H77.2106L71.8066 95.364V102H70.0006V92.2H71.4986L76.9026 98.836V92.2H78.7086ZM88.2417 102.14C87.4857 102.14 86.753 102.033 86.0437 101.818C85.3437 101.603 84.7884 101.319 84.3777 100.964L85.0077 99.55C85.409 99.8673 85.899 100.129 86.4777 100.334C87.0657 100.53 87.6537 100.628 88.2417 100.628C88.9697 100.628 89.511 100.511 89.8657 100.278C90.2297 100.045 90.4117 99.7367 90.4117 99.354C90.4117 99.074 90.309 98.8453 90.1037 98.668C89.9077 98.4813 89.6557 98.3367 89.3477 98.234C89.0397 98.1313 88.6197 98.0147 88.0877 97.884C87.341 97.7067 86.7344 97.5293 86.2677 97.352C85.8104 97.1747 85.4137 96.8993 85.0777 96.526C84.751 96.1433 84.5877 95.63 84.5877 94.986C84.5877 94.4447 84.7324 93.9547 85.0217 93.516C85.3204 93.068 85.7637 92.7133 86.3517 92.452C86.949 92.1907 87.677 92.06 88.5357 92.06C89.133 92.06 89.721 92.1347 90.2997 92.284C90.8784 92.4333 91.3777 92.648 91.7977 92.928L91.2237 94.342C90.7944 94.09 90.3464 93.8987 89.8797 93.768C89.413 93.6373 88.9604 93.572 88.5217 93.572C87.803 93.572 87.2664 93.6933 86.9117 93.936C86.5664 94.1787 86.3937 94.5007 86.3937 94.902C86.3937 95.182 86.4917 95.4107 86.6877 95.588C86.893 95.7653 87.1497 95.9053 87.4577 96.008C87.7657 96.1107 88.1857 96.2273 88.7177 96.358C89.4457 96.526 90.043 96.7033 90.5097 96.89C90.9764 97.0673 91.373 97.3427 91.6997 97.716C92.0357 98.0893 92.2037 98.5933 92.2037 99.228C92.2037 99.7693 92.0544 100.259 91.7557 100.698C91.4664 101.137 91.023 101.487 90.4257 101.748C89.8284 102.009 89.1004 102.14 88.2417 102.14ZM101.358 100.474V102H94.0084V92.2H101.162V93.726H95.8284V96.274H100.56V97.772H95.8284V100.474H101.358ZM107.882 102.14C106.893 102.14 105.997 101.925 105.194 101.496C104.401 101.057 103.776 100.455 103.318 99.69C102.87 98.9247 102.646 98.0613 102.646 97.1C102.646 96.1387 102.875 95.2753 103.332 94.51C103.79 93.7447 104.415 93.1473 105.208 92.718C106.011 92.2793 106.907 92.06 107.896 92.06C108.699 92.06 109.432 92.2 110.094 92.48C110.757 92.76 111.317 93.166 111.774 93.698L110.598 94.804C109.889 94.0387 109.016 93.656 107.98 93.656C107.308 93.656 106.706 93.8053 106.174 94.104C105.642 94.3933 105.227 94.7993 104.928 95.322C104.63 95.8447 104.48 96.4373 104.48 97.1C104.48 97.7627 104.63 98.3553 104.928 98.878C105.227 99.4007 105.642 99.8113 106.174 100.11C106.706 100.399 107.308 100.544 107.98 100.544C109.016 100.544 109.889 100.157 110.598 99.382L111.774 100.502C111.317 101.034 110.752 101.44 110.08 101.72C109.418 102 108.685 102.14 107.882 102.14ZM115.397 93.74H112.149V92.2H120.465V93.74H117.217V102H115.397V93.74ZM126.272 102.14C125.273 102.14 124.373 101.925 123.57 101.496C122.767 101.057 122.137 100.455 121.68 99.69C121.223 98.9153 120.994 98.052 120.994 97.1C120.994 96.148 121.223 95.2893 121.68 94.524C122.137 93.7493 122.767 93.1473 123.57 92.718C124.373 92.2793 125.273 92.06 126.272 92.06C127.271 92.06 128.171 92.2793 128.974 92.718C129.777 93.1473 130.407 93.7447 130.864 94.51C131.321 95.2753 131.55 96.1387 131.55 97.1C131.55 98.0613 131.321 98.9247 130.864 99.69C130.407 100.455 129.777 101.057 128.974 101.496C128.171 101.925 127.271 102.14 126.272 102.14ZM126.272 100.544C126.925 100.544 127.513 100.399 128.036 100.11C128.559 99.8113 128.969 99.4007 129.268 98.878C129.567 98.346 129.716 97.7533 129.716 97.1C129.716 96.4467 129.567 95.8587 129.268 95.336C128.969 94.804 128.559 94.3933 128.036 94.104C127.513 93.8053 126.925 93.656 126.272 93.656C125.619 93.656 125.031 93.8053 124.508 94.104C123.985 94.3933 123.575 94.804 123.276 95.336C122.977 95.8587 122.828 96.4467 122.828 97.1C122.828 97.7533 122.977 98.346 123.276 98.878C123.575 99.4007 123.985 99.8113 124.508 100.11C125.031 100.399 125.619 100.544 126.272 100.544ZM139.891 102L137.889 99.13C137.805 99.1393 137.679 99.144 137.511 99.144H135.299V102H133.479V92.2H137.511C138.36 92.2 139.098 92.34 139.723 92.62C140.358 92.9 140.843 93.3013 141.179 93.824C141.515 94.3467 141.683 94.9673 141.683 95.686C141.683 96.4233 141.501 97.058 141.137 97.59C140.782 98.122 140.269 98.5187 139.597 98.78L141.851 102H139.891ZM139.849 95.686C139.849 95.0607 139.644 94.58 139.233 94.244C138.822 93.908 138.22 93.74 137.427 93.74H135.299V97.646H137.427C138.22 97.646 138.822 97.478 139.233 97.142C139.644 96.7967 139.849 96.3113 139.849 95.686Z" fill="#BDACA8"/>
</svg>
