<svg width="134" height="110" viewBox="0 0 134 110" fill="none" xmlns="http://www.w3.org/2000/svg">
<path fill-rule="evenodd" clip-rule="evenodd" d="M67.1886 7.75C52.587 7.75 40.75 19.587 40.75 34.1886C40.75 48.7902 52.587 60.6272 67.1886 60.6272C81.7902 60.6272 93.6272 48.7902 93.6272 34.1886C93.6272 19.587 81.7902 7.75 67.1886 7.75ZM39.25 34.1886C39.25 18.7585 51.7585 6.25 67.1886 6.25C82.6186 6.25 95.1272 18.7585 95.1272 34.1886C95.1272 49.6186 82.6186 62.1272 67.1886 62.1272C51.7585 62.1272 39.25 49.6186 39.25 34.1886ZM83.6617 26.9116V23.8729H82.942L80.543 17.8754V16.436H72.2265V17.7155L55.2736 23.9529H49.1162V26.9916H54.9537V32.7492C54.234 32.9091 53.7542 33.5488 53.7542 34.3485C53.7542 35.1482 54.234 35.7079 54.9537 35.9478V37.5471H55.3535C55.6734 37.5471 55.9933 37.787 55.9933 38.1869C55.9933 38.5067 55.7534 38.8266 55.3535 38.8266C55.0337 38.8266 54.7138 38.5867 54.7138 38.1869H53.9142C53.9142 38.6667 54.1541 39.1465 54.5539 39.3864L52.4748 41.4655H51.1153V47.7029H59.5918V41.4655H58.2323L56.1532 39.3864C56.553 39.1465 56.7929 38.6667 56.7929 38.1869C56.7929 37.5471 56.3931 36.9874 55.7534 36.8274V36.0278C56.4731 35.8679 56.9529 35.2281 56.9529 34.4285C56.9529 33.7088 56.4731 33.069 55.7534 32.8291V27.0716H72.2265V48.6625H70.7071L69.5586 51.2012H51.5951C51.319 51.2012 51.0951 51.4251 51.0951 51.7012C51.0951 51.9773 51.319 52.2012 51.5951 52.2012H82.862C83.0165 52.2012 83.1546 52.1311 83.2463 52.0211H83.5817L82.1423 48.5025H80.6229V26.9116H83.6617ZM82.2934 51.2012L81.5026 49.3822H71.2669L70.476 51.2012H82.2934ZM58.7121 46.6633H51.915V42.1052H58.7121V46.6633ZM53.6743 41.3056L55.3535 39.6263L57.0328 41.3056H53.6743ZM56.1532 34.1886C56.1532 34.5884 55.8333 34.9882 55.3535 34.9882C54.9537 34.9882 54.5539 34.6684 54.5539 34.1886C54.5539 33.7088 54.8738 33.3889 55.3535 33.3889C55.7534 33.4689 56.1532 33.7887 56.1532 34.1886ZM75.745 30.1902L73.0261 32.9891V27.5513L75.745 30.1902ZM79.1036 26.9116L76.3847 29.6305L73.6659 26.9116H79.1036ZM76.3847 30.83L79.5034 33.9487L76.3847 37.1473L73.1861 33.9487L76.3847 30.83ZM73.0261 34.9882L75.745 37.7071L73.0261 40.4259V34.9882ZM76.3847 38.2668L79.5034 41.3855L76.3847 44.5842L73.1861 41.4655L76.3847 38.2668ZM75.745 45.2239L73.0261 47.9428V42.5051L75.745 45.2239ZM76.3847 45.7837L79.1036 48.5025H73.6659L76.3847 45.7837ZM76.9445 45.2239L79.6633 42.5051V47.9428L76.9445 45.2239ZM79.7433 40.4259L77.0244 37.7071L79.7433 34.9882V40.4259ZM76.9445 30.1902L79.6633 27.4714V32.9891L76.9445 30.1902ZM82.0623 23.8729H80.543V20.1145L82.0623 23.8729ZM73.0261 17.7954L75.745 20.5143L73.0261 23.2332V17.7954ZM79.7433 23.2332L77.0244 20.5143L79.7433 17.7954V23.2332ZM76.3847 19.9545L73.6659 17.2357H79.1036L76.3847 19.9545ZM76.3847 21.154L79.1036 23.8729H73.6659L76.3847 21.154ZM72.2265 18.5151V23.8729H57.6726L72.2265 18.5151ZM49.9158 24.6726H82.782V26.032H49.9158V24.6726Z" fill="#BDACA8"/>
<path d="M83.6617 23.8729H83.9117C83.9117 23.7348 83.7997 23.6229 83.6617 23.6229V23.8729ZM83.6617 26.9116V27.1616C83.7997 27.1616 83.9117 27.0497 83.9117 26.9116H83.6617ZM82.942 23.8729L82.7098 23.9657C82.7478 24.0607 82.8397 24.1229 82.942 24.1229V23.8729ZM80.543 17.8754H80.293C80.293 17.9072 80.299 17.9387 80.3108 17.9683L80.543 17.8754ZM80.543 16.436H80.793C80.793 16.2979 80.681 16.186 80.543 16.186V16.436ZM72.2265 16.436V16.186C72.0884 16.186 71.9765 16.2979 71.9765 16.436H72.2265ZM72.2265 17.7155L72.3128 17.9501C72.4111 17.9139 72.4765 17.8203 72.4765 17.7155H72.2265ZM55.2736 23.9529V24.2029C55.303 24.2029 55.3323 24.1977 55.3599 24.1875L55.2736 23.9529ZM49.1162 23.9529V23.7029C48.9781 23.7029 48.8662 23.8148 48.8662 23.9529H49.1162ZM49.1162 26.9916H48.8662C48.8662 27.1297 48.9781 27.2416 49.1162 27.2416V26.9916ZM54.9537 26.9916H55.2037C55.2037 26.8535 55.0918 26.7416 54.9537 26.7416V26.9916ZM54.9537 32.7492L55.0079 32.9932C55.1223 32.9678 55.2037 32.8663 55.2037 32.7492H54.9537ZM54.9537 35.9478H55.2037C55.2037 35.8402 55.1349 35.7447 55.0328 35.7106L54.9537 35.9478ZM54.9537 37.5471H54.7037C54.7037 37.6852 54.8156 37.7971 54.9537 37.7971V37.5471ZM54.7138 38.1869H54.9638C54.9638 38.0488 54.8519 37.9369 54.7138 37.9369V38.1869ZM53.9142 38.1869V37.9369C53.7761 37.9369 53.6642 38.0488 53.6642 38.1869H53.9142ZM54.5539 39.3864L54.7307 39.5632C54.7851 39.5087 54.8114 39.4322 54.802 39.3558C54.7926 39.2794 54.7485 39.2116 54.6825 39.172L54.5539 39.3864ZM52.4748 41.4655V41.7155C52.5411 41.7155 52.6047 41.6892 52.6515 41.6423L52.4748 41.4655ZM51.1153 41.4655V41.2155C50.9773 41.2155 50.8653 41.3274 50.8653 41.4655H51.1153ZM51.1153 47.7029H50.8653C50.8653 47.841 50.9773 47.9529 51.1153 47.9529V47.7029ZM59.5918 47.7029V47.9529C59.7298 47.9529 59.8418 47.841 59.8418 47.7029H59.5918ZM59.5918 41.4655H59.8418C59.8418 41.3274 59.7298 41.2155 59.5918 41.2155V41.4655ZM58.2323 41.4655L58.0556 41.6423C58.1024 41.6892 58.166 41.7155 58.2323 41.7155V41.4655ZM56.1532 39.3864L56.0246 39.172C55.9586 39.2116 55.9145 39.2794 55.9051 39.3558C55.8957 39.4322 55.922 39.5087 55.9764 39.5632L56.1532 39.3864ZM55.7534 36.8274H55.5034C55.5034 36.9422 55.5815 37.0422 55.6927 37.07L55.7534 36.8274ZM55.7534 36.0278L55.6991 35.7837C55.5848 35.8092 55.5034 35.9106 55.5034 36.0278H55.7534ZM55.7534 32.8291H55.5034C55.5034 32.9367 55.5722 33.0323 55.6743 33.0663L55.7534 32.8291ZM55.7534 27.0716V26.8216C55.6153 26.8216 55.5034 26.9335 55.5034 27.0716H55.7534ZM72.2265 27.0716H72.4765C72.4765 26.9335 72.3645 26.8216 72.2265 26.8216V27.0716ZM72.2265 48.6625V48.9125C72.3645 48.9125 72.4765 48.8005 72.4765 48.6625H72.2265ZM70.7071 48.6625V48.4125C70.6089 48.4125 70.5198 48.47 70.4793 48.5594L70.7071 48.6625ZM69.5586 51.2012V51.4512C69.6568 51.4512 69.7459 51.3937 69.7864 51.3042L69.5586 51.2012ZM83.2463 52.0211V51.7711C83.1721 51.7711 83.1017 51.804 83.0542 51.861L83.2463 52.0211ZM83.5817 52.0211V52.2711C83.665 52.2711 83.7428 52.2296 83.7892 52.1604C83.8357 52.0913 83.8446 52.0035 83.8131 51.9264L83.5817 52.0211ZM82.1423 48.5025L82.3737 48.4079C82.3352 48.3139 82.2438 48.2525 82.1423 48.2525V48.5025ZM80.6229 48.5025H80.3729C80.3729 48.6406 80.4849 48.7525 80.6229 48.7525V48.5025ZM80.6229 26.9116V26.6616C80.4849 26.6616 80.3729 26.7735 80.3729 26.9116H80.6229ZM82.2934 51.2012V51.4512C82.3777 51.4512 82.4563 51.4088 82.5025 51.3383C82.5487 51.2678 82.5563 51.1788 82.5227 51.1015L82.2934 51.2012ZM81.5026 49.3822L81.7318 49.2825C81.6921 49.1912 81.6021 49.1322 81.5026 49.1322V49.3822ZM71.2669 49.3822V49.1322C71.1673 49.1322 71.0773 49.1912 71.0376 49.2825L71.2669 49.3822ZM70.476 51.2012L70.2467 51.1015C70.2131 51.1788 70.2207 51.2678 70.2669 51.3383C70.3131 51.4088 70.3917 51.4512 70.476 51.4512V51.2012ZM51.915 46.6633H51.665C51.665 46.8014 51.7769 46.9133 51.915 46.9133V46.6633ZM58.7121 46.6633V46.9133C58.8502 46.9133 58.9621 46.8014 58.9621 46.6633H58.7121ZM51.915 42.1052V41.8552C51.7769 41.8552 51.665 41.9672 51.665 42.1052H51.915ZM58.7121 42.1052H58.9621C58.9621 41.9672 58.8502 41.8552 58.7121 41.8552V42.1052ZM55.3535 39.6263L55.5303 39.4495C55.4834 39.4026 55.4199 39.3763 55.3535 39.3763C55.2872 39.3763 55.2237 39.4026 55.1768 39.4495L55.3535 39.6263ZM53.6743 41.3056L53.4975 41.1288C53.426 41.2003 53.4046 41.3078 53.4433 41.4012C53.482 41.4947 53.5731 41.5556 53.6743 41.5556V41.3056ZM57.0328 41.3056V41.5556C57.134 41.5556 57.2251 41.4947 57.2638 41.4012C57.3025 41.3078 57.2811 41.2003 57.2096 41.1288L57.0328 41.3056ZM55.3535 33.3889L55.4026 33.1438C55.3864 33.1405 55.37 33.1389 55.3535 33.1389V33.3889ZM73.0261 32.9891H72.7761C72.7761 33.0908 72.8378 33.1825 72.9321 33.2207C73.0264 33.259 73.1345 33.2363 73.2054 33.1633L73.0261 32.9891ZM75.745 30.1902L75.9243 30.3644C75.9705 30.3169 75.9959 30.2529 75.995 30.1866C75.994 30.1202 75.9667 30.057 75.9191 30.0108L75.745 30.1902ZM73.0261 27.5513L73.2002 27.372C73.1282 27.302 73.0212 27.282 72.9287 27.3211C72.8362 27.3602 72.7761 27.4509 72.7761 27.5513H73.0261ZM76.3847 29.6305L76.2079 29.8073C76.2548 29.8541 76.3184 29.8805 76.3847 29.8805C76.451 29.8805 76.5146 29.8541 76.5615 29.8073L76.3847 29.6305ZM79.1036 26.9116L79.2803 27.0884C79.3518 27.0169 79.3732 26.9094 79.3345 26.8159C79.2958 26.7225 79.2047 26.6616 79.1036 26.6616V26.9116ZM73.6659 26.9116V26.6616C73.5647 26.6616 73.4736 26.7225 73.4349 26.8159C73.3962 26.9094 73.4176 27.0169 73.4891 27.0884L73.6659 26.9116ZM79.5034 33.9487L79.6824 34.1232C79.7779 34.0252 79.7769 33.8686 79.6802 33.7719L79.5034 33.9487ZM76.3847 30.83L76.5615 30.6532C76.4647 30.5564 76.3082 30.5554 76.2102 30.651L76.3847 30.83ZM76.3847 37.1473L76.2079 37.3241C76.2552 37.3714 76.3194 37.3977 76.3863 37.3973C76.4531 37.3969 76.517 37.3697 76.5637 37.3218L76.3847 37.1473ZM73.1861 33.9487L73.0115 33.7697C72.9637 33.8163 72.9365 33.8802 72.9361 33.9471C72.9356 34.0139 72.962 34.0782 73.0093 34.1254L73.1861 33.9487ZM75.745 37.7071L75.9218 37.8839C75.9686 37.837 75.995 37.7734 75.995 37.7071C75.995 37.6408 75.9686 37.5772 75.9218 37.5303L75.745 37.7071ZM73.0261 34.9882L73.2029 34.8114C73.1314 34.7399 73.0239 34.7186 72.9305 34.7573C72.837 34.7959 72.7761 34.8871 72.7761 34.9882H73.0261ZM73.0261 40.4259H72.7761C72.7761 40.5271 72.837 40.6182 72.9305 40.6569C73.0239 40.6956 73.1314 40.6742 73.2029 40.6027L73.0261 40.4259ZM79.5034 41.3855L79.6824 41.5601C79.7779 41.4621 79.7769 41.3055 79.6802 41.2088L79.5034 41.3855ZM76.3847 38.2668L76.5615 38.0901C76.4639 37.9924 76.3056 37.9924 76.2079 38.0901L76.3847 38.2668ZM76.3847 44.5842L76.2102 44.7632C76.309 44.8596 76.4673 44.8576 76.5637 44.7587L76.3847 44.5842ZM73.1861 41.4655L73.0093 41.2887C72.962 41.336 72.9356 41.4002 72.9361 41.4671C72.9365 41.5339 72.9637 41.5978 73.0115 41.6445L73.1861 41.4655ZM73.0261 47.9428H72.7761C72.7761 48.0439 72.837 48.1351 72.9305 48.1737C73.0239 48.2124 73.1314 48.1911 73.2029 48.1196L73.0261 47.9428ZM75.745 45.2239L75.9218 45.4007C75.9686 45.3538 75.995 45.2902 75.995 45.2239C75.995 45.1576 75.9686 45.094 75.9218 45.0471L75.745 45.2239ZM73.0261 42.5051L73.2029 42.3283C73.1314 42.2568 73.0239 42.2354 72.9305 42.2741C72.837 42.3128 72.7761 42.4039 72.7761 42.5051H73.0261ZM79.1036 48.5025V48.7525C79.2047 48.7525 79.2958 48.6916 79.3345 48.5982C79.3732 48.5048 79.3518 48.3973 79.2803 48.3258L79.1036 48.5025ZM76.3847 45.7837L76.5615 45.6069C76.4639 45.5093 76.3056 45.5093 76.2079 45.6069L76.3847 45.7837ZM73.6659 48.5025L73.4891 48.3258C73.4176 48.3973 73.3962 48.5048 73.4349 48.5982C73.4736 48.6916 73.5647 48.7525 73.6659 48.7525V48.5025ZM79.6633 42.5051H79.9133C79.9133 42.4039 79.8524 42.3128 79.759 42.2741C79.6656 42.2354 79.5581 42.2568 79.4866 42.3283L79.6633 42.5051ZM76.9445 45.2239L76.7677 45.0471C76.6701 45.1448 76.6701 45.3031 76.7677 45.4007L76.9445 45.2239ZM79.6633 47.9428L79.4866 48.1196C79.5581 48.1911 79.6656 48.2124 79.759 48.1737C79.8524 48.1351 79.9133 48.0439 79.9133 47.9428H79.6633ZM77.0244 37.7071L76.8477 37.5303C76.8008 37.5772 76.7744 37.6408 76.7744 37.7071C76.7744 37.7734 76.8008 37.837 76.8477 37.8839L77.0244 37.7071ZM79.7433 40.4259L79.5665 40.6027C79.638 40.6742 79.7456 40.6956 79.839 40.6569C79.9324 40.6182 79.9933 40.5271 79.9933 40.4259H79.7433ZM79.7433 34.9882H79.9933C79.9933 34.8871 79.9324 34.7959 79.839 34.7573C79.7456 34.7186 79.638 34.7399 79.5665 34.8114L79.7433 34.9882ZM79.6633 27.4714H79.9133C79.9133 27.3703 79.8524 27.2791 79.759 27.2404C79.6656 27.2017 79.5581 27.2231 79.4866 27.2946L79.6633 27.4714ZM76.9445 30.1902L76.7677 30.0135C76.6711 30.1101 76.6699 30.2664 76.7652 30.3644L76.9445 30.1902ZM79.6633 32.9891L79.484 33.1633C79.5549 33.2363 79.663 33.259 79.7573 33.2207C79.8516 33.1825 79.9133 33.0908 79.9133 32.9891H79.6633ZM80.543 23.8729H80.293C80.293 24.011 80.4049 24.1229 80.543 24.1229V23.8729ZM82.0623 23.8729V24.1229C82.1454 24.1229 82.2231 24.0816 82.2696 24.0127C82.3161 23.9438 82.3253 23.8563 82.2941 23.7792L82.0623 23.8729ZM80.543 20.1145L80.7747 20.0208C80.7299 19.9098 80.6127 19.8462 80.4952 19.8691C80.3778 19.8919 80.293 19.9948 80.293 20.1145H80.543ZM75.745 20.5143L75.9218 20.6911C75.9686 20.6442 75.995 20.5806 75.995 20.5143C75.995 20.448 75.9686 20.3844 75.9218 20.3375L75.745 20.5143ZM73.0261 17.7954L73.2029 17.6187C73.1314 17.5472 73.0239 17.5258 72.9305 17.5645C72.837 17.6032 72.7761 17.6943 72.7761 17.7954H73.0261ZM73.0261 23.2332H72.7761C72.7761 23.3343 72.837 23.4254 72.9305 23.4641C73.0239 23.5028 73.1314 23.4814 73.2029 23.4099L73.0261 23.2332ZM77.0244 20.5143L76.8477 20.3375C76.8008 20.3844 76.7744 20.448 76.7744 20.5143C76.7744 20.5806 76.8008 20.6442 76.8477 20.6911L77.0244 20.5143ZM79.7433 23.2332L79.5665 23.4099C79.638 23.4814 79.7456 23.5028 79.839 23.4641C79.9324 23.4254 79.9933 23.3343 79.9933 23.2332H79.7433ZM79.7433 17.7954H79.9933C79.9933 17.6943 79.9324 17.6032 79.839 17.5645C79.7456 17.5258 79.638 17.5472 79.5665 17.6187L79.7433 17.7954ZM73.6659 17.2357V16.9857C73.5647 16.9857 73.4736 17.0466 73.4349 17.14C73.3962 17.2334 73.4176 17.341 73.4891 17.4125L73.6659 17.2357ZM76.3847 19.9545L76.2079 20.1313C76.2548 20.1782 76.3184 20.2045 76.3847 20.2045C76.451 20.2045 76.5146 20.1782 76.5615 20.1313L76.3847 19.9545ZM79.1036 17.2357L79.2803 17.4125C79.3518 17.341 79.3732 17.2334 79.3345 17.14C79.2958 17.0466 79.2047 16.9857 79.1036 16.9857V17.2357ZM79.1036 23.8729V24.1229C79.2047 24.1229 79.2958 24.062 79.3345 23.9686C79.3732 23.8751 79.3518 23.7676 79.2803 23.6961L79.1036 23.8729ZM76.3847 21.154L76.5615 20.9773C76.5146 20.9304 76.451 20.904 76.3847 20.904C76.3184 20.904 76.2548 20.9304 76.2079 20.9773L76.3847 21.154ZM73.6659 23.8729L73.4891 23.6961C73.4176 23.7676 73.3962 23.8751 73.4349 23.9686C73.4736 24.062 73.5647 24.1229 73.6659 24.1229V23.8729ZM72.2265 23.8729V24.1229C72.3645 24.1229 72.4765 24.011 72.4765 23.8729H72.2265ZM72.2265 18.5151H72.4765C72.4765 18.4334 72.4365 18.3568 72.3695 18.3101C72.3024 18.2633 72.2168 18.2523 72.1401 18.2805L72.2265 18.5151ZM57.6726 23.8729L57.5862 23.6383C57.4725 23.6801 57.4052 23.7975 57.4265 23.9168C57.4477 24.036 57.5514 24.1229 57.6726 24.1229V23.8729ZM82.782 24.6726H83.032C83.032 24.5345 82.9201 24.4226 82.782 24.4226V24.6726ZM49.9158 24.6726V24.4226C49.7778 24.4226 49.6658 24.5345 49.6658 24.6726H49.9158ZM82.782 26.032V26.282C82.9201 26.282 83.032 26.1701 83.032 26.032H82.782ZM49.9158 26.032H49.6658C49.6658 26.1701 49.7778 26.282 49.9158 26.282V26.032ZM41 34.1886C41 19.725 52.725 8 67.1886 8V7.5C52.4489 7.5 40.5 19.4489 40.5 34.1886H41ZM67.1886 60.3772C52.725 60.3772 41 48.6521 41 34.1886H40.5C40.5 48.9283 52.4489 60.8772 67.1886 60.8772V60.3772ZM93.3772 34.1886C93.3772 48.6521 81.6521 60.3772 67.1886 60.3772V60.8772C81.9283 60.8772 93.8772 48.9283 93.8772 34.1886H93.3772ZM67.1886 8C81.6521 8 93.3772 19.725 93.3772 34.1886H93.8772C93.8772 19.4489 81.9283 7.5 67.1886 7.5V8ZM67.1886 6C51.6205 6 39 18.6205 39 34.1886H39.5C39.5 18.8966 51.8966 6.5 67.1886 6.5V6ZM95.3772 34.1886C95.3772 18.6205 82.7567 6 67.1886 6V6.5C82.4806 6.5 94.8772 18.8966 94.8772 34.1886H95.3772ZM67.1886 62.3772C82.7567 62.3772 95.3772 49.7567 95.3772 34.1886H94.8772C94.8772 49.4806 82.4806 61.8772 67.1886 61.8772V62.3772ZM39 34.1886C39 49.7567 51.6205 62.3772 67.1886 62.3772V61.8772C51.8966 61.8772 39.5 49.4806 39.5 34.1886H39ZM83.4117 23.8729V26.9116H83.9117V23.8729H83.4117ZM82.942 24.1229H83.6617V23.6229H82.942V24.1229ZM80.3108 17.9683L82.7098 23.9657L83.1741 23.78L80.7751 17.7826L80.3108 17.9683ZM80.293 16.436V17.8754H80.793V16.436H80.293ZM72.2265 16.686H80.543V16.186H72.2265V16.686ZM72.4765 17.7155V16.436H71.9765V17.7155H72.4765ZM55.3599 24.1875L72.3128 17.9501L72.1401 17.4809L55.1873 23.7182L55.3599 24.1875ZM49.1162 24.2029H55.2736V23.7029H49.1162V24.2029ZM49.3662 26.9916V23.9529H48.8662V26.9916H49.3662ZM54.9537 26.7416H49.1162V27.2416H54.9537V26.7416ZM55.2037 32.7492V26.9916H54.7037V32.7492H55.2037ZM54.0042 34.3485C54.0042 33.6518 54.4159 33.1248 55.0079 32.9932L54.8995 32.5051C54.0521 32.6934 53.5042 33.4459 53.5042 34.3485H54.0042ZM55.0328 35.7106C54.4006 35.4999 54.0042 35.0259 54.0042 34.3485H53.5042C53.5042 35.2704 54.0675 35.9159 54.8747 36.185L55.0328 35.7106ZM55.2037 37.5471V35.9478H54.7037V37.5471H55.2037ZM55.3535 37.2971H54.9537V37.7971H55.3535V37.2971ZM56.2433 38.1869C56.2433 37.6289 55.7906 37.2971 55.3535 37.2971V37.7971C55.5563 37.7971 55.7433 37.9452 55.7433 38.1869H56.2433ZM55.3535 39.0766C55.9115 39.0766 56.2433 38.6239 56.2433 38.1869H55.7433C55.7433 38.3896 55.5953 38.5766 55.3535 38.5766V39.0766ZM54.4638 38.1869C54.4638 38.7448 54.9165 39.0766 55.3535 39.0766V38.5766C55.1508 38.5766 54.9638 38.4286 54.9638 38.1869H54.4638ZM53.9142 38.4369H54.7138V37.9369H53.9142V38.4369ZM54.6825 39.172C54.3684 38.9835 54.1642 38.5917 54.1642 38.1869H53.6642C53.6642 38.7416 53.9397 39.3094 54.4253 39.6007L54.6825 39.172ZM52.6515 41.6423L54.7307 39.5632L54.3771 39.2096L52.298 41.2887L52.6515 41.6423ZM51.1153 41.7155H52.4748V41.2155H51.1153V41.7155ZM51.3653 47.7029V41.4655H50.8653V47.7029H51.3653ZM59.5918 47.4529H51.1153V47.9529H59.5918V47.4529ZM59.3418 41.4655V47.7029H59.8418V41.4655H59.3418ZM58.2323 41.7155H59.5918V41.2155H58.2323V41.7155ZM55.9764 39.5632L58.0556 41.6423L58.4091 41.2887L56.33 39.2096L55.9764 39.5632ZM56.5429 38.1869C56.5429 38.5917 56.3387 38.9835 56.0246 39.172L56.2818 39.6007C56.7674 39.3094 57.0429 38.7416 57.0429 38.1869H56.5429ZM55.6927 37.07C56.2133 37.2001 56.5429 37.6536 56.5429 38.1869H57.0429C57.0429 37.4407 56.5729 36.7746 55.814 36.5849L55.6927 37.07ZM55.5034 36.0278V36.8274H56.0034V36.0278H55.5034ZM56.7029 34.4285C56.7029 35.1251 56.2912 35.6522 55.6991 35.7837L55.8076 36.2718C56.655 36.0835 57.2029 35.3311 57.2029 34.4285H56.7029ZM55.6743 33.0663C56.2994 33.2747 56.7029 33.8241 56.7029 34.4285H57.2029C57.2029 33.5935 56.6467 32.8634 55.8324 32.592L55.6743 33.0663ZM55.5034 27.0716V32.8291H56.0034V27.0716H55.5034ZM72.2265 26.8216H55.7534V27.3216H72.2265V26.8216ZM72.4765 48.6625V27.0716H71.9765V48.6625H72.4765ZM70.7071 48.9125H72.2265V48.4125H70.7071V48.9125ZM69.7864 51.3042L70.9349 48.7655L70.4793 48.5594L69.3308 51.0982L69.7864 51.3042ZM51.5951 51.4512H69.5586V50.9512H51.5951V51.4512ZM51.3451 51.7012C51.3451 51.5631 51.4571 51.4512 51.5951 51.4512V50.9512C51.1809 50.9512 50.8451 51.287 50.8451 51.7012H51.3451ZM51.5951 51.9512C51.4571 51.9512 51.3451 51.8393 51.3451 51.7012H50.8451C50.8451 52.1154 51.1809 52.4512 51.5951 52.4512V51.9512ZM82.862 51.9512H51.5951V52.4512H82.862V51.9512ZM83.0542 51.861C83.008 51.9165 82.9392 51.9512 82.862 51.9512V52.4512C83.0938 52.4512 83.3012 52.3457 83.4384 52.1811L83.0542 51.861ZM83.5817 51.7711H83.2463V52.2711H83.5817V51.7711ZM81.9109 48.5972L83.3503 52.1157L83.8131 51.9264L82.3737 48.4079L81.9109 48.5972ZM80.6229 48.7525H82.1423V48.2525H80.6229V48.7525ZM80.3729 26.9116V48.5025H80.8729V26.9116H80.3729ZM83.6617 26.6616H80.6229V27.1616H83.6617V26.6616ZM82.5227 51.1015L81.7318 49.2825L81.2733 49.4819L82.0642 51.3009L82.5227 51.1015ZM81.5026 49.1322H71.2669V49.6322H81.5026V49.1322ZM71.0376 49.2825L70.2467 51.1015L70.7052 51.3009L71.4961 49.4819L71.0376 49.2825ZM70.476 51.4512H82.2934V50.9512H70.476V51.4512ZM51.915 46.9133H58.7121V46.4133H51.915V46.9133ZM51.665 42.1052V46.6633H52.165V42.1052H51.665ZM58.7121 41.8552H51.915V42.3552H58.7121V41.8552ZM58.9621 46.6633V42.1052H58.4621V46.6633H58.9621ZM55.1768 39.4495L53.4975 41.1288L53.851 41.4823L55.5303 39.8031L55.1768 39.4495ZM57.2096 41.1288L55.5303 39.4495L55.1768 39.8031L56.8561 41.4823L57.2096 41.1288ZM53.6743 41.5556H57.0328V41.0556H53.6743V41.5556ZM55.3535 35.2382C55.9874 35.2382 56.4032 34.7099 56.4032 34.1886H55.9032C55.9032 34.4668 55.6793 34.7382 55.3535 34.7382V35.2382ZM54.3039 34.1886C54.3039 34.8224 54.8322 35.2382 55.3535 35.2382V34.7382C55.0753 34.7382 54.8039 34.5143 54.8039 34.1886H54.3039ZM55.3535 33.1389C55.0568 33.1389 54.7902 33.2389 54.597 33.432C54.4039 33.6252 54.3039 33.8918 54.3039 34.1886H54.8039C54.8039 34.0055 54.8638 33.8723 54.9506 33.7856C55.0373 33.6988 55.1705 33.6389 55.3535 33.6389V33.1389ZM56.4032 34.1886C56.4032 33.901 56.2593 33.6591 56.0739 33.486C55.8887 33.3132 55.6462 33.1925 55.4026 33.1438L55.3045 33.634C55.4607 33.6653 55.618 33.7445 55.7327 33.8515C55.8472 33.9583 55.9032 34.0762 55.9032 34.1886H56.4032ZM73.2054 33.1633L75.9243 30.3644L75.5657 30.016L72.8468 32.8149L73.2054 33.1633ZM72.7761 27.5513V32.9891H73.2761V27.5513H72.7761ZM75.9191 30.0108L73.2002 27.372L72.852 27.7307L75.5709 30.3696L75.9191 30.0108ZM76.5615 29.8073L79.2803 27.0884L78.9268 26.7348L76.2079 29.4537L76.5615 29.8073ZM73.4891 27.0884L76.2079 29.8073L76.5615 29.4537L73.8426 26.7348L73.4891 27.0884ZM79.1036 26.6616H73.6659V27.1616H79.1036V26.6616ZM79.6802 33.7719L76.5615 30.6532L76.2079 31.0067L79.3266 34.1254L79.6802 33.7719ZM76.5637 37.3218L79.6824 34.1232L79.3244 33.7741L76.2057 36.9728L76.5637 37.3218ZM73.0093 34.1254L76.2079 37.3241L76.5615 36.9705L73.3628 33.7719L73.0093 34.1254ZM76.2102 30.651L73.0115 33.7697L73.3606 34.1277L76.5592 31.009L76.2102 30.651ZM75.9218 37.5303L73.2029 34.8114L72.8493 35.165L75.5682 37.8839L75.9218 37.5303ZM73.2029 40.6027L75.9218 37.8839L75.5682 37.5303L72.8493 40.2492L73.2029 40.6027ZM72.7761 34.9882V40.4259H73.2761V34.9882H72.7761ZM79.6802 41.2088L76.5615 38.0901L76.2079 38.4436L79.3266 41.5623L79.6802 41.2088ZM76.5637 44.7587L79.6824 41.5601L79.3244 41.211L76.2057 44.4097L76.5637 44.7587ZM73.0115 41.6445L76.2102 44.7632L76.5592 44.4052L73.3606 41.2865L73.0115 41.6445ZM76.2079 38.0901L73.0093 41.2887L73.3628 41.6423L76.5615 38.4436L76.2079 38.0901ZM73.2029 48.1196L75.9218 45.4007L75.5682 45.0471L72.8493 47.766L73.2029 48.1196ZM72.7761 42.5051V47.9428H73.2761V42.5051H72.7761ZM75.9218 45.0471L73.2029 42.3283L72.8493 42.6818L75.5682 45.4007L75.9218 45.0471ZM79.2803 48.3258L76.5615 45.6069L76.2079 45.9605L78.9268 48.6793L79.2803 48.3258ZM73.6659 48.7525H79.1036V48.2525H73.6659V48.7525ZM76.2079 45.6069L73.4891 48.3258L73.8426 48.6793L76.5615 45.9605L76.2079 45.6069ZM79.4866 42.3283L76.7677 45.0471L77.1213 45.4007L79.8401 42.6818L79.4866 42.3283ZM79.9133 47.9428V42.5051H79.4133V47.9428H79.9133ZM76.7677 45.4007L79.4866 48.1196L79.8401 47.766L77.1213 45.0471L76.7677 45.4007ZM76.8477 37.8839L79.5665 40.6027L79.9201 40.2492L77.2012 37.5303L76.8477 37.8839ZM79.5665 34.8114L76.8477 37.5303L77.2012 37.8839L79.9201 35.165L79.5665 34.8114ZM79.9933 40.4259V34.9882H79.4933V40.4259H79.9933ZM79.4866 27.2946L76.7677 30.0135L77.1213 30.367L79.8401 27.6482L79.4866 27.2946ZM79.9133 32.9891V27.4714H79.4133V32.9891H79.9133ZM76.7652 30.3644L79.484 33.1633L79.8427 32.8149L77.1238 30.016L76.7652 30.3644ZM80.543 24.1229H82.0623V23.6229H80.543V24.1229ZM80.293 20.1145V23.8729H80.793V20.1145H80.293ZM82.2941 23.7792L80.7747 20.0208L80.3112 20.2082L81.8305 23.9666L82.2941 23.7792ZM75.9218 20.3375L73.2029 17.6187L72.8493 17.9722L75.5682 20.6911L75.9218 20.3375ZM73.2029 23.4099L75.9218 20.6911L75.5682 20.3375L72.8493 23.0564L73.2029 23.4099ZM72.7761 17.7954V23.2332H73.2761V17.7954H72.7761ZM76.8477 20.6911L79.5665 23.4099L79.9201 23.0564L77.2012 20.3375L76.8477 20.6911ZM79.5665 17.6187L76.8477 20.3375L77.2012 20.6911L79.9201 17.9722L79.5665 17.6187ZM79.9933 23.2332V17.7954H79.4933V23.2332H79.9933ZM73.4891 17.4125L76.2079 20.1313L76.5615 19.7778L73.8426 17.0589L73.4891 17.4125ZM79.1036 16.9857H73.6659V17.4857H79.1036V16.9857ZM76.5615 20.1313L79.2803 17.4125L78.9268 17.0589L76.2079 19.7778L76.5615 20.1313ZM79.2803 23.6961L76.5615 20.9773L76.2079 21.3308L78.9268 24.0497L79.2803 23.6961ZM73.6659 24.1229H79.1036V23.6229H73.6659V24.1229ZM76.2079 20.9773L73.4891 23.6961L73.8426 24.0497L76.5615 21.3308L76.2079 20.9773ZM72.4765 23.8729V18.5151H71.9765V23.8729H72.4765ZM57.6726 24.1229H72.2265V23.6229H57.6726V24.1229ZM72.1401 18.2805L57.5862 23.6383L57.7589 24.1075L72.3128 18.7498L72.1401 18.2805ZM82.782 24.4226H49.9158V24.9226H82.782V24.4226ZM83.032 26.032V24.6726H82.532V26.032H83.032ZM49.9158 26.282H82.782V25.782H49.9158V26.282ZM49.6658 24.6726V26.032H50.1658V24.6726H49.6658Z" fill="#BDACA8"/>
<path d="M6.2563 104.168C5.25763 104.168 4.3523 103.953 3.5403 103.524C2.73763 103.085 2.10296 102.483 1.6363 101.718C1.17896 100.943 0.950297 100.071 0.950297 99.1C0.950297 98.1293 1.17896 97.2613 1.6363 96.496C2.10296 95.7213 2.73763 95.1193 3.5403 94.69C4.3523 94.2513 5.2623 94.032 6.2703 94.032C7.11963 94.032 7.88496 94.1813 8.5663 94.48C9.25696 94.7787 9.83563 95.208 10.3023 95.768L8.8463 97.112C8.18363 96.3467 7.3623 95.964 6.3823 95.964C5.77563 95.964 5.2343 96.0993 4.7583 96.37C4.2823 96.6313 3.90896 97 3.6383 97.476C3.37696 97.952 3.2463 98.4933 3.2463 99.1C3.2463 99.7067 3.37696 100.248 3.6383 100.724C3.90896 101.2 4.2823 101.573 4.7583 101.844C5.2343 102.105 5.77563 102.236 6.3823 102.236C7.3623 102.236 8.18363 101.849 8.8463 101.074L10.3023 102.418C9.83563 102.987 9.25696 103.421 8.5663 103.72C7.87563 104.019 7.10563 104.168 6.2563 104.168ZM19.1748 96.048H16.0388V104H13.7988V96.048H10.6768V94.2H19.1748V96.048ZM24.8409 94.2C25.7089 94.2 26.4602 94.3447 27.0949 94.634C27.7389 94.9233 28.2335 95.334 28.5789 95.866C28.9242 96.398 29.0969 97.028 29.0969 97.756C29.0969 98.4747 28.9242 99.1047 28.5789 99.646C28.2335 100.178 27.7389 100.589 27.0949 100.878C26.4602 101.158 25.7089 101.298 24.8409 101.298H22.8669V104H20.5989V94.2H24.8409ZM24.7149 99.45C25.3962 99.45 25.9142 99.3053 26.2689 99.016C26.6235 98.7173 26.8009 98.2973 26.8009 97.756C26.8009 97.2053 26.6235 96.7853 26.2689 96.496C25.9142 96.1973 25.3962 96.048 24.7149 96.048H22.8669V99.45H24.7149ZM35.4057 104.168C34.3884 104.168 33.4691 103.949 32.6477 103.51C31.8357 103.071 31.1964 102.469 30.7297 101.704C30.2724 100.929 30.0437 100.061 30.0437 99.1C30.0437 98.1387 30.2724 97.2753 30.7297 96.51C31.1964 95.7353 31.8357 95.1287 32.6477 94.69C33.4691 94.2513 34.3884 94.032 35.4057 94.032C36.4231 94.032 37.3377 94.2513 38.1497 94.69C38.9617 95.1287 39.6011 95.7353 40.0677 96.51C40.5344 97.2753 40.7677 98.1387 40.7677 99.1C40.7677 100.061 40.5344 100.929 40.0677 101.704C39.6011 102.469 38.9617 103.071 38.1497 103.51C37.3377 103.949 36.4231 104.168 35.4057 104.168ZM35.4057 102.236C35.9844 102.236 36.5071 102.105 36.9737 101.844C37.4404 101.573 37.8044 101.2 38.0657 100.724C38.3364 100.248 38.4717 99.7067 38.4717 99.1C38.4717 98.4933 38.3364 97.952 38.0657 97.476C37.8044 97 37.4404 96.6313 36.9737 96.37C36.5071 96.0993 35.9844 95.964 35.4057 95.964C34.8271 95.964 34.3044 96.0993 33.8377 96.37C33.3711 96.6313 33.0024 97 32.7317 97.476C32.4704 97.952 32.3397 98.4933 32.3397 99.1C32.3397 99.7067 32.4704 100.248 32.7317 100.724C33.0024 101.2 33.3711 101.573 33.8377 101.844C34.3044 102.105 34.8271 102.236 35.4057 102.236ZM42.5149 94.2H44.7689V100.584L49.4449 94.2H51.5729V104H49.3329V97.63L44.6569 104H42.5149V94.2ZM61.5029 96.048H58.3669V104H56.1269V96.048H53.0049V94.2H61.5029V96.048ZM70.515 102.18V104H62.927V94.2H70.333V96.02H65.181V98.148H69.731V99.912H65.181V102.18H70.515ZM81.0829 94.2V104H78.8429V96.048H75.4829L75.4129 98.092C75.3662 99.4827 75.2542 100.612 75.0769 101.48C74.8996 102.339 74.6009 103.001 74.1809 103.468C73.7702 103.925 73.1916 104.154 72.4449 104.154C72.1369 104.154 71.7636 104.103 71.3249 104L71.4649 102.082C71.5862 102.119 71.7216 102.138 71.8709 102.138C72.4122 102.138 72.7902 101.821 73.0049 101.186C73.2196 100.542 73.3549 99.5387 73.4109 98.176L73.5509 94.2H81.0829ZM88.2765 97.42C89.4712 97.42 90.3858 97.686 91.0205 98.218C91.6645 98.75 91.9865 99.5387 91.9865 100.584C91.9865 101.695 91.6318 102.544 90.9225 103.132C90.2225 103.711 89.2332 104 87.9545 104H83.5305V94.2H85.7845V97.42H88.2765ZM87.8285 102.32C88.4165 102.32 88.8738 102.175 89.2005 101.886C89.5365 101.597 89.7045 101.177 89.7045 100.626C89.7045 99.6087 89.0792 99.1 87.8285 99.1H85.7845V102.32H87.8285ZM98.2543 104.168C97.2557 104.168 96.3503 103.953 95.5383 103.524C94.7357 103.085 94.101 102.483 93.6343 101.718C93.177 100.943 92.9483 100.071 92.9483 99.1C92.9483 98.1293 93.177 97.2613 93.6343 96.496C94.101 95.7213 94.7357 95.1193 95.5383 94.69C96.3503 94.2513 97.2603 94.032 98.2683 94.032C99.1177 94.032 99.883 94.1813 100.564 94.48C101.255 94.7787 101.834 95.208 102.3 95.768L100.844 97.112C100.182 96.3467 99.3603 95.964 98.3803 95.964C97.7737 95.964 97.2323 96.0993 96.7563 96.37C96.2803 96.6313 95.907 97 95.6363 97.476C95.375 97.952 95.2443 98.4933 95.2443 99.1C95.2443 99.7067 95.375 100.248 95.6363 100.724C95.907 101.2 96.2803 101.573 96.7563 101.844C97.2323 102.105 97.7737 102.236 98.3803 102.236C99.3603 102.236 100.182 101.849 100.844 101.074L102.3 102.418C101.834 102.987 101.255 103.421 100.564 103.72C99.8737 104.019 99.1037 104.168 98.2543 104.168ZM111.173 96.048H108.037V104H105.797V96.048H102.675V94.2H111.173V96.048ZM119.387 98.89C119.984 99.0673 120.442 99.3567 120.759 99.758C121.076 100.159 121.235 100.654 121.235 101.242C121.235 102.11 120.904 102.787 120.241 103.272C119.588 103.757 118.65 104 117.427 104H112.597V94.2H117.161C118.3 94.2 119.186 94.4193 119.821 94.858C120.456 95.2967 120.773 95.922 120.773 96.734C120.773 97.2193 120.652 97.6487 120.409 98.022C120.166 98.386 119.826 98.6753 119.387 98.89ZM114.851 98.26H116.965C117.46 98.26 117.833 98.162 118.085 97.966C118.337 97.7607 118.463 97.462 118.463 97.07C118.463 96.6873 118.332 96.3933 118.071 96.188C117.819 95.9827 117.45 95.88 116.965 95.88H114.851V98.26ZM117.343 102.32C118.407 102.32 118.939 101.9 118.939 101.06C118.939 100.248 118.407 99.842 117.343 99.842H114.851V102.32H117.343ZM127.705 104.168C126.687 104.168 125.768 103.949 124.947 103.51C124.135 103.071 123.495 102.469 123.029 101.704C122.571 100.929 122.343 100.061 122.343 99.1C122.343 98.1387 122.571 97.2753 123.029 96.51C123.495 95.7353 124.135 95.1287 124.947 94.69C125.768 94.2513 126.687 94.032 127.705 94.032C128.722 94.032 129.637 94.2513 130.449 94.69C131.261 95.1287 131.9 95.7353 132.367 96.51C132.833 97.2753 133.067 98.1387 133.067 99.1C133.067 100.061 132.833 100.929 132.367 101.704C131.9 102.469 131.261 103.071 130.449 103.51C129.637 103.949 128.722 104.168 127.705 104.168ZM127.705 102.236C128.283 102.236 128.806 102.105 129.273 101.844C129.739 101.573 130.103 101.2 130.365 100.724C130.635 100.248 130.771 99.7067 130.771 99.1C130.771 98.4933 130.635 97.952 130.365 97.476C130.103 97 129.739 96.6313 129.273 96.37C128.806 96.0993 128.283 95.964 127.705 95.964C127.126 95.964 126.603 96.0993 126.137 96.37C125.67 96.6313 125.301 97 125.031 97.476C124.769 97.952 124.639 98.4933 124.639 99.1C124.639 99.7067 124.769 100.248 125.031 100.724C125.301 101.2 125.67 101.573 126.137 101.844C126.603 102.105 127.126 102.236 127.705 102.236Z" fill="#BDACA8"/>
</svg>
