<svg width="118" height="105" viewBox="0 0 118 105" fill="none" xmlns="http://www.w3.org/2000/svg">
<path fill-rule="evenodd" clip-rule="evenodd" d="M59.1886 7.75C44.587 7.75 32.75 19.587 32.75 34.1886C32.75 48.7902 44.587 60.6272 59.1886 60.6272C73.7902 60.6272 85.6272 48.7902 85.6272 34.1886C85.6272 19.587 73.7902 7.75 59.1886 7.75ZM31.25 34.1886C31.25 18.7585 43.7585 6.25 59.1886 6.25C74.6186 6.25 87.1272 18.7585 87.1272 34.1886C87.1272 49.6186 74.6186 62.1272 59.1886 62.1272C43.7585 62.1272 31.25 49.6186 31.25 34.1886ZM75.6617 26.9116V23.8729H74.942L72.543 17.8754V16.436H64.2265V17.7155L47.2736 23.9529H41.1162V26.9916H46.9537V32.7492C46.234 32.9091 45.7542 33.5488 45.7542 34.3485C45.7542 35.1482 46.234 35.7079 46.9537 35.9478V37.5471H47.3535C47.6734 37.5471 47.9933 37.787 47.9933 38.1869C47.9933 38.5067 47.7534 38.8266 47.3535 38.8266C47.0337 38.8266 46.7138 38.5867 46.7138 38.1869H45.9142C45.9142 38.6667 46.1541 39.1465 46.5539 39.3864L44.4748 41.4655H43.1153V47.7029H51.5918V41.4655H50.2323L48.1532 39.3864C48.553 39.1465 48.7929 38.6667 48.7929 38.1869C48.7929 37.5471 48.3931 36.9874 47.7534 36.8274V36.0278C48.4731 35.8679 48.9529 35.2281 48.9529 34.4285C48.9529 33.7088 48.4731 33.069 47.7534 32.8291V27.0716H64.2265V48.6625H62.7071L61.5586 51.2012H43.5951C43.319 51.2012 43.0951 51.4251 43.0951 51.7012C43.0951 51.9773 43.319 52.2012 43.5951 52.2012H74.862C75.0165 52.2012 75.1546 52.1311 75.2463 52.0211H75.5817L74.1423 48.5025H72.6229V26.9116H75.6617ZM74.2934 51.2012L73.5026 49.3822H63.2669L62.476 51.2012H74.2934ZM50.7121 46.6633H43.915V42.1052H50.7121V46.6633ZM45.6743 41.3056L47.3535 39.6263L49.0328 41.3056H45.6743ZM48.1532 34.1886C48.1532 34.5884 47.8333 34.9882 47.3535 34.9882C46.9537 34.9882 46.5539 34.6684 46.5539 34.1886C46.5539 33.7088 46.8738 33.3889 47.3535 33.3889C47.7534 33.4689 48.1532 33.7887 48.1532 34.1886ZM67.745 30.1902L65.0261 32.9891V27.5513L67.745 30.1902ZM71.1036 26.9116L68.3847 29.6305L65.6659 26.9116H71.1036ZM68.3847 30.83L71.5034 33.9487L68.3847 37.1473L65.1861 33.9487L68.3847 30.83ZM65.0261 34.9882L67.745 37.7071L65.0261 40.4259V34.9882ZM68.3847 38.2668L71.5034 41.3855L68.3847 44.5842L65.1861 41.4655L68.3847 38.2668ZM67.745 45.2239L65.0261 47.9428V42.5051L67.745 45.2239ZM68.3847 45.7837L71.1036 48.5025H65.6659L68.3847 45.7837ZM68.9445 45.2239L71.6633 42.5051V47.9428L68.9445 45.2239ZM71.7433 40.4259L69.0244 37.7071L71.7433 34.9882V40.4259ZM68.9445 30.1902L71.6633 27.4714V32.9891L68.9445 30.1902ZM74.0623 23.8729H72.543V20.1145L74.0623 23.8729ZM65.0261 17.7954L67.745 20.5143L65.0261 23.2332V17.7954ZM71.7433 23.2332L69.0244 20.5143L71.7433 17.7954V23.2332ZM68.3847 19.9545L65.6659 17.2357H71.1036L68.3847 19.9545ZM68.3847 21.154L71.1036 23.8729H65.6659L68.3847 21.154ZM64.2265 18.5151V23.8729H49.6726L64.2265 18.5151ZM41.9158 24.6726H74.782V26.032H41.9158V24.6726Z" fill="#BDACA8"/>
<path d="M75.6617 23.8729H75.9117C75.9117 23.7348 75.7997 23.6229 75.6617 23.6229V23.8729ZM75.6617 26.9116V27.1616C75.7997 27.1616 75.9117 27.0497 75.9117 26.9116H75.6617ZM74.942 23.8729L74.7098 23.9657C74.7478 24.0607 74.8397 24.1229 74.942 24.1229V23.8729ZM72.543 17.8754H72.293C72.293 17.9072 72.299 17.9387 72.3108 17.9683L72.543 17.8754ZM72.543 16.436H72.793C72.793 16.2979 72.681 16.186 72.543 16.186V16.436ZM64.2265 16.436V16.186C64.0884 16.186 63.9765 16.2979 63.9765 16.436H64.2265ZM64.2265 17.7155L64.3128 17.9501C64.4111 17.9139 64.4765 17.8203 64.4765 17.7155H64.2265ZM47.2736 23.9529V24.2029C47.303 24.2029 47.3323 24.1977 47.3599 24.1875L47.2736 23.9529ZM41.1162 23.9529V23.7029C40.9781 23.7029 40.8662 23.8148 40.8662 23.9529H41.1162ZM41.1162 26.9916H40.8662C40.8662 27.1297 40.9781 27.2416 41.1162 27.2416V26.9916ZM46.9537 26.9916H47.2037C47.2037 26.8535 47.0918 26.7416 46.9537 26.7416V26.9916ZM46.9537 32.7492L47.008 32.9932C47.1223 32.9678 47.2037 32.8663 47.2037 32.7492H46.9537ZM46.9537 35.9478H47.2037C47.2037 35.8402 47.1349 35.7447 47.0328 35.7106L46.9537 35.9478ZM46.9537 37.5471H46.7037C46.7037 37.6852 46.8156 37.7971 46.9537 37.7971V37.5471ZM46.7138 38.1869H46.9638C46.9638 38.0488 46.8519 37.9369 46.7138 37.9369V38.1869ZM45.9142 38.1869V37.9369C45.7761 37.9369 45.6642 38.0488 45.6642 38.1869H45.9142ZM46.5539 39.3864L46.7307 39.5632C46.7851 39.5087 46.8114 39.4322 46.802 39.3558C46.7926 39.2794 46.7485 39.2116 46.6825 39.172L46.5539 39.3864ZM44.4748 41.4655V41.7155C44.5411 41.7155 44.6047 41.6892 44.6515 41.6423L44.4748 41.4655ZM43.1153 41.4655V41.2155C42.9773 41.2155 42.8653 41.3274 42.8653 41.4655H43.1153ZM43.1153 47.7029H42.8653C42.8653 47.841 42.9773 47.9529 43.1153 47.9529V47.7029ZM51.5918 47.7029V47.9529C51.7298 47.9529 51.8418 47.841 51.8418 47.7029H51.5918ZM51.5918 41.4655H51.8418C51.8418 41.3274 51.7298 41.2155 51.5918 41.2155V41.4655ZM50.2323 41.4655L50.0556 41.6423C50.1024 41.6892 50.166 41.7155 50.2323 41.7155V41.4655ZM48.1532 39.3864L48.0246 39.172C47.9586 39.2116 47.9145 39.2794 47.9051 39.3558C47.8957 39.4322 47.922 39.5087 47.9764 39.5632L48.1532 39.3864ZM47.7534 36.8274H47.5034C47.5034 36.9422 47.5815 37.0422 47.6927 37.07L47.7534 36.8274ZM47.7534 36.0278L47.6991 35.7837C47.5848 35.8092 47.5034 35.9106 47.5034 36.0278H47.7534ZM47.7534 32.8291H47.5034C47.5034 32.9367 47.5722 33.0323 47.6743 33.0663L47.7534 32.8291ZM47.7534 27.0716V26.8216C47.6153 26.8216 47.5034 26.9335 47.5034 27.0716H47.7534ZM64.2265 27.0716H64.4765C64.4765 26.9335 64.3645 26.8216 64.2265 26.8216V27.0716ZM64.2265 48.6625V48.9125C64.3645 48.9125 64.4765 48.8005 64.4765 48.6625H64.2265ZM62.7071 48.6625V48.4125C62.6089 48.4125 62.5198 48.47 62.4793 48.5594L62.7071 48.6625ZM61.5586 51.2012V51.4512C61.6568 51.4512 61.7459 51.3937 61.7864 51.3042L61.5586 51.2012ZM75.2463 52.0211V51.7711C75.1721 51.7711 75.1017 51.804 75.0542 51.861L75.2463 52.0211ZM75.5817 52.0211V52.2711C75.665 52.2711 75.7428 52.2296 75.7893 52.1604C75.8357 52.0913 75.8446 52.0035 75.8131 51.9264L75.5817 52.0211ZM74.1423 48.5025L74.3737 48.4079C74.3352 48.3139 74.2438 48.2525 74.1423 48.2525V48.5025ZM72.6229 48.5025H72.3729C72.3729 48.6406 72.4849 48.7525 72.6229 48.7525V48.5025ZM72.6229 26.9116V26.6616C72.4849 26.6616 72.3729 26.7735 72.3729 26.9116H72.6229ZM74.2934 51.2012V51.4512C74.3777 51.4512 74.4563 51.4088 74.5025 51.3383C74.5487 51.2678 74.5563 51.1788 74.5227 51.1015L74.2934 51.2012ZM73.5026 49.3822L73.7318 49.2825C73.6921 49.1912 73.6021 49.1322 73.5026 49.1322V49.3822ZM63.2669 49.3822V49.1322C63.1673 49.1322 63.0773 49.1912 63.0376 49.2825L63.2669 49.3822ZM62.476 51.2012L62.2467 51.1015C62.2131 51.1788 62.2207 51.2678 62.2669 51.3383C62.3131 51.4088 62.3917 51.4512 62.476 51.4512V51.2012ZM43.915 46.6633H43.665C43.665 46.8014 43.7769 46.9133 43.915 46.9133V46.6633ZM50.7121 46.6633V46.9133C50.8502 46.9133 50.9621 46.8014 50.9621 46.6633H50.7121ZM43.915 42.1052V41.8552C43.7769 41.8552 43.665 41.9672 43.665 42.1052H43.915ZM50.7121 42.1052H50.9621C50.9621 41.9672 50.8502 41.8552 50.7121 41.8552V42.1052ZM47.3535 39.6263L47.5303 39.4495C47.4834 39.4026 47.4199 39.3763 47.3536 39.3763C47.2872 39.3763 47.2237 39.4026 47.1768 39.4495L47.3535 39.6263ZM45.6743 41.3056L45.4975 41.1288C45.426 41.2003 45.4046 41.3078 45.4433 41.4012C45.482 41.4947 45.5731 41.5556 45.6743 41.5556V41.3056ZM49.0328 41.3056V41.5556C49.134 41.5556 49.2251 41.4947 49.2638 41.4012C49.3025 41.3078 49.2811 41.2003 49.2096 41.1288L49.0328 41.3056ZM47.3535 33.3889L47.4026 33.1438C47.3864 33.1405 47.37 33.1389 47.3535 33.1389V33.3889ZM65.0261 32.9891H64.7761C64.7761 33.0908 64.8378 33.1825 64.9321 33.2207C65.0264 33.259 65.1345 33.2363 65.2054 33.1633L65.0261 32.9891ZM67.745 30.1902L67.9243 30.3644C67.9705 30.3169 67.9959 30.2529 67.995 30.1866C67.994 30.1202 67.9667 30.057 67.9191 30.0108L67.745 30.1902ZM65.0261 27.5513L65.2002 27.372C65.1282 27.302 65.0212 27.282 64.9287 27.3211C64.8362 27.3602 64.7761 27.4509 64.7761 27.5513H65.0261ZM68.3847 29.6305L68.2079 29.8073C68.2548 29.8541 68.3184 29.8805 68.3847 29.8805C68.451 29.8805 68.5146 29.8541 68.5615 29.8073L68.3847 29.6305ZM71.1036 26.9116L71.2803 27.0884C71.3518 27.0169 71.3732 26.9094 71.3345 26.8159C71.2958 26.7225 71.2047 26.6616 71.1036 26.6616V26.9116ZM65.6659 26.9116V26.6616C65.5647 26.6616 65.4736 26.7225 65.4349 26.8159C65.3962 26.9094 65.4176 27.0169 65.4891 27.0884L65.6659 26.9116ZM71.5034 33.9487L71.6824 34.1232C71.7779 34.0252 71.7769 33.8686 71.6802 33.7719L71.5034 33.9487ZM68.3847 30.83L68.5615 30.6532C68.4647 30.5564 68.3082 30.5554 68.2102 30.651L68.3847 30.83ZM68.3847 37.1473L68.2079 37.3241C68.2552 37.3714 68.3194 37.3977 68.3863 37.3973C68.4531 37.3969 68.517 37.3697 68.5637 37.3218L68.3847 37.1473ZM65.1861 33.9487L65.0115 33.7697C64.9637 33.8163 64.9365 33.8802 64.9361 33.9471C64.9356 34.0139 64.962 34.0782 65.0093 34.1254L65.1861 33.9487ZM67.745 37.7071L67.9218 37.8839C67.9686 37.837 67.995 37.7734 67.995 37.7071C67.995 37.6408 67.9686 37.5772 67.9218 37.5303L67.745 37.7071ZM65.0261 34.9882L65.2029 34.8114C65.1314 34.7399 65.0239 34.7186 64.9305 34.7573C64.837 34.7959 64.7761 34.8871 64.7761 34.9882H65.0261ZM65.0261 40.4259H64.7761C64.7761 40.5271 64.837 40.6182 64.9305 40.6569C65.0239 40.6956 65.1314 40.6742 65.2029 40.6027L65.0261 40.4259ZM71.5034 41.3855L71.6824 41.5601C71.7779 41.4621 71.7769 41.3055 71.6802 41.2088L71.5034 41.3855ZM68.3847 38.2668L68.5615 38.0901C68.4639 37.9924 68.3056 37.9924 68.2079 38.0901L68.3847 38.2668ZM68.3847 44.5842L68.2102 44.7632C68.309 44.8596 68.4673 44.8576 68.5637 44.7587L68.3847 44.5842ZM65.1861 41.4655L65.0093 41.2887C64.962 41.336 64.9356 41.4002 64.9361 41.4671C64.9365 41.5339 64.9637 41.5978 65.0115 41.6445L65.1861 41.4655ZM65.0261 47.9428H64.7761C64.7761 48.0439 64.837 48.1351 64.9305 48.1737C65.0239 48.2124 65.1314 48.1911 65.2029 48.1196L65.0261 47.9428ZM67.745 45.2239L67.9218 45.4007C67.9686 45.3538 67.995 45.2902 67.995 45.2239C67.995 45.1576 67.9686 45.094 67.9218 45.0471L67.745 45.2239ZM65.0261 42.5051L65.2029 42.3283C65.1314 42.2568 65.0239 42.2354 64.9305 42.2741C64.837 42.3128 64.7761 42.404 64.7761 42.5051H65.0261ZM71.1036 48.5025V48.7525C71.2047 48.7525 71.2958 48.6916 71.3345 48.5982C71.3732 48.5048 71.3518 48.3973 71.2803 48.3258L71.1036 48.5025ZM68.3847 45.7837L68.5615 45.6069C68.4639 45.5093 68.3056 45.5093 68.2079 45.6069L68.3847 45.7837ZM65.6659 48.5025L65.4891 48.3258C65.4176 48.3973 65.3962 48.5048 65.4349 48.5982C65.4736 48.6916 65.5647 48.7525 65.6659 48.7525V48.5025ZM71.6633 42.5051H71.9133C71.9133 42.404 71.8524 42.3128 71.759 42.2741C71.6656 42.2354 71.5581 42.2568 71.4866 42.3283L71.6633 42.5051ZM68.9445 45.2239L68.7677 45.0471C68.6701 45.1448 68.6701 45.3031 68.7677 45.4007L68.9445 45.2239ZM71.6633 47.9428L71.4866 48.1196C71.5581 48.1911 71.6656 48.2124 71.759 48.1737C71.8524 48.1351 71.9133 48.0439 71.9133 47.9428H71.6633ZM69.0244 37.7071L68.8477 37.5303C68.8008 37.5772 68.7744 37.6408 68.7744 37.7071C68.7744 37.7734 68.8008 37.837 68.8477 37.8839L69.0244 37.7071ZM71.7433 40.4259L71.5665 40.6027C71.638 40.6742 71.7456 40.6956 71.839 40.6569C71.9324 40.6182 71.9933 40.5271 71.9933 40.4259H71.7433ZM71.7433 34.9882H71.9933C71.9933 34.8871 71.9324 34.7959 71.839 34.7573C71.7456 34.7186 71.638 34.7399 71.5665 34.8114L71.7433 34.9882ZM71.6633 27.4714H71.9133C71.9133 27.3703 71.8524 27.2791 71.759 27.2404C71.6656 27.2017 71.5581 27.2231 71.4866 27.2946L71.6633 27.4714ZM68.9445 30.1902L68.7677 30.0135C68.6711 30.1101 68.6699 30.2664 68.7652 30.3644L68.9445 30.1902ZM71.6633 32.9891L71.484 33.1633C71.5549 33.2363 71.663 33.259 71.7573 33.2207C71.8516 33.1825 71.9133 33.0908 71.9133 32.9891H71.6633ZM72.543 23.8729H72.293C72.293 24.011 72.4049 24.1229 72.543 24.1229V23.8729ZM74.0623 23.8729V24.1229C74.1454 24.1229 74.2231 24.0816 74.2696 24.0127C74.3161 23.9438 74.3253 23.8563 74.2941 23.7792L74.0623 23.8729ZM72.543 20.1145L72.7747 20.0208C72.7299 19.9098 72.6127 19.8462 72.4952 19.8691C72.3778 19.8919 72.293 19.9948 72.293 20.1145H72.543ZM67.745 20.5143L67.9218 20.6911C67.9686 20.6442 67.995 20.5806 67.995 20.5143C67.995 20.448 67.9686 20.3844 67.9218 20.3375L67.745 20.5143ZM65.0261 17.7954L65.2029 17.6187C65.1314 17.5472 65.0239 17.5258 64.9305 17.5645C64.837 17.6032 64.7761 17.6943 64.7761 17.7954H65.0261ZM65.0261 23.2332H64.7761C64.7761 23.3343 64.837 23.4254 64.9305 23.4641C65.0239 23.5028 65.1314 23.4814 65.2029 23.4099L65.0261 23.2332ZM69.0244 20.5143L68.8477 20.3375C68.8008 20.3844 68.7744 20.448 68.7744 20.5143C68.7744 20.5806 68.8008 20.6442 68.8477 20.6911L69.0244 20.5143ZM71.7433 23.2332L71.5665 23.4099C71.638 23.4814 71.7456 23.5028 71.839 23.4641C71.9324 23.4254 71.9933 23.3343 71.9933 23.2332H71.7433ZM71.7433 17.7954H71.9933C71.9933 17.6943 71.9324 17.6032 71.839 17.5645C71.7456 17.5258 71.638 17.5472 71.5665 17.6187L71.7433 17.7954ZM65.6659 17.2357V16.9857C65.5647 16.9857 65.4736 17.0466 65.4349 17.14C65.3962 17.2334 65.4176 17.341 65.4891 17.4125L65.6659 17.2357ZM68.3847 19.9545L68.2079 20.1313C68.2548 20.1782 68.3184 20.2045 68.3847 20.2045C68.451 20.2045 68.5146 20.1782 68.5615 20.1313L68.3847 19.9545ZM71.1036 17.2357L71.2803 17.4125C71.3518 17.341 71.3732 17.2334 71.3345 17.14C71.2958 17.0466 71.2047 16.9857 71.1036 16.9857V17.2357ZM71.1036 23.8729V24.1229C71.2047 24.1229 71.2958 24.062 71.3345 23.9686C71.3732 23.8751 71.3518 23.7676 71.2803 23.6961L71.1036 23.8729ZM68.3847 21.154L68.5615 20.9773C68.5146 20.9304 68.451 20.904 68.3847 20.904C68.3184 20.904 68.2548 20.9304 68.2079 20.9773L68.3847 21.154ZM65.6659 23.8729L65.4891 23.6961C65.4176 23.7676 65.3962 23.8751 65.4349 23.9686C65.4736 24.062 65.5647 24.1229 65.6659 24.1229V23.8729ZM64.2265 23.8729V24.1229C64.3645 24.1229 64.4765 24.011 64.4765 23.8729H64.2265ZM64.2265 18.5151H64.4765C64.4765 18.4334 64.4365 18.3568 64.3695 18.3101C64.3024 18.2633 64.2168 18.2523 64.1401 18.2805L64.2265 18.5151ZM49.6726 23.8729L49.5862 23.6383C49.4725 23.6801 49.4052 23.7975 49.4265 23.9168C49.4477 24.036 49.5514 24.1229 49.6726 24.1229V23.8729ZM74.782 24.6726H75.032C75.032 24.5345 74.9201 24.4226 74.782 24.4226V24.6726ZM41.9158 24.6726V24.4226C41.7778 24.4226 41.6658 24.5345 41.6658 24.6726H41.9158ZM74.782 26.032V26.282C74.9201 26.282 75.032 26.1701 75.032 26.032H74.782ZM41.9158 26.032H41.6658C41.6658 26.1701 41.7778 26.282 41.9158 26.282V26.032ZM33 34.1886C33 19.725 44.725 8 59.1886 8V7.5C44.4489 7.5 32.5 19.4489 32.5 34.1886H33ZM59.1886 60.3772C44.725 60.3772 33 48.6521 33 34.1886H32.5C32.5 48.9283 44.4489 60.8772 59.1886 60.8772V60.3772ZM85.3772 34.1886C85.3772 48.6521 73.6521 60.3772 59.1886 60.3772V60.8772C73.9283 60.8772 85.8772 48.9283 85.8772 34.1886H85.3772ZM59.1886 8C73.6521 8 85.3772 19.725 85.3772 34.1886H85.8772C85.8772 19.4489 73.9283 7.5 59.1886 7.5V8ZM59.1886 6C43.6205 6 31 18.6205 31 34.1886H31.5C31.5 18.8966 43.8966 6.5 59.1886 6.5V6ZM87.3772 34.1886C87.3772 18.6205 74.7567 6 59.1886 6V6.5C74.4806 6.5 86.8772 18.8966 86.8772 34.1886H87.3772ZM59.1886 62.3772C74.7567 62.3772 87.3772 49.7567 87.3772 34.1886H86.8772C86.8772 49.4806 74.4806 61.8772 59.1886 61.8772V62.3772ZM31 34.1886C31 49.7567 43.6205 62.3772 59.1886 62.3772V61.8772C43.8966 61.8772 31.5 49.4806 31.5 34.1886H31ZM75.4117 23.8729V26.9116H75.9117V23.8729H75.4117ZM74.942 24.1229H75.6617V23.6229H74.942V24.1229ZM72.3108 17.9683L74.7098 23.9657L75.1741 23.78L72.7751 17.7826L72.3108 17.9683ZM72.293 16.436V17.8754H72.793V16.436H72.293ZM64.2265 16.686H72.543V16.186H64.2265V16.686ZM64.4765 17.7155V16.436H63.9765V17.7155H64.4765ZM47.3599 24.1875L64.3128 17.9501L64.1401 17.4809L47.1873 23.7182L47.3599 24.1875ZM41.1162 24.2029H47.2736V23.7029H41.1162V24.2029ZM41.3662 26.9916V23.9529H40.8662V26.9916H41.3662ZM46.9537 26.7416H41.1162V27.2416H46.9537V26.7416ZM47.2037 32.7492V26.9916H46.7037V32.7492H47.2037ZM46.0042 34.3485C46.0042 33.6518 46.4159 33.1248 47.008 32.9932L46.8995 32.5051C46.0521 32.6934 45.5042 33.4459 45.5042 34.3485H46.0042ZM47.0328 35.7106C46.4006 35.4999 46.0042 35.0259 46.0042 34.3485H45.5042C45.5042 35.2704 46.0675 35.9159 46.8747 36.185L47.0328 35.7106ZM47.2037 37.5471V35.9478H46.7037V37.5471H47.2037ZM47.3535 37.2971H46.9537V37.7971H47.3535V37.2971ZM48.2433 38.1869C48.2433 37.6289 47.7906 37.2971 47.3535 37.2971V37.7971C47.5563 37.7971 47.7433 37.9452 47.7433 38.1869H48.2433ZM47.3535 39.0766C47.9115 39.0766 48.2433 38.6239 48.2433 38.1869H47.7433C47.7433 38.3896 47.5953 38.5766 47.3535 38.5766V39.0766ZM46.4638 38.1869C46.4638 38.7448 46.9165 39.0766 47.3535 39.0766V38.5766C47.1508 38.5766 46.9638 38.4286 46.9638 38.1869H46.4638ZM45.9142 38.4369H46.7138V37.9369H45.9142V38.4369ZM46.6825 39.172C46.3684 38.9835 46.1642 38.5917 46.1642 38.1869H45.6642C45.6642 38.7416 45.9397 39.3094 46.4253 39.6007L46.6825 39.172ZM44.6515 41.6423L46.7307 39.5632L46.3771 39.2096L44.298 41.2887L44.6515 41.6423ZM43.1153 41.7155H44.4748V41.2155H43.1153V41.7155ZM43.3653 47.7029V41.4655H42.8653V47.7029H43.3653ZM51.5918 47.4529H43.1153V47.9529H51.5918V47.4529ZM51.3418 41.4655V47.7029H51.8418V41.4655H51.3418ZM50.2323 41.7155H51.5918V41.2155H50.2323V41.7155ZM47.9764 39.5632L50.0556 41.6423L50.4091 41.2887L48.33 39.2096L47.9764 39.5632ZM48.5429 38.1869C48.5429 38.5917 48.3387 38.9835 48.0246 39.172L48.2818 39.6007C48.7674 39.3094 49.0429 38.7416 49.0429 38.1869H48.5429ZM47.6927 37.07C48.2133 37.2001 48.5429 37.6536 48.5429 38.1869H49.0429C49.0429 37.4407 48.5729 36.7746 47.814 36.5849L47.6927 37.07ZM47.5034 36.0278V36.8274H48.0034V36.0278H47.5034ZM48.7029 34.4285C48.7029 35.1251 48.2912 35.6522 47.6991 35.7837L47.8076 36.2718C48.655 36.0835 49.2029 35.3311 49.2029 34.4285H48.7029ZM47.6743 33.0663C48.2994 33.2747 48.7029 33.8241 48.7029 34.4285H49.2029C49.2029 33.5935 48.6467 32.8634 47.8324 32.592L47.6743 33.0663ZM47.5034 27.0716V32.8291H48.0034V27.0716H47.5034ZM64.2265 26.8216H47.7534V27.3216H64.2265V26.8216ZM64.4765 48.6625V27.0716H63.9765V48.6625H64.4765ZM62.7071 48.9125H64.2265V48.4125H62.7071V48.9125ZM61.7864 51.3042L62.9349 48.7655L62.4793 48.5594L61.3308 51.0982L61.7864 51.3042ZM43.5951 51.4512H61.5586V50.9512H43.5951V51.4512ZM43.3451 51.7012C43.3451 51.5631 43.4571 51.4512 43.5951 51.4512V50.9512C43.1809 50.9512 42.8451 51.287 42.8451 51.7012H43.3451ZM43.5951 51.9512C43.4571 51.9512 43.3451 51.8393 43.3451 51.7012H42.8451C42.8451 52.1154 43.1809 52.4512 43.5951 52.4512V51.9512ZM74.862 51.9512H43.5951V52.4512H74.862V51.9512ZM75.0542 51.861C75.008 51.9165 74.9392 51.9512 74.862 51.9512V52.4512C75.0938 52.4512 75.3012 52.3457 75.4384 52.1811L75.0542 51.861ZM75.5817 51.7711H75.2463V52.2711H75.5817V51.7711ZM73.9109 48.5972L75.3503 52.1157L75.8131 51.9264L74.3737 48.4079L73.9109 48.5972ZM72.6229 48.7525H74.1423V48.2525H72.6229V48.7525ZM72.3729 26.9116V48.5025H72.8729V26.9116H72.3729ZM75.6617 26.6616H72.6229V27.1616H75.6617V26.6616ZM74.5227 51.1015L73.7318 49.2825L73.2733 49.4819L74.0642 51.3009L74.5227 51.1015ZM73.5026 49.1322H63.2669V49.6322H73.5026V49.1322ZM63.0376 49.2825L62.2467 51.1015L62.7052 51.3009L63.4961 49.4819L63.0376 49.2825ZM62.476 51.4512H74.2934V50.9512H62.476V51.4512ZM43.915 46.9133H50.7121V46.4133H43.915V46.9133ZM43.665 42.1052V46.6633H44.165V42.1052H43.665ZM50.7121 41.8552H43.915V42.3552H50.7121V41.8552ZM50.9621 46.6633V42.1052H50.4621V46.6633H50.9621ZM47.1768 39.4495L45.4975 41.1288L45.851 41.4823L47.5303 39.8031L47.1768 39.4495ZM49.2096 41.1288L47.5303 39.4495L47.1768 39.8031L48.8561 41.4823L49.2096 41.1288ZM45.6743 41.5556H49.0328V41.0556H45.6743V41.5556ZM47.3535 35.2382C47.9874 35.2382 48.4032 34.7099 48.4032 34.1886H47.9032C47.9032 34.4668 47.6793 34.7382 47.3535 34.7382V35.2382ZM46.3039 34.1886C46.3039 34.8224 46.8322 35.2382 47.3535 35.2382V34.7382C47.0753 34.7382 46.8039 34.5143 46.8039 34.1886H46.3039ZM47.3535 33.1389C47.0568 33.1389 46.7902 33.2389 46.597 33.432C46.4039 33.6252 46.3039 33.8918 46.3039 34.1886H46.8039C46.8039 34.0055 46.8638 33.8723 46.9506 33.7856C47.0373 33.6988 47.1705 33.6389 47.3535 33.6389V33.1389ZM48.4032 34.1886C48.4032 33.901 48.2593 33.6591 48.0739 33.486C47.8887 33.3132 47.6462 33.1925 47.4026 33.1438L47.3045 33.634C47.4607 33.6653 47.618 33.7445 47.7327 33.8515C47.8472 33.9583 47.9032 34.0762 47.9032 34.1886H48.4032ZM65.2054 33.1633L67.9243 30.3644L67.5657 30.016L64.8468 32.8149L65.2054 33.1633ZM64.7761 27.5513V32.9891H65.2761V27.5513H64.7761ZM67.9191 30.0108L65.2002 27.372L64.852 27.7307L67.5709 30.3696L67.9191 30.0108ZM68.5615 29.8073L71.2803 27.0884L70.9268 26.7348L68.2079 29.4537L68.5615 29.8073ZM65.4891 27.0884L68.2079 29.8073L68.5615 29.4537L65.8426 26.7348L65.4891 27.0884ZM71.1036 26.6616H65.6659V27.1616H71.1036V26.6616ZM71.6802 33.7719L68.5615 30.6532L68.2079 31.0067L71.3266 34.1254L71.6802 33.7719ZM68.5637 37.3218L71.6824 34.1232L71.3244 33.7741L68.2057 36.9728L68.5637 37.3218ZM65.0093 34.1254L68.2079 37.3241L68.5615 36.9705L65.3628 33.7719L65.0093 34.1254ZM68.2102 30.651L65.0115 33.7697L65.3606 34.1277L68.5592 31.009L68.2102 30.651ZM67.9218 37.5303L65.2029 34.8114L64.8493 35.165L67.5682 37.8839L67.9218 37.5303ZM65.2029 40.6027L67.9218 37.8839L67.5682 37.5303L64.8493 40.2492L65.2029 40.6027ZM64.7761 34.9882V40.4259H65.2761V34.9882H64.7761ZM71.6802 41.2088L68.5615 38.0901L68.2079 38.4436L71.3266 41.5623L71.6802 41.2088ZM68.5637 44.7587L71.6824 41.5601L71.3244 41.211L68.2057 44.4097L68.5637 44.7587ZM65.0115 41.6445L68.2102 44.7632L68.5592 44.4052L65.3606 41.2865L65.0115 41.6445ZM68.2079 38.0901L65.0093 41.2887L65.3628 41.6423L68.5615 38.4436L68.2079 38.0901ZM65.2029 48.1196L67.9218 45.4007L67.5682 45.0471L64.8493 47.766L65.2029 48.1196ZM64.7761 42.5051V47.9428H65.2761V42.5051H64.7761ZM67.9218 45.0471L65.2029 42.3283L64.8493 42.6818L67.5682 45.4007L67.9218 45.0471ZM71.2803 48.3258L68.5615 45.6069L68.2079 45.9605L70.9268 48.6793L71.2803 48.3258ZM65.6659 48.7525H71.1036V48.2525H65.6659V48.7525ZM68.2079 45.6069L65.4891 48.3258L65.8426 48.6793L68.5615 45.9605L68.2079 45.6069ZM71.4866 42.3283L68.7677 45.0471L69.1213 45.4007L71.8401 42.6818L71.4866 42.3283ZM71.9133 47.9428V42.5051H71.4133V47.9428H71.9133ZM68.7677 45.4007L71.4866 48.1196L71.8401 47.766L69.1213 45.0471L68.7677 45.4007ZM68.8477 37.8839L71.5665 40.6027L71.9201 40.2492L69.2012 37.5303L68.8477 37.8839ZM71.5665 34.8114L68.8477 37.5303L69.2012 37.8839L71.9201 35.165L71.5665 34.8114ZM71.9933 40.4259V34.9882H71.4933V40.4259H71.9933ZM71.4866 27.2946L68.7677 30.0135L69.1213 30.367L71.8401 27.6482L71.4866 27.2946ZM71.9133 32.9891V27.4714H71.4133V32.9891H71.9133ZM68.7652 30.3644L71.484 33.1633L71.8427 32.8149L69.1238 30.016L68.7652 30.3644ZM72.543 24.1229H74.0623V23.6229H72.543V24.1229ZM72.293 20.1145V23.8729H72.793V20.1145H72.293ZM74.2941 23.7792L72.7747 20.0208L72.3112 20.2082L73.8305 23.9666L74.2941 23.7792ZM67.9218 20.3375L65.2029 17.6187L64.8493 17.9722L67.5682 20.6911L67.9218 20.3375ZM65.2029 23.4099L67.9218 20.6911L67.5682 20.3375L64.8493 23.0564L65.2029 23.4099ZM64.7761 17.7954V23.2332H65.2761V17.7954H64.7761ZM68.8477 20.6911L71.5665 23.4099L71.9201 23.0564L69.2012 20.3375L68.8477 20.6911ZM71.5665 17.6187L68.8477 20.3375L69.2012 20.6911L71.9201 17.9722L71.5665 17.6187ZM71.9933 23.2332V17.7954H71.4933V23.2332H71.9933ZM65.4891 17.4125L68.2079 20.1313L68.5615 19.7778L65.8426 17.0589L65.4891 17.4125ZM71.1036 16.9857H65.6659V17.4857H71.1036V16.9857ZM68.5615 20.1313L71.2803 17.4125L70.9268 17.0589L68.2079 19.7778L68.5615 20.1313ZM71.2803 23.6961L68.5615 20.9773L68.2079 21.3308L70.9268 24.0497L71.2803 23.6961ZM65.6659 24.1229H71.1036V23.6229H65.6659V24.1229ZM68.2079 20.9773L65.4891 23.6961L65.8426 24.0497L68.5615 21.3308L68.2079 20.9773ZM64.4765 23.8729V18.5151H63.9765V23.8729H64.4765ZM49.6726 24.1229H64.2265V23.6229H49.6726V24.1229ZM64.1401 18.2805L49.5862 23.6383L49.7589 24.1075L64.3128 18.7498L64.1401 18.2805ZM74.782 24.4226H41.9158V24.9226H74.782V24.4226ZM75.032 26.032V24.6726H74.532V26.032H75.032ZM41.9158 26.282H74.782V25.782H41.9158V26.282ZM41.6658 24.6726V26.032H42.1658V24.6726H41.6658Z" fill="#BDACA8"/>
<path d="M6.08345 102.14C5.09411 102.14 4.19811 101.925 3.39545 101.496C2.60211 101.057 1.97678 100.455 1.51945 99.69C1.07145 98.9247 0.847445 98.0613 0.847445 97.1C0.847445 96.1387 1.07611 95.2753 1.53345 94.51C1.99078 93.7447 2.61611 93.1473 3.40945 92.718C4.21211 92.2793 5.10811 92.06 6.09745 92.06C6.90011 92.06 7.63278 92.2 8.29545 92.48C8.95811 92.76 9.51811 93.166 9.97545 93.698L8.79945 94.804C8.09011 94.0387 7.21745 93.656 6.18145 93.656C5.50945 93.656 4.90745 93.8053 4.37545 94.104C3.84345 94.3933 3.42811 94.7993 3.12945 95.322C2.83078 95.8447 2.68145 96.4373 2.68145 97.1C2.68145 97.7627 2.83078 98.3553 3.12945 98.878C3.42811 99.4007 3.84345 99.8113 4.37545 100.11C4.90745 100.399 5.50945 100.544 6.18145 100.544C7.21745 100.544 8.09011 100.157 8.79945 99.382L9.97545 100.502C9.51811 101.034 8.95345 101.44 8.28145 101.72C7.61878 102 6.88611 102.14 6.08345 102.14ZM16.0922 102.14C15.0936 102.14 14.1929 101.925 13.3902 101.496C12.5876 101.057 11.9576 100.455 11.5002 99.69C11.0429 98.9153 10.8142 98.052 10.8142 97.1C10.8142 96.148 11.0429 95.2893 11.5002 94.524C11.9576 93.7493 12.5876 93.1473 13.3902 92.718C14.1929 92.2793 15.0936 92.06 16.0922 92.06C17.0909 92.06 17.9916 92.2793 18.7942 92.718C19.5969 93.1473 20.2269 93.7447 20.6842 94.51C21.1416 95.2753 21.3702 96.1387 21.3702 97.1C21.3702 98.0613 21.1416 98.9247 20.6842 99.69C20.2269 100.455 19.5969 101.057 18.7942 101.496C17.9916 101.925 17.0909 102.14 16.0922 102.14ZM16.0922 100.544C16.7456 100.544 17.3336 100.399 17.8562 100.11C18.3789 99.8113 18.7896 99.4007 19.0882 98.878C19.3869 98.346 19.5362 97.7533 19.5362 97.1C19.5362 96.4467 19.3869 95.8587 19.0882 95.336C18.7896 94.804 18.3789 94.3933 17.8562 94.104C17.3336 93.8053 16.7456 93.656 16.0922 93.656C15.4389 93.656 14.8509 93.8053 14.3282 94.104C13.8056 94.3933 13.3949 94.804 13.0962 95.336C12.7976 95.8587 12.6482 96.4467 12.6482 97.1C12.6482 97.7533 12.7976 98.346 13.0962 98.878C13.3949 99.4007 13.8056 99.8113 14.3282 100.11C14.8509 100.399 15.4389 100.544 16.0922 100.544ZM32.0074 92.2V102H30.5094L25.1054 95.364V102H23.2994V92.2H24.7974L30.2014 98.836V92.2H32.0074ZM37.6714 102.14C36.9154 102.14 36.1827 102.033 35.4734 101.818C34.7734 101.603 34.218 101.319 33.8074 100.964L34.4374 99.55C34.8387 99.8673 35.3287 100.129 35.9074 100.334C36.4954 100.53 37.0834 100.628 37.6714 100.628C38.3994 100.628 38.9407 100.511 39.2954 100.278C39.6594 100.045 39.8414 99.7367 39.8414 99.354C39.8414 99.074 39.7387 98.8453 39.5334 98.668C39.3374 98.4813 39.0854 98.3367 38.7774 98.234C38.4694 98.1313 38.0494 98.0147 37.5174 97.884C36.7707 97.7067 36.164 97.5293 35.6974 97.352C35.24 97.1747 34.8434 96.8993 34.5074 96.526C34.1807 96.1433 34.0174 95.63 34.0174 94.986C34.0174 94.4447 34.162 93.9547 34.4514 93.516C34.75 93.068 35.1934 92.7133 35.7814 92.452C36.3787 92.1907 37.1067 92.06 37.9654 92.06C38.5627 92.06 39.1507 92.1347 39.7294 92.284C40.3081 92.4333 40.8074 92.648 41.2274 92.928L40.6534 94.342C40.224 94.09 39.776 93.8987 39.3094 93.768C38.8427 93.6373 38.39 93.572 37.9514 93.572C37.2327 93.572 36.696 93.6933 36.3414 93.936C35.996 94.1787 35.8234 94.5007 35.8234 94.902C35.8234 95.182 35.9214 95.4107 36.1174 95.588C36.3227 95.7653 36.5794 95.9053 36.8874 96.008C37.1954 96.1107 37.6154 96.2273 38.1474 96.358C38.8754 96.526 39.4727 96.7033 39.9394 96.89C40.406 97.0673 40.8027 97.3427 41.1294 97.716C41.4654 98.0893 41.6334 98.5933 41.6334 99.228C41.6334 99.7693 41.4841 100.259 41.1854 100.698C40.896 101.137 40.4527 101.487 39.8554 101.748C39.258 102.009 38.53 102.14 37.6714 102.14ZM45.2894 93.74H42.0414V92.2H50.3574V93.74H47.1094V102H45.2894V93.74ZM58.1352 102L56.1332 99.13C56.0492 99.1393 55.9232 99.144 55.7552 99.144H53.5432V102H51.7232V92.2H55.7552C56.6046 92.2 57.3419 92.34 57.9672 92.62C58.6019 92.9 59.0872 93.3013 59.4232 93.824C59.7592 94.3467 59.9272 94.9673 59.9272 95.686C59.9272 96.4233 59.7452 97.058 59.3812 97.59C59.0266 98.122 58.5132 98.5187 57.8412 98.78L60.0952 102H58.1352ZM58.0932 95.686C58.0932 95.0607 57.8879 94.58 57.4772 94.244C57.0666 93.908 56.4646 93.74 55.6712 93.74H53.5432V97.646H55.6712C56.4646 97.646 57.0666 97.478 57.4772 97.142C57.8879 96.7967 58.0932 96.3113 58.0932 95.686ZM66.1775 102.14C64.8241 102.14 63.7695 101.762 63.0135 101.006C62.2575 100.241 61.8795 99.1487 61.8795 97.73V92.2H63.6995V97.66C63.6995 99.5827 64.5301 100.544 66.1915 100.544C67.8435 100.544 68.6695 99.5827 68.6695 97.66V92.2H70.4615V97.73C70.4615 99.1487 70.0835 100.241 69.3275 101.006C68.5808 101.762 67.5308 102.14 66.1775 102.14ZM77.5463 102.14C76.557 102.14 75.661 101.925 74.8583 101.496C74.065 101.057 73.4397 100.455 72.9823 99.69C72.5343 98.9247 72.3103 98.0613 72.3103 97.1C72.3103 96.1387 72.539 95.2753 72.9963 94.51C73.4537 93.7447 74.079 93.1473 74.8723 92.718C75.675 92.2793 76.571 92.06 77.5603 92.06C78.363 92.06 79.0957 92.2 79.7583 92.48C80.421 92.76 80.981 93.166 81.4383 93.698L80.2623 94.804C79.553 94.0387 78.6803 93.656 77.6443 93.656C76.9723 93.656 76.3703 93.8053 75.8383 94.104C75.3063 94.3933 74.891 94.7993 74.5923 95.322C74.2937 95.8447 74.1443 96.4373 74.1443 97.1C74.1443 97.7627 74.2937 98.3553 74.5923 98.878C74.891 99.4007 75.3063 99.8113 75.8383 100.11C76.3703 100.399 76.9723 100.544 77.6443 100.544C78.6803 100.544 79.553 100.157 80.2623 99.382L81.4383 100.502C80.981 101.034 80.4163 101.44 79.7443 101.72C79.0817 102 78.349 102.14 77.5463 102.14ZM85.0608 93.74H81.8128V92.2H90.1288V93.74H86.8808V102H85.0608V93.74ZM91.4947 92.2H93.3147V102H91.4947V92.2ZM100.543 102.14C99.5447 102.14 98.6441 101.925 97.8414 101.496C97.0387 101.057 96.4087 100.455 95.9514 99.69C95.4941 98.9153 95.2654 98.052 95.2654 97.1C95.2654 96.148 95.4941 95.2893 95.9514 94.524C96.4087 93.7493 97.0387 93.1473 97.8414 92.718C98.6441 92.2793 99.5447 92.06 100.543 92.06C101.542 92.06 102.443 92.2793 103.245 92.718C104.048 93.1473 104.678 93.7447 105.135 94.51C105.593 95.2753 105.821 96.1387 105.821 97.1C105.821 98.0613 105.593 98.9247 105.135 99.69C104.678 100.455 104.048 101.057 103.245 101.496C102.443 101.925 101.542 102.14 100.543 102.14ZM100.543 100.544C101.197 100.544 101.785 100.399 102.307 100.11C102.83 99.8113 103.241 99.4007 103.539 98.878C103.838 98.346 103.987 97.7533 103.987 97.1C103.987 96.4467 103.838 95.8587 103.539 95.336C103.241 94.804 102.83 94.3933 102.307 94.104C101.785 93.8053 101.197 93.656 100.543 93.656C99.8901 93.656 99.3021 93.8053 98.7794 94.104C98.2567 94.3933 97.8461 94.804 97.5474 95.336C97.2487 95.8587 97.0994 96.4467 97.0994 97.1C97.0994 97.7533 97.2487 98.346 97.5474 98.878C97.8461 99.4007 98.2567 99.8113 98.7794 100.11C99.3021 100.399 99.8901 100.544 100.543 100.544ZM116.459 92.2V102H114.961L109.557 95.364V102H107.751V92.2H109.249L114.653 98.836V92.2H116.459Z" fill="#BDACA8"/>
</svg>
