<svg width="136" height="110" viewBox="0 0 136 110" fill="none" xmlns="http://www.w3.org/2000/svg">
<path fill-rule="evenodd" clip-rule="evenodd" d="M67.6772 7.25C53.0818 7.25 41.25 19.0818 41.25 33.6772C41.25 48.2725 53.0818 60.1043 67.6772 60.1043C82.2725 60.1043 94.1043 48.2725 94.1043 33.6772C94.1043 19.0818 82.2725 7.25 67.6772 7.25ZM39.75 33.6772C39.75 18.2534 52.2534 5.75 67.6772 5.75C83.1009 5.75 95.6043 18.2534 95.6043 33.6772C95.6043 49.1009 83.1009 61.6043 67.6772 61.6043C52.2534 61.6043 39.75 49.1009 39.75 33.6772ZM56.3267 36.3949H63.9203C64.2401 36.3949 64.3999 36.1551 64.3999 35.9153C64.3999 35.5956 64.1601 35.4357 63.9203 35.4357H56.3267C56.007 35.4357 55.8471 35.6755 55.8471 35.9153C55.7672 36.1551 56.007 36.3949 56.3267 36.3949ZM63.9203 39.9919H56.3267C56.007 39.9919 55.7672 39.7521 55.8471 39.5123C55.8471 39.2725 56.007 39.0327 56.3267 39.0327H63.9203C64.1601 39.0327 64.3999 39.1925 64.3999 39.5123C64.3999 39.7521 64.2401 39.9919 63.9203 39.9919ZM56.3267 43.5888H63.9203C64.2401 43.5888 64.3999 43.349 64.3999 43.1092C64.3999 42.7895 64.1601 42.6297 63.9203 42.6297H56.3267C56.007 42.6297 55.8471 42.8694 55.8471 43.1092C55.7672 43.349 56.007 43.5888 56.3267 43.5888ZM63.9203 47.1858H56.3267C56.007 47.1858 55.7672 46.946 55.8471 46.7062C55.8471 46.4664 56.007 46.2266 56.3267 46.2266H63.9203C64.1601 46.2266 64.3999 46.3865 64.3999 46.7062C64.3999 46.946 64.2401 47.1858 63.9203 47.1858ZM70.7945 47.9852C71.1143 47.9852 71.2741 47.7454 71.2741 47.5056V28.1618C71.2741 27.8421 71.0343 27.6822 70.7945 27.6822C70.5547 27.6822 70.3149 27.922 70.3149 28.1618V47.5056C70.235 47.7454 70.4748 47.9852 70.7945 47.9852ZM75.031 47.5056C75.031 47.7454 74.8711 47.9852 74.5514 47.9852C74.3116 47.9852 74.0718 47.7454 74.0718 47.5056V28.1618C74.0718 27.922 74.2317 27.6822 74.5514 27.6822C74.7912 27.6822 75.031 27.8421 75.031 28.1618V47.5056ZM78.3882 47.9852C78.7079 47.9852 78.8678 47.7454 78.8678 47.5056V28.1618C78.8678 27.8421 78.628 27.6822 78.3882 27.6822C78.0684 27.6822 77.9086 27.922 77.9086 28.1618V47.5056C77.8286 47.7454 78.0684 47.9852 78.3882 47.9852ZM66.8778 21.2076C66.8778 20.9678 67.0377 20.728 67.3574 20.728C67.5972 20.728 67.837 20.9678 67.837 21.2076C67.837 21.4474 67.6772 21.6872 67.3574 21.6872C67.1176 21.6872 66.8778 21.5274 66.8778 21.2076ZM64.5598 20.728C64.2401 20.728 64.0802 20.9678 64.0802 21.2076C64.0802 21.5274 64.32 21.6872 64.5598 21.6872C64.8795 21.6872 65.0394 21.4474 65.0394 21.2076C65.1193 20.9678 64.8795 20.728 64.5598 20.728ZM61.3625 21.2076C61.3625 20.9678 61.5223 20.728 61.8421 20.728C62.0819 20.728 62.3217 20.9678 62.3217 21.2076C62.3217 21.4474 62.1618 21.6872 61.8421 21.6872C61.6023 21.6872 61.3625 21.5274 61.3625 21.2076ZM70.0752 20.728C69.7554 20.728 69.5956 20.9678 69.5956 21.2076C69.5956 21.5274 69.8354 21.6872 70.0752 21.6872C70.3949 21.6872 70.5547 21.4474 70.5547 21.2076C70.6347 20.9678 70.3949 20.728 70.0752 20.728ZM61.3625 25.3642C61.3625 25.1244 61.5223 24.8846 61.8421 24.8846C62.0819 24.8846 62.3217 25.1244 62.3217 25.3642C62.3217 25.604 62.1618 25.8438 61.8421 25.8438C61.6023 25.8438 61.3625 25.6839 61.3625 25.3642ZM64.5598 24.8846C64.2401 24.8846 64.0802 25.1244 64.0802 25.3642C64.0802 25.6839 64.32 25.8438 64.5598 25.8438C64.8795 25.8438 65.0394 25.604 65.0394 25.3642C65.1193 25.1244 64.8795 24.8846 64.5598 24.8846ZM61.3625 29.5207C61.3625 29.2809 61.5223 29.0411 61.8421 29.0411C62.0819 29.0411 62.3217 29.2809 62.3217 29.5207C62.3217 29.7605 62.1618 30.0003 61.8421 30.0003C61.6023 30.0003 61.3625 29.8404 61.3625 29.5207ZM64.5598 29.0411C64.2401 29.0411 64.0802 29.2809 64.0802 29.5207C64.0802 29.8404 64.32 30.0003 64.5598 30.0003C64.8795 30.0003 65.0394 29.7605 65.0394 29.5207C65.1193 29.2809 64.8795 29.0411 64.5598 29.0411ZM82.7045 49.7437H84.2233C84.543 49.7437 84.7828 49.9835 84.7828 50.1433C84.7828 50.3831 84.6229 50.6229 84.3032 50.6229H51.211C50.9712 50.6229 50.7314 50.4631 50.7314 50.1433C50.7314 49.9035 50.8913 49.6637 51.211 49.6637H52.7297V32.2384C52.7297 31.9986 52.8896 31.7588 53.2093 31.7588H58.5648V17.6107H57.6856C57.4458 17.6107 57.206 17.4508 57.206 17.1311C57.206 16.8913 57.3658 16.6515 57.6856 16.6515H74.3116C74.5514 16.6515 74.7912 16.8113 74.7912 17.1311C74.7912 17.3709 74.6313 17.6107 74.3116 17.6107H73.4323V24.8846H82.2249C82.4647 24.8846 82.7045 25.0444 82.7045 25.3642V49.7437ZM53.6889 49.7437H66.4782V32.7979H53.6889V49.7437ZM66.4782 31.7588V25.3642C66.4782 25.1244 66.718 24.8846 67.0377 24.8846H72.3932V17.6107H59.604V31.7588H66.4782ZM67.5173 49.7437H81.6654V25.9237H67.5173V49.7437Z" fill="#BDACA8"/>
<path d="M55.8471 35.9153L56.0843 35.9943L56.0971 35.9559V35.9153H55.8471ZM55.8471 39.5123L56.0843 39.5913L56.0971 39.5528V39.5123H55.8471ZM55.8471 43.1092L56.0843 43.1883L56.0971 43.1498V43.1092H55.8471ZM55.8471 46.7062L56.0843 46.7853L56.0971 46.7468V46.7062H55.8471ZM70.3149 47.5056L70.5521 47.5846L70.5649 47.5461V47.5056H70.3149ZM77.9086 47.5056L78.1457 47.5846L78.1586 47.5461V47.5056H77.9086ZM65.0394 21.2076L64.8022 21.1286L64.7894 21.1671V21.2076H65.0394ZM70.5547 21.2076L70.3176 21.1286L70.3047 21.1671V21.2076H70.5547ZM65.0394 25.3642L64.8022 25.2851L64.7894 25.3236V25.3642H65.0394ZM65.0394 29.5207L64.8022 29.4416L64.7894 29.4801V29.5207H65.0394ZM82.7045 49.7437H82.4545V49.9937H82.7045V49.7437ZM52.7297 49.6637V49.9137H52.9797V49.6637H52.7297ZM58.5648 31.7588V32.0088H58.8148V31.7588H58.5648ZM58.5648 17.6107H58.8148V17.3607H58.5648V17.6107ZM73.4323 17.6107V17.3607H73.1823V17.6107H73.4323ZM73.4323 24.8846H73.1823V25.1346H73.4323V24.8846ZM66.4782 49.7437V49.9937H66.7282V49.7437H66.4782ZM53.6889 49.7437H53.4389V49.9937H53.6889V49.7437ZM66.4782 32.7979H66.7282V32.5479H66.4782V32.7979ZM53.6889 32.7979V32.5479H53.4389V32.7979H53.6889ZM66.4782 31.7588V32.0088H66.7282V31.7588H66.4782ZM72.3932 24.8846V25.1346H72.6432V24.8846H72.3932ZM72.3932 17.6107H72.6432V17.3607H72.3932V17.6107ZM59.604 17.6107V17.3607H59.354V17.6107H59.604ZM59.604 31.7588H59.354V32.0088H59.604V31.7588ZM81.6654 49.7437V49.9937H81.9154V49.7437H81.6654ZM67.5173 49.7437H67.2673V49.9937H67.5173V49.7437ZM81.6654 25.9237H81.9154V25.6737H81.6654V25.9237ZM67.5173 25.9237V25.6737H67.2673V25.9237H67.5173ZM41.5 33.6772C41.5 19.2199 53.2199 7.5 67.6772 7.5V7C52.9438 7 41 18.9438 41 33.6772H41.5ZM67.6772 59.8543C53.2199 59.8543 41.5 48.1344 41.5 33.6772H41C41 48.4106 52.9438 60.3543 67.6772 60.3543V59.8543ZM93.8543 33.6772C93.8543 48.1344 82.1344 59.8543 67.6772 59.8543V60.3543C82.4106 60.3543 94.3543 48.4106 94.3543 33.6772H93.8543ZM67.6772 7.5C82.1344 7.5 93.8543 19.2199 93.8543 33.6772H94.3543C94.3543 18.9438 82.4106 7 67.6772 7V7.5ZM67.6772 5.5C52.1153 5.5 39.5 18.1153 39.5 33.6772H40C40 18.3915 52.3915 6 67.6772 6V5.5ZM95.8543 33.6772C95.8543 18.1153 83.239 5.5 67.6772 5.5V6C82.9628 6 95.3543 18.3915 95.3543 33.6772H95.8543ZM67.6772 61.8543C83.239 61.8543 95.8543 49.239 95.8543 33.6772H95.3543C95.3543 48.9628 82.9628 61.3543 67.6772 61.3543V61.8543ZM39.5 33.6772C39.5 49.239 52.1153 61.8543 67.6772 61.8543V61.3543C52.3915 61.3543 40 48.9628 40 33.6772H39.5ZM63.9203 36.1449H56.3267V36.6449H63.9203V36.1449ZM64.1499 35.9153C64.1499 35.9819 64.1274 36.0404 64.0932 36.0789C64.063 36.1129 64.0123 36.1449 63.9203 36.1449V36.6449C64.148 36.6449 64.3372 36.557 64.4669 36.4111C64.5925 36.2698 64.6499 36.0885 64.6499 35.9153H64.1499ZM63.9203 35.6857C63.987 35.6857 64.0454 35.7082 64.084 35.7424C64.1179 35.7726 64.1499 35.8233 64.1499 35.9153H64.6499C64.6499 35.6876 64.562 35.4984 64.4161 35.3687C64.2748 35.2431 64.0935 35.1857 63.9203 35.1857V35.6857ZM56.3267 35.6857H63.9203V35.1857H56.3267V35.6857ZM56.0971 35.9153C56.0971 35.8487 56.1196 35.7902 56.1539 35.7517C56.184 35.7177 56.2347 35.6857 56.3267 35.6857V35.1857C56.099 35.1857 55.9098 35.2736 55.7802 35.4195C55.6545 35.5608 55.5971 35.7421 55.5971 35.9153H56.0971ZM56.3267 36.1449C56.2275 36.1449 56.153 36.1074 56.1138 36.0682C56.0766 36.031 56.0801 36.0068 56.0843 35.9943L55.6099 35.8362C55.5341 36.0636 55.6176 36.2791 55.7603 36.4218C55.9009 36.5625 56.1062 36.6449 56.3267 36.6449V36.1449ZM56.3267 40.2419H63.9203V39.7419H56.3267V40.2419ZM55.6099 39.4332C55.5341 39.6606 55.6176 39.8761 55.7603 40.0188C55.9009 40.1594 56.1062 40.2419 56.3267 40.2419V39.7419C56.2275 39.7419 56.153 39.7044 56.1138 39.6652C56.0766 39.628 56.0801 39.6038 56.0843 39.5913L55.6099 39.4332ZM56.3267 38.7827C56.099 38.7827 55.9098 38.8705 55.7802 39.0164C55.6545 39.1578 55.5971 39.3391 55.5971 39.5123H56.0971C56.0971 39.4456 56.1196 39.3872 56.1539 39.3486C56.184 39.3147 56.2347 39.2827 56.3267 39.2827V38.7827ZM63.9203 38.7827H56.3267V39.2827H63.9203V38.7827ZM64.6499 39.5123C64.6499 39.2846 64.562 39.0954 64.4161 38.9657C64.2748 38.8401 64.0935 38.7827 63.9203 38.7827V39.2827C63.987 39.2827 64.0454 39.3052 64.084 39.3394C64.1179 39.3696 64.1499 39.4202 64.1499 39.5123H64.6499ZM63.9203 40.2419C64.148 40.2419 64.3372 40.154 64.4669 40.0081C64.5925 39.8668 64.6499 39.6854 64.6499 39.5123H64.1499C64.1499 39.5789 64.1274 39.6374 64.0932 39.6759C64.063 39.7098 64.0123 39.7419 63.9203 39.7419V40.2419ZM63.9203 43.3388H56.3267V43.8388H63.9203V43.3388ZM64.1499 43.1092C64.1499 43.1759 64.1274 43.2343 64.0932 43.2729C64.063 43.3068 64.0123 43.3388 63.9203 43.3388V43.8388C64.148 43.8388 64.3372 43.751 64.4669 43.6051C64.5925 43.4637 64.6499 43.2824 64.6499 43.1092H64.1499ZM63.9203 42.8797C63.987 42.8797 64.0454 42.9021 64.084 42.9364C64.1179 42.9666 64.1499 43.0172 64.1499 43.1092H64.6499C64.6499 42.8815 64.562 42.6924 64.4161 42.5627C64.2748 42.4371 64.0935 42.3797 63.9203 42.3797V42.8797ZM56.3267 42.8797H63.9203V42.3797H56.3267V42.8797ZM56.0971 43.1092C56.0971 43.0426 56.1196 42.9842 56.1539 42.9456C56.184 42.9117 56.2347 42.8797 56.3267 42.8797V42.3797C56.099 42.3797 55.9098 42.4675 55.7802 42.6134C55.6545 42.7547 55.5971 42.9361 55.5971 43.1092H56.0971ZM56.3267 43.3388C56.2275 43.3388 56.153 43.3014 56.1138 43.2622C56.0766 43.225 56.0801 43.2007 56.0843 43.1883L55.6099 43.0302C55.5341 43.2575 55.6176 43.4731 55.7603 43.6157C55.9009 43.7564 56.1062 43.8388 56.3267 43.8388V43.3388ZM56.3267 47.4358H63.9203V46.9358H56.3267V47.4358ZM55.6099 46.6272C55.5341 46.8545 55.6176 47.0701 55.7603 47.2127C55.9009 47.3534 56.1062 47.4358 56.3267 47.4358V46.9358C56.2275 46.9358 56.153 46.8983 56.1138 46.8592C56.0766 46.822 56.0801 46.7977 56.0843 46.7853L55.6099 46.6272ZM56.3267 45.9766C56.099 45.9766 55.9098 46.0645 55.7802 46.2104C55.6545 46.3517 55.5971 46.5331 55.5971 46.7062H56.0971C56.0971 46.6396 56.1196 46.5811 56.1539 46.5426C56.184 46.5086 56.2347 46.4766 56.3267 46.4766V45.9766ZM63.9203 45.9766H56.3267V46.4766H63.9203V45.9766ZM64.6499 46.7062C64.6499 46.4785 64.562 46.2894 64.4161 46.1597C64.2748 46.0341 64.0935 45.9766 63.9203 45.9766V46.4766C63.987 46.4766 64.0454 46.4991 64.084 46.5334C64.1179 46.5635 64.1499 46.6142 64.1499 46.7062H64.6499ZM63.9203 47.4358C64.148 47.4358 64.3372 47.3479 64.4669 47.202C64.5925 47.0607 64.6499 46.8794 64.6499 46.7062H64.1499C64.1499 46.7729 64.1274 46.8313 64.0932 46.8699C64.063 46.9038 64.0123 46.9358 63.9203 46.9358V47.4358ZM71.0241 47.5056C71.0241 47.5722 71.0016 47.6306 70.9674 47.6692C70.9372 47.7031 70.8866 47.7352 70.7945 47.7352V48.2352C71.0223 48.2352 71.2114 48.1473 71.3411 48.0014C71.4667 47.8601 71.5241 47.6787 71.5241 47.5056H71.0241ZM71.0241 28.1618V47.5056H71.5241V28.1618H71.0241ZM70.7945 27.9322C70.8612 27.9322 70.9196 27.9547 70.9582 27.989C70.9921 28.0191 71.0241 28.0698 71.0241 28.1618H71.5241C71.5241 27.9341 71.4363 27.745 71.2904 27.6153C71.1491 27.4896 70.9677 27.4322 70.7945 27.4322V27.9322ZM70.5649 28.1618C70.5649 28.1232 70.5868 28.0637 70.6416 28.0089C70.6964 27.954 70.756 27.9322 70.7945 27.9322V27.4322C70.5933 27.4322 70.4131 27.5303 70.288 27.6553C70.163 27.7803 70.0649 27.9606 70.0649 28.1618H70.5649ZM70.5649 47.5056V28.1618H70.0649V47.5056H70.5649ZM70.7945 47.7352C70.6953 47.7352 70.6208 47.6977 70.5816 47.6585C70.5445 47.6213 70.548 47.5971 70.5521 47.5846L70.0778 47.4265C70.002 47.6539 70.0854 47.8694 70.2281 48.0121C70.3688 48.1527 70.5741 48.2352 70.7945 48.2352V47.7352ZM74.5514 48.2352C74.7791 48.2352 74.9682 48.1473 75.0979 48.0014C75.2235 47.8601 75.281 47.6787 75.281 47.5056H74.781C74.781 47.5722 74.7585 47.6306 74.7242 47.6692C74.6941 47.7031 74.6434 47.7352 74.5514 47.7352V48.2352ZM73.8218 47.5056C73.8218 47.7068 73.9199 47.887 74.0449 48.0121C74.1699 48.1371 74.3502 48.2352 74.5514 48.2352V47.7352C74.5128 47.7352 74.4533 47.7133 74.3984 47.6585C74.3436 47.6037 74.3218 47.5442 74.3218 47.5056H73.8218ZM73.8218 28.1618V47.5056H74.3218V28.1618H73.8218ZM74.5514 27.4322C74.3237 27.4322 74.1345 27.5201 74.0048 27.666C73.8792 27.8073 73.8218 27.9886 73.8218 28.1618H74.3218C74.3218 28.0952 74.3443 28.0367 74.3785 27.9982C74.4087 27.9642 74.4594 27.9322 74.5514 27.9322V27.4322ZM75.281 28.1618C75.281 27.9341 75.1931 27.7449 75.0472 27.6153C74.9059 27.4896 74.7246 27.4322 74.5514 27.4322V27.9322C74.618 27.9322 74.6765 27.9547 74.715 27.989C74.749 28.0191 74.781 28.0698 74.781 28.1618H75.281ZM75.281 47.5056V28.1618H74.781V47.5056H75.281ZM78.6178 47.5056C78.6178 47.5722 78.5953 47.6306 78.561 47.6692C78.5308 47.7031 78.4802 47.7352 78.3882 47.7352V48.2352C78.6159 48.2352 78.805 48.1473 78.9347 48.0014C79.0603 47.8601 79.1178 47.6787 79.1178 47.5056H78.6178ZM78.6178 28.1618V47.5056H79.1178V28.1618H78.6178ZM78.3882 27.9322C78.4548 27.9322 78.5133 27.9547 78.5518 27.989C78.5857 28.0191 78.6178 28.0698 78.6178 28.1618H79.1178C79.1178 27.9341 79.0299 27.7449 78.884 27.6153C78.7427 27.4896 78.5613 27.4322 78.3882 27.4322V27.9322ZM78.1586 28.1618C78.1586 28.0952 78.1811 28.0367 78.2153 27.9982C78.2455 27.9642 78.2961 27.9322 78.3882 27.9322V27.4322C78.1605 27.4322 77.9713 27.5201 77.8416 27.666C77.716 27.8073 77.6586 27.9886 77.6586 28.1618H78.1586ZM78.1586 47.5056V28.1618H77.6586V47.5056H78.1586ZM78.3882 47.7352C78.2889 47.7352 78.2144 47.6977 78.1753 47.6585C78.1381 47.6213 78.1416 47.5971 78.1457 47.5846L77.6714 47.4265C77.5956 47.6539 77.6791 47.8694 77.8217 48.0121C77.9624 48.1527 78.1677 48.2352 78.3882 48.2352V47.7352ZM67.3574 20.478C67.1297 20.478 66.9406 20.5659 66.8109 20.7118C66.6853 20.8531 66.6278 21.0345 66.6278 21.2076H67.1278C67.1278 21.141 67.1503 21.0826 67.1846 21.044C67.2148 21.0101 67.2654 20.978 67.3574 20.978V20.478ZM68.087 21.2076C68.087 21.0064 67.9889 20.8262 67.8639 20.7011C67.7389 20.5761 67.5586 20.478 67.3574 20.478V20.978C67.396 20.978 67.4555 20.9999 67.5104 21.0547C67.5652 21.1095 67.587 21.1691 67.587 21.2076H68.087ZM67.3574 21.9372C67.5851 21.9372 67.7743 21.8494 67.904 21.7035C68.0296 21.5622 68.087 21.3808 68.087 21.2076H67.587C67.587 21.2743 67.5645 21.3327 67.5303 21.3713C67.5001 21.4052 67.4495 21.4372 67.3574 21.4372V21.9372ZM66.6278 21.2076C66.6278 21.4353 66.7157 21.6245 66.8616 21.7542C67.0029 21.8798 67.1843 21.9372 67.3574 21.9372V21.4372C67.2908 21.4372 67.2323 21.4148 67.1938 21.3805C67.1599 21.3503 67.1278 21.2997 67.1278 21.2076H66.6278ZM64.3302 21.2076C64.3302 21.141 64.3527 21.0826 64.3869 21.044C64.4171 21.0101 64.4678 20.978 64.5598 20.978V20.478C64.3321 20.478 64.1429 20.5659 64.0132 20.7118C63.8876 20.8531 63.8302 21.0345 63.8302 21.2076H64.3302ZM64.5598 21.4372C64.4932 21.4372 64.4347 21.4148 64.3962 21.3805C64.3622 21.3503 64.3302 21.2997 64.3302 21.2076H63.8302C63.8302 21.4353 63.9181 21.6245 64.064 21.7542C64.2053 21.8798 64.3866 21.9372 64.5598 21.9372V21.4372ZM64.7894 21.2076C64.7894 21.2743 64.7669 21.3327 64.7326 21.3713C64.7025 21.4052 64.6518 21.4372 64.5598 21.4372V21.9372C64.7875 21.9372 64.9766 21.8494 65.1063 21.7035C65.2319 21.5622 65.2894 21.3808 65.2894 21.2076H64.7894ZM64.5598 20.978C64.659 20.978 64.7335 21.0155 64.7727 21.0547C64.8099 21.0919 64.8064 21.1161 64.8022 21.1286L65.2766 21.2867C65.3523 21.0593 65.2689 20.8438 65.1262 20.7011C64.9856 20.5605 64.7803 20.478 64.5598 20.478V20.978ZM61.8421 20.478C61.6144 20.478 61.4252 20.5659 61.2955 20.7118C61.1699 20.8531 61.1125 21.0345 61.1125 21.2076H61.6125C61.6125 21.141 61.635 21.0826 61.6692 21.044C61.6994 21.0101 61.75 20.978 61.8421 20.978V20.478ZM62.5717 21.2076C62.5717 21.0064 62.4736 20.8262 62.3486 20.7011C62.2236 20.5761 62.0433 20.478 61.8421 20.478V20.978C61.8807 20.978 61.9402 20.9999 61.995 21.0547C62.0499 21.1095 62.0717 21.1691 62.0717 21.2076H62.5717ZM61.8421 21.9372C62.0698 21.9372 62.2589 21.8494 62.3886 21.7035C62.5142 21.5622 62.5717 21.3808 62.5717 21.2076H62.0717C62.0717 21.2743 62.0492 21.3327 62.0149 21.3713C61.9847 21.4052 61.9341 21.4372 61.8421 21.4372V21.9372ZM61.1125 21.2076C61.1125 21.4353 61.2003 21.6245 61.3463 21.7542C61.4876 21.8798 61.6689 21.9372 61.8421 21.9372V21.4372C61.7754 21.4372 61.717 21.4148 61.6784 21.3805C61.6445 21.3503 61.6125 21.2997 61.6125 21.2076H61.1125ZM69.8456 21.2076C69.8456 21.141 69.868 21.0826 69.9023 21.044C69.9325 21.0101 69.9831 20.978 70.0752 20.978V20.478C69.8474 20.478 69.6583 20.5659 69.5286 20.7118C69.403 20.8531 69.3456 21.0345 69.3456 21.2076H69.8456ZM70.0752 21.4372C70.0085 21.4372 69.9501 21.4148 69.9115 21.3805C69.8776 21.3503 69.8456 21.2997 69.8456 21.2076H69.3456C69.3456 21.4353 69.4334 21.6245 69.5793 21.7542C69.7206 21.8798 69.902 21.9372 70.0752 21.9372V21.4372ZM70.3047 21.2076C70.3047 21.2743 70.2823 21.3327 70.248 21.3713C70.2178 21.4052 70.1672 21.4372 70.0752 21.4372V21.9372C70.3029 21.9372 70.492 21.8494 70.6217 21.7035C70.7473 21.5622 70.8047 21.3808 70.8047 21.2076H70.3047ZM70.0752 20.978C70.1744 20.978 70.2489 21.0155 70.288 21.0547C70.3252 21.0919 70.3217 21.1161 70.3176 21.1286L70.7919 21.2867C70.8677 21.0593 70.7843 20.8438 70.6416 20.7011C70.5009 20.5605 70.2956 20.478 70.0752 20.478V20.978ZM61.8421 24.6346C61.6144 24.6346 61.4252 24.7224 61.2955 24.8683C61.1699 25.0096 61.1125 25.191 61.1125 25.3642H61.6125C61.6125 25.2975 61.635 25.2391 61.6692 25.2005C61.6994 25.1666 61.75 25.1346 61.8421 25.1346V24.6346ZM62.5717 25.3642C62.5717 25.1629 62.4736 24.9827 62.3486 24.8577C62.2236 24.7326 62.0433 24.6346 61.8421 24.6346V25.1346C61.8807 25.1346 61.9402 25.1564 61.995 25.2112C62.0499 25.266 62.0717 25.3256 62.0717 25.3642H62.5717ZM61.8421 26.0938C62.0698 26.0938 62.2589 26.0059 62.3886 25.86C62.5142 25.7187 62.5717 25.5373 62.5717 25.3642H62.0717C62.0717 25.4308 62.0492 25.4892 62.0149 25.5278C61.9847 25.5617 61.9341 25.5938 61.8421 25.5938V26.0938ZM61.1125 25.3642C61.1125 25.5919 61.2003 25.781 61.3463 25.9107C61.4876 26.0363 61.6689 26.0938 61.8421 26.0938V25.5938C61.7754 25.5938 61.717 25.5713 61.6784 25.537C61.6445 25.5068 61.6125 25.4562 61.6125 25.3642H61.1125ZM64.3302 25.3642C64.3302 25.2975 64.3527 25.2391 64.3869 25.2005C64.4171 25.1666 64.4678 25.1346 64.5598 25.1346V24.6346C64.3321 24.6346 64.1429 24.7224 64.0132 24.8683C63.8876 25.0096 63.8302 25.191 63.8302 25.3642H64.3302ZM64.5598 25.5938C64.4932 25.5938 64.4347 25.5713 64.3962 25.537C64.3622 25.5068 64.3302 25.4562 64.3302 25.3642H63.8302C63.8302 25.5919 63.9181 25.781 64.064 25.9107C64.2053 26.0363 64.3866 26.0938 64.5598 26.0938V25.5938ZM64.7894 25.3642C64.7894 25.4308 64.7669 25.4892 64.7326 25.5278C64.7025 25.5617 64.6518 25.5938 64.5598 25.5938V26.0938C64.7875 26.0938 64.9766 26.0059 65.1063 25.86C65.2319 25.7187 65.2894 25.5373 65.2894 25.3642H64.7894ZM64.5598 25.1346C64.659 25.1346 64.7335 25.172 64.7727 25.2112C64.8099 25.2484 64.8064 25.2727 64.8022 25.2851L65.2766 25.4432C65.3523 25.2159 65.2689 25.0003 65.1262 24.8577C64.9856 24.717 64.7803 24.6346 64.5598 24.6346V25.1346ZM61.8421 28.7911C61.6144 28.7911 61.4252 28.8789 61.2955 29.0248C61.1699 29.1662 61.1125 29.3475 61.1125 29.5207H61.6125C61.6125 29.454 61.635 29.3956 61.6692 29.357C61.6994 29.3231 61.75 29.2911 61.8421 29.2911V28.7911ZM62.5717 29.5207C62.5717 29.3195 62.4736 29.1392 62.3486 29.0142C62.2236 28.8892 62.0433 28.7911 61.8421 28.7911V29.2911C61.8807 29.2911 61.9402 29.3129 61.995 29.3677C62.0499 29.4226 62.0717 29.4821 62.0717 29.5207H62.5717ZM61.8421 30.2503C62.0698 30.2503 62.2589 30.1624 62.3886 30.0165C62.5142 29.8752 62.5717 29.6938 62.5717 29.5207H62.0717C62.0717 29.5873 62.0492 29.6458 62.0149 29.6843C61.9847 29.7182 61.9341 29.7503 61.8421 29.7503V30.2503ZM61.1125 29.5207C61.1125 29.7484 61.2003 29.9375 61.3463 30.0672C61.4876 30.1928 61.6689 30.2503 61.8421 30.2503V29.7503C61.7754 29.7503 61.717 29.7278 61.6784 29.6935C61.6445 29.6633 61.6125 29.6127 61.6125 29.5207H61.1125ZM64.3302 29.5207C64.3302 29.454 64.3527 29.3956 64.3869 29.357C64.4171 29.3231 64.4678 29.2911 64.5598 29.2911V28.7911C64.3321 28.7911 64.1429 28.8789 64.0132 29.0248C63.8876 29.1662 63.8302 29.3475 63.8302 29.5207H64.3302ZM64.5598 29.7503C64.4932 29.7503 64.4347 29.7278 64.3962 29.6935C64.3622 29.6633 64.3302 29.6127 64.3302 29.5207H63.8302C63.8302 29.7484 63.9181 29.9375 64.064 30.0672C64.2053 30.1928 64.3866 30.2503 64.5598 30.2503V29.7503ZM64.7894 29.5207C64.7894 29.5873 64.7669 29.6458 64.7326 29.6843C64.7025 29.7182 64.6518 29.7503 64.5598 29.7503V30.2503C64.7875 30.2503 64.9766 30.1624 65.1063 30.0165C65.2319 29.8752 65.2894 29.6938 65.2894 29.5207H64.7894ZM64.5598 29.2911C64.659 29.2911 64.7335 29.3285 64.7727 29.3677C64.8099 29.4049 64.8064 29.4292 64.8022 29.4416L65.2766 29.5997C65.3523 29.3724 65.2689 29.1568 65.1262 29.0142C64.9856 28.8735 64.7803 28.7911 64.5598 28.7911V29.2911ZM84.2233 49.4937H82.7045V49.9937H84.2233V49.4937ZM85.0328 50.1433C85.0328 49.9542 84.9063 49.7901 84.7791 49.6883C84.6398 49.5769 84.4459 49.4937 84.2233 49.4937V49.9937C84.3204 49.9937 84.4063 50.0304 84.4668 50.0788C84.4969 50.1029 84.5165 50.1266 84.527 50.1438C84.5389 50.1632 84.5328 50.1632 84.5328 50.1433H85.0328ZM84.3032 50.8729C84.5309 50.8729 84.7201 50.7851 84.8498 50.6391C84.9754 50.4978 85.0328 50.3165 85.0328 50.1433H84.5328C84.5328 50.21 84.5103 50.2684 84.476 50.307C84.4459 50.3409 84.3952 50.3729 84.3032 50.3729V50.8729ZM51.211 50.8729H84.3032V50.3729H51.211V50.8729ZM50.4814 50.1433C50.4814 50.371 50.5693 50.5602 50.7152 50.6899C50.8565 50.8155 51.0378 50.8729 51.211 50.8729V50.3729C51.1444 50.3729 51.0859 50.3504 51.0474 50.3162C51.0134 50.286 50.9814 50.2354 50.9814 50.1433H50.4814ZM51.211 49.4137C50.9833 49.4137 50.7941 49.5016 50.6645 49.6475C50.5388 49.7888 50.4814 49.9702 50.4814 50.1433H50.9814C50.9814 50.0767 51.0039 50.0182 51.0382 49.9797C51.0683 49.9458 51.119 49.9137 51.211 49.9137V49.4137ZM52.7297 49.4137H51.211V49.9137H52.7297V49.4137ZM52.4797 32.2384V49.6637H52.9797V32.2384H52.4797ZM53.2093 31.5088C52.9816 31.5088 52.7925 31.5967 52.6628 31.7426C52.5372 31.8839 52.4797 32.0652 52.4797 32.2384H52.9797C52.9797 32.1717 53.0022 32.1133 53.0365 32.0747C53.0666 32.0408 53.1173 32.0088 53.2093 32.0088V31.5088ZM58.5648 31.5088H53.2093V32.0088H58.5648V31.5088ZM58.3148 17.6107V31.7588H58.8148V17.6107H58.3148ZM57.6856 17.8607H58.5648V17.3607H57.6856V17.8607ZM56.956 17.1311C56.956 17.3588 57.0438 17.5479 57.1897 17.6776C57.3311 17.8032 57.5124 17.8607 57.6856 17.8607V17.3607C57.6189 17.3607 57.5605 17.3382 57.5219 17.3039C57.488 17.2737 57.456 17.2231 57.456 17.1311H56.956ZM57.6856 16.4015C57.4579 16.4015 57.2687 16.4893 57.139 16.6353C57.0134 16.7766 56.956 16.9579 56.956 17.1311H57.456C57.456 17.0644 57.4785 17.006 57.5127 16.9674C57.5429 16.9335 57.5935 16.9015 57.6856 16.9015V16.4015ZM74.3116 16.4015H57.6856V16.9015H74.3116V16.4015ZM75.0412 17.1311C75.0412 16.9034 74.9533 16.7142 74.8074 16.5845C74.6661 16.4589 74.4848 16.4015 74.3116 16.4015V16.9015C74.3782 16.9015 74.4367 16.924 74.4752 16.9582C74.5092 16.9884 74.5412 17.039 74.5412 17.1311H75.0412ZM74.3116 17.8607C74.5393 17.8607 74.7284 17.7728 74.8581 17.6269C74.9837 17.4856 75.0412 17.3042 75.0412 17.1311H74.5412C74.5412 17.1977 74.5187 17.2562 74.4844 17.2947C74.4543 17.3286 74.4036 17.3607 74.3116 17.3607V17.8607ZM73.4323 17.8607H74.3116V17.3607H73.4323V17.8607ZM73.6823 24.8846V17.6107H73.1823V24.8846H73.6823ZM82.2249 24.6346H73.4323V25.1346H82.2249V24.6346ZM82.9545 25.3642C82.9545 25.1364 82.8667 24.9473 82.7208 24.8176C82.5795 24.692 82.3981 24.6346 82.2249 24.6346V25.1346C82.2916 25.1346 82.35 25.157 82.3886 25.1913C82.4225 25.2215 82.4545 25.2721 82.4545 25.3642H82.9545ZM82.9545 49.7437V25.3642H82.4545V49.7437H82.9545ZM66.4782 49.4937H53.6889V49.9937H66.4782V49.4937ZM66.2282 32.7979V49.7437H66.7282V32.7979H66.2282ZM53.6889 33.0479H66.4782V32.5479H53.6889V33.0479ZM53.9389 49.7437V32.7979H53.4389V49.7437H53.9389ZM66.2282 25.3642V31.7588H66.7282V25.3642H66.2282ZM67.0377 24.6346C66.6053 24.6346 66.2282 24.9622 66.2282 25.3642H66.7282C66.7282 25.2866 66.8306 25.1346 67.0377 25.1346V24.6346ZM72.3932 24.6346H67.0377V25.1346H72.3932V24.6346ZM72.1432 17.6107V24.8846H72.6432V17.6107H72.1432ZM59.604 17.8607H72.3932V17.3607H59.604V17.8607ZM59.854 31.7588V17.6107H59.354V31.7588H59.854ZM66.4782 31.5088H59.604V32.0088H66.4782V31.5088ZM81.6654 49.4937H67.5173V49.9937H81.6654V49.4937ZM81.4154 25.9237V49.7437H81.9154V25.9237H81.4154ZM67.5173 26.1737H81.6654V25.6737H67.5173V26.1737ZM67.7673 49.7437V25.9237H67.2673V49.7437H67.7673Z" fill="#BDACA8"/>
<path d="M10.6806 94.2V104H8.41261V99.982H3.96061V104H1.69261V94.2H3.96061V98.064H8.41261V94.2H10.6806ZM20.724 102.18V104H13.136V94.2H20.542V96.02H15.39V98.148H19.94V99.912H15.39V102.18H20.724ZM32.6639 102.152V106.03H30.5639V104H23.6479V106.03H21.5479L21.5619 102.152H21.9539C22.5419 102.133 22.9572 101.704 23.1999 100.864C23.4426 100.024 23.5919 98.8247 23.6479 97.266L23.7599 94.2H31.2919V102.152H32.6639ZM25.6499 97.476C25.6032 98.6427 25.5052 99.6227 25.3559 100.416C25.2066 101.2 24.9779 101.779 24.6699 102.152H29.0519V96.048H25.6919L25.6499 97.476ZM40.9807 98.89C41.578 99.0673 42.0353 99.3567 42.3527 99.758C42.67 100.159 42.8287 100.654 42.8287 101.242C42.8287 102.11 42.4973 102.787 41.8347 103.272C41.1813 103.757 40.2433 104 39.0207 104H34.1907V94.2H38.7547C39.8933 94.2 40.78 94.4193 41.4147 94.858C42.0493 95.2967 42.3667 95.922 42.3667 96.734C42.3667 97.2193 42.2453 97.6487 42.0027 98.022C41.76 98.386 41.4193 98.6753 40.9807 98.89ZM36.4447 98.26H38.5587C39.0533 98.26 39.4267 98.162 39.6787 97.966C39.9307 97.7607 40.0567 97.462 40.0567 97.07C40.0567 96.6873 39.926 96.3933 39.6647 96.188C39.4127 95.9827 39.044 95.88 38.5587 95.88H36.4447V98.26ZM38.9367 102.32C40.0007 102.32 40.5327 101.9 40.5327 101.06C40.5327 100.248 40.0007 99.842 38.9367 99.842H36.4447V102.32H38.9367ZM44.6223 94.2H46.8763V100.584L51.5523 94.2H53.6803V104H51.4403V97.63L46.7643 104H44.6223V94.2ZM65.0103 100.052H63.5823V104H61.3563V100.052H59.9003L57.7023 104H55.0843L58.0243 98.876L55.2663 94.2H57.6603L59.8583 98.162H61.3563V94.2H63.5823V98.162H65.0383L67.2503 94.2H69.6443L66.9003 98.876L69.8263 104H67.2083L65.0103 100.052ZM70.9133 94.2H73.1673V100.584L77.8433 94.2H79.9713V104H77.7313V97.63L73.0553 104H70.9133V94.2ZM91.3294 104L91.3154 98.134L88.4314 102.964H87.4234L84.5394 98.246V104H82.4114V94.2H84.2874L87.9554 100.29L91.5674 94.2H93.4434L93.4574 104H91.3294ZM100.568 104.168C99.5505 104.168 98.6312 103.949 97.8098 103.51C96.9978 103.071 96.3585 102.469 95.8918 101.704C95.4345 100.929 95.2058 100.061 95.2058 99.1C95.2058 98.1387 95.4345 97.2753 95.8918 96.51C96.3585 95.7353 96.9978 95.1287 97.8098 94.69C98.6312 94.2513 99.5505 94.032 100.568 94.032C101.585 94.032 102.5 94.2513 103.312 94.69C104.124 95.1287 104.763 95.7353 105.23 96.51C105.696 97.2753 105.93 98.1387 105.93 99.1C105.93 100.061 105.696 100.929 105.23 101.704C104.763 102.469 104.124 103.071 103.312 103.51C102.5 103.949 101.585 104.168 100.568 104.168ZM100.568 102.236C101.146 102.236 101.669 102.105 102.136 101.844C102.602 101.573 102.966 101.2 103.228 100.724C103.498 100.248 103.634 99.7067 103.634 99.1C103.634 98.4933 103.498 97.952 103.228 97.476C102.966 97 102.602 96.6313 102.136 96.37C101.669 96.0993 101.146 95.964 100.568 95.964C99.9892 95.964 99.4665 96.0993 98.9998 96.37C98.5332 96.6313 98.1645 97 97.8938 97.476C97.6325 97.952 97.5018 98.4933 97.5018 99.1C97.5018 99.7067 97.6325 100.248 97.8938 100.724C98.1645 101.2 98.5332 101.573 98.9998 101.844C99.4665 102.105 99.9892 102.236 100.568 102.236ZM112.311 104.168C111.312 104.168 110.407 103.953 109.595 103.524C108.792 103.085 108.158 102.483 107.691 101.718C107.234 100.943 107.005 100.071 107.005 99.1C107.005 98.1293 107.234 97.2613 107.691 96.496C108.158 95.7213 108.792 95.1193 109.595 94.69C110.407 94.2513 111.317 94.032 112.325 94.032C113.174 94.032 113.94 94.1813 114.621 94.48C115.312 94.7787 115.89 95.208 116.357 95.768L114.901 97.112C114.238 96.3467 113.417 95.964 112.437 95.964C111.83 95.964 111.289 96.0993 110.813 96.37C110.337 96.6313 109.964 97 109.693 97.476C109.432 97.952 109.301 98.4933 109.301 99.1C109.301 99.7067 109.432 100.248 109.693 100.724C109.964 101.2 110.337 101.573 110.813 101.844C111.289 102.105 111.83 102.236 112.437 102.236C113.417 102.236 114.238 101.849 114.901 101.074L116.357 102.418C115.89 102.987 115.312 103.421 114.621 103.72C113.93 104.019 113.16 104.168 112.311 104.168ZM125.229 96.048H122.093V104H119.853V96.048H116.731V94.2H125.229V96.048ZM131.4 97.42C132.594 97.42 133.509 97.686 134.144 98.218C134.788 98.75 135.11 99.5387 135.11 100.584C135.11 101.695 134.755 102.544 134.046 103.132C133.346 103.711 132.356 104 131.078 104H126.654V94.2H128.908V97.42H131.4ZM130.952 102.32C131.54 102.32 131.997 102.175 132.324 101.886C132.66 101.597 132.828 101.177 132.828 100.626C132.828 99.6087 132.202 99.1 130.952 99.1H128.908V102.32H130.952Z" fill="#BDACA8"/>
</svg>
