<svg width="104" height="110" viewBox="0 0 104 110" fill="none" xmlns="http://www.w3.org/2000/svg">
<path d="M64.0745 12.565C64.0745 13.6724 63.177 14.5701 62.0698 14.5701C60.9627 14.5701 60.0651 13.6724 60.0651 12.565C60.0651 11.4576 60.9627 10.5598 62.0698 10.5598C63.177 10.5598 64.0745 11.4576 64.0745 12.565Z" fill="#BDACA8"/>
<path d="M69.6546 14.5701C70.7618 14.5701 71.6593 13.6724 71.6593 12.565C71.6593 11.4576 70.7618 10.5598 69.6546 10.5598C68.5475 10.5598 67.6499 11.4576 67.6499 12.565C67.6499 13.6724 68.5475 14.5701 69.6546 14.5701Z" fill="#BDACA8"/>
<path d="M79.2441 12.565C79.2441 13.6724 78.3465 14.5701 77.2394 14.5701C76.1322 14.5701 75.2347 13.6724 75.2347 12.565C75.2347 11.4576 76.1322 10.5598 77.2394 10.5598C78.3465 10.5598 79.2441 11.4576 79.2441 12.565Z" fill="#BDACA8"/>
<path d="M29.6564 40.2675L37.4264 32.4942L35.8526 30.9205L26.5094 40.2677L35.8527 49.613L37.4263 48.0391L29.6564 40.2675Z" fill="#BDACA8"/>
<path d="M66.863 32.4942L74.633 40.2675L66.8631 48.0391L68.4367 49.613L77.78 40.2677L68.4368 30.9205L66.863 32.4942Z" fill="#BDACA8"/>
<path d="M61.919 29.7998L44.0939 51.6261L42.3704 50.218L60.1955 28.3916L61.919 29.7998Z" fill="#BDACA8"/>
<path fill-rule="evenodd" clip-rule="evenodd" d="M18.5787 5.2085V63.0808H85.7107V5.2085H18.5787ZM20.8041 17.9831V7.43436H83.4853V17.9831H20.8041ZM20.8041 20.2089V60.855H83.4853V20.2089H20.8041Z" fill="#BDACA8"/>
<path d="M46.538 94.2H48.806V104H46.538V94.2ZM53.1617 96.048H50.0257V94.2H58.5657V96.048H55.4297V104H53.1617V96.048Z" fill="#BDACA8"/>
</svg>
