<svg width="97" height="105" viewBox="0 0 97 105" fill="none" xmlns="http://www.w3.org/2000/svg">
<path fill-rule="evenodd" clip-rule="evenodd" d="M48.1772 7.25C33.5818 7.25 21.75 19.0818 21.75 33.6772C21.75 48.2725 33.5818 60.1043 48.1772 60.1043C62.7725 60.1043 74.6043 48.2725 74.6043 33.6772C74.6043 19.0818 62.7725 7.25 48.1772 7.25ZM20.25 33.6772C20.25 18.2534 32.7534 5.75 48.1772 5.75C63.6009 5.75 76.1043 18.2534 76.1043 33.6772C76.1043 49.1009 63.6009 61.6043 48.1772 61.6043C32.7534 61.6043 20.25 49.1009 20.25 33.6772ZM36.8267 36.3949H44.4203C44.7401 36.3949 44.8999 36.1551 44.8999 35.9153C44.8999 35.5956 44.6601 35.4357 44.4203 35.4357H36.8267C36.507 35.4357 36.3471 35.6755 36.3471 35.9153C36.2672 36.1551 36.507 36.3949 36.8267 36.3949ZM44.4203 39.9919H36.8267C36.507 39.9919 36.2672 39.7521 36.3471 39.5123C36.3471 39.2725 36.507 39.0327 36.8267 39.0327H44.4203C44.6601 39.0327 44.8999 39.1925 44.8999 39.5123C44.8999 39.7521 44.7401 39.9919 44.4203 39.9919ZM36.8267 43.5888H44.4203C44.7401 43.5888 44.8999 43.349 44.8999 43.1092C44.8999 42.7895 44.6601 42.6297 44.4203 42.6297H36.8267C36.507 42.6297 36.3471 42.8694 36.3471 43.1092C36.2672 43.349 36.507 43.5888 36.8267 43.5888ZM44.4203 47.1858H36.8267C36.507 47.1858 36.2672 46.946 36.3471 46.7062C36.3471 46.4664 36.507 46.2266 36.8267 46.2266H44.4203C44.6601 46.2266 44.8999 46.3865 44.8999 46.7062C44.8999 46.946 44.7401 47.1858 44.4203 47.1858ZM51.2945 47.9852C51.6143 47.9852 51.7741 47.7454 51.7741 47.5056V28.1618C51.7741 27.8421 51.5343 27.6822 51.2945 27.6822C51.0547 27.6822 50.8149 27.922 50.8149 28.1618V47.5056C50.735 47.7454 50.9748 47.9852 51.2945 47.9852ZM55.531 47.5056C55.531 47.7454 55.3711 47.9852 55.0514 47.9852C54.8116 47.9852 54.5718 47.7454 54.5718 47.5056V28.1618C54.5718 27.922 54.7317 27.6822 55.0514 27.6822C55.2912 27.6822 55.531 27.8421 55.531 28.1618V47.5056ZM58.8882 47.9852C59.2079 47.9852 59.3678 47.7454 59.3678 47.5056V28.1618C59.3678 27.8421 59.128 27.6822 58.8882 27.6822C58.5684 27.6822 58.4086 27.922 58.4086 28.1618V47.5056C58.3286 47.7454 58.5684 47.9852 58.8882 47.9852ZM47.3778 21.2076C47.3778 20.9678 47.5377 20.728 47.8574 20.728C48.0972 20.728 48.337 20.9678 48.337 21.2076C48.337 21.4474 48.1772 21.6872 47.8574 21.6872C47.6176 21.6872 47.3778 21.5274 47.3778 21.2076ZM45.0598 20.728C44.7401 20.728 44.5802 20.9678 44.5802 21.2076C44.5802 21.5274 44.82 21.6872 45.0598 21.6872C45.3795 21.6872 45.5394 21.4474 45.5394 21.2076C45.6193 20.9678 45.3795 20.728 45.0598 20.728ZM41.8625 21.2076C41.8625 20.9678 42.0223 20.728 42.3421 20.728C42.5819 20.728 42.8217 20.9678 42.8217 21.2076C42.8217 21.4474 42.6618 21.6872 42.3421 21.6872C42.1023 21.6872 41.8625 21.5274 41.8625 21.2076ZM50.5752 20.728C50.2554 20.728 50.0956 20.9678 50.0956 21.2076C50.0956 21.5274 50.3354 21.6872 50.5752 21.6872C50.8949 21.6872 51.0547 21.4474 51.0547 21.2076C51.1347 20.9678 50.8949 20.728 50.5752 20.728ZM41.8625 25.3642C41.8625 25.1244 42.0223 24.8846 42.3421 24.8846C42.5819 24.8846 42.8217 25.1244 42.8217 25.3642C42.8217 25.604 42.6618 25.8438 42.3421 25.8438C42.1023 25.8438 41.8625 25.6839 41.8625 25.3642ZM45.0598 24.8846C44.7401 24.8846 44.5802 25.1244 44.5802 25.3642C44.5802 25.6839 44.82 25.8438 45.0598 25.8438C45.3795 25.8438 45.5394 25.604 45.5394 25.3642C45.6193 25.1244 45.3795 24.8846 45.0598 24.8846ZM41.8625 29.5207C41.8625 29.2809 42.0223 29.0411 42.3421 29.0411C42.5819 29.0411 42.8217 29.2809 42.8217 29.5207C42.8217 29.7605 42.6618 30.0003 42.3421 30.0003C42.1023 30.0003 41.8625 29.8404 41.8625 29.5207ZM45.0598 29.0411C44.7401 29.0411 44.5802 29.2809 44.5802 29.5207C44.5802 29.8404 44.82 30.0003 45.0598 30.0003C45.3795 30.0003 45.5394 29.7605 45.5394 29.5207C45.6193 29.2809 45.3795 29.0411 45.0598 29.0411ZM63.2045 49.7437H64.7233C65.043 49.7437 65.2828 49.9835 65.2828 50.1433C65.2828 50.3831 65.1229 50.6229 64.8032 50.6229H31.711C31.4712 50.6229 31.2314 50.4631 31.2314 50.1433C31.2314 49.9035 31.3913 49.6637 31.711 49.6637H33.2297V32.2384C33.2297 31.9986 33.3896 31.7588 33.7093 31.7588H39.0648V17.6107H38.1856C37.9458 17.6107 37.706 17.4508 37.706 17.1311C37.706 16.8913 37.8658 16.6515 38.1856 16.6515H54.8116C55.0514 16.6515 55.2912 16.8113 55.2912 17.1311C55.2912 17.3709 55.1313 17.6107 54.8116 17.6107H53.9323V24.8846H62.7249C62.9647 24.8846 63.2045 25.0444 63.2045 25.3642V49.7437ZM34.1889 49.7437H46.9782V32.7979H34.1889V49.7437ZM46.9782 31.7588V25.3642C46.9782 25.1244 47.218 24.8846 47.5377 24.8846H52.8932V17.6107H40.104V31.7588H46.9782ZM48.0173 49.7437H62.1654V25.9237H48.0173V49.7437Z" fill="#BDACA8"/>
<path d="M36.3471 35.9153L36.5843 35.9943L36.5971 35.9559V35.9153H36.3471ZM36.3471 39.5123L36.5843 39.5913L36.5971 39.5528V39.5123H36.3471ZM36.3471 43.1092L36.5843 43.1883L36.5971 43.1498V43.1092H36.3471ZM36.3471 46.7062L36.5843 46.7853L36.5971 46.7468V46.7062H36.3471ZM50.8149 47.5056L51.0521 47.5846L51.0649 47.5461V47.5056H50.8149ZM58.4086 47.5056L58.6457 47.5846L58.6586 47.5461V47.5056H58.4086ZM45.5394 21.2076L45.3022 21.1286L45.2894 21.1671V21.2076H45.5394ZM51.0547 21.2076L50.8176 21.1286L50.8047 21.1671V21.2076H51.0547ZM45.5394 25.3642L45.3022 25.2851L45.2894 25.3236V25.3642H45.5394ZM45.5394 29.5207L45.3022 29.4416L45.2894 29.4801V29.5207H45.5394ZM63.2045 49.7437H62.9545V49.9937H63.2045V49.7437ZM33.2297 49.6637V49.9137H33.4797V49.6637H33.2297ZM39.0648 31.7588V32.0088H39.3148V31.7588H39.0648ZM39.0648 17.6107H39.3148V17.3607H39.0648V17.6107ZM53.9323 17.6107V17.3607H53.6823V17.6107H53.9323ZM53.9323 24.8846H53.6823V25.1346H53.9323V24.8846ZM46.9782 49.7437V49.9937H47.2282V49.7437H46.9782ZM34.1889 49.7437H33.9389V49.9937H34.1889V49.7437ZM46.9782 32.7979H47.2282V32.5479H46.9782V32.7979ZM34.1889 32.7979V32.5479H33.9389V32.7979H34.1889ZM46.9782 31.7588V32.0088H47.2282V31.7588H46.9782ZM52.8932 24.8846V25.1346H53.1432V24.8846H52.8932ZM52.8932 17.6107H53.1432V17.3607H52.8932V17.6107ZM40.104 17.6107V17.3607H39.854V17.6107H40.104ZM40.104 31.7588H39.854V32.0088H40.104V31.7588ZM62.1654 49.7437V49.9937H62.4154V49.7437H62.1654ZM48.0173 49.7437H47.7673V49.9937H48.0173V49.7437ZM62.1654 25.9237H62.4154V25.6737H62.1654V25.9237ZM48.0173 25.9237V25.6737H47.7673V25.9237H48.0173ZM22 33.6772C22 19.2199 33.7199 7.5 48.1772 7.5V7C33.4438 7 21.5 18.9438 21.5 33.6772H22ZM48.1772 59.8543C33.7199 59.8543 22 48.1344 22 33.6772H21.5C21.5 48.4106 33.4438 60.3543 48.1772 60.3543V59.8543ZM74.3543 33.6772C74.3543 48.1344 62.6344 59.8543 48.1772 59.8543V60.3543C62.9106 60.3543 74.8543 48.4106 74.8543 33.6772H74.3543ZM48.1772 7.5C62.6344 7.5 74.3543 19.2199 74.3543 33.6772H74.8543C74.8543 18.9438 62.9106 7 48.1772 7V7.5ZM48.1772 5.5C32.6153 5.5 20 18.1153 20 33.6772H20.5C20.5 18.3915 32.8915 6 48.1772 6V5.5ZM76.3543 33.6772C76.3543 18.1153 63.739 5.5 48.1772 5.5V6C63.4628 6 75.8543 18.3915 75.8543 33.6772H76.3543ZM48.1772 61.8543C63.739 61.8543 76.3543 49.239 76.3543 33.6772H75.8543C75.8543 48.9628 63.4628 61.3543 48.1772 61.3543V61.8543ZM20 33.6772C20 49.239 32.6153 61.8543 48.1772 61.8543V61.3543C32.8915 61.3543 20.5 48.9628 20.5 33.6772H20ZM44.4203 36.1449H36.8267V36.6449H44.4203V36.1449ZM44.6499 35.9153C44.6499 35.9819 44.6274 36.0404 44.5932 36.0789C44.563 36.1129 44.5123 36.1449 44.4203 36.1449V36.6449C44.648 36.6449 44.8372 36.557 44.9669 36.4111C45.0925 36.2698 45.1499 36.0885 45.1499 35.9153H44.6499ZM44.4203 35.6857C44.487 35.6857 44.5454 35.7082 44.584 35.7424C44.6179 35.7726 44.6499 35.8233 44.6499 35.9153H45.1499C45.1499 35.6876 45.062 35.4984 44.9161 35.3687C44.7748 35.2431 44.5935 35.1857 44.4203 35.1857V35.6857ZM36.8267 35.6857H44.4203V35.1857H36.8267V35.6857ZM36.5971 35.9153C36.5971 35.8487 36.6196 35.7902 36.6539 35.7517C36.684 35.7177 36.7347 35.6857 36.8267 35.6857V35.1857C36.599 35.1857 36.4098 35.2736 36.2802 35.4195C36.1545 35.5608 36.0971 35.7421 36.0971 35.9153H36.5971ZM36.8267 36.1449C36.7275 36.1449 36.653 36.1074 36.6138 36.0682C36.5766 36.031 36.5801 36.0068 36.5843 35.9943L36.1099 35.8362C36.0341 36.0636 36.1176 36.2791 36.2603 36.4218C36.4009 36.5625 36.6062 36.6449 36.8267 36.6449V36.1449ZM36.8267 40.2419H44.4203V39.7419H36.8267V40.2419ZM36.1099 39.4332C36.0341 39.6606 36.1176 39.8761 36.2603 40.0188C36.4009 40.1594 36.6062 40.2419 36.8267 40.2419V39.7419C36.7275 39.7419 36.653 39.7044 36.6138 39.6652C36.5766 39.628 36.5801 39.6038 36.5843 39.5913L36.1099 39.4332ZM36.8267 38.7827C36.599 38.7827 36.4098 38.8705 36.2802 39.0165C36.1545 39.1578 36.0971 39.3391 36.0971 39.5123H36.5971C36.5971 39.4456 36.6196 39.3872 36.6539 39.3486C36.684 39.3147 36.7347 39.2827 36.8267 39.2827V38.7827ZM44.4203 38.7827H36.8267V39.2827H44.4203V38.7827ZM45.1499 39.5123C45.1499 39.2846 45.062 39.0954 44.9161 38.9657C44.7748 38.8401 44.5935 38.7827 44.4203 38.7827V39.2827C44.487 39.2827 44.5454 39.3052 44.584 39.3394C44.6179 39.3696 44.6499 39.4202 44.6499 39.5123H45.1499ZM44.4203 40.2419C44.648 40.2419 44.8372 40.154 44.9669 40.0081C45.0925 39.8668 45.1499 39.6854 45.1499 39.5123H44.6499C44.6499 39.5789 44.6274 39.6374 44.5932 39.6759C44.563 39.7098 44.5123 39.7419 44.4203 39.7419V40.2419ZM44.4203 43.3388H36.8267V43.8388H44.4203V43.3388ZM44.6499 43.1092C44.6499 43.1759 44.6274 43.2343 44.5932 43.2729C44.563 43.3068 44.5123 43.3388 44.4203 43.3388V43.8388C44.648 43.8388 44.8372 43.751 44.9669 43.6051C45.0925 43.4637 45.1499 43.2824 45.1499 43.1092H44.6499ZM44.4203 42.8797C44.487 42.8797 44.5454 42.9021 44.584 42.9364C44.6179 42.9666 44.6499 43.0172 44.6499 43.1092H45.1499C45.1499 42.8815 45.062 42.6924 44.9161 42.5627C44.7748 42.4371 44.5935 42.3797 44.4203 42.3797V42.8797ZM36.8267 42.8797H44.4203V42.3797H36.8267V42.8797ZM36.5971 43.1092C36.5971 43.0426 36.6196 42.9842 36.6539 42.9456C36.684 42.9117 36.7347 42.8797 36.8267 42.8797V42.3797C36.599 42.3797 36.4098 42.4675 36.2802 42.6134C36.1545 42.7547 36.0971 42.9361 36.0971 43.1092H36.5971ZM36.8267 43.3388C36.7275 43.3388 36.653 43.3014 36.6138 43.2622C36.5766 43.225 36.5801 43.2007 36.5843 43.1883L36.1099 43.0302C36.0341 43.2575 36.1176 43.4731 36.2603 43.6157C36.4009 43.7564 36.6062 43.8388 36.8267 43.8388V43.3388ZM36.8267 47.4358H44.4203V46.9358H36.8267V47.4358ZM36.1099 46.6272C36.0341 46.8545 36.1176 47.0701 36.2603 47.2127C36.4009 47.3534 36.6062 47.4358 36.8267 47.4358V46.9358C36.7275 46.9358 36.653 46.8983 36.6138 46.8592C36.5766 46.822 36.5801 46.7977 36.5843 46.7853L36.1099 46.6272ZM36.8267 45.9766C36.599 45.9766 36.4098 46.0645 36.2802 46.2104C36.1545 46.3517 36.0971 46.5331 36.0971 46.7062H36.5971C36.5971 46.6396 36.6196 46.5811 36.6539 46.5426C36.684 46.5086 36.7347 46.4766 36.8267 46.4766V45.9766ZM44.4203 45.9766H36.8267V46.4766H44.4203V45.9766ZM45.1499 46.7062C45.1499 46.4785 45.062 46.2894 44.9161 46.1597C44.7748 46.0341 44.5935 45.9766 44.4203 45.9766V46.4766C44.487 46.4766 44.5454 46.4991 44.584 46.5334C44.6179 46.5635 44.6499 46.6142 44.6499 46.7062H45.1499ZM44.4203 47.4358C44.648 47.4358 44.8372 47.3479 44.9669 47.202C45.0925 47.0607 45.1499 46.8794 45.1499 46.7062H44.6499C44.6499 46.7728 44.6274 46.8313 44.5932 46.8699C44.563 46.9038 44.5123 46.9358 44.4203 46.9358V47.4358ZM51.5241 47.5056C51.5241 47.5722 51.5016 47.6306 51.4674 47.6692C51.4372 47.7031 51.3866 47.7352 51.2945 47.7352V48.2352C51.5223 48.2352 51.7114 48.1473 51.8411 48.0014C51.9667 47.8601 52.0241 47.6787 52.0241 47.5056H51.5241ZM51.5241 28.1618V47.5056H52.0241V28.1618H51.5241ZM51.2945 27.9322C51.3612 27.9322 51.4196 27.9547 51.4582 27.989C51.4921 28.0191 51.5241 28.0698 51.5241 28.1618H52.0241C52.0241 27.9341 51.9363 27.745 51.7904 27.6153C51.6491 27.4896 51.4677 27.4322 51.2945 27.4322V27.9322ZM51.0649 28.1618C51.0649 28.1232 51.0868 28.0637 51.1416 28.0089C51.1964 27.954 51.256 27.9322 51.2945 27.9322V27.4322C51.0933 27.4322 50.9131 27.5303 50.788 27.6553C50.663 27.7803 50.5649 27.9606 50.5649 28.1618H51.0649ZM51.0649 47.5056V28.1618H50.5649V47.5056H51.0649ZM51.2945 47.7352C51.1953 47.7352 51.1208 47.6977 51.0817 47.6585C51.0445 47.6213 51.048 47.5971 51.0521 47.5846L50.5778 47.4265C50.502 47.6539 50.5854 47.8694 50.7281 48.0121C50.8688 48.1527 51.0741 48.2352 51.2945 48.2352V47.7352ZM55.0514 48.2352C55.2791 48.2352 55.4682 48.1473 55.5979 48.0014C55.7235 47.8601 55.781 47.6787 55.781 47.5056H55.281C55.281 47.5722 55.2585 47.6306 55.2242 47.6692C55.1941 47.7031 55.1434 47.7352 55.0514 47.7352V48.2352ZM54.3218 47.5056C54.3218 47.7068 54.4199 47.887 54.5449 48.0121C54.6699 48.1371 54.8502 48.2352 55.0514 48.2352V47.7352C55.0128 47.7352 54.9533 47.7133 54.8984 47.6585C54.8436 47.6037 54.8218 47.5441 54.8218 47.5056H54.3218ZM54.3218 28.1618V47.5056H54.8218V28.1618H54.3218ZM55.0514 27.4322C54.8237 27.4322 54.6345 27.5201 54.5048 27.666C54.3792 27.8073 54.3218 27.9886 54.3218 28.1618H54.8218C54.8218 28.0952 54.8443 28.0367 54.8785 27.9982C54.9087 27.9642 54.9594 27.9322 55.0514 27.9322V27.4322ZM55.781 28.1618C55.781 27.9341 55.6931 27.7449 55.5472 27.6153C55.4059 27.4896 55.2246 27.4322 55.0514 27.4322V27.9322C55.118 27.9322 55.1765 27.9547 55.215 27.989C55.249 28.0191 55.281 28.0698 55.281 28.1618H55.781ZM55.781 47.5056V28.1618H55.281V47.5056H55.781ZM59.1178 47.5056C59.1178 47.5722 59.0953 47.6306 59.061 47.6692C59.0308 47.7031 58.9802 47.7352 58.8882 47.7352V48.2352C59.1159 48.2352 59.305 48.1473 59.4347 48.0014C59.5603 47.8601 59.6178 47.6787 59.6178 47.5056H59.1178ZM59.1178 28.1618V47.5056H59.6178V28.1618H59.1178ZM58.8882 27.9322C58.9548 27.9322 59.0133 27.9547 59.0518 27.989C59.0857 28.0191 59.1178 28.0698 59.1178 28.1618H59.6178C59.6178 27.9341 59.5299 27.7449 59.384 27.6153C59.2427 27.4896 59.0613 27.4322 58.8882 27.4322V27.9322ZM58.6586 28.1618C58.6586 28.0952 58.6811 28.0367 58.7153 27.9982C58.7455 27.9642 58.7961 27.9322 58.8882 27.9322V27.4322C58.6605 27.4322 58.4713 27.5201 58.3416 27.666C58.216 27.8073 58.1586 27.9886 58.1586 28.1618H58.6586ZM58.6586 47.5056V28.1618H58.1586V47.5056H58.6586ZM58.8882 47.7352C58.7889 47.7352 58.7144 47.6977 58.6753 47.6585C58.6381 47.6213 58.6416 47.5971 58.6457 47.5846L58.1714 47.4265C58.0956 47.6539 58.1791 47.8694 58.3217 48.0121C58.4624 48.1527 58.6677 48.2352 58.8882 48.2352V47.7352ZM47.8574 20.478C47.6297 20.478 47.4406 20.5659 47.3109 20.7118C47.1853 20.8531 47.1278 21.0345 47.1278 21.2076H47.6278C47.6278 21.141 47.6503 21.0826 47.6846 21.044C47.7148 21.0101 47.7654 20.978 47.8574 20.978V20.478ZM48.587 21.2076C48.587 21.0064 48.4889 20.8262 48.3639 20.7011C48.2389 20.5761 48.0586 20.478 47.8574 20.478V20.978C47.896 20.978 47.9555 20.9999 48.0104 21.0547C48.0652 21.1095 48.087 21.1691 48.087 21.2076H48.587ZM47.8574 21.9372C48.0851 21.9372 48.2743 21.8494 48.404 21.7035C48.5296 21.5622 48.587 21.3808 48.587 21.2076H48.087C48.087 21.2743 48.0645 21.3327 48.0303 21.3713C48.0001 21.4052 47.9495 21.4372 47.8574 21.4372V21.9372ZM47.1278 21.2076C47.1278 21.4353 47.2157 21.6245 47.3616 21.7542C47.5029 21.8798 47.6843 21.9372 47.8574 21.9372V21.4372C47.7908 21.4372 47.7323 21.4148 47.6938 21.3805C47.6599 21.3503 47.6278 21.2997 47.6278 21.2076H47.1278ZM44.8302 21.2076C44.8302 21.141 44.8527 21.0826 44.8869 21.044C44.9171 21.0101 44.9678 20.978 45.0598 20.978V20.478C44.8321 20.478 44.6429 20.5659 44.5132 20.7118C44.3876 20.8531 44.3302 21.0345 44.3302 21.2076H44.8302ZM45.0598 21.4372C44.9932 21.4372 44.9347 21.4148 44.8962 21.3805C44.8622 21.3503 44.8302 21.2997 44.8302 21.2076H44.3302C44.3302 21.4353 44.4181 21.6245 44.564 21.7542C44.7053 21.8798 44.8866 21.9372 45.0598 21.9372V21.4372ZM45.2894 21.2076C45.2894 21.2743 45.2669 21.3327 45.2326 21.3713C45.2025 21.4052 45.1518 21.4372 45.0598 21.4372V21.9372C45.2875 21.9372 45.4766 21.8494 45.6063 21.7035C45.7319 21.5622 45.7894 21.3808 45.7894 21.2076H45.2894ZM45.0598 20.978C45.159 20.978 45.2335 21.0155 45.2727 21.0547C45.3099 21.0919 45.3064 21.1161 45.3022 21.1286L45.7766 21.2867C45.8523 21.0593 45.7689 20.8438 45.6262 20.7011C45.4856 20.5605 45.2803 20.478 45.0598 20.478V20.978ZM42.3421 20.478C42.1144 20.478 41.9252 20.5659 41.7955 20.7118C41.6699 20.8531 41.6125 21.0345 41.6125 21.2076H42.1125C42.1125 21.141 42.135 21.0826 42.1692 21.044C42.1994 21.0101 42.25 20.978 42.3421 20.978V20.478ZM43.0717 21.2076C43.0717 21.0064 42.9736 20.8262 42.8486 20.7011C42.7236 20.5761 42.5433 20.478 42.3421 20.478V20.978C42.3807 20.978 42.4402 20.9999 42.495 21.0547C42.5499 21.1095 42.5717 21.1691 42.5717 21.2076H43.0717ZM42.3421 21.9372C42.5698 21.9372 42.7589 21.8494 42.8886 21.7035C43.0142 21.5622 43.0717 21.3808 43.0717 21.2076H42.5717C42.5717 21.2743 42.5492 21.3327 42.5149 21.3713C42.4847 21.4052 42.4341 21.4372 42.3421 21.4372V21.9372ZM41.6125 21.2076C41.6125 21.4353 41.7003 21.6245 41.8463 21.7542C41.9876 21.8798 42.1689 21.9372 42.3421 21.9372V21.4372C42.2754 21.4372 42.217 21.4148 42.1784 21.3805C42.1445 21.3503 42.1125 21.2997 42.1125 21.2076H41.6125ZM50.3456 21.2076C50.3456 21.141 50.368 21.0826 50.4023 21.044C50.4325 21.0101 50.4831 20.978 50.5752 20.978V20.478C50.3474 20.478 50.1583 20.5659 50.0286 20.7118C49.903 20.8531 49.8456 21.0345 49.8456 21.2076H50.3456ZM50.5752 21.4372C50.5085 21.4372 50.4501 21.4148 50.4115 21.3805C50.3776 21.3503 50.3456 21.2997 50.3456 21.2076H49.8456C49.8456 21.4353 49.9334 21.6245 50.0793 21.7542C50.2206 21.8798 50.402 21.9372 50.5752 21.9372V21.4372ZM50.8047 21.2076C50.8047 21.2743 50.7823 21.3327 50.748 21.3713C50.7178 21.4052 50.6672 21.4372 50.5752 21.4372V21.9372C50.8029 21.9372 50.992 21.8494 51.1217 21.7035C51.2473 21.5622 51.3047 21.3808 51.3047 21.2076H50.8047ZM50.5752 20.978C50.6744 20.978 50.7489 21.0155 50.788 21.0547C50.8252 21.0919 50.8217 21.1161 50.8176 21.1286L51.2919 21.2867C51.3677 21.0593 51.2843 20.8438 51.1416 20.7011C51.0009 20.5605 50.7956 20.478 50.5752 20.478V20.978ZM42.3421 24.6346C42.1144 24.6346 41.9252 24.7224 41.7955 24.8683C41.6699 25.0096 41.6125 25.191 41.6125 25.3642H42.1125C42.1125 25.2975 42.135 25.2391 42.1692 25.2005C42.1994 25.1666 42.25 25.1346 42.3421 25.1346V24.6346ZM43.0717 25.3642C43.0717 25.1629 42.9736 24.9827 42.8486 24.8577C42.7236 24.7326 42.5433 24.6346 42.3421 24.6346V25.1346C42.3807 25.1346 42.4402 25.1564 42.495 25.2112C42.5499 25.266 42.5717 25.3256 42.5717 25.3642H43.0717ZM42.3421 26.0938C42.5698 26.0938 42.7589 26.0059 42.8886 25.86C43.0142 25.7187 43.0717 25.5373 43.0717 25.3642H42.5717C42.5717 25.4308 42.5492 25.4892 42.5149 25.5278C42.4847 25.5617 42.4341 25.5938 42.3421 25.5938V26.0938ZM41.6125 25.3642C41.6125 25.5919 41.7003 25.781 41.8463 25.9107C41.9876 26.0363 42.1689 26.0938 42.3421 26.0938V25.5938C42.2754 25.5938 42.217 25.5713 42.1784 25.537C42.1445 25.5068 42.1125 25.4562 42.1125 25.3642H41.6125ZM44.8302 25.3642C44.8302 25.2975 44.8527 25.2391 44.8869 25.2005C44.9171 25.1666 44.9678 25.1346 45.0598 25.1346V24.6346C44.8321 24.6346 44.6429 24.7224 44.5132 24.8683C44.3876 25.0096 44.3302 25.191 44.3302 25.3642H44.8302ZM45.0598 25.5938C44.9932 25.5938 44.9347 25.5713 44.8962 25.537C44.8622 25.5068 44.8302 25.4562 44.8302 25.3642H44.3302C44.3302 25.5919 44.4181 25.781 44.564 25.9107C44.7053 26.0363 44.8866 26.0938 45.0598 26.0938V25.5938ZM45.2894 25.3642C45.2894 25.4308 45.2669 25.4892 45.2326 25.5278C45.2025 25.5617 45.1518 25.5938 45.0598 25.5938V26.0938C45.2875 26.0938 45.4766 26.0059 45.6063 25.86C45.7319 25.7187 45.7894 25.5373 45.7894 25.3642H45.2894ZM45.0598 25.1346C45.159 25.1346 45.2335 25.172 45.2727 25.2112C45.3099 25.2484 45.3064 25.2727 45.3022 25.2851L45.7766 25.4432C45.8523 25.2159 45.7689 25.0003 45.6262 24.8577C45.4856 24.717 45.2803 24.6346 45.0598 24.6346V25.1346ZM42.3421 28.7911C42.1144 28.7911 41.9252 28.8789 41.7955 29.0248C41.6699 29.1662 41.6125 29.3475 41.6125 29.5207H42.1125C42.1125 29.454 42.135 29.3956 42.1692 29.357C42.1994 29.3231 42.25 29.2911 42.3421 29.2911V28.7911ZM43.0717 29.5207C43.0717 29.3195 42.9736 29.1392 42.8486 29.0142C42.7236 28.8892 42.5433 28.7911 42.3421 28.7911V29.2911C42.3807 29.2911 42.4402 29.3129 42.495 29.3677C42.5499 29.4226 42.5717 29.4821 42.5717 29.5207H43.0717ZM42.3421 30.2503C42.5698 30.2503 42.7589 30.1624 42.8886 30.0165C43.0142 29.8752 43.0717 29.6938 43.0717 29.5207H42.5717C42.5717 29.5873 42.5492 29.6458 42.5149 29.6843C42.4847 29.7182 42.4341 29.7503 42.3421 29.7503V30.2503ZM41.6125 29.5207C41.6125 29.7484 41.7003 29.9375 41.8463 30.0672C41.9876 30.1928 42.1689 30.2503 42.3421 30.2503V29.7503C42.2754 29.7503 42.217 29.7278 42.1784 29.6935C42.1445 29.6633 42.1125 29.6127 42.1125 29.5207H41.6125ZM44.8302 29.5207C44.8302 29.454 44.8527 29.3956 44.8869 29.357C44.9171 29.3231 44.9678 29.2911 45.0598 29.2911V28.7911C44.8321 28.7911 44.6429 28.8789 44.5132 29.0248C44.3876 29.1662 44.3302 29.3475 44.3302 29.5207H44.8302ZM45.0598 29.7503C44.9932 29.7503 44.9347 29.7278 44.8962 29.6935C44.8622 29.6633 44.8302 29.6127 44.8302 29.5207H44.3302C44.3302 29.7484 44.4181 29.9375 44.564 30.0672C44.7053 30.1928 44.8866 30.2503 45.0598 30.2503V29.7503ZM45.2894 29.5207C45.2894 29.5873 45.2669 29.6458 45.2326 29.6843C45.2025 29.7182 45.1518 29.7503 45.0598 29.7503V30.2503C45.2875 30.2503 45.4766 30.1624 45.6063 30.0165C45.7319 29.8752 45.7894 29.6938 45.7894 29.5207H45.2894ZM45.0598 29.2911C45.159 29.2911 45.2335 29.3285 45.2727 29.3677C45.3099 29.4049 45.3064 29.4292 45.3022 29.4416L45.7766 29.5997C45.8523 29.3724 45.7689 29.1568 45.6262 29.0142C45.4856 28.8735 45.2803 28.7911 45.0598 28.7911V29.2911ZM64.7233 49.4937H63.2045V49.9937H64.7233V49.4937ZM65.5328 50.1433C65.5328 49.9542 65.4063 49.7901 65.2791 49.6883C65.1398 49.5769 64.9459 49.4937 64.7233 49.4937V49.9937C64.8204 49.9937 64.9063 50.0304 64.9668 50.0788C64.9969 50.1029 65.0165 50.1266 65.027 50.1438C65.0389 50.1632 65.0328 50.1632 65.0328 50.1433H65.5328ZM64.8032 50.8729C65.0309 50.8729 65.2201 50.7851 65.3497 50.6391C65.4754 50.4978 65.5328 50.3165 65.5328 50.1433H65.0328C65.0328 50.21 65.0103 50.2684 64.976 50.307C64.9459 50.3409 64.8952 50.3729 64.8032 50.3729V50.8729ZM31.711 50.8729H64.8032V50.3729H31.711V50.8729ZM30.9814 50.1433C30.9814 50.371 31.0693 50.5602 31.2152 50.6899C31.3565 50.8155 31.5378 50.8729 31.711 50.8729V50.3729C31.6444 50.3729 31.5859 50.3504 31.5474 50.3162C31.5134 50.286 31.4814 50.2354 31.4814 50.1433H30.9814ZM31.711 49.4137C31.4833 49.4137 31.2941 49.5016 31.1645 49.6475C31.0388 49.7888 30.9814 49.9702 30.9814 50.1433H31.4814C31.4814 50.0767 31.5039 50.0182 31.5382 49.9797C31.5683 49.9458 31.619 49.9137 31.711 49.9137V49.4137ZM33.2297 49.4137H31.711V49.9137H33.2297V49.4137ZM32.9797 32.2384V49.6637H33.4797V32.2384H32.9797ZM33.7093 31.5088C33.4816 31.5088 33.2925 31.5967 33.1628 31.7426C33.0372 31.8839 32.9797 32.0652 32.9797 32.2384H33.4797C33.4797 32.1717 33.5022 32.1133 33.5365 32.0747C33.5666 32.0408 33.6173 32.0088 33.7093 32.0088V31.5088ZM39.0648 31.5088H33.7093V32.0088H39.0648V31.5088ZM38.8148 17.6107V31.7588H39.3148V17.6107H38.8148ZM38.1856 17.8607H39.0648V17.3607H38.1856V17.8607ZM37.456 17.1311C37.456 17.3588 37.5438 17.5479 37.6897 17.6776C37.8311 17.8032 38.0124 17.8607 38.1856 17.8607V17.3607C38.1189 17.3607 38.0605 17.3382 38.0219 17.3039C37.988 17.2737 37.956 17.2231 37.956 17.1311H37.456ZM38.1856 16.4015C37.9579 16.4015 37.7687 16.4893 37.639 16.6353C37.5134 16.7766 37.456 16.9579 37.456 17.1311H37.956C37.956 17.0644 37.9785 17.006 38.0127 16.9674C38.0429 16.9335 38.0935 16.9015 38.1856 16.9015V16.4015ZM54.8116 16.4015H38.1856V16.9015H54.8116V16.4015ZM55.5412 17.1311C55.5412 16.9034 55.4533 16.7142 55.3074 16.5845C55.1661 16.4589 54.9848 16.4015 54.8116 16.4015V16.9015C54.8782 16.9015 54.9367 16.924 54.9752 16.9582C55.0092 16.9884 55.0412 17.039 55.0412 17.1311H55.5412ZM54.8116 17.8607C55.0393 17.8607 55.2284 17.7728 55.3581 17.6269C55.4837 17.4856 55.5412 17.3042 55.5412 17.1311H55.0412C55.0412 17.1977 55.0187 17.2562 54.9844 17.2947C54.9543 17.3286 54.9036 17.3607 54.8116 17.3607V17.8607ZM53.9323 17.8607H54.8116V17.3607H53.9323V17.8607ZM54.1823 24.8846V17.6107H53.6823V24.8846H54.1823ZM62.7249 24.6346H53.9323V25.1346H62.7249V24.6346ZM63.4545 25.3642C63.4545 25.1364 63.3667 24.9473 63.2208 24.8176C63.0795 24.692 62.8981 24.6346 62.7249 24.6346V25.1346C62.7916 25.1346 62.85 25.157 62.8886 25.1913C62.9225 25.2215 62.9545 25.2721 62.9545 25.3642H63.4545ZM63.4545 49.7437V25.3642H62.9545V49.7437H63.4545ZM46.9782 49.4937H34.1889V49.9937H46.9782V49.4937ZM46.7282 32.7979V49.7437H47.2282V32.7979H46.7282ZM34.1889 33.0479H46.9782V32.5479H34.1889V33.0479ZM34.4389 49.7437V32.7979H33.9389V49.7437H34.4389ZM46.7282 25.3642V31.7588H47.2282V25.3642H46.7282ZM47.5377 24.6346C47.1053 24.6346 46.7282 24.9622 46.7282 25.3642H47.2282C47.2282 25.2866 47.3306 25.1346 47.5377 25.1346V24.6346ZM52.8932 24.6346H47.5377V25.1346H52.8932V24.6346ZM52.6432 17.6107V24.8846H53.1432V17.6107H52.6432ZM40.104 17.8607H52.8932V17.3607H40.104V17.8607ZM40.354 31.7588V17.6107H39.854V31.7588H40.354ZM46.9782 31.5088H40.104V32.0088H46.9782V31.5088ZM62.1654 49.4937H48.0173V49.9937H62.1654V49.4937ZM61.9154 25.9237V49.7437H62.4154V25.9237H61.9154ZM48.0173 26.1737H62.1654V25.6737H48.0173V26.1737ZM48.2673 49.7437V25.9237H47.7673V49.7437H48.2673Z" fill="#BDACA8"/>
<path d="M8.16452 102L6.16252 99.13C6.07852 99.1393 5.95252 99.144 5.78452 99.144H3.57252V102H1.75252V92.2H5.78452C6.63386 92.2 7.37119 92.34 7.99652 92.62C8.63119 92.9 9.11652 93.3013 9.45252 93.824C9.78852 94.3467 9.95652 94.9673 9.95652 95.686C9.95652 96.4233 9.77452 97.058 9.41052 97.59C9.05586 98.122 8.54252 98.5187 7.87052 98.78L10.1245 102H8.16452ZM8.12252 95.686C8.12252 95.0607 7.91719 94.58 7.50652 94.244C7.09586 93.908 6.49386 93.74 5.70052 93.74H3.57252V97.646H5.70052C6.49386 97.646 7.09586 97.478 7.50652 97.142C7.91719 96.7967 8.12252 96.3113 8.12252 95.686ZM19.3428 100.474V102H11.9928V92.2H19.1468V93.726H13.8128V96.274H18.5448V97.772H13.8128V100.474H19.3428ZM27.7277 99.732H22.8277L21.8617 102H19.9857L24.3957 92.2H26.1877L30.6117 102H28.7077L27.7277 99.732ZM27.1257 98.304L25.2777 94.02L23.4437 98.304H27.1257ZM31.858 92.2H33.678V100.46H38.802V102H31.858V92.2ZM51.458 100.474V102H44.108V92.2H51.262V93.726H45.928V96.274H50.66V97.772H45.928V100.474H51.458ZM56.5249 102.14C55.7689 102.14 55.0362 102.033 54.3269 101.818C53.6269 101.603 53.0716 101.319 52.6609 100.964L53.2909 99.55C53.6922 99.8673 54.1822 100.129 54.7609 100.334C55.3489 100.53 55.9369 100.628 56.5249 100.628C57.2529 100.628 57.7942 100.511 58.1489 100.278C58.5129 100.045 58.6949 99.7367 58.6949 99.354C58.6949 99.074 58.5922 98.8453 58.3869 98.668C58.1909 98.4813 57.9389 98.3367 57.6309 98.234C57.3229 98.1313 56.9029 98.0147 56.3709 97.884C55.6242 97.7067 55.0176 97.5293 54.5509 97.352C54.0936 97.1747 53.6969 96.8993 53.3609 96.526C53.0342 96.1433 52.8709 95.63 52.8709 94.986C52.8709 94.4447 53.0156 93.9547 53.3049 93.516C53.6036 93.068 54.0469 92.7133 54.6349 92.452C55.2322 92.1907 55.9602 92.06 56.8189 92.06C57.4162 92.06 58.0042 92.1347 58.5829 92.284C59.1616 92.4333 59.6609 92.648 60.0809 92.928L59.5069 94.342C59.0776 94.09 58.6296 93.8987 58.1629 93.768C57.6962 93.6373 57.2436 93.572 56.8049 93.572C56.0862 93.572 55.5496 93.6933 55.1949 93.936C54.8496 94.1787 54.6769 94.5007 54.6769 94.902C54.6769 95.182 54.7749 95.4107 54.9709 95.588C55.1762 95.7653 55.4329 95.9053 55.7409 96.008C56.0489 96.1107 56.4689 96.2273 57.0009 96.358C57.7289 96.526 58.3262 96.7033 58.7929 96.89C59.2596 97.0673 59.6562 97.3427 59.9829 97.716C60.3189 98.0893 60.4869 98.5933 60.4869 99.228C60.4869 99.7693 60.3376 100.259 60.0389 100.698C59.7496 101.137 59.3062 101.487 58.7089 101.748C58.1116 102.009 57.3836 102.14 56.5249 102.14ZM64.1429 93.74H60.8949V92.2H69.2109V93.74H65.9629V102H64.1429V93.74ZM76.4406 99.732H71.5406L70.5746 102H68.6986L73.1086 92.2H74.9006L79.3246 102H77.4206L76.4406 99.732ZM75.8386 98.304L73.9906 94.02L72.1566 98.304H75.8386ZM82.0667 93.74H78.8187V92.2H87.1347V93.74H83.8867V102H82.0667V93.74ZM95.8506 100.474V102H88.5006V92.2H95.6546V93.726H90.3206V96.274H95.0526V97.772H90.3206V100.474H95.8506Z" fill="#BDACA8"/>
</svg>
