<svg width="104" height="105" viewBox="0 0 104 105" fill="none" xmlns="http://www.w3.org/2000/svg">
<path fill-rule="evenodd" clip-rule="evenodd" d="M52 7C37.0883 7 25 19.0883 25 34C25 48.9117 37.0883 61 52 61C66.9117 61 79 48.9117 79 34C79 19.0883 66.9117 7 52 7ZM23 34C23 17.9837 35.9837 5 52 5C68.0163 5 81 17.9837 81 34C81 50.0163 68.0163 63 52 63C35.9837 63 23 50.0163 23 34ZM32.4088 28.8941C32.4088 30.0612 33.0456 31.2148 34.0559 31.796V44.7059C34.0559 45.0649 34.3469 45.3559 34.7059 45.3559H54.3988L55.0652 49.2623C55.1184 49.5746 55.3891 49.803 55.7059 49.803H56.4598C56.3512 50.0587 56.2912 50.34 56.2912 50.6353C56.2912 51.813 57.2459 52.7677 58.4235 52.7677C59.6012 52.7677 60.5559 51.813 60.5559 50.6353C60.5559 50.34 60.4959 50.0587 60.3873 49.803H64.448C64.3395 50.0587 64.2794 50.34 64.2794 50.6353C64.2794 51.813 65.2341 52.7677 66.4118 52.7677C67.5894 52.7677 68.5441 51.813 68.5441 50.6353C68.5441 50.34 68.4841 50.0587 68.3756 49.803H69.1294C69.4884 49.803 69.7794 49.5119 69.7794 49.153C69.7794 48.794 69.4884 48.503 69.1294 48.503H56.2544L55.9564 46.7559H58.1765H62.3765H66.6588H69.1294C69.4397 46.7559 69.7067 46.5366 69.767 46.2323L71.5788 37.0911C71.6166 36.9003 71.567 36.7025 71.4435 36.5522C71.32 36.4019 71.1357 36.3147 70.9412 36.3147H66.6588H62.65V30.3391C62.8415 29.9093 62.9441 29.4416 62.9441 28.9765V27.193L63.5508 26.9503L63.3094 26.3468L61.7088 22.3454V21.8206V18.3529C61.7088 17.9939 61.4178 17.7029 61.0588 17.7029H34.7059C34.3469 17.7029 34.0559 17.9939 34.0559 18.3529V22.3454L32.4607 26.3333C32.4568 26.3424 32.4532 26.3515 32.4498 26.3607L32.2139 26.9503L32.4088 27.0283V28.8941ZM61.5703 29.5123C61.4352 29.6314 61.35 29.8058 61.35 30V30.028C61.1611 30.3451 60.8914 30.6064 60.5713 30.7597C60.3441 30.8349 60.1915 30.8794 59.9882 30.8794C59.9728 30.8794 59.9573 30.88 59.9419 30.8811C59.1248 30.9394 58.4149 30.4286 58.1551 29.7355C58.1352 29.6213 58.0889 29.4953 57.9951 29.3798C57.849 29.2 57.6368 29.1088 57.425 29.1088C57.036 29.1088 56.7926 29.3848 56.6892 29.5917C56.6781 29.6139 56.6682 29.6368 56.6597 29.6602C56.4133 30.338 55.7326 30.8794 54.9647 30.8794C54.1938 30.8794 53.5521 30.424 53.2963 29.736C53.2765 29.6217 53.2302 29.4955 53.1363 29.3798C52.9901 29.2 52.778 29.1088 52.5662 29.1088C52.1772 29.1088 51.9338 29.3848 51.8304 29.5917C51.8193 29.6139 51.8094 29.6368 51.8009 29.6602C51.5544 30.338 50.8737 30.8794 50.1059 30.8794C49.335 30.8794 48.6933 30.424 48.4375 29.736C48.4177 29.6217 48.3714 29.4955 48.2775 29.3798C48.1313 29.2 47.9191 29.1088 47.7073 29.1088C47.3183 29.1088 47.075 29.3848 46.9716 29.5917C46.9604 29.6139 46.9506 29.6368 46.9421 29.6602C46.6956 30.338 46.0149 30.8794 45.2471 30.8794C44.4762 30.8794 43.8345 30.424 43.5787 29.736C43.5589 29.6217 43.5126 29.4955 43.4186 29.3798C43.2725 29.2 43.0603 29.1088 42.8485 29.1088C42.4595 29.1088 42.2162 29.3848 42.1127 29.5917C42.1016 29.6139 42.0918 29.6368 42.0832 29.6602C41.8368 30.338 41.1561 30.8794 40.3882 30.8794C39.6173 30.8794 38.9756 30.424 38.7198 29.736C38.7001 29.6217 38.6538 29.4955 38.5598 29.3798C38.4137 29.2 38.2015 29.1088 37.9897 29.1088C37.6007 29.1088 37.3573 29.3848 37.2539 29.5917C37.2402 29.6192 37.2284 29.6476 37.2186 29.6768C36.9777 30.3996 36.251 30.9411 35.411 30.8811L35.411 30.881L35.4052 30.8807C34.4869 30.8233 33.7088 29.9284 33.7088 28.8941V27.3206H61.6441V28.9765C61.6441 29.158 61.6184 29.3386 61.5703 29.5123ZM61.35 31.8168V36.3147H58.1765H54.1752L53.9584 35.0437C53.9051 34.7314 53.6345 34.503 53.3177 34.503H50.2706C49.9116 34.503 49.6206 34.794 49.6206 35.153C49.6206 35.5119 49.9116 35.803 50.2706 35.803H52.7691L54.177 44.0559H35.3559V32.1802C36.4179 32.2433 37.3631 31.7582 37.9556 31.0054C38.5227 31.7341 39.4041 32.1794 40.3882 32.1794C41.379 32.1794 42.2436 31.6897 42.8033 30.9911C43.37 31.7283 44.2565 32.1794 45.2471 32.1794C46.2378 32.1794 47.1025 31.6897 47.6621 30.9911C48.2288 31.7283 49.1153 32.1794 50.1059 32.1794C51.0966 32.1794 51.9613 31.6897 52.521 30.9911C53.0877 31.7283 53.9742 32.1794 54.9647 32.1794C55.9573 32.1794 56.8234 31.6878 57.383 30.9871C57.9772 31.7537 58.9352 32.2484 60.0118 32.1793C60.4356 32.1754 60.7594 32.0674 61.0007 31.9869L61.0173 31.9813C61.0389 31.9742 61.06 31.9658 61.0807 31.9564C61.1735 31.9143 61.2633 31.8676 61.35 31.8168ZM65.5794 50.6353C65.5794 50.1756 65.9521 49.803 66.4118 49.803C66.8715 49.803 67.2441 50.1756 67.2441 50.6353C67.2441 51.095 66.8715 51.4677 66.4118 51.4677C65.9521 51.4677 65.5794 51.095 65.5794 50.6353ZM58.4235 49.803C57.9638 49.803 57.5912 50.1756 57.5912 50.6353C57.5912 51.095 57.9638 51.4677 58.4235 51.4677C58.8832 51.4677 59.2559 51.095 59.2559 50.6353C59.2559 50.1756 58.8832 49.803 58.4235 49.803ZM68.5956 45.4559H67.3088V41.8971H69.301L68.5956 45.4559ZM66.0088 45.4559V41.8971H63.0265V45.4559H66.0088ZM69.5586 40.5971H67.3088V37.6147H70.1497L69.5586 40.5971ZM66.0088 40.5971V37.6147H63.0265V40.5971H66.0088ZM61.7265 40.5971V37.6147H58.8265V40.5971H61.7265ZM57.5265 40.5971V37.6147H54.397L54.9058 40.5971H57.5265ZM55.1275 41.8971H57.5265V45.4559H55.7346L55.1275 41.8971ZM58.8265 41.8971H61.7265V45.4559H58.8265V41.8971ZM60.6188 23.1206L61.7788 26.0206H61.7088V25.9382H61.0588H34.0189L35.1459 23.1206L35.3559 23.1206H60.4088H60.6188ZM60.4088 21.8206V19.0029H35.3559V21.8206H60.4088ZM38.9971 35.6471C38.9971 35.2881 39.2881 34.9971 39.6471 34.9971H47.8824C48.2413 34.9971 48.5324 35.2881 48.5324 35.6471V41.4118C48.5324 41.7707 48.2413 42.0618 47.8824 42.0618H39.6471C39.2881 42.0618 38.9971 41.7707 38.9971 41.4118V35.6471ZM40.2971 36.2971V40.7618H47.2324V36.2971H40.2971Z" fill="#BDACA8"/>
<path d="M34.2846 102L32.2826 99.13C32.1986 99.1393 32.0726 99.144 31.9046 99.144H29.6926V102H27.8726V92.2H31.9046C32.754 92.2 33.4913 92.34 34.1166 92.62C34.7513 92.9 35.2366 93.3013 35.5726 93.824C35.9086 94.3467 36.0766 94.9673 36.0766 95.686C36.0766 96.4233 35.8946 97.058 35.5306 97.59C35.176 98.122 34.6626 98.5187 33.9906 98.78L36.2446 102H34.2846ZM34.2426 95.686C34.2426 95.0607 34.0373 94.58 33.6266 94.244C33.216 93.908 32.614 93.74 31.8206 93.74H29.6926V97.646H31.8206C32.614 97.646 33.216 97.478 33.6266 97.142C34.0373 96.7967 34.2426 96.3113 34.2426 95.686ZM45.4629 100.474V102H38.1129V92.2H45.2669V93.726H39.9329V96.274H44.6649V97.772H39.9329V100.474H45.4629ZM49.4798 93.74H46.2318V92.2H54.5478V93.74H51.2998V102H49.4798V93.74ZM61.7775 99.732H56.8775L55.9115 102H54.0355L58.4455 92.2H60.2375L64.6615 102H62.7575L61.7775 99.732ZM61.1755 98.304L59.3275 94.02L57.4935 98.304H61.1755ZM65.9078 92.2H67.7278V102H65.9078V92.2ZM70.3785 92.2H72.1985V100.46H77.3225V102H70.3785V92.2Z" fill="#BDACA8"/>
</svg>
