<svg width="104" height="110" viewBox="0 0 104 110" fill="none" xmlns="http://www.w3.org/2000/svg">
<path fill-rule="evenodd" clip-rule="evenodd" d="M52 7C37.0883 7 25 19.0883 25 34C25 48.9117 37.0883 61 52 61C66.9117 61 79 48.9117 79 34C79 19.0883 66.9117 7 52 7ZM23 34C23 17.9837 35.9837 5 52 5C68.0163 5 81 17.9837 81 34C81 50.0163 68.0163 63 52 63C35.9837 63 23 50.0163 23 34ZM32.4088 28.8941C32.4088 30.0612 33.0456 31.2148 34.0559 31.796V44.7059C34.0559 45.0649 34.3469 45.3559 34.7059 45.3559H54.3988L55.0651 49.2622C55.1184 49.5745 55.3891 49.8029 55.7059 49.8029H56.4597C56.3512 50.0587 56.2912 50.34 56.2912 50.6353C56.2912 51.813 57.2459 52.7676 58.4235 52.7676C59.6012 52.7676 60.5559 51.813 60.5559 50.6353C60.5559 50.34 60.4958 50.0587 60.3873 49.8029H64.448C64.3395 50.0587 64.2794 50.34 64.2794 50.6353C64.2794 51.813 65.2341 52.7676 66.4118 52.7676C67.5894 52.7676 68.5441 51.813 68.5441 50.6353C68.5441 50.34 68.4841 50.0587 68.3756 49.8029H69.1294C69.4884 49.8029 69.7794 49.5119 69.7794 49.1529C69.7794 48.7939 69.4884 48.5029 69.1294 48.5029H56.2544L55.9564 46.7559H58.1765H62.3765H66.6588H69.1294C69.4397 46.7559 69.7067 46.5366 69.767 46.2322L71.5788 37.0911C71.6166 36.9002 71.567 36.7025 71.4435 36.5522C71.32 36.4018 71.1357 36.3147 70.9412 36.3147H66.6588H62.65V30.3391C62.8415 29.9093 62.9441 29.4416 62.9441 28.9765V27.193L63.5508 26.9503L63.3094 26.3468L61.7088 22.3454V21.8206V18.3529C61.7088 17.9939 61.4178 17.7029 61.0588 17.7029H34.7059C34.3469 17.7029 34.0559 17.9939 34.0559 18.3529V22.3454L32.4607 26.3333C32.4568 26.3424 32.4532 26.3515 32.4498 26.3607L32.2139 26.9503L32.4088 27.0283V28.8941ZM61.5703 29.5123C61.4352 29.6314 61.35 29.8058 61.35 30V30.028C61.1611 30.3451 60.8914 30.6064 60.5713 30.7597C60.3441 30.8349 60.1915 30.8794 59.9882 30.8794C59.9728 30.8794 59.9573 30.88 59.9419 30.8811C59.1248 30.9394 58.4149 30.4286 58.1551 29.7355C58.1352 29.6213 58.0889 29.4953 57.9951 29.3798C57.849 29.2 57.6368 29.1088 57.425 29.1088C57.036 29.1088 56.7926 29.3848 56.6892 29.5917C56.6781 29.6139 56.6682 29.6368 56.6597 29.6602C56.4133 30.338 55.7326 30.8794 54.9647 30.8794C54.1938 30.8794 53.5521 30.424 53.2963 29.736C53.2765 29.6217 53.2302 29.4955 53.1363 29.3798C52.9901 29.2 52.778 29.1088 52.5662 29.1088C52.1772 29.1088 51.9338 29.3848 51.8304 29.5917C51.8193 29.6139 51.8094 29.6368 51.8009 29.6602C51.5544 30.338 50.8737 30.8794 50.1059 30.8794C49.335 30.8794 48.6933 30.424 48.4375 29.736C48.4177 29.6217 48.3714 29.4955 48.2775 29.3798C48.1313 29.2 47.9191 29.1088 47.7073 29.1088C47.3183 29.1088 47.075 29.3848 46.9716 29.5917C46.9604 29.6139 46.9506 29.6368 46.9421 29.6602C46.6956 30.338 46.0149 30.8794 45.2471 30.8794C44.4762 30.8794 43.8345 30.424 43.5787 29.736C43.5589 29.6217 43.5126 29.4955 43.4186 29.3798C43.2725 29.2 43.0603 29.1088 42.8485 29.1088C42.4595 29.1088 42.2162 29.3848 42.1127 29.5917C42.1016 29.6139 42.0918 29.6368 42.0832 29.6602C41.8368 30.338 41.1561 30.8794 40.3882 30.8794C39.6173 30.8794 38.9756 30.424 38.7198 29.736C38.7001 29.6217 38.6538 29.4955 38.5598 29.3798C38.4137 29.2 38.2015 29.1088 37.9897 29.1088C37.6007 29.1088 37.3573 29.3848 37.2539 29.5917C37.2402 29.6192 37.2284 29.6476 37.2186 29.6768C36.9777 30.3996 36.251 30.9411 35.411 30.8811L35.411 30.881L35.4052 30.8807C34.4869 30.8233 33.7088 29.9284 33.7088 28.8941V27.3206H61.6441V28.9765C61.6441 29.158 61.6184 29.3386 61.5703 29.5123ZM61.35 31.8168V36.3147H58.1765H54.1752L53.9584 35.0436C53.9051 34.7313 53.6345 34.5029 53.3176 34.5029H50.2706C49.9116 34.5029 49.6206 34.7939 49.6206 35.1529C49.6206 35.5119 49.9116 35.8029 50.2706 35.8029H52.7691L54.177 44.0559H35.3559V32.1802C36.4179 32.2433 37.3631 31.7582 37.9556 31.0054C38.5227 31.7341 39.4041 32.1794 40.3882 32.1794C41.379 32.1794 42.2436 31.6897 42.8033 30.9911C43.37 31.7283 44.2565 32.1794 45.2471 32.1794C46.2378 32.1794 47.1025 31.6897 47.6621 30.9911C48.2288 31.7283 49.1153 32.1794 50.1059 32.1794C51.0966 32.1794 51.9613 31.6897 52.521 30.9911C53.0877 31.7283 53.9742 32.1794 54.9647 32.1794C55.9573 32.1794 56.8234 31.6878 57.383 30.9871C57.9772 31.7537 58.9352 32.2484 60.0118 32.1793C60.4356 32.1754 60.7594 32.0674 61.0007 31.9869L61.0173 31.9813C61.0389 31.9742 61.06 31.9658 61.0807 31.9564C61.1735 31.9143 61.2633 31.8676 61.35 31.8168ZM65.5794 50.6353C65.5794 50.1756 65.9521 49.8029 66.4118 49.8029C66.8715 49.8029 67.2441 50.1756 67.2441 50.6353C67.2441 51.095 66.8715 51.4676 66.4118 51.4676C65.9521 51.4676 65.5794 51.095 65.5794 50.6353ZM58.4235 49.8029C57.9638 49.8029 57.5912 50.1756 57.5912 50.6353C57.5912 51.095 57.9638 51.4676 58.4235 51.4676C58.8832 51.4676 59.2559 51.095 59.2559 50.6353C59.2559 50.1756 58.8832 49.8029 58.4235 49.8029ZM68.5956 45.4559H67.3088V41.897H69.301L68.5956 45.4559ZM66.0088 45.4559V41.897H63.0265V45.4559H66.0088ZM69.5586 40.597H67.3088V37.6147H70.1497L69.5586 40.597ZM66.0088 40.597V37.6147H63.0265V40.597H66.0088ZM61.7265 40.597V37.6147H58.8265V40.597H61.7265ZM57.5265 40.597V37.6147H54.397L54.9057 40.597H57.5265ZM55.1275 41.897H57.5265V45.4559H55.7346L55.1275 41.897ZM58.8265 41.897H61.7265V45.4559H58.8265V41.897ZM60.6188 23.1206L61.7788 26.0206H61.7088V25.9382H61.0588H34.0189L35.1459 23.1206L35.3559 23.1206H60.4088H60.6188ZM60.4088 21.8206V19.0029H35.3559V21.8206H60.4088ZM38.9971 35.6471C38.9971 35.2881 39.2881 34.9971 39.6471 34.9971H47.8824C48.2413 34.9971 48.5324 35.2881 48.5324 35.6471V41.4118C48.5324 41.7707 48.2413 42.0618 47.8824 42.0618H39.6471C39.2881 42.0618 38.9971 41.7707 38.9971 41.4118V35.6471ZM40.2971 36.2971V40.7618H47.2324V36.2971H40.2971Z" fill="#BDACA8"/>
<path d="M26.2403 94.2C27.1083 94.2 27.8596 94.3447 28.4943 94.634C29.1383 94.9233 29.6329 95.334 29.9783 95.866C30.3236 96.398 30.4963 97.028 30.4963 97.756C30.4963 98.4747 30.3236 99.1047 29.9783 99.646C29.6329 100.178 29.1383 100.589 28.4943 100.878C27.8596 101.158 27.1083 101.298 26.2403 101.298H24.2663V104H21.9983V94.2H26.2403ZM26.1143 99.45C26.7956 99.45 27.3136 99.3053 27.6683 99.016C28.0229 98.7173 28.2003 98.2973 28.2003 97.756C28.2003 97.2053 28.0229 96.7853 27.6683 96.496C27.3136 96.1973 26.7956 96.048 26.1143 96.048H24.2663V99.45H26.1143ZM31.9924 94.2H34.2464V100.584L38.9224 94.2H41.0504V104H38.8104V97.63L34.1344 104H31.9924V94.2ZM50.9805 96.048H47.8445V104H45.6045V96.048H42.4825V94.2H50.9805V96.048ZM59.9925 102.18V104H52.4045V94.2H59.8105V96.02H54.6585V98.148H59.2085V99.912H54.6585V102.18H59.9925ZM61.8244 94.2H64.0784V100.584L68.7544 94.2H70.8824V104H68.6424V97.63L63.9664 104H61.8244V94.2ZM66.3464 93.57C64.5544 93.57 63.6491 92.856 63.6304 91.428H65.1844C65.2031 92.1093 65.5904 92.45 66.3464 92.45C66.7198 92.45 67.0044 92.366 67.2004 92.198C67.3964 92.0207 67.4991 91.764 67.5084 91.428H69.0624C69.0531 92.128 68.8244 92.66 68.3764 93.024C67.9284 93.388 67.2518 93.57 66.3464 93.57ZM81.9901 94.2V104H79.7501V96.048H76.3901L76.3201 98.092C76.2735 99.4827 76.1615 100.612 75.9841 101.48C75.8068 102.339 75.5081 103.001 75.0881 103.468C74.6775 103.925 74.0988 104.154 73.3521 104.154C73.0441 104.154 72.6708 104.103 72.2321 104L72.3721 102.082C72.4935 102.119 72.6288 102.138 72.7781 102.138C73.3195 102.138 73.6975 101.821 73.9121 101.186C74.1268 100.542 74.2621 99.5387 74.3181 98.176L74.4581 94.2H81.9901Z" fill="#BDACA8"/>
</svg>
