<svg xmlns="http://www.w3.org/2000/svg" viewBox="0 0 288.2 105.5">
    <path d="M165.6 35h-24.8V13.3h26.9V3.2h-38.9v72h12V45.1h24.8V35zm-27.3 49.1c-.4 0-.7.1-.9.4-.3.2-.4.6-.4.9 0 .4.1.7.4.9.3.2.6.4.9.4.4 0 .7-.1 1-.4.3-.2.4-.5.4-.9s-.1-.7-.4-.9c-.3-.3-.7-.4-1-.4zm9.9 4.4c-1.4 0-2.5.6-3.2 1.9v-1.7h-2.3v10h2.3V93c0-.8.2-1.4.7-1.9.4-.5 1-.8 1.7-.8 1.3 0 2 .9 2 2.8v5.6h2.3v-6.1c0-1.3-.3-2.3-.9-3-.7-.8-1.6-1.1-2.6-1.1zM80.3 6.7L76.7 18C89.2 23.6 98 36.2 98 50.8c0 19.8-16.1 35.9-35.9 35.9-2.5 0-4.9-.3-7.3-.8l-3.6 11.3c3.5.8 7.2 1.3 10.9 1.3 26.3 0 47.7-21.4 47.7-47.7 0-19.9-12.2-36.9-29.5-44.1zm56.8 92h2.3v-10h-2.3v10zm43.3-23.5l6.2-18.3H215l6.5 18.3h13.1l-26.8-72h-13.5l-27 72h13.1zm19.2-56.8c.4-1.1.7-2.6 1-4.5h.2c.3 2.1.7 3.6 1 4.5l10 28.7h-22l9.8-28.7zM62.1 14.9c1.1 0 2.2.1 3.2.2L69 3.6c-2.2-.3-4.5-.5-6.9-.5-20.1 0-37.3 12.5-44.3 30.1H0V45h14.7c-.2 1.9-.4 3.9-.4 5.9 0 1.1.1 2.2.1 3.3H0V66h16.8c3.9 11.8 12.4 21.6 23.3 27.3l3.7-11.4c-6.2-3.7-11.3-9.2-14.3-15.9h7.7l4.7-11.8H26.3c-.1-1.1-.2-2.2-.2-3.3 0-2 .2-4 .5-5.9h19l4.7-11.8H30.8C37 22.3 48.7 14.9 62.1 14.9zm96.3 73.6c-1.4 0-2.6.3-3.6.9v2c1-.8 2-1.2 3.2-1.2 1.3 0 2 .7 2 2.1l-3 .4c-2.2.3-3.2 1.4-3.2 3.3 0 .9.3 1.6.8 2.1.6.5 1.3.8 2.3.8 1.3 0 2.3-.6 3-1.8v1.6h2.2v-6.5c.1-2.5-1.2-3.7-3.7-3.7zm1.6 6.2c0 .7-.2 1.3-.7 1.8-.5.5-1 .7-1.7.7-.5 0-.9-.1-1.2-.4-.3-.3-.5-.6-.5-1 0-.6.2-1 .5-1.2.3-.2.8-.4 1.5-.5l2.1-.3v.9zm-28.3-10.1c-.7.6-1 1.4-1 2.5v1.6H129v1.8h1.7v8.2h2.3v-8.2h2.3v-1.8H133v-1.4c0-1.2.5-1.9 1.6-1.9.4 0 .7.1 1 .3v-1.9c-.3-.1-.8-.2-1.3-.2-1.1.1-1.9.4-2.6 1zm117.2 3.9c-1.5 0-2.6.7-3.4 2v-1.7h-2.3v14.5h2.3v-6c.7 1.1 1.7 1.7 2.9 1.7 1.4 0 2.5-.5 3.3-1.5.8-1 1.2-2.3 1.2-4 0-1.5-.4-2.7-1.1-3.6-.6-1-1.6-1.4-2.9-1.4zm1 7.7c-.5.7-1.1 1-2 1-.7 0-1.3-.3-1.8-.8s-.7-1.1-.7-1.8v-1.2c0-.9.2-1.6.7-2.1.5-.6 1.1-.9 1.9-.9.8 0 1.4.3 1.8.8.4.6.7 1.3.7 2.3.1 1.1-.1 2-.6 2.7zm9.3-7.7c-1.4 0-2.6.3-3.6.9v2c1-.8 2-1.2 3.2-1.2 1.3 0 2 .7 2 2.1l-3 .4c-2.2.3-3.2 1.4-3.2 3.3 0 .9.3 1.6.8 2.1.6.5 1.3.8 2.3.8 1.3 0 2.3-.6 3-1.8v1.6h2.2v-6.5c0-2.5-1.2-3.7-3.7-3.7zm1.6 6.2c0 .7-.2 1.3-.7 1.8-.5.5-1 .7-1.7.7-.5 0-.9-.1-1.2-.4-.3-.3-.5-.6-.5-1 0-.6.2-1 .5-1.2.3-.2.8-.4 1.5-.5l2.1-.3v.9zM272 64c-2.5 1.7-6.2 2.5-11.2 2.5-1.4 0-3-.2-4.7-.5-1.7-.3-3.4-.7-5.1-1.3-1.7-.6-3.3-1.2-4.8-2s-2.8-1.7-3.9-2.7v12.3c1 .6 2.3 1.2 4 1.7 1.6.5 3.4.9 5.2 1.3 1.8.4 3.6.6 5.4.8 1.8.2 3.2.3 4.4.3 3.6 0 7-.4 10.3-1.1 3.2-.7 6.1-1.8 8.6-3.4 2.5-1.6 4.5-3.6 6-6.1 1.5-2.5 2.2-5.6 2.2-9.2 0-2.7-.5-5.1-1.5-7.3-1-2.1-2.3-4.1-4-5.8-1.7-1.7-3.6-3.3-5.9-4.8-2.2-1.4-4.6-2.8-7.1-4.1-2.4-1.1-4.6-2.1-6.5-3-1.9-.9-3.4-1.9-4.7-2.8-1.3-1-2.3-2-2.9-3.2-.7-1.2-1-2.6-1-4.2 0-1.7.4-3.2 1.3-4.4.9-1.2 2-2.2 3.4-3 1.4-.8 3-1.3 4.7-1.7 1.8-.3 3.5-.5 5.3-.5 6.4 0 11.7 1.5 15.8 4.4V4.6c-3.4-1.7-8.9-2.6-16.5-2.6-3.3 0-6.6.4-9.7 1.2-3.2.8-6 2-8.5 3.6s-4.5 3.7-6 6.2-2.3 5.4-2.3 8.8c0 2.7.4 5.1 1.3 7.2.9 2 2.1 3.9 3.7 5.5s3.4 3.1 5.5 4.4c2.1 1.3 4.4 2.7 6.8 4 2.3 1 4.4 2 6.4 3s3.7 2 5.2 3 2.6 2.2 3.4 3.4c.8 1.3 1.2 2.7 1.2 4.4-.1 3.2-1.3 5.6-3.8 7.3zm9.8 32c-.1.3-.1.6-.2.7-.1-.4-.1-.6-.2-.7l-2.4-7.2h-2.5l4 9.9-.7 1.6c-.4.8-1 1.2-1.9 1.2-.3 0-.6-.1-1-.2v1.9c.3.1.7.1 1.2.1 1.7 0 3-1 3.9-3.1l4.5-11.5h-2.3l-2.4 7.3zm-44.9-7.5c-1.5 0-2.6.7-3.3 2.1-.2-.6-.5-1.1-1.1-1.5-.5-.4-1.1-.6-1.8-.6-1.4 0-2.4.6-3.1 1.8v-1.6h-2.3v10h2.3v-5.4c0-.9.2-1.6.6-2.2.4-.6.9-.8 1.5-.8 1.3 0 2 .9 2 2.8v5.6h2.3v-5.4c0-.8.2-1.5.6-2.1.4-.6.9-.9 1.5-.9.7 0 1.2.2 1.5.7.3.5.4 1.2.4 2.3v5.4h2.3v-6.1c-.1-2.8-1.2-4.1-3.4-4.1zm-66.1 0c-1.4 0-2.5.6-3.2 1.9v-1.7h-2.3v10h2.3V93c0-.8.2-1.4.7-1.9.4-.5 1-.8 1.7-.8 1.3 0 2 .9 2 2.8v5.6h2.3v-6.1c0-1.3-.3-2.3-.9-3-.7-.8-1.6-1.1-2.6-1.1zm100.7 0c-1.4 0-2.5.6-3.2 1.9v-1.7H266v10h2.3V93c0-.8.2-1.4.7-1.9.4-.5 1-.8 1.7-.8 1.3 0 2 .9 2 2.8v5.6h2.3v-6.1c0-1.3-.3-2.3-.9-3-.7-.8-1.5-1.1-2.6-1.1zm-80.5 0c-1.4 0-2.5.5-3.4 1.5-.9 1-1.4 2.2-1.4 3.8 0 1.6.4 2.9 1.2 3.8.8.9 2 1.4 3.4 1.4 1.5 0 2.7-.3 3.6-.9v-1.8c-.9.6-1.9 1-2.9 1-.9 0-1.7-.2-2.2-.7-.5-.5-.8-1.2-.9-2.1h6.8v-.9c0-1.6-.4-2.8-1.1-3.6-.7-1.1-1.8-1.5-3.1-1.5zm-2.5 4.2c.1-.8.4-1.4.8-1.9.5-.5 1-.7 1.6-.7.7 0 1.2.2 1.6.7.4.5.6 1.1.6 1.9h-4.6zm29.3-4.2c-1.6 0-2.9.5-3.9 1.4-1 .9-1.4 2.2-1.4 3.9 0 1.5.5 2.8 1.4 3.7.9.9 2.1 1.4 3.7 1.4s2.8-.5 3.8-1.4c.9-1 1.4-2.2 1.4-3.8 0-1.6-.4-2.9-1.3-3.8-1-.9-2.2-1.4-3.7-1.4zm1.9 7.7c-.5.6-1.2.9-2 .9-.9 0-1.6-.3-2.1-.9-.5-.6-.8-1.4-.8-2.5s.3-1.9.8-2.5c.5-.6 1.2-.9 2.1-.9.9 0 1.6.3 2 .9.5.6.7 1.4.7 2.5s-.2 2-.7 2.5zM178 90c-1 1-1.5 2.3-1.5 4 0 1.5.5 2.7 1.4 3.6.9.9 2.1 1.4 3.6 1.4 1.1 0 2-.2 2.8-.7v-2c-.7.6-1.5.9-2.3.9-1 0-1.7-.3-2.3-.9-.6-.6-.9-1.4-.9-2.4s.3-1.9.9-2.5c.6-.6 1.4-1 2.3-1 .8 0 1.5.3 2.2.8V89c-.7-.3-1.5-.5-2.4-.5-1.5 0-2.9.5-3.8 1.5zm26.3 0c-1 1-1.5 2.3-1.5 4 0 1.5.5 2.7 1.4 3.6.9.9 2.1 1.4 3.6 1.4 1.1 0 2-.2 2.8-.7v-2c-.7.6-1.5.9-2.3.9-1 0-1.7-.3-2.3-.9-.6-.6-.9-1.4-.9-2.4s.3-1.9.9-2.5c.6-.6 1.4-1 2.3-1 .8 0 1.5.3 2.2.8V89c-.7-.3-1.5-.5-2.4-.5-1.5 0-2.8.5-3.8 1.5z"
          fill-rule="evenodd" clip-rule="evenodd" fill="#282727"/>
</svg>