<svg xmlns="http://www.w3.org/2000/svg" width="135" height="32"><path fill="#212121" d="M14.382 8.618c.185 0 .37.071.512.213l4.6 4.609a7.253 7.253 0 01.001 10.242l-7.666 7.682a2.163 2.163 0 01-3.067 0l-2.045-2.05a.722.722 0 010-1.023l6.133-6.146 2.555-2.56a1.45 1.45 0 000-2.049l-3.578-3.585a2.176 2.176 0 010-3.073l2.043-2.047a.722.722 0 01.512-.213zm4.592 6.426a6.152 6.152 0 01-1.781 4.798l-.766.767-8.178 8.195 1.533 1.536a.721.721 0 001.023 0l7.667-7.682a5.809 5.809 0 00.502-7.614zM11.317 0c.555 0 1.109.213 1.533.636l2.044 2.05a.722.722 0 010 1.023l-8.688 8.706a1.45 1.45 0 000 2.049l3.578 3.583c.847.85.847 2.224 0 3.073l-2.045 2.05a.718.718 0 01-1.023-.001l-2.3-2.304-2.298-2.305a7.25 7.25 0 010-10.242L9.784.636A2.163 2.163 0 0111.317 0zm23.529 8.642a7.19 7.19 0 011.66.205c.575.137 1.018.315 1.334.535.287.178.43.369.43.574 0 .124-.049.291-.143.504a2.685 2.685 0 01-.329.555c-.123.158-.232.236-.328.236-.07 0-.213-.062-.43-.186l-.164-.061a4.494 4.494 0 00-1.968-.453c-.766 0-1.365.178-1.795.534-.43.357-.646.837-.646 1.439 0 .41.102.749.309 1.016.205.267.464.485.778.658.314.171.751.36 1.312.566l.225.081c.807.315 1.466.62 1.98.915.513.295.95.72 1.311 1.275.363.554.545 1.263.545 2.127 0 .89-.198 1.643-.595 2.26a3.816 3.816 0 01-1.63 1.407c-.691.322-1.473.484-2.348.484a8.988 8.988 0 01-2.355-.286c-.711-.19-1.25-.43-1.62-.72-.287-.205-.43-.403-.43-.596 0-.136.05-.31.154-.515.101-.205.225-.39.368-.554.144-.164.256-.247.338-.247.054 0 .12.02.194.061l.256.144.02.02.081.042c.423.205.859.383 1.303.534.445.151.953.226 1.528.226.724 0 1.32-.187 1.784-.566.464-.376.696-.9.696-1.572 0-.439-.12-.808-.359-1.11a2.757 2.757 0 00-.893-.729c-.355-.185-.847-.4-1.477-.647a4.054 4.054 0 01-.194-.082 1.475 1.475 0 01-.194-.103l-.062-.02c-.696-.288-1.268-.571-1.713-.853-.444-.28-.816-.682-1.117-1.202-.302-.52-.452-1.185-.452-1.993 0-.794.198-1.485.595-2.074.396-.59.947-1.04 1.651-1.356.704-.315 1.5-.473 2.39-.473zm41.835.002a9.07 9.07 0 011.99.216c.641.144 1.155.325 1.538.544.341.192.513.383.513.574 0 .124-.05.302-.154.535a2.547 2.547 0 01-.368.605c-.144.171-.263.257-.36.257-.041 0-.15-.042-.328-.124a7.642 7.642 0 00-1.2-.493c-.43-.136-.966-.205-1.609-.205-1.517 0-2.638.434-3.362 1.305-.724.871-1.087 2.244-1.087 4.12 0 1.85.36 3.22 1.076 4.11.719.89 1.822 1.336 3.312 1.336.642 0 1.199-.075 1.67-.226.472-.15.933-.342 1.385-.576.205-.11.341-.164.41-.164.124 0 .252.082.39.247.136.164.249.357.338.575.089.22.132.376.132.473 0 .247-.225.5-.676.76-.425.232-.964.425-1.62.574a9.11 9.11 0 01-2.031.226c-2.268.002-3.943-.593-5.023-1.786-1.08-1.19-1.62-3.047-1.62-5.569 0-4.876 2.228-7.314 6.684-7.314zm-10.437.143c.164 0 .28.058.349.175.069.116.103.305.103.565v.411c0 .26-.034.45-.103.566-.07.116-.185.174-.349.174h-3.712v12.02c0 .342-.314.515-.944.515h-.308c-.628 0-.942-.171-.942-.515v-12.02h-3.752a.376.376 0 01-.338-.174c-.076-.117-.112-.306-.112-.566v-.41c0-.26.038-.45.112-.566a.374.374 0 01.338-.175h9.658zm20.753-.042c.615 0 .924.171.924.515v5.59h6.89V9.26c0-.342.308-.515.923-.515h.328c.628 0 .944.171.944.515v13.438c0 .342-.314.515-.944.515h-.328c-.615 0-.924-.171-.924-.515V16.76h-6.89v5.938c0 .342-.308.515-.923.515h-.328c-.63 0-.944-.171-.944-.515V9.26c0-.342.314-.515.944-.515h.328zm-38.571 0c.546 0 .854.117.923.35l4.758 13.438a.856.856 0 01.062.307c0 .247-.309.37-.924.37h-.368c-.534 0-.84-.117-.922-.35l-1.087-3.124h-5.68l-1.066 3.124c-.082.233-.369.35-.862.35h-.309c-.658.003-.985-.12-.985-.368 0-.055.013-.144.042-.267l.02-.062 4.757-13.418c.082-.233.39-.35.922-.35h.719zm69.269 0c.628 0 .944.171.944.515v12.02h5.29c.164 0 .284.058.36.175.074.116.112.305.112.565v.41c0 .26-.038.45-.112.566-.076.117-.194.175-.36.175h-6.807c-.249 0-.423-.051-.525-.155-.103-.103-.154-.278-.154-.523V9.26c0-.342.314-.515.943-.515h.309zm-6.852.042c.178 0 .302.058.369.175.069.116.103.305.103.565v.411c0 .26-.034.45-.103.566-.07.116-.193.174-.369.174h-5.637v4.191h5.044c.178 0 .301.058.368.175.07.116.104.305.104.565v.411c0 .26-.035.45-.104.565-.069.117-.192.175-.368.175h-5.044v4.52h5.66c.177 0 .3.058.367.175.07.116.102.305.102.565v.41c0 .26-.034.45-.102.566-.068.117-.192.175-.368.175h-7.176c-.247 0-.421-.051-.525-.155-.101-.103-.154-.278-.154-.523V9.465c0-.247.05-.421.154-.523.104-.102.278-.155.523-.155h7.156zM4.525 14.473a4.725 4.725 0 00.913 5.367l1.79 1.793 1.532-1.537a.724.724 0 000-1.023l-3.578-3.588a2.888 2.888 0 01-.657-1.012zm43.552-3.282h-.041l-.042.124a6.635 6.635 0 01-.113.565c-.047.198-.1.38-.154.545L45.84 17.85h4.368l-1.866-5.424a4.61 4.61 0 01-.143-.545 9.466 9.466 0 01-.102-.585.23.23 0 01-.02-.104zm-33.693-.826l-1.534 1.537a.72.72 0 00-.212.513.72.72 0 00.212.512l3.579 3.586c.295.296.515.643.655 1.014a4.725 4.725 0 00-.911-5.369l-1.79-1.793zm-3.067-8.918a.723.723 0 00-.512.213L3.14 9.342c-2.07 2.076-2.237 5.345-.504 7.616a6.149 6.149 0 011.782-4.798l.001-.002 3.32-3.327 5.624-5.635L11.83 1.66a.721.721 0 00-.512-.213zm119.386 7.33c.347 0 .52.092.52.278v3.694a.987.987 0 00.562.915c.18.089.383.134.615.134.23 0 .435-.045.615-.134.18-.09.32-.215.42-.373.1-.158.15-.34.15-.542V9.056c0-.185.172-.278.519-.278h.285c.346 0 .518.093.518.278v3.782c0 .666-.22 1.182-.658 1.55-.44.367-1.056.55-1.853.55-.796 0-1.408-.185-1.847-.553-.44-.367-.659-.883-.659-1.549V9.055c0-.186.173-.279.52-.279h.293zm-3.01.02c.092 0 .158.034.2.103.04.07.06.18.06.33v.268c0 .151-.02.26-.06.33-.04.068-.108.103-.2.103h-2.052v1.258h1.818c.092 0 .158.035.2.104.04.069.06.18.06.329v.269c0 .15-.02.26-.06.329-.04.07-.108.104-.2.104h-1.818v1.405h2.06c.092 0 .157.035.199.104.04.069.06.18.06.329v.269c0 .15-.02.26-.06.329-.04.07-.107.104-.2.104h-3.046c-.12.003-.209-.024-.263-.079-.055-.054-.082-.143-.082-.265V9.142c0-.122.027-.21.082-.264.054-.054.143-.082.264-.082h3.038z"/></svg>