<?xml version="1.0" encoding="utf-8"?>
<!-- Generator: Adobe Illustrator 21.0.0, SVG Export Plug-In . SVG Version: 6.00 Build 0)  -->
<svg version="1.1" id="Layer_1" xmlns="http://www.w3.org/2000/svg" xmlns:xlink="http://www.w3.org/1999/xlink" x="0px" y="0px"
	 viewBox="0 0 706 156" style="enable-background:new 0 0 706 156;" xml:space="preserve">
<style type="text/css">
	.st0{fill:url(#Shape_1_);}
	.st1{fill:url(#Shape_2_);}
	.st2{fill:url(#Shape_3_);}
	.st3{fill:url(#Shape_4_);}
	.st4{fill:url(#Shape_5_);}
	.st5{fill:url(#Shape_6_);}
	.st6{fill:url(#Shape_7_);}
	.st7{fill:url(#Shape_8_);}
	.st8{fill:url(#Shape_9_);}
</style>
<linearGradient id="Shape_1_" gradientUnits="userSpaceOnUse" x1="275.4333" y1="121.9333" x2="275.4333" y2="38.9332" gradientTransform="matrix(1 0 0 -1 0 158.6667)">
	<stop  offset="0" style="stop-color:#3A9CF2"/>
	<stop  offset="1" style="stop-color:#30D3BB"/>
</linearGradient>
<path id="Shape_60_" class="st0" d="M276.6,36.7c-6.5,0-12.9,1.8-18,4.8v-3.7h-15.8v81.9h15.8V96c5.2,2.9,11.4,4.7,18,4.7
	c17.3,0,31.4-12.9,31.4-31.9C308,49.3,293.9,36.7,276.6,36.7z M273.8,86.4c-6.1,0-11.4-1.9-15.2-5.2V56.3c3.9-3.3,9.3-5.4,15.2-5.4
	c10.6,0,18.6,7.6,18.6,17.8C292.4,79.3,284.4,86.4,273.8,86.4z"/>
<linearGradient id="Shape_2_" gradientUnits="userSpaceOnUse" x1="340.7833" y1="122.0333" x2="340.7833" y2="57.9176" gradientTransform="matrix(1 0 0 -1 0 158.6667)">
	<stop  offset="0" style="stop-color:#3A9CF2"/>
	<stop  offset="1" style="stop-color:#30D3BB"/>
</linearGradient>
<path id="Shape_59_" class="st1" d="M357.3,37.8v3.9c-5.2-3.1-11.6-5.1-18.1-5.1c-19.4,0-30.8,15.5-30.8,32.1
	c0,16.5,11.4,32.1,30.8,32.1c6.8,0,13-2,18.1-5.5v4.6h15.8v-62L357.3,37.8L357.3,37.8z M357.3,81.2c-3.9,3.3-9.2,5.3-15.3,5.3
	c-11.2,0-18.4-8.4-18.4-17.8c0-9.2,7.1-17.7,18.4-17.7c6,0,11.4,2,15.3,5.4V81.2z"/>
<linearGradient id="Shape_3_" gradientUnits="userSpaceOnUse" x1="407.2333" y1="120.8333" x2="407.2333" y2="37.3333" gradientTransform="matrix(1 0 0 -1 0 158.6667)">
	<stop  offset="0" style="stop-color:#3A9CF2"/>
	<stop  offset="1" style="stop-color:#30D3BB"/>
</linearGradient>
<path id="Shape_58_" class="st2" d="M424.1,37.8l-16,42.1H407l-16.3-42.1H374l24.2,62h1.4c-3.5,7.2-11.2,9.4-19.8,9.4h-1.7l-1.9,12
	c1.7,0.1,3.5,0.1,5.6,0.1c13,0,27.6-4.1,33.1-18.2l25.5-65.3H424.1z"/>
<linearGradient id="Shape_4_" gradientUnits="userSpaceOnUse" x1="461.7834" y1="121.9333" x2="461.7834" y2="57.9333" gradientTransform="matrix(1 0 0 -1 0 158.6667)">
	<stop  offset="0" style="stop-color:#3A9CF2"/>
	<stop  offset="1" style="stop-color:#30D3BB"/>
</linearGradient>
<path id="Shape_57_" class="st3" d="M435.9,94.8c9.1,4.5,16.1,5.9,26.8,5.9c15.9,0,24.9-7.7,24.9-19.5c0-11.3-8.3-16.3-22.7-19.3
	c-9.9-2.1-13.7-3.6-13.7-7.1c0-3.3,3.1-5.5,9.1-5.5c6.1,0,13.2,1.7,19.3,4l5.2-11.6c-6.7-2.8-14.5-5-24.2-5
	c-14.4,0-23.6,7.7-23.6,18.9c0,12,9.7,16.3,23,19.3c9.6,2,13.1,3.7,13.1,7.2c0,3.2-2.8,5.9-10.2,5.9c-7.7,0-13.6-1.7-21.2-5
	L435.9,94.8z"/>
<linearGradient id="Shape_5_" gradientUnits="userSpaceOnUse" x1="509.2334" y1="144.9333" x2="509.2334" y2="58.0334" gradientTransform="matrix(1 0 0 -1 0 158.6667)">
	<stop  offset="0" style="stop-color:#3A9CF2"/>
	<stop  offset="1" style="stop-color:#30D3BB"/>
</linearGradient>
<path id="Shape_56_" class="st4" d="M530.2,50.9V37.8h-17.3V13.7H497v24.1h-8.8v13.1h8.8v30.2c0,13,8.3,19.5,18.7,19.5
	c8.9,0,13.7-2,14.4-2.3V86.5c-2.2,0.2-4.6,0.6-7.3,0.6c-8,0-9.9-3.2-9.9-14.3V50.9L530.2,50.9L530.2,50.9z"/>
<linearGradient id="Shape_6_" gradientUnits="userSpaceOnUse" x1="556.5833" y1="121.9332" x2="556.5833" y2="58.8333" gradientTransform="matrix(1 0 0 -1 0 158.6667)">
	<stop  offset="0" style="stop-color:#3A9CF2"/>
	<stop  offset="1" style="stop-color:#30D3BB"/>
</linearGradient>
<path id="Shape_55_" class="st5" d="M552.8,37.8h-15.9v62h15.9V69.9c0-8.1,4.3-16.2,15.7-16.2c3.3,0,7.7,0.9,7.7,0.9V37.4
	c-1.3-0.4-2.7-0.7-3.9-0.7c-8.8,0.1-15.3,4-19.5,9.8V37.8L552.8,37.8z"/>
<linearGradient id="Shape_7_" gradientUnits="userSpaceOnUse" x1="606.9333" y1="121.9333" x2="606.9333" y2="57.9333" gradientTransform="matrix(1 0 0 -1 0 158.6667)">
	<stop  offset="0" style="stop-color:#3A9CF2"/>
	<stop  offset="1" style="stop-color:#30D3BB"/>
</linearGradient>
<path id="Shape_54_" class="st6" d="M637.7,73.3c0-1,0.1-2.3,0.1-3.5c0-19.3-11.1-33.1-30.1-33.1C589,36.7,576,50.9,576,68.8
	c0,17.7,13,31.9,31.7,31.9c12.1,0,22.2-5,28-12.8l-10.2-8.4c-3.5,4.7-9.5,7.7-16,7.7c-9.5,0-15.9-5.7-17.7-13.8L637.7,73.3
	L637.7,73.3z M607.7,49.3c10.6,0,14.3,6.8,14.9,13.8h-30.7C593.5,55.5,599.4,49.3,607.7,49.3z"/>
<linearGradient id="Shape_8_" gradientUnits="userSpaceOnUse" x1="669.1333" y1="121.9333" x2="669.1333" y2="57.9333" gradientTransform="matrix(1 0 0 -1 0 158.6667)">
	<stop  offset="0" style="stop-color:#3A9CF2"/>
	<stop  offset="1" style="stop-color:#30D3BB"/>
</linearGradient>
<path id="Shape_53_" class="st7" d="M699.9,73.3c0-1,0.1-2.3,0.1-3.5c0-19.3-11.1-33.1-30.1-33.1c-18.8,0-31.7,14.2-31.7,32.1
	c0,17.7,13,31.9,31.7,31.9c12.1,0,22.2-5,27.9-12.8l-10.1-8.4c-3.5,4.7-9.5,7.7-16,7.7c-9.5,0-15.9-5.7-17.7-13.8L699.9,73.3
	L699.9,73.3z M670,49.3c10.6,0,14.3,6.8,14.9,13.8h-30.7C655.7,55.5,661.6,49.3,670,49.3z"/>
<linearGradient id="Shape_9_" gradientUnits="userSpaceOnUse" x1="97.6333" y1="155.6334" x2="97.6333" y2="6.3335" gradientTransform="matrix(1 0 0 -1 0 158.6667)">
	<stop  offset="0" style="stop-color:#3A9CF2"/>
	<stop  offset="1" style="stop-color:#30D3BB"/>
</linearGradient>
<path id="Shape_52_" class="st8" d="M51.1,35.8V3h75.6c35.6,0,64.5,28.9,64.5,64.6c0,35.6-28.9,64.6-64.6,64.6H91.3v20.1H51v-14
	l0.2-0.2L4,90.9l7.1-7.1L51,123.7v-14.6l0.2-0.2L14,71.7l7.1-7.1L51,94.4V79.9l0.2-0.2L24.1,52.6l7.1-7.1L51,65.3V50.7l0.2-0.2
	l-17-17l7.1-7.1L51.1,35.8z M121.7,37.3H91.4v46.3l-40.1,40.1l7.1,7.1l33.1-33.1h30.2c16.7,0,30.2-13.5,30.2-30.2
	S138.4,37.3,121.7,37.3z M51.3,94.5l7.1,7.1l30.1-30c-2.4-2.4-4.8-4.8-7.1-7.1L51.3,94.5z M51.3,65.3l7.1,7.1l20-20
	c-2.4-2.4-4.7-4.7-7.1-7.1L51.3,65.3z M51.3,36.1l7.1,7.1l9.9-9.9c-2.4-2.4-4.8-4.7-7.1-7.1L51.3,36.1z"/>
</svg>
