<?xml version="1.0" encoding="UTF-8"?>
<svg width="60px" height="18px" viewBox="0 0 60 18" version="1.1" xmlns="http://www.w3.org/2000/svg" xmlns:xlink="http://www.w3.org/1999/xlink">
    <!-- Generator: Sketch 64 (93537) - https://sketch.com -->
    <title>jeton-logo (1)</title>
    <desc>Created with Sketch.</desc>
    <g id="Withdraw---Add-Card" stroke="none" stroke-width="1" fill="none" fill-rule="evenodd">
        <g id="jeton-logo-(1)" fill="#FFFFFF" fill-rule="nonzero">
            <path d="M11.3382353,0.330882353 L8.07352944,0.330882353 C8.00735292,0.330882353 7.94117646,0.397058824 7.94117646,0.463235294 L7.94117646,0.683823528 L7.94117646,12.0220588 C7.94117646,12.8382353 7.52205882,13.5882353 6.79411764,13.9852941 C6.50735292,14.1397059 6.17647056,14.2279412 5.84558824,14.2279412 L5.77941176,14.2279412 C5.05147059,14.2279412 4.34558824,13.8529412 3.94852941,13.2573529 C3.75,12.9264706 3.63970588,12.5514706 3.63970588,12.1764706 C3.63970588,12.1102941 3.57352941,12.0441176 3.50735294,12.0441176 L0.176470588,12.0441176 C0.132352941,12.0441176 0.0661764708,12.0661765 0.0441176471,12.1102941 C0.0220588235,12.1102941 0,12.1544117 0,12.1985294 C0.0882352944,15.3088235 2.625,17.7573529 5.71323529,17.7573529 L5.82352941,17.7573529 C8.93382354,17.7352941 11.4705883,15.1764706 11.4705883,12.0220588 L11.4705883,0.463235294 C11.4705883,0.397058824 11.4044117,0.330882353 11.3382353,0.330882353 L11.3382353,0.330882353 L11.3382353,0.330882353 Z" id="Path"></path>
            <path d="M47.1617647,8.93382354 C46.5661765,7.45588236 45.3970588,6.2647059 43.8970588,5.64705883 C42.3088235,5.00735294 40.5441176,5.00735294 38.9779412,5.64705883 C38.2279412,5.93382353 37.5661765,6.39705882 36.9926471,6.94852944 C36.4411765,7.52205882 36.0220588,8.18382354 35.7352941,8.91176472 C35.4264706,9.70588236 35.25,10.5441176 35.2720588,11.3823529 C35.2720588,12.2426471 35.4264706,13.0808824 35.7352941,13.875 C36.0220588,14.6029412 36.4411765,15.2867647 36.9926471,15.8602941 C37.5661765,16.4338235 38.2279412,16.875 38.9779412,17.1617647 C40.5661765,17.7794117 42.3088235,17.7794117 43.8970588,17.1617647 C44.625,16.8529412 45.2867647,16.4117647 45.8602941,15.8602941 C46.4117647,15.2867647 46.8529412,14.625 47.1617647,13.875 C47.4705883,13.0808824 47.625,12.2426471 47.625,11.3823529 C47.6470588,10.5661765 47.4705883,9.72794118 47.1617647,8.93382354 L47.1617647,8.93382354 Z M39.6617647,9.17647056 C39.8823529,8.95588236 40.1470588,8.77941174 40.4558824,8.66911764 C41.0955883,8.42647056 41.8014706,8.42647056 42.4411765,8.66911764 C42.75,8.77941174 43.0147059,8.97794118 43.2573529,9.19852944 C43.5,9.46323528 43.6985294,9.77205882 43.8308824,10.1029412 C44.1176471,10.9632353 44.1176471,11.8897059 43.8308824,12.75 L43.8308824,12.75 C43.6985294,13.1029412 43.5,13.4117647 43.2573529,13.6764706 C43.0367647,13.9191176 42.75,14.0955883 42.4411765,14.2279412 C41.8014706,14.4705883 41.0955883,14.4705883 40.4779412,14.2279412 C40.1691176,14.0955883 39.9044117,13.9191176 39.6838235,13.6764706 C39.4411765,13.4117647 39.2426471,13.1029412 39.1102941,12.75 C38.8014706,11.9117647 38.8014706,10.9852941 39.1102941,10.125 C39.2205883,9.77205882 39.3970588,9.44117646 39.6617647,9.17647056 Z" id="Shape"></path>
            <path d="M60,10.1470588 L60,17.625 C60,17.6911765 59.9338235,17.7573529 59.8676471,17.7573529 L60,17.7573529 L56.6029412,17.7573529 C56.5367647,17.7573529 56.4705883,17.6911765 56.4705883,17.625 L56.4705883,17.625 L56.4705883,10.7426471 C56.4926471,10.4338235 56.4485294,10.125 56.3823529,9.81617646 C56.2941176,9.55147056 56.1397059,9.28676472 55.9411765,9.08823528 C55.8529412,9.02205882 55.7867647,8.93382354 55.6985294,8.8897059 C55.4117647,8.69117646 54.8823529,8.60294118 54.5514706,8.60294118 C53.9338235,8.60294118 53.3823529,8.91176472 53.0294117,9.41911764 C52.8970588,9.61764708 52.8308824,9.83823528 52.7867647,10.0808824 C52.7426471,10.2794117 52.7426471,10.4558824 52.7426471,10.6544117 C52.7426471,10.6764706 52.7426471,10.7205883 52.7426471,10.7426471 L52.7426471,17.625 C52.7426471,17.6911765 52.6764706,17.7573529 52.6102941,17.7573529 L52.6102941,17.7573529 L49.3455883,17.7573529 C49.2794117,17.7573529 49.2132353,17.6911765 49.2132353,17.625 L49.2132353,17.625 L49.2132353,5.53676471 C49.2132353,5.47058824 49.2794117,5.40441176 49.3455883,5.40441176 L49.3235294,5.40441176 L52.6102941,5.40441176 C52.6985294,5.40441176 52.7426471,5.47058824 52.7426471,5.53676471 L52.7426471,5.53676471 L52.7426471,6.15441174 C52.7426471,6.17647056 52.7426471,6.19852944 52.7647059,6.22058826 C52.7867647,6.24264708 52.8088235,6.24264708 52.8308824,6.22058826 C53.0294117,6.06617646 53.25,5.93382353 53.4705883,5.84558824 C54.75,5.27205883 56.1838235,5.25 57.5073529,5.75735294 C58.0588235,6 58.5441176,6.35294118 58.9191176,6.81617646 C59.2941176,7.25735292 59.5808824,7.78676472 59.7352941,8.33823528 C59.9117647,8.93382354 60,9.52941174 60,10.1470588 Z" id="Path"></path>
            <path d="M33.6176471,5.40441176 L31.6764706,5.40441176 C31.6102941,5.40441176 31.5441176,5.33823529 31.5441176,5.27205883 L31.5441176,5.27205883 L31.5441176,5.27205883 L31.5441176,0.463235294 C31.5441176,0.397058824 31.4779412,0.330882353 31.4117647,0.330882353 L28.1470588,0.330882353 C28.0808824,0.330882353 28.0147059,0.397058824 28.0147059,0.463235294 L28.0147059,0.0661764708 L28.0147059,5.05147059 C28.0147059,5.11764706 27.9485294,5.18382353 27.8823529,5.18382353 L26.8235294,5.18382353 C26.7573529,5.18382353 26.6911765,5.25 26.6911765,5.31617647 L26.6911765,5.31617647 L26.6911765,8.3602941 C26.6911765,8.44852944 26.7573529,8.49264708 26.8235294,8.49264708 L27.8823529,8.49264708 C27.9485294,8.49264708 28.0147059,8.55882354 28.0147059,8.625 L28.0147059,8.625 L28.0147059,12.7058824 C28.0147059,15.4411765 30.1985294,17.6691176 32.9117647,17.6691176 C33.1544117,17.6691176 33.3970588,17.6470588 33.6397059,17.625 C33.7058824,17.6029412 33.75,17.5588235 33.75,17.4926471 L33.75,14.1397059 C33.75,14.0735294 33.6838235,14.0073529 33.6176471,14.0073529 L33.6176471,14.0073529 L32.8455883,14.0073529 C32.2058824,14.0073529 31.6102941,13.5441176 31.5441176,12.8823529 C31.5441176,12.8382353 31.5441176,12.7720588 31.5441176,12.7279412 L31.5441176,8.84558826 C31.5441176,8.75735292 31.6102941,8.71323528 31.6764706,8.71323528 L33.6176471,8.71323528 C33.6838235,8.71323528 33.75,8.64705882 33.75,8.58088236 L33.75,8.58088236 L33.75,5.55882353 C33.75,5.47058824 33.6838235,5.40441176 33.6176471,5.40441176 L33.6176471,5.40441176 Z" id="Path"></path>
            <path d="M22.9852941,6.59558826 C22.9411765,6.55147056 22.875,6.50735292 22.8088235,6.46323528 C21.5294117,5.53676471 19.9191176,5.13970588 18.375,5.40441176 L18.2867647,5.40441176 C17.7573529,5.47058824 17.2279412,5.60294117 16.7426471,5.80147059 C16.0147059,6.1102941 15.3529412,6.55147056 14.8014706,7.10294118 C14.25,7.65441174 13.8088235,8.33823528 13.5,9.06617646 C13.1911765,9.8602941 13.0367647,10.6985294 13.0367647,11.5367647 C13.0367647,12.375 13.1911765,13.2132353 13.5,14.0073529 C13.7867647,14.7352941 14.2279412,15.4191176 14.7794117,15.9705883 C15.3308824,16.5220588 15.9926471,16.9632353 16.7426471,17.2720588 C17.4485294,17.5588235 18.1764706,17.7132353 18.9264706,17.7352941 C19.1029412,17.7352941 19.2794117,17.7573529 19.4779412,17.7573529 L19.875,17.7573529 C21.75,17.625 23.4485294,16.6102941 24.4632353,15.0441176 C24.4852941,15.0220588 24.4852941,14.9779412 24.4852941,14.9558824 C24.4852941,14.9338235 24.4632353,14.8897059 24.4411765,14.8897059 C24.4411765,14.8676471 24.4191176,14.8676471 24.3970588,14.8676471 L21.4852941,14.0514706 L21.4852941,14.0514706 C21.4191176,14.0294117 21.3308824,14.0073529 21.2426471,14.0294117 C21.1544117,14.0514706 21.0441176,14.0955883 20.9779412,14.1397059 L20.9558824,14.1617647 C20.25,14.625 19.3676471,14.7132353 18.5735294,14.4264706 C18.5514706,14.4264706 18.5514706,14.4044117 18.5294117,14.4044117 C17.8014706,14.1176471 17.2279412,13.5220588 16.9852941,12.7720588 C16.9852941,12.75 16.9852941,12.7058824 16.9852941,12.7058824 C17.0073529,12.6838235 17.0073529,12.6838235 17.0294117,12.6838235 L24.6838235,12.6838235 C24.7279412,12.6838235 24.7941176,12.6617647 24.7941176,12.5955883 C25.1470588,11.3823529 25.0808824,10.1029412 24.6176471,8.95588236 C24.2867647,8.02941174 23.7132353,7.2352941 22.9852941,6.59558826 Z M21.375,9.81617646 L17.0073529,9.81617646 C17.0294117,9.75 17.0514706,9.68382354 17.0955883,9.61764708 L17.0955883,9.61764708 L17.1176471,9.57352944 C17.2058824,9.46323528 17.2941176,9.33088236 17.3823529,9.24264708 C17.6029412,9 17.8676471,8.82352944 18.1764706,8.71323528 C18.8161765,8.47058826 19.5220588,8.47058826 20.1617647,8.71323528 C20.6470588,8.91176472 21.0441176,9.24264708 21.3308824,9.68382354 C21.3308824,9.72794118 21.3529412,9.77205882 21.375,9.81617646 Z" id="Shape"></path>
        </g>
    </g>
</svg>