<svg preserveAspectRatio="xMidYMid meet" data-bbox="0 0 447.098 55.731" viewBox="0 0 447.098 55.731" height="55.73" width="447.098" xmlns="http://www.w3.org/2000/svg" data-type="color" role="img" aria-labelledby="svgcid-mifv19y30k12"><title id="svgcid-mifv19y30k12">Globalnetint</title>
    <g>
        <path d="M25.067 3.52C11.134 3.52 0 12.711 0 29.589 0 46.61 8.027 55.73 23.858 55.73c6.89 0 13.708-1.939 19.085-5.242V25.855H22.872l1.211 8.331H30.9v11.276c-2.2 1.148-4.543 1.65-7.121 1.65-7.271 0-10.904-4.453-10.904-17.523 0-12.354 5.454-17.524 12.8-17.524 4.242 0 7.119 1.223 10.527 3.949l6.437-6.392C38.324 6.031 32.642 3.52 25.067 3.52m37.567 40.29V0L50.667 1.221V44.96c0 7.036 3.938 10.771 10.602 10.771 2.803 0 5.683-.499 7.725-1.293l-2.347-8.044c-.529.217-1.363.36-1.972.36-1.284 0-2.041-.79-2.041-2.944m27.567-28.656c-12.269 0-19.691 8.042-19.691 20.252 0 12.854 7.496 20.324 19.691 20.324 12.269 0 19.692-8.044 19.692-20.252 0-12.854-7.423-20.324-19.692-20.324m0 8.332c4.847 0 7.271 3.518 7.271 11.993 0 8.259-2.424 11.921-7.271 11.921-4.846 0-7.269-3.519-7.269-11.993.001-8.261 2.423-11.921 7.269-11.921m49.38-8.332c-4.091 0-8.182 1.938-10.603 5.098V0l-11.967 1.221v53.29h10.604l.604-3.663c2.426 3.017 6.06 4.883 10.53 4.883 9.999 0 15.978-8.474 15.978-20.252 0-12.784-5.225-20.325-15.146-20.325m-4.242 32.318c-2.575 0-4.845-1.364-6.361-3.662V27.939c1.741-2.801 4.014-4.453 6.893-4.453 3.71 0 6.437 2.296 6.437 11.993 0 8.906-2.878 11.993-6.969 11.993m58.849-4.022V28.656c0-8.834-4.998-13.501-16.661-13.501-4.545 0-10.076 1.003-15.148 2.799l2.726 7.47c4.014-1.292 7.953-2.01 10.526-2.01 4.922 0 6.818 1.365 6.818 5.889v1.65h-4.091c-12.195 0-18.859 4.526-18.859 12.857 0 6.968 5.076 11.921 13.101 11.921 4.772 0 9.24-1.506 12.122-5.744 1.816 3.805 4.92 5.17 9.693 5.529l2.499-7.399c-1.896-.645-2.726-1.723-2.726-4.667m-18.099 4.164c-2.955 0-4.696-1.795-4.696-4.811 0-3.807 2.648-5.602 8.102-5.602h2.955v6.752c-1.441 2.298-3.562 3.661-6.361 3.661m39.228-3.804V0L203.35 1.221V44.96c0 7.036 3.938 10.771 10.603 10.771 2.803 0 5.683-.499 7.728-1.293l-2.35-8.044c-.53.217-1.363.36-1.966.36-1.288 0-2.048-.79-2.048-2.944" fill="#0071FE" data-color="1"></path>
        <path d="M343.488 53.405V2.71h-11.339v20.486c0 8.119 1.002 14.775 1.697 18.869L318.029 2.71h-15.735v50.695h11.263v-18.58c0-9.364-1.004-16.094-1.618-20.703l15.425 39.283h16.124zm45.438-20.188c0-12.583-7.173-19.898-18.9-19.898-12.419 0-19.131 9.216-19.131 20.849 0 12.145 6.942 20.485 20.597 20.485 6.637 0 11.88-2.342 15.971-5.416l-5.014-6.438c-3.551 2.341-6.479 3.439-9.799 3.439-5.017 0-8.484-1.903-9.335-8.853h25.38c.155-1.169.231-2.924.231-4.168m-11.958-2.781h-13.653c.54-6.949 2.931-9.437 7.021-9.437 4.859 0 6.556 3.659 6.632 8.926v.511zm44.67 21.142l-4.089-7.388c-1.621.949-3.01 1.316-4.396 1.316-2.549 0-3.86-1.316-3.86-5.048v-17.85h8.103l1.31-8.046h-9.412v-9.73L397.103 6.15v8.413h-5.784v8.046h5.784v17.996c0 9.146 4.4 13.974 13.426 14.048 3.7-.001 8.019-1.026 11.109-3.075" fill="#6AB437" data-color="2"></path>
        <path d="M421.156 27.678h-2.929v10.854h2.929V27.678zm14.145 10.854V27.678h-2.625v4.386c0 1.739.234 3.163.391 4.042l-3.656-8.428h-3.641v10.854h2.604v-3.978c0-2.006-.231-3.448-.374-4.433l3.569 8.411h3.732zm11.512-8.882l.285-1.972h-9.458v1.972h3.195v8.882h2.925V29.65h3.053z" fill="#6AB437" data-color="2"></path>
        <path d="M266.778 14.962h16.41l-4.173 30.906c-.674 4.979-4.111 9.134-9.135 9.134h-16.412l4.176-30.909c.673-4.979 4.11-9.131 9.134-9.131" fill="#0071FE" clip-rule="evenodd" fill-rule="evenodd" data-color="1"></path>
        <path d="M254.35 9.438h16.409l-4.171 30.907c-.674 4.979-4.113 9.134-9.132 9.134h-16.412l4.175-30.908c.674-4.978 4.109-9.133 9.131-9.133" fill="#6AB437" clip-rule="evenodd" fill-rule="evenodd" data-color="2"></path>
    </g>
</svg>